<svg width="58" height="58" viewBox="0 0 58 58" fill="none" xmlns="http://www.w3.org/2000/svg">
<circle cx="30.375" cy="27.625" r="27" fill="#1CB5FF"/>
<circle cx="27" cy="31" r="27" fill="#263238"/>
<path fill-rule="evenodd" clip-rule="evenodd" d="M17.5671 22.2595C17.5671 24.936 15.3974 27.1057 12.721 27.1057C11.9777 27.1057 11.2735 26.9384 10.644 26.6393V22.0283C10.644 21.0134 11.4748 20.1826 12.4897 20.1826H17.1008C17.3998 20.8121 17.5671 21.5163 17.5671 22.2595ZM10.644 28.1358V40.4908C10.644 41.5057 11.4748 42.3365 12.4897 42.3365H34.6436C35.6585 42.3365 36.4907 41.5057 36.4907 40.4908V34.0288L43.8748 41.4129V21.1062L36.4907 28.4903V22.0283C36.4907 21.0134 35.6585 20.1826 34.6436 20.1826H18.5972C18.8268 20.8322 18.9517 21.5313 18.9517 22.2595C18.9517 25.7007 16.1621 28.4903 12.721 28.4903C11.9927 28.4903 11.2937 28.3654 10.644 28.1358Z" fill="#EFF8FD"/>
<path d="M12.9375 28.625C16.2857 28.625 19 25.9107 19 22.5625C19 19.2143 16.2857 16.5 12.9375 16.5C9.58927 16.5 6.875 19.2143 6.875 22.5625C6.875 25.9107 9.58927 28.625 12.9375 28.625Z" fill="#1CB5FF" stroke="#263238" stroke-width="2"/>
</svg>
