<svg width="28" height="33" viewBox="0 0 28 33" fill="none" xmlns="http://www.w3.org/2000/svg">
<path d="M4.66699 18.6234C4.66699 19.419 4.98306 20.1821 5.54567 20.7447L8.58831 23.7873C9.15092 24.3499 9.46699 25.113 9.46699 25.9087V32.666H19.067V25.9087C19.067 25.113 19.3831 24.3499 19.9457 23.7873L22.9883 20.7447C23.5509 20.1821 23.867 19.419 23.867 18.6234V11.866H4.66699V18.6234ZM12.667 0.666016H15.867V5.46602H12.667V0.666016ZM0.666992 6.86602L2.92939 4.60202L6.32139 7.99721L4.05899 10.2612L0.666992 6.86602ZM22.203 8.00202L25.5998 4.61002L27.8622 6.87242L24.467 10.266L22.203 8.00202Z" fill="#038387"/>
</svg>
