<svg width="26" height="32" viewBox="0 0 26 32" fill="none" xmlns="http://www.w3.org/2000/svg">
<path fill-rule="evenodd" clip-rule="evenodd" d="M25.9277 9.63855V13.494V29.5904C25.9277 30.9398 24.8675 32 23.4217 32H2.50602C1.15663 32 0 30.9398 0 29.5904V2.40964C0 1.06024 1.15663 0 2.50602 0H16.2892C16.9639 0 17.5422 0.192771 18.0241 0.674699L25.1566 7.90361C25.6386 8.38554 25.9277 8.96385 25.9277 9.63855ZM2.50589 29.5909H23.4216V9.83184H16.0963V2.41015H2.50589V29.5909Z" fill="#038387"/>
<path d="M17.4201 17.9724V14.8092C17.4201 14.3678 17.0548 14 16.5434 14H5.87671C5.3653 14 5 14.3678 5 14.8092V23.7839C5 24.2253 5.3653 24.6667 5.87671 24.6667H16.5434C17.0548 24.6667 17.4201 24.2253 17.4201 23.7839V20.6207L21 24.2253V14.4414L17.4201 17.9724Z" fill="#038387"/>
</svg>
