<svg width="32" height="27" viewBox="0 0 32 27" fill="none" xmlns="http://www.w3.org/2000/svg">
<path fill-rule="evenodd" clip-rule="evenodd" d="M8.88932 19.5564V17.1653C8.88932 14.9378 13.6324 12.4453 16.0004 12.4453C18.3667 12.4453 23.1115 14.9378 23.1115 17.1653V19.5564H8.88932ZM16.0049 3.55469C17.9765 3.55469 19.5551 5.14402 19.5551 7.11024C19.5551 9.07646 17.9765 10.6658 16.0049 10.6658C14.0351 10.6658 12.444 9.07646 12.444 7.11024C12.444 5.14402 14.0351 3.55469 16.0049 3.55469ZM17.7782 21.3333H32V0H0V21.3333H14.2227V24.888H6.22222C5.73156 24.888 5.33333 25.2862 5.33333 25.7769C5.33333 26.2676 5.73156 26.6658 6.22222 26.6658H25.7778C26.2684 26.6658 26.6667 26.2676 26.6667 25.7769C26.6667 25.2862 26.2684 24.888 25.7778 24.888H17.7782V21.3333Z" fill="#038387"/>
</svg>
