<svg width="31" height="33" viewBox="0 0 31 33" fill="none" xmlns="http://www.w3.org/2000/svg">
<path fill-rule="evenodd" clip-rule="evenodd" d="M10.88 32.5H23.68C27.5622 32.5 30.72 29.341 30.72 25.46V7.54C30.72 3.65776 27.5622 0.5 23.68 0.5H10.88C9.81888 0.5 8.96 1.35888 8.96 2.42C8.96 3.48112 9.81888 4.34 10.88 4.34H23.68C25.4438 4.34 26.88 5.77616 26.88 7.54V25.46C26.88 27.2251 25.4438 28.66 23.68 28.66H10.88C9.81888 28.66 8.96 29.5202 8.96 30.58C8.96 31.6398 9.81888 32.5 10.88 32.5ZM11.9987 22.0974C11.9987 21.684 12.1024 21.3742 12.4122 21.0658L15.6186 17.9707H1.34528C0.6208 17.9707 0 17.2488 0 16.5269C0 15.805 0.6208 15.083 1.34528 15.083H15.6186L12.4122 11.988C12.1024 11.6782 11.9987 11.3685 11.9987 10.9563C11.9987 10.5442 12.1024 10.2344 12.4122 9.92464C12.9293 9.30512 13.8598 9.30512 14.4806 9.92464L20.0666 15.4952C20.3776 15.805 20.48 16.1134 20.48 16.5269C20.48 16.939 20.3776 17.2488 20.0666 17.5586L14.4806 23.1278C14.1709 23.4376 13.8598 23.5413 13.4464 23.5413C13.1366 23.5413 12.7232 23.4376 12.4122 23.1278C12.1024 22.8181 11.9987 22.5096 11.9987 22.0974Z" fill="#038387"/>
</svg>
