<svg width="32" height="32" viewBox="0 0 32 32" fill="none" xmlns="http://www.w3.org/2000/svg">
<path fill-rule="evenodd" clip-rule="evenodd" d="M9.5416 7.75774C9.96008 7.39734 10.0072 6.76593 9.64676 6.34745C9.28635 5.92896 8.65494 5.88188 8.23646 6.24229C5.59234 8.51946 3.38118 12.7792 2.13854 16.3722C1.51297 18.181 1.10072 19.9116 1.01629 21.231C0.975101 21.8747 1.00362 22.5274 1.19995 23.0607C1.30167 23.337 1.46848 23.6362 1.7474 23.8702C2.0429 24.1182 2.40248 24.2403 2.7781 24.2403C3.21038 24.2403 3.57452 24.0599 3.8371 23.8832C4.10893 23.7002 4.3627 23.4598 4.5949 23.2046C5.05981 22.6937 5.54479 22.0043 6.02659 21.2499C6.71908 20.1655 7.46765 18.8448 8.19891 17.5547L8.19902 17.5545C8.48383 17.052 8.76601 16.5542 9.04123 16.0767C10.0314 14.359 10.8989 12.9668 11.553 12.289C11.5598 12.3206 11.5667 12.3542 11.5735 12.3899C11.8117 13.6395 11.7057 15.1322 11.3955 16.7433C11.087 18.3456 10.5923 19.9898 10.1056 21.5284C10.0295 21.7692 9.95301 22.0088 9.87733 22.2461L9.87719 22.2465L9.87717 22.2465C9.47984 23.4917 9.10355 24.671 8.90043 25.6129C8.78042 26.1693 8.69839 26.7367 8.7418 27.2336C8.78494 27.7274 8.98343 28.4009 9.66978 28.7387C10.443 29.1192 11.2452 29.0453 11.934 28.7657C12.6053 28.4932 13.2157 28.0118 13.733 27.4699C14.7643 26.3897 15.6194 24.8641 15.9693 23.4865C16.1053 22.9512 15.7815 22.4071 15.2463 22.2711C14.711 22.1352 14.1668 22.4589 14.0308 22.9942C13.7696 24.0226 13.0913 25.2458 12.2865 26.0888C11.8857 26.5085 11.5024 26.7824 11.1817 26.9126C10.9912 26.9899 10.8462 27.0093 10.7306 26.9962C10.7244 26.7993 10.7578 26.4875 10.8555 26.0345C11.0363 25.1961 11.3755 24.132 11.774 22.8819L11.7745 22.8804C11.8518 22.6377 11.9314 22.388 12.0125 22.1316C12.501 20.5873 13.0271 18.8473 13.3594 17.1214C13.6901 15.4042 13.8449 13.6247 13.5381 12.0154C13.4601 11.606 13.3461 11.2208 13.1677 10.8991C12.9871 10.5738 12.6915 10.2305 12.2263 10.0824C11.759 9.93365 11.3279 10.0479 11.0172 10.2005C10.7121 10.3505 10.4412 10.5747 10.2095 10.8034C9.31665 11.6847 8.28963 13.3759 7.30851 15.0779C7.01469 15.5876 6.72119 16.1054 6.43 16.6192C5.70958 17.8902 5.00325 19.1364 4.34099 20.1734C3.8767 20.9004 3.46437 21.4754 3.11572 21.8585C3.07795 21.9 3.04216 21.9379 3.00838 21.9723C2.99738 21.8123 2.99616 21.6094 3.01221 21.3587C3.08053 20.291 3.43211 18.7509 4.02869 17.0259C5.23036 13.5514 7.2968 9.69101 9.5416 7.75774ZM10.7462 27.1415C10.7461 27.1415 10.7459 27.1407 10.7454 27.1388L10.7462 27.1415ZM2.66187 22.2582L2.66539 22.2567C2.66302 22.2578 2.66186 22.2583 2.66187 22.2582ZM26.7204 7.83039C27.0256 7.52523 27.5681 7.52523 27.9072 7.83039L29.9077 9.83089C30.2128 10.17 30.2128 10.7125 29.9077 11.0176L28.2123 12.713L25.0251 9.52573L26.7204 7.83039ZM24.2113 10.3734L27.3647 13.5267L18.8879 22.0374H15.7007V18.8501L24.2113 10.3734Z" fill="#038387"/>
</svg>
