<svg width="58" height="58" viewBox="0 0 58 58" fill="none" xmlns="http://www.w3.org/2000/svg">
<circle cx="30.875" cy="27.625" r="27" fill="#1CB5FF"/>
<circle cx="27.5" cy="31" r="27" fill="#263238"/>
<path d="M30.616 17H19.248C17.4616 17 16.0162 18.45 16.0162 20.2222L16 42.7778C16 44.55 17.4454 46 19.2318 46H37.112C38.8984 46 40.36 44.55 40.36 42.7778V26.6667L30.616 17ZM19.248 42.7778V20.2222H28.992V28.2778H37.112V42.7778H19.248Z" fill="#EFF8FD"/>
<path fill-rule="evenodd" clip-rule="evenodd" d="M30.8385 34.4726V32.6116C30.8385 32.3193 30.5988 32.0801 30.3066 32.0801H23.9266C23.6343 32.0801 23.395 32.3193 23.395 32.6116V37.9285C23.395 38.2208 23.6343 38.4601 23.9266 38.4601H30.3066C30.5988 38.4601 30.8385 38.2208 30.8385 37.9285V36.0676L32.965 38.1941V32.346L30.8385 34.4726Z" fill="#EFF8FD"/>
</svg>
