<svg width="31" height="32" viewBox="0 0 31 32" fill="none" xmlns="http://www.w3.org/2000/svg">
<path fill-rule="evenodd" clip-rule="evenodd" d="M12.3619 10.6406C15.335 10.6406 17.6039 8.2934 17.6039 5.32029C17.6039 2.42543 15.2567 0 12.3619 0C9.46699 0 7.04156 2.42543 7.04156 5.32029C7.04156 8.2934 9.38875 10.6406 12.3619 10.6406ZM26.8362 24.8802V21.5159C26.8362 21.0465 26.445 20.6553 25.8973 20.6553H14.4743C13.9267 20.6553 13.5355 21.0465 13.5355 21.5159V31.0611C13.5355 31.5306 13.9267 32 14.4743 32H25.8973C26.445 32 26.8362 31.5306 26.8362 31.0611V27.6968L30.6699 31.5306V21.1247L26.8362 24.8802ZM12.3619 12.9095C15.4914 12.9095 20.9682 15.5697 23.4719 18.621H14.4743C12.9095 18.621 11.5795 19.9511 11.5795 21.5159V26.0538H0V21.5941C0 17.4474 8.21516 12.9095 12.3619 12.9095Z" fill="#038387"/>
</svg>
