<svg width="58" height="58" viewBox="0 0 58 58" fill="none" xmlns="http://www.w3.org/2000/svg">
<circle cx="30.375" cy="27.625" r="27" fill="#1CB5FF"/>
<circle cx="27" cy="31" r="27" fill="#263238"/>
<path fill-rule="evenodd" clip-rule="evenodd" d="M21.2344 17.4297C25.7344 17.4297 29.6016 19.75 31.0078 22.9141C31.3594 23.8281 31.6406 24.6719 31.5703 25.6562C31.5703 30.0156 27.2812 33.6016 21.8672 33.8828V33.9531C18.9844 36.4844 14.1328 37.9609 14.1328 37.9609C16.4531 35.5703 16.6641 33.8828 16.5234 32.9688C13.1484 31.6328 10.8281 28.8203 10.8281 25.6562C10.8281 21.0859 15.4687 17.4297 21.2344 17.4297ZM32.8359 24.0391C38.5312 24.0391 43.1719 27.6953 43.1719 32.2656C43.1719 35.4297 40.8516 38.1719 37.4766 39.6484C37.3359 40.6328 37.5469 42.25 39.8672 44.6406C39.8672 44.6406 34.9453 43.0938 32.1328 40.4922C27.9141 40.2109 24.3984 38.1016 23.0625 35.0781L23.1328 35.0078C28.5469 34.7266 32.8359 31.2109 32.8359 26.7812C32.8359 25.8672 32.5547 24.8828 32.2031 24.0391H32.8359ZM16.4531 23.4889H26.1372V21.8594H16.4531V23.4889ZM26.1372 26.0496H16.4531V24.4201H26.1372V26.0496ZM22.8782 28.75H16.4531V27.1205H22.9247V28.75H22.8782Z" fill="#EFF8FD"/>
</svg>
