<svg width="58" height="58" viewBox="0 0 58 58" fill="none" xmlns="http://www.w3.org/2000/svg">
<circle cx="30.375" cy="27.625" r="27" fill="#1CB5FF"/>
<circle cx="27" cy="31" r="27" fill="#263238"/>
<path fill-rule="evenodd" clip-rule="evenodd" d="M18.4544 17.0607C18.7813 16.7792 18.8181 16.2859 18.5365 15.9589C18.255 15.632 17.7617 15.5952 17.4347 15.8768C15.369 17.6558 13.6415 20.9838 12.6707 23.7908C12.182 25.2039 11.8599 26.5559 11.794 27.5867C11.7618 28.0896 11.7841 28.5995 11.9375 29.0162C12.0169 29.232 12.1473 29.4658 12.3652 29.6486C12.596 29.8423 12.8769 29.9378 13.1704 29.9378C13.5081 29.9378 13.7926 29.7968 13.9977 29.6587C14.2101 29.5158 14.4084 29.3279 14.5898 29.1286C14.953 28.7295 15.3319 28.1909 15.7083 27.6014C16.2493 26.7543 16.8341 25.7225 17.4054 24.7146L17.4056 24.7143C17.6281 24.3218 17.8485 23.9329 18.0635 23.5599C18.837 22.218 19.5148 21.1303 20.0258 20.6008C20.0311 20.6255 20.0365 20.6517 20.0418 20.6796C20.2279 21.6559 20.1451 22.8221 19.9027 24.0807C19.6617 25.3325 19.2752 26.6171 18.895 27.8191C18.8355 28.0072 18.7758 28.1943 18.7167 28.3796L18.7166 28.38L18.7165 28.3801C18.4061 29.3529 18.1121 30.2742 17.9535 31.0101C17.8597 31.4448 17.7956 31.888 17.8295 32.2762C17.8632 32.6621 18.0183 33.1882 18.5545 33.4521C19.1586 33.7494 19.7853 33.6917 20.3235 33.4732C20.8479 33.2603 21.3248 32.8842 21.7289 32.4609C22.5346 31.617 23.2027 30.425 23.476 29.3488C23.5822 28.9306 23.3293 28.5055 22.9111 28.3993C22.4929 28.2931 22.0678 28.546 21.9616 28.9642C21.7575 29.7677 21.2276 30.7233 20.5988 31.3819C20.2857 31.7098 19.9863 31.9237 19.7357 32.0254C19.5869 32.0859 19.4736 32.101 19.3833 32.0908C19.3784 31.9369 19.4045 31.6934 19.4808 31.3395C19.6221 30.6845 19.8871 29.8531 20.1984 28.8765C20.259 28.6865 20.3213 28.491 20.3848 28.2903C20.7664 27.0838 21.1774 25.7244 21.437 24.3761C21.6954 23.0346 21.8163 21.6443 21.5767 20.3871C21.5157 20.0672 21.4267 19.7662 21.2872 19.515C21.1462 19.2608 20.9152 18.9925 20.5518 18.8769C20.1867 18.7607 19.8499 18.8499 19.6072 18.9692C19.3688 19.0863 19.1572 19.2615 18.9762 19.4402C18.2786 20.1287 17.4763 21.4499 16.7098 22.7796C16.4802 23.1778 16.2509 23.5824 16.0234 23.9837C15.4606 24.9767 14.9088 25.9503 14.3914 26.7605C14.0287 27.3285 13.7065 27.7776 13.4342 28.0769C13.4046 28.1094 13.3767 28.1389 13.3503 28.1659C13.3417 28.0409 13.3408 27.8824 13.3533 27.6865C13.4067 26.8524 13.6813 25.6492 14.1474 24.3015C15.0862 21.587 16.7006 18.5711 18.4544 17.0607ZM19.3954 32.2043C19.3954 32.2043 19.3952 32.2037 19.3948 32.2022L19.3954 32.2043ZM13.0796 28.3892L13.0823 28.3881C13.0805 28.3889 13.0796 28.3893 13.0796 28.3892ZM31.8753 17.1175C32.1137 16.8791 32.5376 16.8791 32.8025 17.1175L34.3654 18.6804C34.6038 18.9453 34.6038 19.3691 34.3654 19.6075L33.0409 20.932L30.5508 18.442L31.8753 17.1175ZM29.9151 19.1042L32.3786 21.5678L25.7562 28.2167H23.2662V25.7266L29.9151 19.1042Z" fill="#EFF8FD"/>
<path d="M38.6407 31.1713C38.8581 31.3525 38.9669 31.5701 38.9306 31.8239L36.285 47.7397C36.2488 47.9573 36.14 48.1023 35.9226 48.2111C35.8501 48.2836 35.7414 48.2836 35.6327 48.2836C35.5239 48.2836 35.4515 48.2836 35.379 48.2473L30.6676 46.3258L28.1669 49.3712C28.0582 49.5525 27.877 49.625 27.6595 49.625C27.5871 49.625 27.5146 49.625 27.4421 49.5887C27.2971 49.5525 27.1884 49.4437 27.1159 49.335C27.0434 49.2262 27.0072 49.1174 27.0072 48.9724V45.3469L35.9588 34.3617L24.8689 43.9692L20.7737 42.2653C20.52 42.1927 20.4112 42.0115 20.375 41.7214C20.375 41.4314 20.4837 41.2139 20.7012 41.1051L37.9521 31.1713C38.0246 31.0988 38.1333 31.0625 38.2783 31.0625C38.4233 31.0625 38.532 31.0988 38.6407 31.1713Z" fill="#EFF8FD"/>
</svg>
