<svg width="58" height="58" viewBox="0 0 58 58" fill="none" xmlns="http://www.w3.org/2000/svg">
<circle cx="30.375" cy="27.625" r="27" fill="#1CB5FF"/>
<circle cx="27" cy="31" r="27" fill="#263238"/>
<path fill-rule="evenodd" clip-rule="evenodd" d="M22.406 47.4062H35.531C39.5118 47.4062 42.7498 44.167 42.7498 40.1875V21.8125C42.7498 17.8317 39.5118 14.5938 35.531 14.5938H22.406C21.318 14.5938 20.4373 15.4744 20.4373 16.5625C20.4373 17.6506 21.318 18.5312 22.406 18.5312H35.531C37.3396 18.5312 38.8123 20.0039 38.8123 21.8125V40.1875C38.8123 41.9974 37.3396 43.4688 35.531 43.4688H22.406C21.318 43.4688 20.4373 44.3507 20.4373 45.4375C20.4373 46.5243 21.318 47.4062 22.406 47.4062ZM27.3575 30.4666C27.1193 30.6966 27.0395 30.9276 27.0395 31.2359C27.0395 31.5432 27.1193 31.7732 27.3575 32.0042C27.5967 32.2352 27.9146 32.3125 28.1529 32.3125C28.4708 32.3125 28.71 32.2352 28.9482 32.0042L33.2441 27.8514C33.4833 27.6204 33.562 27.3894 33.562 27.0821C33.562 26.7738 33.4833 26.5438 33.2441 26.3128L28.9482 22.159C28.4708 21.697 27.7552 21.697 27.3575 22.159C27.1193 22.3899 27.0395 22.6209 27.0395 22.9283C27.0395 23.2356 27.1193 23.4666 27.3575 23.6976L29.8234 26.0054H18.8466C18.2894 26.0054 17.812 26.5438 17.812 27.0821C17.812 27.6204 18.2894 28.1587 18.8466 28.1587H29.8234L27.3575 30.4666ZM17.454 32.8459C17.6922 32.6159 17.772 32.3849 17.772 32.0766C17.772 31.7693 17.6922 31.5393 17.454 31.3083C17.2148 31.0773 16.8969 31 16.6587 31C16.3407 31 16.1015 31.0773 15.8633 31.3083L11.5675 35.4611C11.3283 35.6921 11.2495 35.9231 11.2495 36.2304C11.2495 36.5387 11.3283 36.7687 11.5675 36.9997L15.8633 41.1535C16.3407 41.6155 17.0563 41.6155 17.454 41.1535C17.6922 40.9226 17.772 40.6916 17.772 40.3842C17.772 40.0769 17.6922 39.8459 17.454 39.6149L14.9882 37.3071H25.9649C26.5221 37.3071 26.9995 36.7687 26.9995 36.2304C26.9995 35.6921 26.5221 35.1538 25.9649 35.1538H14.9882L17.454 32.8459Z" fill="#EFF8FD"/>
</svg>
