<svg width="33" height="28" viewBox="0 0 33 28" fill="none" xmlns="http://www.w3.org/2000/svg">
<path fill-rule="evenodd" clip-rule="evenodd" d="M10.9207 0.9375C15.3728 0.9375 19.1989 3.23315 20.5902 6.36359C20.938 7.26793 21.2163 8.10272 21.1467 9.07663C21.1467 13.3897 16.9033 16.9375 11.5467 17.2158V17.2853C8.69456 19.7897 3.89457 21.2505 3.89457 21.2505C6.19022 18.8853 6.39891 17.2158 6.25978 16.3114C2.92065 14.9897 0.625 12.2071 0.625 9.07663C0.625 4.55489 5.2163 0.9375 10.9207 0.9375ZM22.3989 7.47663C28.0337 7.47663 32.625 11.094 32.625 15.6158C32.625 18.7462 30.3293 21.4592 26.9902 22.9201C26.8511 23.894 27.0598 25.494 29.3554 27.8592C29.3554 27.8592 24.4859 26.3288 21.7033 23.7549C17.5293 23.4766 14.0511 21.3897 12.7293 18.3984L12.7989 18.3288C18.1554 18.0505 22.3989 14.5723 22.3989 10.1897C22.3989 9.28533 22.1207 8.31141 21.7728 7.47663H22.3989Z" fill="#038387"/>
</svg>
