<svg width="58" height="58" viewBox="0 0 58 58" fill="none" xmlns="http://www.w3.org/2000/svg">
<circle cx="30.375" cy="27.625" r="27" fill="#1CB5FF"/>
<circle cx="27" cy="31" r="27" fill="#263238"/>
<path fill-rule="evenodd" clip-rule="evenodd" d="M27.0002 23.7369C28.8646 23.7369 30.3687 22.2329 30.3687 20.3685C30.3687 18.504 28.8646 17 27.0002 17C25.1357 17 23.6317 18.504 23.6317 20.3685C23.6317 22.2329 25.1357 23.7369 27.0002 23.7369ZM19.4212 30.4738C19.4212 28.1294 22.2633 25.4212 27.0288 25.4212C31.7371 25.4212 34.5792 28.0747 34.5792 30.4738V33.0002H19.4212V30.4738ZM36.2635 30.4738C36.2635 27.9475 35.0954 27.1054 33.7371 26.2633H35.4213C38.1389 26.2633 42.9389 28.158 43.0004 30.4738V33.0002H36.2635V30.4738ZM38.7898 21.2401C38.7898 23.0885 37.2858 24.579 35.4213 24.579C33.5569 24.579 32.0529 23.0885 32.0529 21.2401C32.0529 19.3924 33.5569 17.8421 35.4213 17.8421C37.2858 17.8421 38.7898 19.3924 38.7898 21.2401ZM18.579 22.579C17.8024 22.579 17.2106 21.9673 17.2106 21.2401C17.2106 20.4678 17.8482 19.8421 18.579 19.8421C19.3099 19.8421 19.9475 20.4678 19.9475 21.2401C19.9475 21.9673 19.3556 22.579 18.579 22.579ZM15.2106 21.2401C15.2106 23.0885 16.7146 24.579 18.579 24.579C20.4435 24.579 21.9475 23.0885 21.9475 21.2401C21.9475 19.3924 20.4435 17.8421 18.579 17.8421C16.7146 17.8421 15.2106 19.3924 15.2106 21.2401ZM18.579 27.6213C19.0314 27.0529 19.6264 26.6581 20.2633 26.2633H18.579C18.0951 26.2633 17.5451 26.3234 16.9676 26.4352C14.3022 26.9515 11.0505 28.5704 11 30.4738V31.0002V33.0002H13H15.7369H17.7369V31.0002V30.4738C17.7369 29.5424 17.8957 28.84 18.1642 28.282C18.2826 28.0361 18.4222 27.8183 18.579 27.6213ZM15.7369 30.4738C15.7369 29.868 15.7914 29.3076 15.9007 28.7884C15.4858 28.9307 15.0711 29.1 14.6782 29.2938C14.0249 29.616 13.5404 29.9537 13.2453 30.2501C13.077 30.4191 13.0182 30.5241 13 30.5637V31.0002H15.7369V30.4738Z" fill="#EFF8FD"/>
<path fill-rule="evenodd" clip-rule="evenodd" d="M26.4178 42.7272C26.6149 42.9087 26.8129 42.9695 27.0772 42.9695C27.3406 42.9695 27.5378 42.9087 27.7358 42.7272C27.9337 42.545 28 42.3027 28 42.1212C28 41.879 27.9337 41.6968 27.7358 41.5152L24.1762 38.2423C23.9782 38.06 23.7802 38 23.5168 38C23.2525 38 23.0554 38.06 22.8574 38.2423L19.297 41.5153C18.901 41.879 18.901 42.4243 19.297 42.7273C19.495 42.9088 19.6929 42.9695 19.9564 42.9695C20.2198 42.9695 20.4178 42.9087 20.6158 42.7273L22.5939 40.8485L22.5939 49.2117C22.5939 49.6362 23.0554 50 23.5168 50C23.9782 50 24.4396 49.6362 24.4396 49.2117L24.4396 40.8485L26.4178 42.7272Z" fill="#EFF8FD"/>
<path fill-rule="evenodd" clip-rule="evenodd" d="M28.4064 45.2727C28.2312 45.0912 28.0552 45.0305 27.8203 45.0305C27.5861 45.0305 27.4109 45.0912 27.2349 45.2727C27.0589 45.455 27 45.6973 27 45.8788C27 46.121 27.0589 46.3033 27.2349 46.4847L30.399 49.7578C30.5749 49.94 30.7509 50 30.9851 50C31.22 50 31.3952 49.94 31.5712 49.7578L34.736 46.4847C35.088 46.121 35.088 45.5757 34.736 45.2727C34.56 45.0912 34.3841 45.0305 34.1499 45.0305C33.9157 45.0305 33.7398 45.0912 33.5638 45.2727L31.8054 47.1515L31.8054 38.7883C31.8054 38.3638 31.3952 38 30.9851 38C30.5749 38 30.1648 38.3638 30.1648 38.7883L30.1648 47.1515L28.4064 45.2727Z" fill="#EFF8FD"/>
</svg>
