<svg width="32" height="28" viewBox="0 0 32 28" fill="none" xmlns="http://www.w3.org/2000/svg">
<path fill-rule="evenodd" clip-rule="evenodd" d="M0 24.7624C0 20.8879 7.69884 18.936 11.5555 18.936C15.4121 18.936 23.111 20.8879 23.111 24.7624V27.6757H0V24.7624ZM20.3377 7.3559L22.7643 4.89423C25.6821 8.09878 25.6821 12.5415 22.7643 15.4838L20.3377 13.0221C21.551 11.3033 21.551 9.07471 20.3377 7.3559ZM25.191 2.37428L27.5454 0C33.1931 5.89929 33.1787 14.7264 27.5454 20.3926L25.191 18.0183C29.192 13.3863 29.192 6.77326 25.191 2.37428ZM17.4254 10.2503C17.4254 13.647 14.6719 16.4005 11.2753 16.4005C7.87866 16.4005 5.12514 13.647 5.12514 10.2503C5.12514 6.85369 7.87866 4.10017 11.2753 4.10017C14.6719 4.10017 17.4254 6.85369 17.4254 10.2503Z" fill="#038387"/>
</svg>
