<svg width="58" height="58" viewBox="0 0 58 58" fill="none" xmlns="http://www.w3.org/2000/svg">
<circle cx="30.875" cy="27.625" r="27" fill="#1CB5FF"/>
<circle cx="27.5" cy="31" r="27" fill="#263238"/>
<path fill-rule="evenodd" clip-rule="evenodd" d="M40.125 24.625H40.3125C41.375 24.625 42.1875 25.375 42.1875 26.25V40.0625C42.1875 41 41.375 41.6875 40.3125 41.6875H19.75C18.75 41.6875 17.875 41 17.875 40.0625V39.625H16.625C15.0625 39.625 13.75 38.4375 13.75 37V23.1875C13.75 21.6875 15.0625 20.5 16.625 20.5H37.25C38.8125 20.5 40.125 21.6875 40.125 23.1875V24.625ZM17.875 26.25C17.875 25.375 18.75 24.625 19.75 24.625H38.0625V23.1875C38.0625 22.875 37.6875 22.5625 37.25 22.5625H16.625C16.1875 22.5625 15.8125 22.875 15.8125 23.1875V37C15.8125 37.3125 16.1875 37.5625 16.625 37.5625H17.875V26.25ZM40.125 39.625H19.9375V26.6875H40.125V39.625ZM26.8125 37.125V30L33.9375 33.5625L26.8125 37.125Z" fill="#EFF8FD"/>
</svg>
