<svg width="58" height="58" viewBox="0 0 58 58" fill="none" xmlns="http://www.w3.org/2000/svg">
<circle cx="30.375" cy="27.625" r="27" fill="#1CB5FF"/>
<circle cx="27" cy="31" r="27" fill="#263238"/>
<path d="M19.0001 32.4239C19.0001 33.2195 19.3162 33.9826 19.8788 34.5452L22.1214 36.7878C22.684 37.3504 23.0001 38.1135 23.0001 38.9091V44.3332H31.0001V38.9091C31.0001 38.1135 31.3162 37.3504 31.8788 36.7878L34.1214 34.5452C34.684 33.9826 35.0001 33.2195 35.0001 32.4239V26.9998H19.0001V32.4239ZM25.6667 17.6665H28.3334V21.6665H25.6667V17.6665ZM15.6667 22.8332L17.5521 20.9465L20.3787 23.7758L18.4934 25.6625L15.6667 22.8332ZM33.6134 23.7798L36.4441 20.9532L38.3294 22.8385L35.5001 25.6665L33.6134 23.7798Z" fill="#EFF8FD"/>
</svg>
