<svg width="58" height="58" viewBox="0 0 58 58" fill="none" xmlns="http://www.w3.org/2000/svg">
<circle cx="30.375" cy="27.625" r="27" fill="#1CB5FF"/>
<circle cx="27" cy="31" r="27" fill="#263238"/>
<path fill-rule="evenodd" clip-rule="evenodd" d="M19.4017 18.6313C19.9388 18.1687 19.9993 17.3582 19.5366 16.821C19.074 16.2838 18.2635 16.2234 17.7264 16.686C14.3323 19.609 11.494 25.077 9.89895 29.689C9.09596 32.0108 8.56679 34.2322 8.45841 35.9259C8.40554 36.7521 8.44214 37.5899 8.69416 38.2744C8.82473 38.6291 9.03886 39.0132 9.39687 39.3136C9.77619 39.6319 10.2378 39.7887 10.7199 39.7887C11.2748 39.7887 11.7422 39.557 12.0793 39.3302C12.4282 39.0954 12.7539 38.7867 13.052 38.4592C13.6487 37.8034 14.2713 36.9185 14.8897 35.95C15.7786 34.5581 16.7395 32.8629 17.6782 31.2068L17.6785 31.2063C18.044 30.5614 18.4062 29.9225 18.7594 29.3097C20.0304 27.1048 21.144 25.3178 21.9835 24.4477C21.9923 24.4883 22.0011 24.5314 22.0099 24.5772C22.3156 26.1813 22.1795 28.0973 21.7814 30.1653C21.3853 32.2221 20.7503 34.3326 20.1257 36.3076C20.028 36.6165 19.9299 36.9238 19.8328 37.228L19.8324 37.2293C19.3224 38.8277 18.8394 40.3415 18.5786 41.5505C18.4246 42.2648 18.3193 42.993 18.375 43.6309C18.4304 44.2648 18.6852 45.1292 19.5662 45.5628C20.5587 46.0513 21.5884 45.9565 22.4727 45.5975C23.3343 45.2477 24.1178 44.6298 24.7819 43.9342C26.1057 42.5477 27.2033 40.5893 27.6524 38.8211C27.8269 38.1339 27.4114 37.4355 26.7243 37.2609C26.0372 37.0864 25.3387 37.5019 25.1642 38.1891C24.8289 39.5092 23.9581 41.0793 22.925 42.1614C22.4107 42.7002 21.9186 43.0517 21.5069 43.2188C21.2624 43.3181 21.0763 43.343 20.9278 43.3262C20.9199 43.0734 20.9628 42.6732 21.0882 42.0917C21.3203 41.0155 21.7557 39.6496 22.2672 38.045C22.3667 37.7328 22.4691 37.4117 22.5734 37.0818C23.2004 35.0995 23.8757 32.866 24.3023 30.6507C24.7267 28.4465 24.9254 26.1622 24.5317 24.0965C24.4315 23.571 24.2853 23.0765 24.0562 22.6636C23.8244 22.246 23.445 21.8053 22.8478 21.6152C22.2479 21.4243 21.6946 21.5709 21.2958 21.7669C20.9041 21.9594 20.5564 22.2472 20.259 22.5407C19.1129 23.672 17.7946 25.8428 16.5352 28.0276C16.1581 28.6819 15.7813 29.3465 15.4076 30.006C14.4828 31.6375 13.5762 33.2371 12.7261 34.5683C12.1301 35.5015 11.6008 36.2395 11.1533 36.7313C11.1048 36.7846 11.0589 36.8332 11.0155 36.8774C11.0014 36.6721 10.9998 36.4116 11.0204 36.0898C11.1081 34.7192 11.5594 32.7423 12.3252 30.5281C13.8677 26.0681 16.5202 21.1129 19.4017 18.6313ZM20.9479 43.5127C20.9478 43.5127 20.9475 43.5116 20.9469 43.5093L20.9479 43.5127ZM10.5707 37.2444C10.5707 37.2443 10.5722 37.2436 10.5752 37.2425C10.5722 37.2439 10.5707 37.2444 10.5707 37.2444ZM41.4525 18.724C41.8442 18.3322 42.5406 18.3322 42.9758 18.724L45.5437 21.2918C45.9354 21.7271 45.9354 22.4235 45.5437 22.8152L43.3675 24.9913L39.2763 20.9001L41.4525 18.724ZM38.2325 21.9888L42.2802 26.0365L31.3993 36.9609H27.3081V32.8697L38.2325 21.9888Z" fill="#EFF8FD"/>
</svg>
