<svg width="32" height="25" viewBox="0 0 32 25" fill="none" xmlns="http://www.w3.org/2000/svg">
<path fill-rule="evenodd" clip-rule="evenodd" d="M29.5073 5.14176H29.7119C30.8713 5.14176 31.7578 5.98571 31.7578 6.97033V22.5132C31.7578 23.5681 30.8713 24.3418 29.7119 24.3418H7.27459C6.18342 24.3418 5.22864 23.5681 5.22864 22.5132V22.0209H3.86467C2.15971 22.0209 0.727539 20.6846 0.727539 19.067V3.52418C0.727539 1.83626 2.15971 0.5 3.86467 0.5H26.3702C28.0751 0.5 29.5073 1.83626 29.5073 3.52418V5.14176ZM5.22863 6.97033C5.22863 5.98571 6.1834 5.14176 7.27458 5.14176H27.2567V3.52418C27.2567 3.17253 26.8475 2.82088 26.3701 2.82088H3.86466C3.38727 2.82088 2.97808 3.17253 2.97808 3.52418V19.067C2.97808 19.4187 3.38727 19.7 3.86466 19.7H5.22863V6.97033ZM29.5073 22.0209H7.47918V7.46264H29.5073V22.0209ZM14.981 19.2077V11.1901L22.7556 15.1989L14.981 19.2077Z" fill="#038387"/>
</svg>
