<svg width="58" height="58" viewBox="0 0 58 58" fill="none" xmlns="http://www.w3.org/2000/svg">
<circle cx="30.875" cy="27.625" r="27" fill="#1CB5FF"/>
<circle cx="27.5" cy="31" r="27" fill="#263238"/>
<path fill-rule="evenodd" clip-rule="evenodd" d="M30.6729 30.211H41.9338V24.8959C41.9338 24.5355 41.6636 24.2652 41.3933 24.2652H39.5916V22.4635C39.5916 20.8419 38.2402 19.4906 36.6187 19.4906H25.8982C24.9973 19.4906 24.8171 19.3104 24.4568 18.7699C24.4276 18.7359 24.398 18.7008 24.3676 18.6649C23.8346 18.0353 23.0838 17.1483 21.1235 17.1483H15.1777C13.4661 17.0582 12.1147 18.4095 12.1147 20.1212V40.391C12.1147 42.0126 13.4661 43.3639 15.1777 43.3639H39.5916C40.9429 43.3639 42.0239 42.2828 42.0239 40.9315V37.4181H30.6729C28.9612 37.4181 27.7 36.0668 27.7 34.3551V33.1839C27.7 31.5624 28.9612 30.211 30.6729 30.211ZM46.168 38.409L50.1318 34.3551C50.2219 34.265 50.312 34.0848 50.312 33.8146C50.312 33.5443 50.2219 33.3641 50.1318 33.1839L46.168 29.2201C45.8977 28.9498 45.5374 28.9498 45.3572 29.2201L44.5464 30.0309C44.2761 30.211 44.2761 30.5714 44.5464 30.8417L46.3481 32.6434H30.6728C30.3125 32.6434 30.0422 32.9137 30.0422 33.1839V34.4452C30.0422 34.7154 30.3125 34.9857 30.6728 34.9857H46.3481L44.5464 36.7875C44.2761 37.0577 44.2761 37.4181 44.5464 37.5983L45.3572 38.409C45.5374 38.5892 45.8977 38.5892 46.168 38.409ZM16.3489 24.8058C16.3489 24.5355 16.6191 24.2652 16.8894 24.2652H37.1592V22.4635C37.1592 22.1031 36.979 21.8329 36.6187 21.8329H25.8982C23.8262 21.8329 23.0154 20.8419 22.5649 20.2113C22.2046 19.6708 22.0244 19.4906 21.1235 19.4906H15.1777C14.8174 19.4906 14.5471 19.7608 14.5471 20.1212V40.391C14.5471 40.6612 14.8174 40.9315 15.1777 40.9315H16.3489V24.8058Z" fill="#EFF8FD"/>
</svg>
