<svg width="33" height="34" viewBox="0 0 33 34" fill="none" xmlns="http://www.w3.org/2000/svg">
<path fill-rule="evenodd" clip-rule="evenodd" d="M30.2846 22.7255H28.8204C28.8204 23.4012 28.6507 24.0212 28.4252 24.5843L29.4962 25.6546C30.0028 24.7534 30.2846 23.7958 30.2846 22.7255V22.7255ZM26.7348 22.8946V22.7255V17.4291C26.7348 15.9085 25.5511 14.7812 24.0869 14.7812C22.622 14.7812 21.439 15.9649 21.439 17.4291V17.5419L26.7348 22.8946ZM17.2702 15.6267L16.1436 16.7533L21.4957 22.0491V22.6691C21.4957 24.1903 22.6781 25.317 24.1436 25.317H24.7066L26.2278 26.7818C25.5514 27.0636 24.8757 27.2891 24.1436 27.2891C21.6648 27.2891 19.4108 25.3733 19.4108 22.7254H17.946C17.946 25.7679 20.312 28.2466 23.2423 28.697V31.5703H25.0448V28.697C25.8902 28.5848 26.6223 28.303 27.2987 27.9085L31.0169 31.5703L32.1436 30.5L17.2702 15.6267Z" fill="#038387"/>
<path fill-rule="evenodd" clip-rule="evenodd" d="M1.06928 0L0 1.06928L2.29898 3.36826H1.68444C1.22086 3.36826 0.841906 3.74784 0.841906 4.21079V12.6317C0.841906 13.0953 1.22086 13.4737 1.68444 13.4737H11.7898C11.9661 13.4737 12.1183 13.4067 12.244 13.3221L14.9307 16L16 14.9307L1.06928 0ZM15.9999 3.78957L12.6316 7.15783V4.21084C12.6316 3.74789 12.2527 3.3683 11.7897 3.3683H6.58482L15.9999 12.7834V3.78957Z" fill="#038387"/>
<path fill-rule="evenodd" clip-rule="evenodd" d="M2.03906 29.0078H15.9609C16.5586 29.0078 17.0859 28.5156 17.0508 27.918V19.7969C17.0508 19.1992 16.5586 18.707 15.9258 18.707H2.03906C1.44141 18.707 0.914062 19.1641 0.914062 19.7969V27.918C0.914062 28.5156 1.40625 29.0078 2.03906 29.0078ZM15.7852 27.7422H2.21484V19.9727H15.7852V27.7422ZM14.7305 26.8633H3.26953C3.16406 26.8633 3.12891 26.793 3.12891 26.7227V20.9922C3.12891 20.8867 3.16406 20.8164 3.26953 20.8164H14.7656C14.8359 20.8164 14.9062 20.8867 14.9062 20.9922V26.7227C14.8711 26.793 14.8359 26.8633 14.7305 26.8633ZM6.43359 31.3281H11.5664C11.918 31.3281 12.1992 31.0469 12.1992 30.6953C12.1992 30.3789 11.9531 30.0625 11.5664 30.0625H6.43359C6.11719 30.0625 5.83594 30.3789 5.83594 30.6953C5.83594 31.0469 6.08203 31.3281 6.43359 31.3281Z" fill="#038387"/>
</svg>
