<svg width="28" height="32" viewBox="0 0 28 32" fill="none" xmlns="http://www.w3.org/2000/svg">
<path fill-rule="evenodd" clip-rule="evenodd" d="M15.3436 0.574359L21.4154 6.72821C21.8256 7.13846 22.0718 7.63077 22.0718 8.12308V17.8307C21.4458 17.6537 20.7853 17.5589 20.1026 17.5589C20.0477 17.5589 19.993 17.5595 19.9385 17.5608V8.36929H13.7026V2.05134H2.13334V25.1898H12.8935C12.9337 25.9065 13.0783 26.5952 13.3125 27.241H2.13333C0.984615 27.241 0 26.3385 0 25.1897V2.05128C0 0.902564 0.984615 0 2.13333 0H13.8667C14.441 0 14.9333 0.164103 15.3436 0.574359ZM5.82566 11.4872H16.3282V13.6205H5.82566V11.4872ZM16.3282 15.7539H5.82566V17.8052H16.3282V15.7539ZM5.82566 19.9384H12.0616V21.9897H5.82566V19.9384Z" fill="#038387"/>
<circle cx="19.5" cy="23.5" r="6.5" fill="#038387"/>
<path d="M23.585 27.064C23.585 27.8608 22.999 28.5171 22.249 28.6343C21.3818 28.7515 20.6553 28.2593 20.4443 27.4155C20.4209 27.3452 20.4209 27.2983 20.3975 27.228C20.374 27.0874 20.3037 26.9937 20.1631 26.8999C19.5537 26.5952 18.9443 26.2905 18.335 25.9624C17.8193 25.7046 17.3506 25.4702 16.835 25.2124C16.6943 25.1187 16.5068 25.1187 16.3428 25.2124C16.085 25.353 15.8271 25.4233 15.5459 25.3999C14.8193 25.3999 14.21 24.9077 14.0459 24.1812C13.835 23.3608 14.374 22.4937 15.1943 22.2593C15.6396 22.1655 16.0381 22.2593 16.4131 22.4702C16.624 22.5874 16.8115 22.5874 16.999 22.4937C18.0303 21.978 19.0381 21.439 20.0928 20.8999C20.3037 20.8062 20.3975 20.6421 20.4209 20.4077C20.4912 19.7983 20.7959 19.353 21.3818 19.1187C21.9443 18.9077 22.4834 18.978 22.9756 19.3296C23.3271 19.5874 23.5146 19.939 23.5615 20.3843C23.6318 20.8765 23.4912 21.2983 23.1396 21.6733C22.8818 21.9546 22.5537 22.1187 22.1787 22.1421C21.874 22.189 21.5928 22.1187 21.335 22.0015C21.124 21.9077 20.9131 21.9077 20.7021 22.0249C19.624 22.5874 18.5693 23.1265 17.4912 23.689C17.4443 23.7124 17.4209 23.7358 17.374 23.7358C17.3271 23.7593 17.2803 23.7827 17.2568 23.8765C17.2568 23.9468 17.3037 23.9937 17.374 24.0171C17.6084 24.1343 17.8428 24.2515 18.1006 24.3921C18.9443 24.8374 19.8115 25.2593 20.6553 25.7046C20.8428 25.7983 21.0303 25.7983 21.1943 25.6812C22.1553 25.1187 23.374 25.6812 23.5615 26.7593C23.5615 26.8999 23.585 26.9702 23.585 27.064Z" fill="white"/>
</svg>
