<svg width="31" height="21" viewBox="0 0 31 21" fill="none" xmlns="http://www.w3.org/2000/svg">
<path fill-rule="evenodd" clip-rule="evenodd" d="M7.5 4.5C7.5 6.8357 6.14821 7.70768 3.8125 7.70768C3.16387 7.70768 2.54934 7.56166 2 7.3007V3.27672C2 2.39102 2.725 1.66602 3.61071 1.66602H6.88525C7.28744 2.55651 7.5 3.5738 7.5 4.5ZM2 8.60661V19.3886C2 20.2743 2.725 20.9993 3.61071 20.9993H22.944C23.8298 20.9993 24.556 20.2743 24.556 19.3886V13.7493L31 20.1934V2.47197L24.556 8.91602V3.27672C24.556 2.39102 23.8298 1.66602 22.944 1.66602H8.9406C9.14097 2.23293 9.25 2.84299 9.25 3.47852C9.25 6.48157 6.81555 8.91602 3.8125 8.91602C3.17697 8.91602 2.56691 8.80699 2 8.60661Z" fill="#038387"/>
<path fill-rule="evenodd" clip-rule="evenodd" d="M4 8C6.20914 8 8 6.20914 8 4C8 1.79086 6.20914 0 4 0C1.79086 0 0 1.79086 0 4C0 6.20914 1.79086 8 4 8Z" fill="#CD3118"/>
</svg>
