<svg width="32" height="23" viewBox="0 0 32 23" fill="none" xmlns="http://www.w3.org/2000/svg">
<path fill-rule="evenodd" clip-rule="evenodd" d="M16 0.330078C14.4377 0.330078 13.1714 1.59522 13.1714 3.08436C13.1714 3.97694 13.5451 4.79522 14.2149 5.31636L9.52571 10.7484C9.45143 10.8238 9.30286 10.8981 9.22743 10.8981C9.07886 10.8981 9.00457 10.8981 8.92914 10.8238L5.50629 8.51636C5.58171 8.21808 5.656 7.84665 5.656 7.47408C5.656 5.91179 4.39086 4.64665 2.82857 4.64665C1.26514 4.64665 0 5.91179 0 7.47408C0 8.96322 1.19086 10.2284 2.67886 10.3026L4.16686 19.9758C4.39086 21.3907 5.58171 22.4329 6.92114 22.4329H25.0789C26.4937 22.4329 27.6846 21.3907 27.9074 19.9758L29.3954 10.3026C30.8834 10.2284 32 8.96322 32 7.47408C32 5.91179 30.7349 4.64665 29.1714 4.64665C27.6846 4.64665 26.4183 5.91179 26.4183 7.47408C26.4183 7.84665 26.4183 8.14379 26.5669 8.51636L23.0709 10.8238C22.9954 10.8981 22.9211 10.8981 22.8457 10.8981C22.6971 10.8981 22.5486 10.8238 22.4743 10.6741L17.7851 5.31636C18.6046 4.64665 18.976 3.60436 18.7531 2.48894C18.5303 1.44665 17.6377 0.552935 16.5954 0.330078H16Z" fill="#038387"/>
</svg>
