<svg width="58" height="58" viewBox="0 0 58 58" fill="none" xmlns="http://www.w3.org/2000/svg">
<circle cx="30.375" cy="27.625" r="27" fill="#1CB5FF"/>
<circle cx="27" cy="31" r="27" fill="#263238"/>
<path fill-rule="evenodd" clip-rule="evenodd" d="M13.9331 12.875L12.875 13.9331L15.15 16.2081H14.5419C14.0831 16.2081 13.7081 16.5838 13.7081 17.0419V25.375C13.7081 25.8338 14.0831 26.2081 14.5419 26.2081H24.5419C24.7163 26.2081 24.8669 26.1419 24.9913 26.0581L27.65 28.7081L28.7081 27.65L13.9331 12.875ZM28.7081 16.625L25.375 19.9581V17.0419C25.375 16.5838 25 16.2081 24.5419 16.2081H19.3912L28.7081 25.525V16.625Z" fill="#EFF8FD"/>
<path fill-rule="evenodd" clip-rule="evenodd" d="M21.4922 44.8984H38.5078C39.2383 44.8984 39.8828 44.2969 39.8398 43.5664V33.6406C39.8398 32.9102 39.2383 32.3086 38.4648 32.3086H21.4922C20.7617 32.3086 20.1172 32.8672 20.1172 33.6406V43.5664C20.1172 44.2969 20.7188 44.8984 21.4922 44.8984ZM38.293 43.3516H21.707V33.8555H38.293V43.3516ZM37.0039 42.2773H22.9961C22.8672 42.2773 22.8242 42.1914 22.8242 42.1055V35.1016C22.8242 34.9727 22.8672 34.8867 22.9961 34.8867H37.0469C37.1328 34.8867 37.2188 34.9727 37.2188 35.1016V42.1055C37.1758 42.1914 37.1328 42.2773 37.0039 42.2773ZM26.8633 47.7344H33.1367C33.5664 47.7344 33.9102 47.3906 33.9102 46.9609C33.9102 46.5742 33.6094 46.1875 33.1367 46.1875H26.8633C26.4766 46.1875 26.1328 46.5742 26.1328 46.9609C26.1328 47.3906 26.4336 47.7344 26.8633 47.7344Z" fill="#EFF8FD"/>
</svg>
