<svg width="58" height="58" viewBox="0 0 58 58" fill="none" xmlns="http://www.w3.org/2000/svg">
<circle cx="30.375" cy="27.625" r="27" fill="#1CB5FF"/>
<circle cx="27" cy="31" r="27" fill="#263238"/>
<path d="M31.1345 25.7767L28.549 28.416L28.5309 23.125L31.1345 25.7767ZM28.5309 39.2995L31.1285 36.6479L28.543 34.0085L28.5309 39.2995ZM38.5716 31.2092C38.5716 43.8584 34.2383 46.75 27.416 46.75C20.5937 46.75 15.4287 43.8584 15.4287 31.2092C15.4287 18.56 20.455 15.25 27.2774 15.25C34.0997 15.25 38.5716 18.5661 38.5716 31.2092ZM29.0191 31.2092L33.8044 25.7582L26.2649 17.4956V28.3791L21.8171 23.8387L20.1899 25.4937L25.7767 31.2153L20.1899 36.937L21.8111 38.592L26.2588 34.0516L26.3975 44.5105L34.0756 36.6663L29.0191 31.2092Z" fill="#EFF8FD"/>
</svg>
