<svg width="58" height="58" viewBox="0 0 58 58" fill="none" xmlns="http://www.w3.org/2000/svg">
<circle cx="30.375" cy="27.625" r="27" fill="#1CB5FF"/>
<circle cx="27" cy="31" r="27" fill="#263238"/>
<path d="M40.2054 32.8281L38.5172 31.1399C38.7092 30.7458 38.8102 30.3135 38.8125 29.875C38.8125 29.2909 38.6393 28.72 38.3148 28.2343C37.9903 27.7487 37.5291 27.3702 36.9895 27.1467C36.4499 26.9232 35.8561 26.8647 35.2833 26.9786C34.7104 27.0926 34.1842 27.3738 33.7712 27.7868C33.3582 28.1998 33.0769 28.726 32.963 29.2989C32.8491 29.8717 32.9075 30.4655 33.131 31.0051C33.3546 31.5447 33.7331 32.0059 34.2187 32.3304C34.7043 32.6549 35.2753 32.8281 35.8594 32.8281C36.2982 32.8259 36.7308 32.725 37.1253 32.5328L38.8125 34.22V41.6875H32.9063V38.7344C32.9042 36.9075 32.1775 35.1561 30.8857 33.8643C29.5939 32.5725 27.8425 31.8458 26.0156 31.8438H20.1094C18.2825 31.8458 16.5311 32.5725 15.2393 33.8643C13.9475 35.1561 13.2208 36.9075 13.2188 38.7344V43.6563H40.7813V34.22C40.782 33.9615 40.7315 33.7054 40.6326 33.4665C40.5338 33.2275 40.3886 33.0106 40.2054 32.8281ZM15.1875 38.7344C15.1891 37.4295 15.7081 36.1785 16.6308 35.2558C17.5535 34.3331 18.8045 33.8141 20.1094 33.8125H26.0156C27.3205 33.8141 28.5715 34.3331 29.4942 35.2558C30.4169 36.1785 30.9359 37.4295 30.9375 38.7344V41.6875H15.1875V38.7344Z" fill="#EFF8FD"/>
<path d="M23.0625 18.0625C24.036 18.0625 24.9876 18.3512 25.797 18.892C26.6063 19.4328 27.2372 20.2015 27.6097 21.1009C27.9822 22.0002 28.0797 22.9898 27.8898 23.9446C27.6999 24.8993 27.2311 25.7763 26.5428 26.4647C25.8545 27.153 24.9775 27.6218 24.0227 27.8117C23.068 28.0016 22.0783 27.9041 21.179 27.5316C20.2796 27.1591 19.5109 26.5282 18.9701 25.7188C18.4293 24.9094 18.1406 23.9578 18.1406 22.9844C18.1406 21.679 18.6592 20.4271 19.5822 19.5041C20.5052 18.5811 21.7571 18.0625 23.0625 18.0625ZM23.0625 16.0938C21.6997 16.0937 20.3674 16.4979 19.2343 17.255C18.1011 18.0122 17.2179 19.0884 16.6964 20.3474C16.1749 21.6065 16.0384 22.992 16.3043 24.3287C16.5702 25.6653 17.2264 26.8931 18.1901 27.8568C19.1538 28.8205 20.3816 29.4767 21.7182 29.7426C23.0549 30.0085 24.4403 29.872 25.6994 29.3505C26.9585 28.8289 28.0347 27.9458 28.7919 26.8126C29.549 25.6794 29.9531 24.3472 29.9531 22.9844C29.9531 21.1569 29.2272 19.4042 27.9349 18.112C26.6427 16.8197 24.89 16.0938 23.0625 16.0938Z" fill="#EFF8FD"/>
</svg>
