<svg width="18" height="21" viewBox="0 0 18 21" fill="none" xmlns="http://www.w3.org/2000/svg">
<mask id="path-1-outside-1_705:6419" maskUnits="userSpaceOnUse" x="0.269775" y="0.164886" width="18" height="20" fill="black">
<rect fill="white" x="0.269775" y="0.164886" width="18" height="20"/>
<path fill-rule="evenodd" clip-rule="evenodd" d="M6.2585 2.19508C6.24556 2.21097 6.17019 2.37985 6.09103 2.57039C6.01186 2.76093 5.92362 2.93868 5.8949 2.9654C5.854 3.00344 5.80074 3.01711 5.64939 3.02845C5.54307 3.0364 5.36559 3.04972 5.25496 3.05804C5.02024 3.07566 4.95931 3.11319 4.95931 3.24015C4.95931 3.31283 4.98426 3.34078 5.27125 3.58957C5.55299 3.83381 5.58319 3.8673 5.58319 3.9355C5.58319 3.97705 5.5468 4.16822 5.50232 4.36033C5.45783 4.55244 5.42144 4.72506 5.42144 4.74391C5.42144 4.79664 5.52856 4.89156 5.58792 4.8914C5.61709 4.89133 5.79692 4.79786 5.98755 4.68367C6.17818 4.56949 6.35068 4.47602 6.37085 4.47595C6.39104 4.47588 6.56462 4.56935 6.75657 4.68367C6.94854 4.798 7.13036 4.89154 7.16066 4.89154C7.22558 4.89154 7.31619 4.80343 7.31619 4.74026C7.31619 4.71585 7.27783 4.52205 7.23095 4.30956C7.13381 3.86929 7.1326 3.87781 7.31267 3.72838C7.3718 3.67932 7.50594 3.5616 7.6108 3.46682C7.82088 3.27683 7.84766 3.20978 7.74943 3.11973C7.70419 3.07825 7.64647 3.06848 7.30463 3.04448C7.06243 3.02748 6.8934 3.00517 6.86378 2.98626C6.8343 2.96743 6.75978 2.8217 6.67082 2.60889C6.59108 2.41819 6.51073 2.24058 6.49225 2.21418C6.45371 2.15921 6.29813 2.14649 6.2585 2.19508ZM8.9221 3.20403C8.80929 3.23149 8.71432 3.28999 8.6338 3.38166C8.52977 3.5001 8.49462 3.5956 8.49462 3.75983C8.49462 3.99742 8.60126 4.1797 8.80222 4.28561L8.9221 4.34878L11.5678 4.35534C13.2398 4.35948 14.2681 4.35345 14.3618 4.33894C14.6561 4.2934 14.848 4.09902 14.8678 3.8267C14.8824 3.62398 14.8369 3.49157 14.7086 3.36325C14.5157 3.17049 14.7135 3.18211 11.6734 3.18479C10.1983 3.18611 8.96022 3.19474 8.9221 3.20403ZM6.29949 5.47589C6.25508 5.49822 6.20434 5.59197 6.07998 5.8815C5.98577 6.10087 5.90019 6.26806 5.875 6.28194C5.85125 6.29508 5.65533 6.31942 5.43965 6.33608C4.99727 6.37021 4.95912 6.38555 4.95956 6.52916C4.95982 6.60676 4.98022 6.63007 5.2715 6.88541C5.53769 7.11878 5.58319 7.16848 5.58319 7.2259C5.58319 7.26285 5.54536 7.4603 5.49913 7.66463L5.41506 8.03613L5.46098 8.09789C5.5473 8.21399 5.61963 8.19722 5.9842 7.97649C6.17393 7.86161 6.33653 7.77854 6.37163 7.77854C6.40678 7.77854 6.57054 7.86235 6.76267 7.97871C7.12066 8.19549 7.19913 8.21815 7.27358 8.12627C7.33023 8.05634 7.32922 8.04338 7.2333 7.61423C7.18774 7.41022 7.15613 7.22086 7.16308 7.19338C7.17004 7.16589 7.31052 7.02563 7.47528 6.8817C7.64 6.73776 7.78079 6.60441 7.78812 6.58533C7.81152 6.52436 7.80251 6.46853 7.76099 6.4174C7.72441 6.37234 7.68164 6.36458 7.31249 6.33591C7.08805 6.3185 6.88527 6.294 6.86189 6.28148C6.83663 6.26799 6.75892 6.11216 6.67079 5.89831C6.58911 5.70008 6.50593 5.52361 6.48599 5.50614C6.42797 5.4554 6.36165 5.44464 6.29949 5.47589ZM8.82916 6.52837C8.71051 6.58226 8.59176 6.70095 8.53786 6.81954C8.48136 6.94385 8.48145 7.18146 8.53802 7.30597C8.59347 7.42794 8.76904 7.58063 8.89298 7.61465C8.96621 7.63476 9.69238 7.63998 11.7296 7.63504L14.4677 7.62841L14.5601 7.57848C14.7691 7.46552 14.8724 7.29285 14.8715 7.05753C14.8709 6.88174 14.8198 6.76083 14.6957 6.64205C14.5217 6.47535 14.7108 6.48511 11.6631 6.48567C9.05845 6.48615 8.91748 6.48828 8.82916 6.52837ZM6.26102 8.79296C6.24011 8.81737 6.15808 8.99147 6.07873 9.17982C5.98529 9.40163 5.91532 9.53591 5.88013 9.56097C5.84018 9.58942 5.73622 9.60624 5.48739 9.62448C5.30124 9.63813 5.12903 9.64931 5.1047 9.64931C5.03119 9.64931 4.95931 9.7347 4.95931 9.822C4.95931 9.89196 4.98262 9.9212 5.17305 10.0902C5.29059 10.1946 5.43098 10.3194 5.48498 10.3675C5.6071 10.4763 5.60747 10.4885 5.50232 10.9427C5.45783 11.1348 5.42144 11.3074 5.42144 11.3263C5.42144 11.3784 5.52826 11.4739 5.58661 11.4739C5.61508 11.4739 5.79718 11.3804 5.9913 11.266C6.18542 11.1517 6.35678 11.0582 6.37209 11.0582C6.38744 11.0582 6.55808 11.1517 6.75132 11.266C6.94456 11.3804 7.1281 11.4739 7.15918 11.4739C7.22734 11.4739 7.31619 11.3857 7.31619 11.3181C7.31619 11.2911 7.27891 11.1064 7.23335 10.9074C7.18778 10.7085 7.15666 10.5213 7.16417 10.4914C7.17186 10.4607 7.29608 10.3341 7.44919 10.2009C7.59843 10.071 7.73851 9.94312 7.76048 9.91672C7.81589 9.85011 7.81118 9.75869 7.74943 9.70209C7.70419 9.66061 7.64647 9.65084 7.30463 9.62684C7.06386 9.60996 6.89333 9.58748 6.86406 9.5688C6.83481 9.55011 6.75536 9.39401 6.65901 9.1658C6.56862 8.95179 6.48391 8.78379 6.45988 8.77093C6.39271 8.73501 6.30206 8.74506 6.26102 8.79296ZM8.9104 9.80927C8.74369 9.8605 8.59033 9.99628 8.5264 10.1492C8.48095 10.258 8.48684 10.4961 8.53774 10.6078C8.5901 10.7227 8.73715 10.8577 8.85553 10.8995C8.92956 10.9256 9.42504 10.9311 11.6949 10.9311C14.243 10.9311 14.4507 10.9282 14.5284 10.8916C14.8012 10.7629 14.931 10.4743 14.8489 10.179C14.8188 10.0707 14.6831 9.91457 14.5634 9.85062L14.4677 9.79944L11.718 9.79546C10.2057 9.79327 8.94225 9.79948 8.9104 9.80927ZM7.42017 12.8834C6.76008 12.9424 5.99245 13.2064 5.0314 13.7049C4.57837 13.9399 4.27794 14.1261 3.62428 14.5767C2.85404 15.1078 2.40073 15.442 2.34553 15.5195C2.27996 15.6116 2.2526 15.7584 2.28083 15.8666C2.29583 15.924 2.58771 16.3209 3.17259 17.0791C3.6508 17.6991 4.06388 18.234 4.09055 18.2677C4.17472 18.3742 4.30883 18.4363 4.45126 18.4347C4.52132 18.4339 4.59975 18.422 4.62551 18.4082C4.65127 18.3944 4.82792 18.2616 5.01802 18.113C5.20812 17.9644 5.41047 17.8211 5.46766 17.7946C5.61912 17.7244 5.79893 17.7317 6.07998 17.8195C6.67646 18.0059 7.44713 18.1921 8.01128 18.2862C9.13967 18.4744 9.6817 18.4407 10.6435 18.1225C11.6812 17.7792 13.1441 17.0537 14.4978 16.211C15.3615 15.6734 15.4489 15.6014 15.5948 15.3083C15.6624 15.1724 15.6692 15.1396 15.6684 14.9503C15.6674 14.705 15.6155 14.5489 15.4789 14.3809C15.2966 14.1565 15.0788 14.0547 14.7796 14.054C14.6159 14.0536 14.5409 14.0674 14.329 14.1366C13.9207 14.27 13.545 14.3739 13.1291 14.4687L12.7407 14.5572L12.6752 14.6522C12.4974 14.9102 12.1077 15.1859 11.7462 15.3094C11.3716 15.4375 11.2138 15.4581 10.6204 15.4565C10.0942 15.4552 9.16791 15.3959 9.00297 15.3531C8.8257 15.307 8.73463 15.1825 8.75908 15.0195C8.77666 14.9024 8.87752 14.789 8.98296 14.7679C9.02289 14.7599 9.21269 14.7687 9.40475 14.7873C10.2422 14.8686 10.8366 14.8884 11.1403 14.845C11.7056 14.7644 12.1046 14.5321 12.2755 14.1842C12.3364 14.0603 12.3419 14.0281 12.3419 13.795C12.3419 13.5077 12.3066 13.3986 12.1529 13.2112C11.9682 12.9858 11.8926 12.9682 11.1288 12.9728C10.7231 12.9753 10.2669 12.9604 9.77704 12.9287C8.94481 12.8749 7.76831 12.8522 7.42017 12.8834Z"/>
</mask>
<path fill-rule="evenodd" clip-rule="evenodd" d="M6.2585 2.19508C6.24556 2.21097 6.17019 2.37985 6.09103 2.57039C6.01186 2.76093 5.92362 2.93868 5.8949 2.9654C5.854 3.00344 5.80074 3.01711 5.64939 3.02845C5.54307 3.0364 5.36559 3.04972 5.25496 3.05804C5.02024 3.07566 4.95931 3.11319 4.95931 3.24015C4.95931 3.31283 4.98426 3.34078 5.27125 3.58957C5.55299 3.83381 5.58319 3.8673 5.58319 3.9355C5.58319 3.97705 5.5468 4.16822 5.50232 4.36033C5.45783 4.55244 5.42144 4.72506 5.42144 4.74391C5.42144 4.79664 5.52856 4.89156 5.58792 4.8914C5.61709 4.89133 5.79692 4.79786 5.98755 4.68367C6.17818 4.56949 6.35068 4.47602 6.37085 4.47595C6.39104 4.47588 6.56462 4.56935 6.75657 4.68367C6.94854 4.798 7.13036 4.89154 7.16066 4.89154C7.22558 4.89154 7.31619 4.80343 7.31619 4.74026C7.31619 4.71585 7.27783 4.52205 7.23095 4.30956C7.13381 3.86929 7.1326 3.87781 7.31267 3.72838C7.3718 3.67932 7.50594 3.5616 7.6108 3.46682C7.82088 3.27683 7.84766 3.20978 7.74943 3.11973C7.70419 3.07825 7.64647 3.06848 7.30463 3.04448C7.06243 3.02748 6.8934 3.00517 6.86378 2.98626C6.8343 2.96743 6.75978 2.8217 6.67082 2.60889C6.59108 2.41819 6.51073 2.24058 6.49225 2.21418C6.45371 2.15921 6.29813 2.14649 6.2585 2.19508ZM8.9221 3.20403C8.80929 3.23149 8.71432 3.28999 8.6338 3.38166C8.52977 3.5001 8.49462 3.5956 8.49462 3.75983C8.49462 3.99742 8.60126 4.1797 8.80222 4.28561L8.9221 4.34878L11.5678 4.35534C13.2398 4.35948 14.2681 4.35345 14.3618 4.33894C14.6561 4.2934 14.848 4.09902 14.8678 3.8267C14.8824 3.62398 14.8369 3.49157 14.7086 3.36325C14.5157 3.17049 14.7135 3.18211 11.6734 3.18479C10.1983 3.18611 8.96022 3.19474 8.9221 3.20403ZM6.29949 5.47589C6.25508 5.49822 6.20434 5.59197 6.07998 5.8815C5.98577 6.10087 5.90019 6.26806 5.875 6.28194C5.85125 6.29508 5.65533 6.31942 5.43965 6.33608C4.99727 6.37021 4.95912 6.38555 4.95956 6.52916C4.95982 6.60676 4.98022 6.63007 5.2715 6.88541C5.53769 7.11878 5.58319 7.16848 5.58319 7.2259C5.58319 7.26285 5.54536 7.4603 5.49913 7.66463L5.41506 8.03613L5.46098 8.09789C5.5473 8.21399 5.61963 8.19722 5.9842 7.97649C6.17393 7.86161 6.33653 7.77854 6.37163 7.77854C6.40678 7.77854 6.57054 7.86235 6.76267 7.97871C7.12066 8.19549 7.19913 8.21815 7.27358 8.12627C7.33023 8.05634 7.32922 8.04338 7.2333 7.61423C7.18774 7.41022 7.15613 7.22086 7.16308 7.19338C7.17004 7.16589 7.31052 7.02563 7.47528 6.8817C7.64 6.73776 7.78079 6.60441 7.78812 6.58533C7.81152 6.52436 7.80251 6.46853 7.76099 6.4174C7.72441 6.37234 7.68164 6.36458 7.31249 6.33591C7.08805 6.3185 6.88527 6.294 6.86189 6.28148C6.83663 6.26799 6.75892 6.11216 6.67079 5.89831C6.58911 5.70008 6.50593 5.52361 6.48599 5.50614C6.42797 5.4554 6.36165 5.44464 6.29949 5.47589ZM8.82916 6.52837C8.71051 6.58226 8.59176 6.70095 8.53786 6.81954C8.48136 6.94385 8.48145 7.18146 8.53802 7.30597C8.59347 7.42794 8.76904 7.58063 8.89298 7.61465C8.96621 7.63476 9.69238 7.63998 11.7296 7.63504L14.4677 7.62841L14.5601 7.57848C14.7691 7.46552 14.8724 7.29285 14.8715 7.05753C14.8709 6.88174 14.8198 6.76083 14.6957 6.64205C14.5217 6.47535 14.7108 6.48511 11.6631 6.48567C9.05845 6.48615 8.91748 6.48828 8.82916 6.52837ZM6.26102 8.79296C6.24011 8.81737 6.15808 8.99147 6.07873 9.17982C5.98529 9.40163 5.91532 9.53591 5.88013 9.56097C5.84018 9.58942 5.73622 9.60624 5.48739 9.62448C5.30124 9.63813 5.12903 9.64931 5.1047 9.64931C5.03119 9.64931 4.95931 9.7347 4.95931 9.822C4.95931 9.89196 4.98262 9.9212 5.17305 10.0902C5.29059 10.1946 5.43098 10.3194 5.48498 10.3675C5.6071 10.4763 5.60747 10.4885 5.50232 10.9427C5.45783 11.1348 5.42144 11.3074 5.42144 11.3263C5.42144 11.3784 5.52826 11.4739 5.58661 11.4739C5.61508 11.4739 5.79718 11.3804 5.9913 11.266C6.18542 11.1517 6.35678 11.0582 6.37209 11.0582C6.38744 11.0582 6.55808 11.1517 6.75132 11.266C6.94456 11.3804 7.1281 11.4739 7.15918 11.4739C7.22734 11.4739 7.31619 11.3857 7.31619 11.3181C7.31619 11.2911 7.27891 11.1064 7.23335 10.9074C7.18778 10.7085 7.15666 10.5213 7.16417 10.4914C7.17186 10.4607 7.29608 10.3341 7.44919 10.2009C7.59843 10.071 7.73851 9.94312 7.76048 9.91672C7.81589 9.85011 7.81118 9.75869 7.74943 9.70209C7.70419 9.66061 7.64647 9.65084 7.30463 9.62684C7.06386 9.60996 6.89333 9.58748 6.86406 9.5688C6.83481 9.55011 6.75536 9.39401 6.65901 9.1658C6.56862 8.95179 6.48391 8.78379 6.45988 8.77093C6.39271 8.73501 6.30206 8.74506 6.26102 8.79296ZM8.9104 9.80927C8.74369 9.8605 8.59033 9.99628 8.5264 10.1492C8.48095 10.258 8.48684 10.4961 8.53774 10.6078C8.5901 10.7227 8.73715 10.8577 8.85553 10.8995C8.92956 10.9256 9.42504 10.9311 11.6949 10.9311C14.243 10.9311 14.4507 10.9282 14.5284 10.8916C14.8012 10.7629 14.931 10.4743 14.8489 10.179C14.8188 10.0707 14.6831 9.91457 14.5634 9.85062L14.4677 9.79944L11.718 9.79546C10.2057 9.79327 8.94225 9.79948 8.9104 9.80927ZM7.42017 12.8834C6.76008 12.9424 5.99245 13.2064 5.0314 13.7049C4.57837 13.9399 4.27794 14.1261 3.62428 14.5767C2.85404 15.1078 2.40073 15.442 2.34553 15.5195C2.27996 15.6116 2.2526 15.7584 2.28083 15.8666C2.29583 15.924 2.58771 16.3209 3.17259 17.0791C3.6508 17.6991 4.06388 18.234 4.09055 18.2677C4.17472 18.3742 4.30883 18.4363 4.45126 18.4347C4.52132 18.4339 4.59975 18.422 4.62551 18.4082C4.65127 18.3944 4.82792 18.2616 5.01802 18.113C5.20812 17.9644 5.41047 17.8211 5.46766 17.7946C5.61912 17.7244 5.79893 17.7317 6.07998 17.8195C6.67646 18.0059 7.44713 18.1921 8.01128 18.2862C9.13967 18.4744 9.6817 18.4407 10.6435 18.1225C11.6812 17.7792 13.1441 17.0537 14.4978 16.211C15.3615 15.6734 15.4489 15.6014 15.5948 15.3083C15.6624 15.1724 15.6692 15.1396 15.6684 14.9503C15.6674 14.705 15.6155 14.5489 15.4789 14.3809C15.2966 14.1565 15.0788 14.0547 14.7796 14.054C14.6159 14.0536 14.5409 14.0674 14.329 14.1366C13.9207 14.27 13.545 14.3739 13.1291 14.4687L12.7407 14.5572L12.6752 14.6522C12.4974 14.9102 12.1077 15.1859 11.7462 15.3094C11.3716 15.4375 11.2138 15.4581 10.6204 15.4565C10.0942 15.4552 9.16791 15.3959 9.00297 15.3531C8.8257 15.307 8.73463 15.1825 8.75908 15.0195C8.77666 14.9024 8.87752 14.789 8.98296 14.7679C9.02289 14.7599 9.21269 14.7687 9.40475 14.7873C10.2422 14.8686 10.8366 14.8884 11.1403 14.845C11.7056 14.7644 12.1046 14.5321 12.2755 14.1842C12.3364 14.0603 12.3419 14.0281 12.3419 13.795C12.3419 13.5077 12.3066 13.3986 12.1529 13.2112C11.9682 12.9858 11.8926 12.9682 11.1288 12.9728C10.7231 12.9753 10.2669 12.9604 9.77704 12.9287C8.94481 12.8749 7.76831 12.8522 7.42017 12.8834Z" stroke="#727B83" stroke-width="3.34967" mask="url(#path-1-outside-1_705:6419)"/>
</svg>
