<svg width="40" height="40" viewBox="0 0 40 40" fill="none" xmlns="http://www.w3.org/2000/svg">
<path d="M15.0476 8.95603C10.2104 8.07508 6.38563 8.99714 4.86126 11.6374C3.7238 13.6076 4.04895 16.2198 5.64995 19.012C5.68156 19.07 5.72444 19.1211 5.77606 19.1623C5.82769 19.2035 5.88702 19.234 5.95058 19.252C6.01414 19.2699 6.08064 19.275 6.1462 19.2669C6.21175 19.2589 6.27503 19.2378 6.33233 19.2049C6.38962 19.1721 6.43978 19.1281 6.47986 19.0756C6.51994 19.0231 6.54913 18.9631 6.56572 18.8992C6.58231 18.8352 6.58596 18.7686 6.57647 18.7033C6.56698 18.6379 6.54453 18.5751 6.51044 18.5185C5.06848 16.0033 4.78778 13.749 5.72045 12.1335C6.98682 9.94022 10.3983 9.11767 14.8698 9.93203C14.9983 9.95343 15.1301 9.92342 15.2366 9.8485C15.3432 9.77358 15.416 9.65975 15.4394 9.5316C15.4627 9.40345 15.4347 9.27125 15.3614 9.16356C15.2881 9.05587 15.1754 8.98133 15.0476 8.95603ZM8.16539 22.406C10.1213 24.5554 12.6624 26.5715 15.5605 28.2445C22.5774 32.2959 30.0476 33.3786 33.7292 30.8684C33.7843 30.8323 33.8316 30.7855 33.8684 30.7308C33.9052 30.6762 33.9307 30.6148 33.9435 30.5502C33.9563 30.4855 33.9561 30.419 33.9429 30.3545C33.9297 30.2899 33.9038 30.2286 33.8667 30.1742C33.8296 30.1198 33.782 30.0733 33.7267 30.0375C33.6715 30.0016 33.6096 29.9772 33.5448 29.9655C33.4799 29.9538 33.4134 29.9552 33.3491 29.9695C33.2848 29.9838 33.224 30.0108 33.1702 30.0489C29.8752 32.2955 22.7792 31.2669 16.0566 27.3855C13.2452 25.7624 10.7844 23.81 8.89921 21.7382C8.85544 21.6897 8.80253 21.6504 8.74351 21.6224C8.6845 21.5944 8.62054 21.5784 8.55531 21.5752C8.49008 21.572 8.42486 21.5817 8.36339 21.6038C8.30192 21.6258 8.24541 21.6598 8.1971 21.7038C8.1488 21.7477 8.10965 21.8008 8.0819 21.8599C8.05416 21.919 8.03836 21.983 8.03541 22.0483C8.03246 22.1135 8.04243 22.1787 8.06473 22.2401C8.08704 22.3015 8.12124 22.3579 8.16539 22.406Z" fill="#488490"/>
<path d="M32.5546 21.8027C35.722 18.0608 36.8279 14.2974 35.3067 11.6628C34.1874 9.72397 31.8212 8.70035 28.6763 8.65942C28.546 8.65962 28.4209 8.71109 28.3282 8.80272C28.2356 8.89435 28.1826 9.01878 28.181 9.1491C28.1793 9.27942 28.2289 9.40517 28.3192 9.49917C28.4095 9.59317 28.5332 9.64786 28.6635 9.65143C31.4918 9.68826 33.5305 10.5701 34.4477 12.1589C35.7111 14.3473 34.7248 17.7033 31.7974 21.1617C31.7544 21.2113 31.7217 21.2689 31.7012 21.3312C31.6807 21.3935 31.6727 21.4593 31.6778 21.5247C31.6829 21.5902 31.7009 21.6539 31.7307 21.7123C31.7606 21.7708 31.8018 21.8227 31.8519 21.8651C31.902 21.9075 31.96 21.9395 32.0225 21.9593C32.0851 21.9791 32.1509 21.9864 32.2163 21.9806C32.2816 21.9748 32.3452 21.956 32.4033 21.9255C32.4614 21.895 32.5128 21.8532 32.5546 21.8027ZM24.4146 9.12129C21.5507 9.73495 18.5024 10.9347 15.5749 12.6248C8.33123 16.8069 3.60597 22.9738 4.26222 27.4453C4.27097 27.5104 4.29255 27.5731 4.32571 27.6297C4.35887 27.6864 4.40294 27.7359 4.45538 27.7754C4.50782 27.815 4.56758 27.8437 4.6312 27.8599C4.69481 27.8761 4.76102 27.8796 4.82598 27.87C4.89094 27.8605 4.95335 27.8382 5.00961 27.8043C5.06587 27.7705 5.11486 27.7258 5.15372 27.6729C5.19259 27.62 5.22057 27.5599 5.23603 27.4961C5.25149 27.4322 5.25414 27.366 5.24381 27.3012C4.66103 23.3309 9.1402 17.4855 16.071 13.484C18.9108 11.8443 21.8625 10.6827 24.6223 10.0913C24.6869 10.0786 24.7483 10.0532 24.803 10.0165C24.8576 9.97975 24.9044 9.93253 24.9407 9.87756C24.9769 9.82259 25.0018 9.76096 25.014 9.69626C25.0261 9.63156 25.0253 9.56508 25.0115 9.50071C24.9977 9.43634 24.9712 9.37536 24.9337 9.32132C24.8961 9.26727 24.8481 9.22125 24.7925 9.18594C24.737 9.15062 24.6749 9.12672 24.61 9.11562C24.5452 9.10452 24.4787 9.10645 24.4146 9.12129Z" fill="#488490"/>
<path d="M12.6793 30.5452C14.3356 35.1694 17.0448 38.0167 20.0913 38.0167C22.3132 38.0167 24.3689 36.502 25.9719 33.8355C26.0066 33.7797 26.0299 33.7175 26.0403 33.6526C26.0507 33.5876 26.0482 33.5213 26.0327 33.4574C26.0173 33.3935 25.9893 33.3332 25.9504 33.2802C25.9115 33.2272 25.8625 33.1825 25.8061 33.1486C25.7498 33.1147 25.6872 33.0924 25.6222 33.0829C25.5571 33.0734 25.4908 33.0769 25.4271 33.0933C25.3634 33.1096 25.3036 33.1385 25.2512 33.1782C25.1987 33.2178 25.1547 33.2675 25.1217 33.3244C23.681 35.7208 21.9115 37.0245 20.0913 37.0245C17.5606 37.0245 15.1442 34.4851 13.6135 30.2109C13.5925 30.1483 13.5593 30.0905 13.5157 30.041C13.4721 29.9914 13.4191 29.951 13.3597 29.9222C13.3003 29.8934 13.2358 29.8767 13.1699 29.8731C13.104 29.8695 13.038 29.8792 12.9759 29.9014C12.9138 29.9236 12.8567 29.9581 12.808 30.0026C12.7593 30.0472 12.72 30.1011 12.6924 30.161C12.6648 30.221 12.6495 30.2858 12.6473 30.3518C12.645 30.4177 12.656 30.4835 12.6795 30.5452H12.6793ZM27.8062 29.6406C28.6637 26.901 29.1241 23.7407 29.1241 20.4473C29.1241 12.2295 26.2478 5.14543 22.151 3.32642C22.0314 3.27629 21.8968 3.27505 21.7762 3.32295C21.6556 3.37086 21.5586 3.4641 21.506 3.58269C21.4533 3.70127 21.4492 3.83577 21.4946 3.95734C21.5399 4.07892 21.6311 4.17789 21.7485 4.23304C25.4023 5.85562 28.1319 12.5787 28.1319 20.4473C28.1319 23.6425 27.686 26.7029 26.8596 29.3443C26.839 29.4067 26.8311 29.4726 26.8363 29.5382C26.8415 29.6037 26.8596 29.6676 26.8897 29.7261C26.9197 29.7845 26.9611 29.8364 27.0114 29.8788C27.0617 29.9211 27.1199 29.953 27.1827 29.9726C27.2454 29.9923 27.3114 29.9993 27.3769 29.9932C27.4424 29.987 27.506 29.968 27.564 29.9371C27.622 29.9062 27.6733 29.8641 27.7149 29.8132C27.7565 29.7623 27.7876 29.7036 27.8064 29.6406H27.8062ZM37.1484 29.1547C37.1484 27.8435 36.0856 26.7807 34.7744 26.7807C33.4632 26.7807 32.4003 27.8435 32.4003 29.1547C32.4003 30.4659 33.4632 31.5288 34.7744 31.5288C36.0856 31.5288 37.1484 30.4659 37.1484 29.1547ZM36.1564 29.1547C36.1564 29.3362 36.1207 29.5159 36.0512 29.6836C35.9818 29.8513 35.88 30.0037 35.7516 30.132C35.6233 30.2603 35.4709 30.3621 35.3033 30.4316C35.1356 30.5011 34.9559 30.5368 34.7744 30.5368C34.5929 30.5368 34.4132 30.5011 34.2455 30.4316C34.0778 30.3621 33.9254 30.2603 33.7971 30.132C33.6688 30.0037 33.567 29.8513 33.4975 29.6836C33.428 29.5159 33.3923 29.3362 33.3923 29.1547C33.3923 28.7882 33.5379 28.4366 33.7971 28.1775C34.0563 27.9183 34.4078 27.7727 34.7744 27.7727C35.1409 27.7727 35.4925 27.9183 35.7516 28.1775C36.0108 28.4366 36.1564 28.7882 36.1564 29.1547ZM5.37407 31.5288C6.68545 31.5288 7.74833 30.4659 7.74833 29.1547C7.74833 27.8435 6.68527 26.7807 5.37407 26.7807C4.06306 26.7807 3 27.8435 3 29.1547C3 30.4659 4.06306 31.5288 5.37407 31.5288ZM5.37407 30.5368C5.00752 30.5368 4.65599 30.3912 4.3968 30.132C4.13761 29.8728 3.992 29.5213 3.992 29.1547C3.992 28.7882 4.13761 28.4366 4.3968 28.1775C4.65599 27.9183 5.00752 27.7727 5.37407 27.7727C5.74062 27.7727 6.09215 27.9183 6.35134 28.1775C6.61053 28.4366 6.75614 28.7882 6.75614 29.1547C6.75614 29.5213 6.61053 29.8728 6.35134 30.132C6.09215 30.3912 5.74062 30.5368 5.37407 30.5368Z" fill="#488490"/>
<path d="M20.0914 5.74808C21.4026 5.74808 22.4654 4.68521 22.4654 3.37401C22.4654 2.06281 21.4026 0.999939 20.0914 0.999939C18.7802 0.999939 17.7173 2.06281 17.7173 3.37401C17.7173 4.68521 18.7802 5.74808 20.0914 5.74808ZM20.0914 4.75608C19.7248 4.75608 19.3733 4.61047 19.1141 4.35128C18.8549 4.09209 18.7093 3.74056 18.7093 3.37401C18.7093 3.00746 18.8549 2.65593 19.1141 2.39674C19.3733 2.13755 19.7248 1.99194 20.0914 1.99194C20.4579 1.99194 20.8094 2.13755 21.0686 2.39674C21.3278 2.65593 21.4734 3.00746 21.4734 3.37401C21.4734 3.74056 21.3278 4.09209 21.0686 4.35128C20.8094 4.61047 20.4579 4.75608 20.0914 4.75608ZM20.4539 22.1262C19.5266 22.3266 18.6131 21.7373 18.4124 20.81C18.3163 20.3647 18.401 19.8995 18.6478 19.5167C18.8946 19.1338 19.2834 18.8646 19.7286 18.7683C20.6559 18.568 21.5694 19.1573 21.7703 20.0846C21.9706 21.0118 21.3814 21.9255 20.4539 22.1262Z" fill="#488490"/>
</svg>
