<svg width="40" height="40" viewBox="0 0 40 40" fill="none" xmlns="http://www.w3.org/2000/svg">
<path d="M39 20.0039C39 17.4747 35.8475 15.0778 31.0143 13.5914C32.1296 8.64202 31.6339 4.70428 29.4497 3.44358C28.9462 3.14786 28.3575 3.00778 27.7146 3.00778V4.74319C28.0709 4.74319 28.3575 4.81323 28.5976 4.94553C29.651 5.55253 30.108 7.86381 29.7517 10.8366C29.6665 11.5681 29.5271 12.3385 29.3567 13.1245C27.8386 12.751 26.181 12.463 24.4382 12.2763C23.3926 10.8366 22.3082 9.52918 21.2161 8.38521C23.7411 6.02724 26.1113 4.73541 27.7224 4.73541V3C25.5923 3 22.8039 4.52529 19.9845 7.17121C17.1651 4.54086 14.3767 3.03113 12.2466 3.03113V4.76654C13.85 4.76654 16.2279 6.05058 18.753 8.393C17.6686 9.53696 16.5842 10.8366 15.554 12.2763C13.8035 12.463 12.1459 12.751 10.6278 13.1323C10.4497 12.3541 10.318 11.5992 10.225 10.8755C9.86099 7.90272 10.3102 5.59144 11.3559 4.97665C11.5883 4.83658 11.8903 4.77432 12.2466 4.77432V3.03891C11.596 3.03891 11.0073 3.17899 10.4961 3.47471C8.31961 4.73541 7.83163 8.66537 8.95475 13.5992C4.13697 15.0934 1 17.4825 1 20.0039C1 22.5331 4.15247 24.93 8.98573 26.4163C7.87036 31.3658 8.36608 35.3035 10.5503 36.5642C11.0538 36.8599 11.6425 37 12.2931 37C14.4232 37 17.2116 35.4747 20.031 32.8288C22.8504 35.4591 25.6388 36.9689 27.7689 36.9689C28.4195 36.9689 29.0082 36.8288 29.5194 36.5331C31.6959 35.2724 32.1839 31.3424 31.0607 26.4086C35.863 24.9222 39 22.5253 39 20.0039ZM28.9152 14.8132C28.6286 15.8171 28.2723 16.8521 27.8695 17.8872C27.552 17.2646 27.2189 16.642 26.8549 16.0195C26.4986 15.3969 26.119 14.7899 25.7395 14.1984C26.8394 14.3619 27.9005 14.5642 28.9152 14.8132ZM25.3677 23.1012C24.7636 24.1517 24.1439 25.1479 23.501 26.0739C22.3469 26.1751 21.1773 26.2296 20 26.2296C18.8304 26.2296 17.6608 26.1751 16.5145 26.0817C15.8716 25.1556 15.2442 24.1673 14.64 23.1245C14.0514 22.1051 13.5169 21.07 13.0289 20.0272C13.5092 18.9844 14.0514 17.9416 14.6323 16.9222C15.2364 15.8716 15.8561 14.8755 16.499 13.9494C17.6531 13.8482 18.8227 13.7938 20 13.7938C21.1696 13.7938 22.3392 13.8482 23.4855 13.9416C24.1284 14.8677 24.7558 15.856 25.36 16.8988C25.9486 17.9183 26.4831 18.9533 26.9711 19.9961C26.4831 21.0389 25.9486 22.0817 25.3677 23.1012ZM27.8695 22.0895C28.2878 23.1323 28.6441 24.1751 28.9384 25.1868C27.9238 25.4358 26.8549 25.6459 25.7472 25.8093C26.1268 25.2101 26.5063 24.5953 26.8626 23.965C27.2189 23.3424 27.552 22.7121 27.8695 22.0895ZM20.0155 30.393C19.2952 29.6459 18.5748 28.8132 17.8622 27.9027C18.5593 27.9339 19.2719 27.9572 19.9923 27.9572C20.7203 27.9572 21.4407 27.9416 22.1455 27.9027C21.4484 28.8132 20.7281 29.6459 20.0155 30.393ZM14.2528 25.8093C13.1529 25.6459 12.0917 25.4436 11.077 25.1946C11.3636 24.1907 11.7199 23.1556 12.1227 22.1206C12.4403 22.7432 12.7733 23.3658 13.1374 23.9883C13.5014 24.6109 13.8732 25.2179 14.2528 25.8093ZM19.9768 9.61479C20.6971 10.3619 21.4174 11.1946 22.13 12.1051C21.4329 12.0739 20.7203 12.0506 20 12.0506C19.2719 12.0506 18.5516 12.0661 17.8467 12.1051C18.5438 11.1946 19.2642 10.3619 19.9768 9.61479ZM14.245 14.1984C13.8655 14.7977 13.4859 15.4125 13.1296 16.0428C12.7733 16.6654 12.4403 17.2879 12.1227 17.9105C11.7044 16.8677 11.3481 15.8249 11.0538 14.8132C12.0685 14.572 13.1374 14.3619 14.245 14.1984ZM7.23522 23.9416C4.49327 22.7665 2.71953 21.2257 2.71953 20.0039C2.71953 18.7821 4.49327 17.2335 7.23522 16.0661C7.90135 15.7782 8.62943 15.5214 9.38076 15.2802C9.82226 16.8054 10.4032 18.393 11.1235 20.0195C10.4109 21.6381 9.83775 23.2179 9.404 24.7354C8.63718 24.4942 7.90909 24.2296 7.23522 23.9416ZM11.4024 35.0623C10.349 34.4553 9.89197 32.144 10.2483 29.1712C10.3335 28.4397 10.4729 27.6693 10.6433 26.8833C12.1614 27.2568 13.819 27.5447 15.5618 27.7315C16.6074 29.1712 17.6918 30.4786 18.7839 31.6226C16.2589 33.9805 13.8887 35.2724 12.2776 35.2724C11.9291 35.2646 11.6347 35.1945 11.4024 35.0623ZM29.775 29.1323C30.139 32.1051 29.6898 34.4163 28.6441 35.0311C28.4117 35.1712 28.1097 35.2335 27.7534 35.2335C26.15 35.2335 23.7721 33.9494 21.247 31.607C22.3314 30.463 23.4158 29.1634 24.446 27.7237C26.1965 27.537 27.8541 27.249 29.3722 26.8677C29.5503 27.6537 29.6898 28.4086 29.775 29.1323ZM32.757 23.9416C32.0909 24.2296 31.3628 24.4864 30.6115 24.7276C30.17 23.2023 29.5891 21.6148 28.8687 19.9883C29.5813 18.3696 30.1545 16.7899 30.5883 15.2724C31.3551 15.5136 32.0832 15.7782 32.7648 16.0661C35.5067 17.2412 37.2805 18.7821 37.2805 20.0039C37.2727 21.2257 35.499 22.7743 32.757 23.9416Z" fill="#61DAFB"/>
<path d="M20 24C22.2091 24 24 22.2091 24 20C24 17.7909 22.2091 16 20 16C17.7909 16 16 17.7909 16 20C16 22.2091 17.7909 24 20 24Z" fill="#61DAFB"/>
</svg>
