<svg width="232" height="178" viewBox="0 0 232 178" fill="none" xmlns="http://www.w3.org/2000/svg">
<path d="M34.6693 158.789C13.9074 148.214 2.0659 133.048 2 116.996V58H229V117C229 133.009 217.12 148.2 196.331 158.789C175.57 169.364 147.16 176 115.5 176C83.8397 176 55.4307 169.364 34.6693 158.789Z" fill="#0078D4" stroke="white" stroke-width="4"/>
<path d="M2.09326 100.099C2.1603 117.246 14.5401 132.98 35.2612 143.741C55.9812 154.501 84.2069 161.198 115.563 161.198C146.918 161.198 175.145 154.5 195.864 143.741C216.605 132.97 229.032 117.211 229.032 100.099" stroke="white" stroke-width="4"/>
<path d="M2 85.0989C2.06703 102.246 14.4469 117.98 35.168 128.741C55.888 139.501 84.1136 146.198 115.469 146.198C146.825 146.198 175.052 139.5 195.771 128.741C216.512 117.97 228.939 102.211 228.939 85.0989" stroke="white" stroke-width="4"/>
<path d="M229 51.5C229 57.9621 226.071 64.2675 220.472 70.1697C214.864 76.0823 206.654 81.4978 196.356 86.0894C175.766 95.2703 147.181 101 115.5 101C83.8192 101 55.2339 95.2703 34.6436 86.0894C24.3461 81.4978 16.1362 76.0823 10.5276 70.1697C4.92886 64.2675 2 57.9621 2 51.5C2 45.0379 4.92886 38.7325 10.5276 32.8303C16.1362 26.9177 24.3461 21.5022 34.6436 16.9106C55.2339 7.72973 83.8192 2 115.5 2C147.181 2 175.766 7.72973 196.356 16.9106C206.654 21.5022 214.864 26.9177 220.472 32.8303C226.071 38.7325 229 45.0379 229 51.5Z" fill="#0078D4" stroke="white" stroke-width="4"/>
<path d="M99.0618 132.129C99.0618 131.555 98.8591 131.115 98.4538 130.811C98.0484 130.501 97.3188 130.176 96.2648 129.839C95.2109 129.494 94.3765 129.156 93.7618 128.825C92.0863 127.92 91.2485 126.7 91.2485 125.167C91.2485 124.37 91.4715 123.66 91.9174 123.039C92.37 122.41 93.0152 121.921 93.853 121.569C94.6975 121.218 95.6433 121.042 96.6905 121.042C97.7444 121.042 98.6835 121.235 99.5077 121.62C100.332 121.998 100.97 122.535 101.423 123.231C101.882 123.927 102.112 124.718 102.112 125.603H99.0719C99.0719 124.927 98.8591 124.403 98.4335 124.032C98.0079 123.653 97.41 123.464 96.6398 123.464C95.8966 123.464 95.319 123.623 94.9069 123.941C94.4948 124.251 94.2887 124.663 94.2887 125.177C94.2887 125.657 94.5286 126.059 95.0082 126.383C95.4947 126.707 96.2074 127.011 97.1465 127.295C98.876 127.815 100.136 128.46 100.926 129.231C101.717 130.001 102.112 130.96 102.112 132.109C102.112 133.385 101.629 134.389 100.663 135.118C99.6969 135.841 98.3963 136.203 96.7614 136.203C95.6264 136.203 94.5927 135.997 93.6604 135.585C92.7281 135.166 92.0153 134.595 91.5221 133.872C91.0357 133.149 90.7925 132.311 90.7925 131.359H93.8428C93.8428 132.987 94.8157 133.801 96.7614 133.801C97.4843 133.801 98.0484 133.656 98.4538 133.365C98.8591 133.068 99.0618 132.656 99.0618 132.129ZM113.057 129.97H107.22V136H104.179V121.245H113.786V123.708H107.22V127.518H113.057V129.97ZM126.717 121.245V130.963C126.717 132.578 126.211 133.855 125.197 134.794C124.191 135.733 122.812 136.203 121.063 136.203C119.34 136.203 117.972 135.747 116.958 134.835C115.945 133.923 115.428 132.669 115.408 131.075V121.245H118.448V130.984C118.448 131.95 118.678 132.656 119.137 133.102C119.603 133.541 120.245 133.76 121.063 133.76C122.772 133.76 123.64 132.862 123.667 131.065V121.245H126.717ZM134.956 132.97C134.956 132.612 134.777 132.332 134.419 132.129C134.068 131.919 133.5 131.734 132.717 131.571C130.109 131.024 128.805 129.916 128.805 128.248C128.805 127.275 129.207 126.464 130.011 125.815C130.822 125.16 131.879 124.832 133.183 124.832C134.575 124.832 135.686 125.16 136.517 125.815C137.355 126.471 137.773 127.322 137.773 128.369H134.845C134.845 127.95 134.71 127.606 134.439 127.335C134.169 127.058 133.747 126.92 133.173 126.92C132.679 126.92 132.298 127.031 132.028 127.254C131.757 127.477 131.622 127.761 131.622 128.106C131.622 128.43 131.774 128.693 132.078 128.896C132.389 129.092 132.909 129.264 133.639 129.413C134.368 129.555 134.983 129.717 135.483 129.899C137.03 130.467 137.804 131.45 137.804 132.848C137.804 133.848 137.375 134.659 136.517 135.28C135.659 135.895 134.551 136.203 133.193 136.203C132.274 136.203 131.457 136.041 130.741 135.716C130.031 135.385 129.474 134.936 129.068 134.368C128.663 133.794 128.46 133.176 128.46 132.514H131.237C131.264 133.034 131.457 133.433 131.815 133.71C132.173 133.987 132.652 134.125 133.254 134.125C133.814 134.125 134.237 134.021 134.52 133.811C134.811 133.595 134.956 133.315 134.956 132.97Z" fill="white"/>
<path fill-rule="evenodd" clip-rule="evenodd" d="M130 58.3054V44.9804C130 44.5637 129.896 44.1534 129.697 43.7874C129.498 43.4213 129.21 43.1107 128.861 42.884C128.511 42.6572 128.111 42.5213 127.695 42.4888C127.28 42.4562 126.863 42.528 126.483 42.6976L121.706 44.82C121.461 44.147 121.05 43.5413 120.504 43.0627C119.722 42.3776 118.718 41.9999 117.678 42H104.286C103.149 42 102.059 42.4515 101.255 43.2553C100.452 44.059 100 45.1491 100 46.2857V57C100 58.1366 100.452 59.2267 101.255 60.0305C102.059 60.8342 103.149 61.2857 104.286 61.2857H117.679C118.718 61.2858 119.722 60.9081 120.504 60.223C121.05 59.7444 121.461 59.1386 121.706 58.4656L126.485 60.5885C126.865 60.7575 127.282 60.8288 127.697 60.796C128.112 60.7632 128.512 60.6273 128.862 60.4005C129.211 60.1738 129.498 59.8635 129.697 59.4977C129.895 59.1319 130 58.7217 130 58.3054ZM101.057 58.526C101.23 58.8937 101.467 59.2324 101.76 59.5254C102.43 60.1952 103.339 60.5714 104.286 60.5714H117.679C118.545 60.5715 119.382 60.2568 120.033 59.6858C120.432 59.3362 120.745 58.9051 120.953 58.4262C120.745 58.9051 120.432 59.3362 120.033 59.6858C119.382 60.2568 118.545 60.5715 117.679 60.5714H104.286C103.339 60.5714 102.43 60.1951 101.76 59.5253C101.467 59.2323 101.23 58.8936 101.057 58.526ZM121.22 57.4679L126.775 59.9357C127.047 60.0564 127.344 60.1074 127.641 60.084C127.937 60.0605 128.223 59.9634 128.473 59.8015C128.722 59.6395 128.927 59.4178 129.069 59.1566C129.096 59.1064 129.121 59.0551 129.143 59.0028C129.121 59.0551 129.096 59.1064 129.069 59.1565C128.927 59.4178 128.722 59.6395 128.473 59.8014C128.223 59.9634 127.937 60.0605 127.641 60.0839C127.344 60.1074 127.047 60.0564 126.775 59.9357L121.22 57.4678C121.22 57.4678 121.22 57.4678 121.22 57.4679ZM127.5 44.9804V44.9803L121.25 47.7589V47.7589L127.5 44.9804ZM126.786 57.2061L121.964 55.0626V48.2231L126.786 46.0796V57.2061ZM103.528 45.5281C103.729 45.3272 104.002 45.2143 104.286 45.2143H117.679C117.963 45.2143 118.235 45.3272 118.436 45.5281C118.637 45.729 118.75 46.0016 118.75 46.2857V57C118.75 57.2842 118.637 57.5567 118.436 57.7576C118.235 57.9585 117.963 58.0714 117.679 58.0714H104.286C104.002 58.0714 103.729 57.9585 103.528 57.7576C103.327 57.5567 103.214 57.2842 103.214 57V46.2857C103.214 46.0016 103.327 45.729 103.528 45.5281ZM104.286 44.5C103.812 44.5 103.358 44.6881 103.023 45.023C102.688 45.3579 102.5 45.8121 102.5 46.2857V46.2857C102.5 45.8121 102.688 45.3579 103.023 45.023C103.358 44.6881 103.812 44.5 104.286 44.5H117.679C118.152 44.5 118.606 44.6881 118.941 45.023C119.099 45.1805 119.224 45.3645 119.312 45.5644C119.224 45.3645 119.099 45.1806 118.941 45.023C118.606 44.6881 118.152 44.5 117.679 44.5H104.286Z" fill="white"/>
<path fill-rule="evenodd" clip-rule="evenodd" d="M137.37 29.3955L143.815 32.6544L167.098 23L172.576 25.77L153.482 37.5426L159.928 40.8015H137.37V29.3955ZM75.8521 27.6442L82.2972 24.3853L59.7392 24.3853L59.7392 35.7913L66.1843 32.5325L89.4675 42.1868L94.9458 39.4168L75.8521 27.6442ZM153.724 76.7949L147.279 80.0537H169.837V68.6477L163.392 71.9066L140.109 62.2522L134.63 65.0223L153.724 76.7949ZM85.7615 71.7843L92.2067 75.0432V63.6372H69.6486L76.0938 66.896L57 78.6687L62.4784 81.4387L85.7615 71.7843Z" fill="white"/>
<path fill-rule="evenodd" clip-rule="evenodd" d="M137.37 29.3955L143.815 32.6544L167.098 23L172.576 25.77L153.482 37.5426L159.928 40.8015H137.37V29.3955ZM75.8521 27.6442L82.2972 24.3853L59.7392 24.3853L59.7392 35.7913L66.1843 32.5325L89.4675 42.1868L94.9458 39.4168L75.8521 27.6442ZM153.724 76.7949L147.279 80.0537H169.837V68.6477L163.392 71.9066L140.109 62.2522L134.63 65.0223L153.724 76.7949ZM85.7615 71.7843L92.2067 75.0432V63.6372H69.6486L76.0938 66.896L57 78.6687L62.4784 81.4387L85.7615 71.7843Z" fill="white"/>
<path d="M34.6693 158.789C13.9074 148.214 2.0659 133.048 2 116.996V58H229V117C229 133.009 217.12 148.2 196.331 158.789C175.57 169.364 147.16 176 115.5 176C83.8397 176 55.4307 169.364 34.6693 158.789Z" fill="#0078D4" stroke="white" stroke-width="4"/>
<path d="M2.09326 100.099C2.1603 117.246 14.5401 132.98 35.2612 143.741C55.9812 154.501 84.2069 161.198 115.563 161.198C146.918 161.198 175.145 154.5 195.864 143.741C216.605 132.97 229.032 117.211 229.032 100.099" stroke="white" stroke-width="4"/>
<path d="M2 85.0989C2.06703 102.246 14.4469 117.98 35.168 128.741C55.888 139.501 84.1136 146.198 115.469 146.198C146.825 146.198 175.052 139.5 195.771 128.741C216.512 117.97 228.939 102.211 228.939 85.0989" stroke="white" stroke-width="4"/>
<path d="M229 51.5C229 57.9621 226.071 64.2675 220.472 70.1697C214.864 76.0823 206.654 81.4978 196.356 86.0894C175.766 95.2703 147.181 101 115.5 101C83.8192 101 55.2339 95.2703 34.6436 86.0894C24.3461 81.4978 16.1362 76.0823 10.5276 70.1697C4.92886 64.2675 2 57.9621 2 51.5C2 45.0379 4.92886 38.7325 10.5276 32.8303C16.1362 26.9177 24.3461 21.5022 34.6436 16.9106C55.2339 7.72973 83.8192 2 115.5 2C147.181 2 175.766 7.72973 196.356 16.9106C206.654 21.5022 214.864 26.9177 220.472 32.8303C226.071 38.7325 229 45.0379 229 51.5Z" fill="#0078D4" stroke="white" stroke-width="4"/>
<path d="M99.0618 132.129C99.0618 131.555 98.8591 131.115 98.4538 130.811C98.0484 130.501 97.3188 130.176 96.2648 129.839C95.2109 129.494 94.3765 129.156 93.7618 128.825C92.0863 127.92 91.2485 126.7 91.2485 125.167C91.2485 124.37 91.4715 123.66 91.9174 123.039C92.37 122.41 93.0152 121.921 93.853 121.569C94.6975 121.218 95.6433 121.042 96.6905 121.042C97.7444 121.042 98.6835 121.235 99.5077 121.62C100.332 121.998 100.97 122.535 101.423 123.231C101.882 123.927 102.112 124.718 102.112 125.603H99.0719C99.0719 124.927 98.8591 124.403 98.4335 124.032C98.0079 123.653 97.41 123.464 96.6398 123.464C95.8966 123.464 95.319 123.623 94.9069 123.941C94.4948 124.251 94.2887 124.663 94.2887 125.177C94.2887 125.657 94.5286 126.059 95.0082 126.383C95.4947 126.707 96.2074 127.011 97.1465 127.295C98.876 127.815 100.136 128.46 100.926 129.231C101.717 130.001 102.112 130.96 102.112 132.109C102.112 133.385 101.629 134.389 100.663 135.118C99.6969 135.841 98.3963 136.203 96.7614 136.203C95.6264 136.203 94.5927 135.997 93.6604 135.585C92.7281 135.166 92.0153 134.595 91.5221 133.872C91.0357 133.149 90.7925 132.311 90.7925 131.359H93.8428C93.8428 132.987 94.8157 133.801 96.7614 133.801C97.4843 133.801 98.0484 133.656 98.4538 133.365C98.8591 133.068 99.0618 132.656 99.0618 132.129ZM113.057 129.97H107.22V136H104.179V121.245H113.786V123.708H107.22V127.518H113.057V129.97ZM126.717 121.245V130.963C126.717 132.578 126.211 133.855 125.197 134.794C124.191 135.733 122.812 136.203 121.063 136.203C119.34 136.203 117.972 135.747 116.958 134.835C115.945 133.923 115.428 132.669 115.408 131.075V121.245H118.448V130.984C118.448 131.95 118.678 132.656 119.137 133.102C119.603 133.541 120.245 133.76 121.063 133.76C122.772 133.76 123.64 132.862 123.667 131.065V121.245H126.717ZM134.956 132.97C134.956 132.612 134.777 132.332 134.419 132.129C134.068 131.919 133.5 131.734 132.717 131.571C130.109 131.024 128.805 129.916 128.805 128.248C128.805 127.275 129.207 126.464 130.011 125.815C130.822 125.16 131.879 124.832 133.183 124.832C134.575 124.832 135.686 125.16 136.517 125.815C137.355 126.471 137.773 127.322 137.773 128.369H134.845C134.845 127.95 134.71 127.606 134.439 127.335C134.169 127.058 133.747 126.92 133.173 126.92C132.679 126.92 132.298 127.031 132.028 127.254C131.757 127.477 131.622 127.761 131.622 128.106C131.622 128.43 131.774 128.693 132.078 128.896C132.389 129.092 132.909 129.264 133.639 129.413C134.368 129.555 134.983 129.717 135.483 129.899C137.03 130.467 137.804 131.45 137.804 132.848C137.804 133.848 137.375 134.659 136.517 135.28C135.659 135.895 134.551 136.203 133.193 136.203C132.274 136.203 131.457 136.041 130.741 135.716C130.031 135.385 129.474 134.936 129.068 134.368C128.663 133.794 128.46 133.176 128.46 132.514H131.237C131.264 133.034 131.457 133.433 131.815 133.71C132.173 133.987 132.652 134.125 133.254 134.125C133.814 134.125 134.237 134.021 134.52 133.811C134.811 133.595 134.956 133.315 134.956 132.97Z" fill="white"/>
<path fill-rule="evenodd" clip-rule="evenodd" d="M130 58.3054V44.9804C130 44.5637 129.896 44.1534 129.697 43.7874C129.498 43.4213 129.21 43.1107 128.861 42.884C128.511 42.6572 128.111 42.5213 127.695 42.4888C127.28 42.4562 126.863 42.528 126.483 42.6976L121.706 44.82C121.461 44.147 121.05 43.5413 120.504 43.0627C119.722 42.3776 118.718 41.9999 117.678 42H104.286C103.149 42 102.059 42.4515 101.255 43.2553C100.452 44.059 100 45.1491 100 46.2857V57C100 58.1366 100.452 59.2267 101.255 60.0305C102.059 60.8342 103.149 61.2857 104.286 61.2857H117.679C118.718 61.2858 119.722 60.9081 120.504 60.223C121.05 59.7444 121.461 59.1386 121.706 58.4656L126.485 60.5885C126.865 60.7575 127.282 60.8288 127.697 60.796C128.112 60.7632 128.512 60.6273 128.862 60.4005C129.211 60.1738 129.498 59.8635 129.697 59.4977C129.895 59.1319 130 58.7217 130 58.3054ZM101.057 58.526C101.23 58.8937 101.467 59.2324 101.76 59.5254C102.43 60.1952 103.339 60.5714 104.286 60.5714H117.679C118.545 60.5715 119.382 60.2568 120.033 59.6858C120.432 59.3362 120.745 58.9051 120.953 58.4262C120.745 58.9051 120.432 59.3362 120.033 59.6858C119.382 60.2568 118.545 60.5715 117.679 60.5714H104.286C103.339 60.5714 102.43 60.1951 101.76 59.5253C101.467 59.2323 101.23 58.8936 101.057 58.526ZM121.22 57.4679L126.775 59.9357C127.047 60.0564 127.344 60.1074 127.641 60.084C127.937 60.0605 128.223 59.9634 128.473 59.8015C128.722 59.6395 128.927 59.4178 129.069 59.1566C129.096 59.1064 129.121 59.0551 129.143 59.0028C129.121 59.0551 129.096 59.1064 129.069 59.1565C128.927 59.4178 128.722 59.6395 128.473 59.8014C128.223 59.9634 127.937 60.0605 127.641 60.0839C127.344 60.1074 127.047 60.0564 126.775 59.9357L121.22 57.4678C121.22 57.4678 121.22 57.4678 121.22 57.4679ZM127.5 44.9804V44.9803L121.25 47.7589V47.7589L127.5 44.9804ZM126.786 57.2061L121.964 55.0626V48.2231L126.786 46.0796V57.2061ZM103.528 45.5281C103.729 45.3272 104.002 45.2143 104.286 45.2143H117.679C117.963 45.2143 118.235 45.3272 118.436 45.5281C118.637 45.729 118.75 46.0016 118.75 46.2857V57C118.75 57.2842 118.637 57.5567 118.436 57.7576C118.235 57.9585 117.963 58.0714 117.679 58.0714H104.286C104.002 58.0714 103.729 57.9585 103.528 57.7576C103.327 57.5567 103.214 57.2842 103.214 57V46.2857C103.214 46.0016 103.327 45.729 103.528 45.5281ZM104.286 44.5C103.812 44.5 103.358 44.6881 103.023 45.023C102.688 45.3579 102.5 45.8121 102.5 46.2857V46.2857C102.5 45.8121 102.688 45.3579 103.023 45.023C103.358 44.6881 103.812 44.5 104.286 44.5H117.679C118.152 44.5 118.606 44.6881 118.941 45.023C119.099 45.1805 119.224 45.3645 119.312 45.5644C119.224 45.3645 119.099 45.1806 118.941 45.023C118.606 44.6881 118.152 44.5 117.679 44.5H104.286Z" fill="white"/>
<path fill-rule="evenodd" clip-rule="evenodd" d="M137.37 29.3955L143.815 32.6544L167.098 23L172.576 25.77L153.482 37.5426L159.928 40.8015H137.37V29.3955ZM75.8521 27.6442L82.2972 24.3853L59.7392 24.3853L59.7392 35.7913L66.1843 32.5325L89.4675 42.1868L94.9458 39.4168L75.8521 27.6442ZM153.724 76.7949L147.279 80.0537H169.837V68.6477L163.392 71.9066L140.109 62.2522L134.63 65.0223L153.724 76.7949ZM85.7615 71.7843L92.2067 75.0432V63.6372H69.6486L76.0938 66.896L57 78.6687L62.4784 81.4387L85.7615 71.7843Z" fill="white"/>
<path fill-rule="evenodd" clip-rule="evenodd" d="M137.37 29.3955L143.815 32.6544L167.098 23L172.576 25.77L153.482 37.5426L159.928 40.8015H137.37V29.3955ZM75.8521 27.6442L82.2972 24.3853L59.7392 24.3853L59.7392 35.7913L66.1843 32.5325L89.4675 42.1868L94.9458 39.4168L75.8521 27.6442ZM153.724 76.7949L147.279 80.0537H169.837V68.6477L163.392 71.9066L140.109 62.2522L134.63 65.0223L153.724 76.7949ZM85.7615 71.7843L92.2067 75.0432V63.6372H69.6486L76.0938 66.896L57 78.6687L62.4784 81.4387L85.7615 71.7843Z" fill="white"/>
</svg>
