<svg width="32" height="32" viewBox="0 0 32 32" fill="none" xmlns="http://www.w3.org/2000/svg">
<path fill-rule="evenodd" clip-rule="evenodd" d="M16 32.0001C23.0112 32.0001 26.9091 32.0001 29.4543 29.4544C32 26.9087 32 23.0108 32 16.0001C32 8.98894 32 5.09105 29.4543 2.54583C26.9091 0.00012207 23.0112 0.00012207 16 0.00012207C8.98882 0.00012207 5.09141 0.00012207 2.54571 2.54583C0 5.09105 0 8.98894 0 16.0001C0 23.0108 0 26.9087 2.54571 29.4544C5.09141 32.0001 8.98882 32.0001 16 32.0001Z" fill="#EF3939"/>
<path fill-rule="evenodd" clip-rule="evenodd" d="M23.5469 12.9424C21.5896 16.3483 19.6304 19.7518 17.6761 23.159C17.3131 23.7919 16.7853 24.1749 16.0613 24.2275C15.2498 24.2862 14.6127 23.9438 14.2038 23.2398C12.9654 21.1053 11.7408 18.9623 10.5109 16.823C9.76299 15.5211 9.01218 14.221 8.26758 12.9176C7.5163 11.6027 8.36358 10.0047 9.87092 9.92728C10.6671 9.88621 11.2808 10.2535 11.6849 10.946C12.237 11.8931 12.7791 12.846 13.3255 13.7959C13.7195 14.4804 14.1054 15.1696 14.5109 15.8468C15.0974 16.8297 15.96 17.3842 17.1077 17.453C18.7325 17.55 20.2413 16.3717 20.4357 14.6408C20.4505 14.5109 20.4601 14.382 20.4658 14.3156C20.4572 13.7553 20.3526 13.2835 20.1305 12.8383C19.5239 11.6209 20.1701 10.2568 21.4893 9.96406C22.5635 9.72621 23.6749 10.5171 23.8172 11.6094C23.8793 12.0894 23.7847 12.5293 23.5469 12.9424ZM24.2576 7.47857C19.6233 2.84048 12.11 2.84048 7.4757 7.47857C2.84143 12.1167 2.84143 19.6367 7.4757 24.2743C12.11 28.9124 19.6233 28.9124 24.2576 24.2743C28.8918 19.6367 28.8918 12.1167 24.2576 7.47857Z" fill="white"/>
</svg>
