<svg width="106" height="106" viewBox="0 0 106 106" fill="none" xmlns="http://www.w3.org/2000/svg">
<rect x="2" y="2" width="102" height="102" rx="12" fill="white" stroke="#0078D4" stroke-width="4"/>
<path fill-rule="evenodd" clip-rule="evenodd" d="M75.5135 28.2H32.4865C31.2406 28.2 30.2 29.2192 30.2 30.5143V59.8H77.8V30.5143C77.8 29.2192 76.7594 28.2 75.5135 28.2ZM32.4865 24H75.5135C79.0959 24 82 26.9165 82 30.5143V64H26V30.5143C26 26.9165 28.9041 24 32.4865 24Z" fill="#656565"/>
<path d="M46.1818 37.9338C46.1818 37.463 46.5725 37.0813 47.0545 37.0813H49.6727C50.1547 37.0813 50.5454 37.463 50.5454 37.9338V49.8684C50.5454 50.3392 50.1547 50.7208 49.6727 50.7208H47.0545C46.5725 50.7208 46.1818 50.3392 46.1818 49.8684V37.9338Z" fill="#0078D4"/>
<path d="M52.4546 43.0187C52.4546 42.546 52.8453 42.1628 53.3273 42.1628H55.9455C56.4275 42.1628 56.8182 42.546 56.8182 43.0187V49.8652C56.8182 50.3378 56.4275 50.721 55.9455 50.721H53.3273C52.8453 50.721 52.4546 50.3378 52.4546 49.8652V43.0187Z" fill="#0078D4"/>
<path d="M58.4546 35.2656C58.4546 34.7914 58.8453 34.407 59.3273 34.407H61.9455C62.4275 34.407 62.8182 34.7914 62.8182 35.2656V49.8623C62.8182 50.3365 62.4275 50.7209 61.9455 50.7209H59.3273C58.8453 50.7209 58.4546 50.3365 58.4546 49.8623V35.2656Z" fill="#0078D4"/>
<path fill-rule="evenodd" clip-rule="evenodd" d="M42.3091 32C43.0321 32 43.6182 32.5721 43.6182 33.2778V52.4444H63.6909C64.4139 52.4444 65 53.0165 65 53.7222C65 54.4279 64.4139 55 63.6909 55H42.3091C41.5861 55 41 54.4279 41 53.7222V33.2778C41 32.5721 41.5861 32 42.3091 32Z" fill="#0078D4"/>
<path d="M27.1792 81.9751L28.5908 74.5137H30.7443L28.418 85H26.2429L24.536 77.9851L22.8291 85H20.6541L18.3278 74.5137H20.4812L21.9 81.9607L23.6285 74.5137H25.4579L27.1792 81.9751ZM35.1376 85.144C33.9948 85.144 33.0634 84.7935 32.3431 84.0925C31.6277 83.3915 31.27 82.4576 31.27 81.2909V81.0892C31.27 80.3066 31.4213 79.608 31.7238 78.9934C32.0262 78.374 32.4536 77.8987 33.0057 77.5674C33.5627 77.2313 34.1965 77.0632 34.9071 77.0632C35.973 77.0632 36.8109 77.3993 37.4207 78.0715C38.0352 78.7437 38.3425 79.6968 38.3425 80.9308V81.7806H33.3802C33.4475 82.2896 33.6491 82.6977 33.9852 83.005C34.3261 83.3123 34.7559 83.4659 35.2744 83.4659C36.0763 83.4659 36.7028 83.1755 37.1542 82.5945L38.1769 83.7396C37.8648 84.1814 37.4423 84.5271 36.9093 84.7767C36.3763 85.0216 35.7858 85.144 35.1376 85.144ZM34.8999 78.7485C34.487 78.7485 34.1509 78.8878 33.8916 79.1663C33.6371 79.4447 33.4739 79.8433 33.4019 80.3618H36.2971V80.1962C36.2875 79.7352 36.1627 79.3799 35.9226 79.1302C35.6825 78.8758 35.3416 78.7485 34.8999 78.7485ZM46.553 81.1757C46.553 82.424 46.2865 83.3987 45.7535 84.0997C45.2206 84.7959 44.4764 85.144 43.5209 85.144C42.6758 85.144 42.0012 84.8199 41.4971 84.1718L41.4034 85H39.5309V73.9375H41.6123V77.9059C42.0924 77.3441 42.7238 77.0632 43.5065 77.0632C44.4572 77.0632 45.2014 77.4137 45.7391 78.1147C46.2817 78.811 46.553 79.7928 46.553 81.0604V81.1757ZM44.4716 81.0244C44.4716 80.237 44.3467 79.6632 44.097 79.3031C43.8474 78.9382 43.4753 78.7557 42.9807 78.7557C42.3181 78.7557 41.862 79.027 41.6123 79.5696V82.6449C41.8668 83.1923 42.3277 83.4659 42.9951 83.4659C43.6673 83.4659 44.109 83.1346 44.3203 82.472C44.4211 82.1552 44.4716 81.6726 44.4716 81.0244ZM58.5302 81.1757C58.5302 82.376 58.2565 83.3387 57.7091 84.0637C57.1665 84.7839 56.4319 85.144 55.5052 85.144C54.7178 85.144 54.0816 84.8704 53.5967 84.323V87.9961H51.5153V77.2073H53.4454L53.5175 77.9707C54.0216 77.3657 54.6794 77.0632 55.4908 77.0632C56.4511 77.0632 57.1978 77.4185 57.7307 78.1292C58.2637 78.8398 58.5302 79.8193 58.5302 81.0676V81.1757ZM56.4487 81.0244C56.4487 80.2994 56.3191 79.74 56.0598 79.3463C55.8053 78.9526 55.4332 78.7557 54.9435 78.7557C54.2905 78.7557 53.8416 79.0054 53.5967 79.5048V82.6953C53.8512 83.2091 54.3049 83.4659 54.9579 83.4659C55.9518 83.4659 56.4487 82.6521 56.4487 81.0244ZM59.5024 81.0316C59.5024 80.2586 59.6513 79.5696 59.949 78.9646C60.2467 78.3596 60.674 77.8915 61.231 77.5602C61.7927 77.2289 62.4433 77.0632 63.1827 77.0632C64.2343 77.0632 65.0913 77.3849 65.7539 78.0283C66.4213 78.6717 66.7934 79.5456 66.8702 80.6499L66.8846 81.1829C66.8846 82.3784 66.5509 83.3387 65.8835 84.0637C65.2161 84.7839 64.3207 85.144 63.1971 85.144C62.0736 85.144 61.1757 84.7839 60.5035 84.0637C59.8361 83.3435 59.5024 82.364 59.5024 81.1252V81.0316ZM61.5839 81.1829C61.5839 81.9223 61.7231 82.4889 62.0016 82.8826C62.2801 83.2715 62.6786 83.4659 63.1971 83.4659C63.7013 83.4659 64.095 83.2739 64.3783 82.8898C64.6616 82.5009 64.8032 81.8815 64.8032 81.0316C64.8032 80.3066 64.6616 79.7448 64.3783 79.3463C64.095 78.9478 63.6965 78.7485 63.1827 78.7485C62.6738 78.7485 62.2801 78.9478 62.0016 79.3463C61.7231 79.74 61.5839 80.3522 61.5839 81.1829ZM72.5455 79.1591C72.2622 79.1206 72.0126 79.1014 71.7965 79.1014C71.0091 79.1014 70.4929 79.3679 70.248 79.9009V85H68.1666V77.2073H70.1328L70.1904 78.1364C70.6082 77.4209 71.1867 77.0632 71.9261 77.0632C72.1566 77.0632 72.3727 77.0944 72.5743 77.1569L72.5455 79.1591ZM76.4059 75.2915V77.2073H77.7383V78.7341H76.4059V82.6233C76.4059 82.9114 76.4611 83.1178 76.5715 83.2427C76.682 83.3675 76.8932 83.4299 77.2053 83.4299C77.4358 83.4299 77.6399 83.4131 77.8175 83.3795V84.9568C77.4094 85.0816 76.9893 85.144 76.5571 85.144C75.0975 85.144 74.3533 84.407 74.3245 82.933V78.7341H73.1865V77.2073H74.3245V75.2915H76.4059ZM83.4136 85C83.3175 84.8127 83.2479 84.5799 83.2047 84.3014C82.7006 84.8632 82.0452 85.144 81.2385 85.144C80.4751 85.144 79.8413 84.9232 79.3372 84.4814C78.8378 84.0397 78.5881 83.4827 78.5881 82.8105C78.5881 81.9847 78.893 81.3509 79.5028 80.9092C80.1174 80.4674 81.0033 80.2442 82.1604 80.2394H83.1183V79.7928C83.1183 79.4327 83.0247 79.1447 82.8374 78.9286C82.6549 78.7125 82.3645 78.6045 81.9659 78.6045C81.6154 78.6045 81.3394 78.6885 81.1377 78.8566C80.9408 79.0246 80.8424 79.2551 80.8424 79.548H78.761C78.761 79.0966 78.9002 78.6789 79.1787 78.2948C79.4572 77.9107 79.8509 77.6106 80.3599 77.3945C80.8688 77.1737 81.4402 77.0632 82.074 77.0632C83.0343 77.0632 83.7953 77.3057 84.3571 77.7906C84.9236 78.2708 85.2069 78.9478 85.2069 79.8217V83.1995C85.2117 83.9389 85.3149 84.4983 85.5166 84.8776V85H83.4136ZM81.6923 83.5524C81.9996 83.5524 82.2828 83.4851 82.5421 83.3507C82.8014 83.2115 82.9934 83.0266 83.1183 82.7961V81.4565H82.3405C81.2985 81.4565 80.744 81.8167 80.6768 82.5369L80.6696 82.6593C80.6696 82.9186 80.7608 83.1322 80.9432 83.3003C81.1257 83.4683 81.3754 83.5524 81.6923 83.5524ZM89.0024 85H86.9138V73.9375H89.0024V85Z" fill="#383636"/>
</svg>
