<svg width="100" height="100" viewBox="0 0 100 100" fill="none" xmlns="http://www.w3.org/2000/svg">
<g clip-path="url(#clip0_808_7070)">
<path d="M48.1536 31.047C45.211 36.0245 42.3918 40.8445 39.5138 45.6283C38.7747 46.8564 38.4089 47.8569 38.9993 49.418C40.6296 53.7307 38.3298 57.9276 34.0077 59.0667C29.9316 60.1414 25.9603 57.4459 25.1516 53.0548C24.4349 49.1682 27.4324 45.3581 31.6913 44.7506C32.048 44.6993 32.4124 44.6934 33.012 44.6482L39.4902 33.7177C35.4158 29.6411 32.9907 24.876 33.5273 18.971C33.9067 14.797 35.5381 11.1898 38.5195 8.23332C44.23 2.57161 52.942 1.65488 59.6659 6.00051C66.1236 10.1748 69.0812 18.3057 66.5601 25.2648C64.6592 24.7463 62.745 24.2233 60.6407 23.649C61.4323 19.7797 60.8468 16.3053 58.2534 13.3288C56.5399 11.3636 54.3412 10.3336 51.8412 9.95405C46.829 9.19219 41.9081 12.4322 40.4479 17.3822C38.7905 22.9999 41.2991 27.5891 48.1536 31.0473V31.047Z" fill="#0078D4"/>
<path d="M56.5576 25.1608C58.6308 28.8408 60.7358 32.5764 62.822 36.2777C73.3666 32.995 81.3169 38.8685 84.1691 45.1567C87.6143 52.7527 85.2591 61.7492 78.4933 66.4356C71.5486 71.2461 62.766 70.4243 56.6131 64.2446C58.1812 62.9238 59.7571 61.5971 61.4408 60.1797C67.518 64.1402 72.8333 63.9538 76.7793 59.2638C80.1443 55.2629 80.0714 49.2972 76.6088 45.3803C72.6128 40.8602 67.2603 40.7224 60.7905 45.0613C58.1066 40.2703 55.3762 35.5175 52.7772 30.6919C51.9008 29.0655 50.9334 28.1217 48.9581 27.7776C45.6597 27.2021 43.5302 24.352 43.4024 21.1589C43.2768 18.001 45.1258 15.1464 48.0157 14.0344C50.8785 12.9323 54.2379 13.8217 56.1635 16.2708C57.7372 18.2717 58.2372 20.5238 57.4091 22.9916C57.1789 23.6797 56.8807 24.3456 56.5576 25.161V25.1608Z" fill="#383636"/>
<path d="M61.5127 55.2441H48.8187C47.602 60.2796 44.9739 64.345 40.4457 66.9303C36.9253 68.9396 33.1313 69.6208 29.0931 68.9647C21.6581 67.7583 15.5787 61.0236 15.0435 53.4402C14.4377 44.8494 20.3061 37.2133 28.128 35.4982C28.668 37.4715 29.2138 39.4637 29.7538 41.4322C22.5772 45.1165 20.0933 49.7585 22.1019 55.5631C23.8699 60.6711 28.8924 63.471 34.3458 62.3882C39.9148 61.2826 42.7227 56.6255 42.3799 49.1515C47.6594 49.1515 52.9433 49.0965 58.2234 49.1786C60.2852 49.2112 61.8768 48.9961 63.43 47.1671C65.9871 44.1576 70.6939 44.4291 73.4479 47.2714C76.2624 50.1762 76.1276 54.8501 73.1492 57.6324C70.2757 60.317 65.7358 60.1735 63.0472 57.2807C62.4948 56.6846 62.0593 55.9767 61.5127 55.2441Z" fill="#656565"/>
</g>
<path d="M13.1675 84.4319C13.3072 84.9092 13.4585 85.4505 13.6215 86.0558C13.7961 86.6495 13.9766 87.2665 14.1628 87.9068C14.3607 88.5471 14.5586 89.1873 14.7565 89.8276C14.9544 90.4679 15.1465 91.0616 15.3328 91.6087C15.4841 91.015 15.6354 90.3689 15.7868 89.6704C15.9497 88.972 16.1011 88.2502 16.2408 87.5052C16.3805 86.7601 16.5143 86.0209 16.6424 85.2875C16.7821 84.5425 16.9101 83.8265 17.0266 83.1397H19.8554C19.4479 85.1653 18.9765 87.22 18.441 89.3037C17.9171 91.3875 17.3467 93.3665 16.7297 95.2408H14.2327C13.8252 94.1232 13.4294 92.9533 13.0453 91.7309C12.6611 90.497 12.2828 89.263 11.9102 88.029C11.5377 89.263 11.1652 90.497 10.7927 91.7309C10.4202 92.9533 10.0302 94.1232 9.62272 95.2408H7.12568C6.50869 93.3665 5.93245 91.3875 5.39695 89.3037C4.87309 87.22 4.40744 85.1653 4 83.1397H6.95106C7.06747 83.8265 7.19552 84.5425 7.33522 85.2875C7.47491 86.0209 7.62043 86.7601 7.77177 87.5052C7.9231 88.2502 8.07444 88.972 8.22577 89.6704C8.38875 90.3689 8.55173 91.015 8.71471 91.6087C8.92425 91.0383 9.12797 90.4329 9.32587 89.7927C9.52377 89.1524 9.71585 88.5121 9.90211 87.8719C10.0884 87.2316 10.2572 86.6146 10.4085 86.0209C10.5715 85.4272 10.717 84.8975 10.8451 84.4319H13.1675Z" fill="#383636"/>
<path d="M21.6058 95.2408V83.1397H29.778V85.4272H24.3299V87.802H29.1668V90.0371H24.3299V92.9533H30.1796V95.2408H21.6058Z" fill="#383636"/>
<path d="M36.2292 95.3979C35.5656 95.3979 34.9021 95.3747 34.2385 95.3281C33.5866 95.2932 32.9056 95.2 32.1955 95.0487V83.3143C32.7543 83.2095 33.3654 83.1339 34.029 83.0873C34.6925 83.0291 35.3095 83 35.8799 83C36.6483 83 37.3526 83.0582 37.9928 83.1746C38.6447 83.2794 39.2035 83.4656 39.6692 83.7334C40.1348 84.0011 40.4957 84.3562 40.7518 84.7986C41.0195 85.2293 41.1534 85.7648 41.1534 86.4051C41.1534 87.3713 40.6878 88.1338 39.7565 88.6926C40.5248 88.9836 41.0486 89.3794 41.328 89.88C41.6074 90.3806 41.7471 90.9452 41.7471 91.5738C41.7471 92.8427 41.2815 93.7973 40.3502 94.4375C39.4305 95.0778 38.0568 95.3979 36.2292 95.3979ZM34.8497 89.9673V93.093C35.0476 93.1162 35.2629 93.1337 35.4958 93.1454C35.7286 93.157 35.9847 93.1628 36.2641 93.1628C37.079 93.1628 37.7367 93.0464 38.2373 92.8136C38.7379 92.5808 38.9881 92.15 38.9881 91.5214C38.9881 90.9626 38.7786 90.5668 38.3595 90.334C37.9404 90.0895 37.3409 89.9673 36.5609 89.9673H34.8497ZM34.8497 87.8893H36.1768C37.015 87.8893 37.6145 87.7846 37.9754 87.575C38.3362 87.3538 38.5167 87.0046 38.5167 86.5273C38.5167 86.0384 38.3304 85.695 37.9579 85.497C37.5854 85.2991 37.0382 85.2002 36.3165 85.2002C36.0837 85.2002 35.8334 85.206 35.5656 85.2177C35.2979 85.2177 35.0592 85.2293 34.8497 85.2526V87.8893Z" fill="#383636"/>
<path d="M51.6123 83.2794H54.3364V95.3805H51.6123V90.2467H47.0373V95.3805H44.3132V83.2794H47.0373V87.9068H51.6123V83.2794Z" fill="#0078D4"/>
<path d="M59.4243 89.3212C59.4243 89.9149 59.4942 90.4504 59.6338 90.9277C59.7852 91.405 59.9947 91.8182 60.2625 92.1675C60.5419 92.5051 60.8795 92.767 61.2753 92.9533C61.6711 93.1395 62.1251 93.2327 62.6373 93.2327C63.1379 93.2327 63.5861 93.1395 63.9819 92.9533C64.3893 92.767 64.7269 92.5051 64.9946 92.1675C65.274 91.8182 65.4836 91.405 65.6233 90.9277C65.7746 90.4504 65.8503 89.9149 65.8503 89.3212C65.8503 88.7275 65.7746 88.192 65.6233 87.7147C65.4836 87.2258 65.274 86.8125 64.9946 86.4749C64.7269 86.1257 64.3893 85.8579 63.9819 85.6717C63.5861 85.4854 63.1379 85.3923 62.6373 85.3923C62.1251 85.3923 61.6711 85.4912 61.2753 85.6891C60.8795 85.8754 60.5419 86.1431 60.2625 86.4924C59.9947 86.83 59.7852 87.2432 59.6338 87.7322C59.4942 88.2095 59.4243 88.7391 59.4243 89.3212ZM68.6616 89.3212C68.6616 90.3573 68.5045 91.2711 68.1902 92.0627C67.8875 92.8427 67.4684 93.5004 66.9329 94.0359C66.3974 94.5598 65.7571 94.9556 65.0121 95.2233C64.2787 95.4911 63.4871 95.6249 62.6373 95.6249C61.8108 95.6249 61.0308 95.4911 60.2974 95.2233C59.564 94.9556 58.9237 94.5598 58.3766 94.0359C57.8295 93.5004 57.3987 92.8427 57.0844 92.0627C56.7701 91.2711 56.6129 90.3573 56.6129 89.3212C56.6129 88.2851 56.7759 87.3771 57.1019 86.5971C57.4278 85.8055 57.8644 85.142 58.4115 84.6065C58.9703 84.071 59.6106 83.6694 60.3323 83.4016C61.0657 83.1339 61.834 83 62.6373 83C63.4638 83 64.2438 83.1339 64.9772 83.4016C65.7106 83.6694 66.3509 84.071 66.898 84.6065C67.4451 85.142 67.8759 85.8055 68.1902 86.5971C68.5045 87.3771 68.6616 88.2851 68.6616 89.3212Z" fill="#0078D4"/>
<path d="M73.2199 89.3212C73.2199 89.9149 73.2897 90.4504 73.4294 90.9277C73.5807 91.405 73.7903 91.8182 74.058 92.1675C74.3374 92.5051 74.675 92.767 75.0708 92.9533C75.4666 93.1395 75.9206 93.2327 76.4329 93.2327C76.9334 93.2327 77.3816 93.1395 77.7774 92.9533C78.1849 92.767 78.5225 92.5051 78.7902 92.1675C79.0696 91.8182 79.2791 91.405 79.4188 90.9277C79.5702 90.4504 79.6458 89.9149 79.6458 89.3212C79.6458 88.7275 79.5702 88.192 79.4188 87.7147C79.2791 87.2258 79.0696 86.8125 78.7902 86.4749C78.5225 86.1257 78.1849 85.8579 77.7774 85.6717C77.3816 85.4854 76.9334 85.3923 76.4329 85.3923C75.9206 85.3923 75.4666 85.4912 75.0708 85.6891C74.675 85.8754 74.3374 86.1431 74.058 86.4924C73.7903 86.83 73.5807 87.2432 73.4294 87.7322C73.2897 88.2095 73.2199 88.7391 73.2199 89.3212ZM82.4572 89.3212C82.4572 90.3573 82.3 91.2711 81.9857 92.0627C81.6831 92.8427 81.264 93.5004 80.7285 94.0359C80.193 94.5598 79.5527 94.9556 78.8077 95.2233C78.0743 95.4911 77.2827 95.6249 76.4329 95.6249C75.6063 95.6249 74.8264 95.4911 74.093 95.2233C73.3596 94.9556 72.7193 94.5598 72.1722 94.0359C71.625 93.5004 71.1943 92.8427 70.88 92.0627C70.5657 91.2711 70.4085 90.3573 70.4085 89.3212C70.4085 88.2851 70.5715 87.3771 70.8974 86.5971C71.2234 85.8055 71.6599 85.142 72.2071 84.6065C72.7659 84.071 73.4061 83.6694 74.1279 83.4016C74.8613 83.1339 75.6296 83 76.4329 83C77.2594 83 78.0393 83.1339 78.7727 83.4016C79.5061 83.6694 80.1464 84.071 80.6936 84.6065C81.2407 85.142 81.6714 85.8055 81.9857 86.5971C82.3 87.3771 82.4572 88.2851 82.4572 89.3212Z" fill="#0078D4"/>
<path d="M91.8698 95.3805C91.6254 94.9847 91.3343 94.5598 90.9967 94.1058C90.6708 93.6401 90.3099 93.1803 89.9141 92.7263C89.5299 92.2606 89.1283 91.8182 88.7092 91.3992C88.2902 90.9684 87.8711 90.5901 87.452 90.2641V95.3805H84.7279V83.2794H87.452V87.8544C88.1621 87.1094 88.8722 86.3352 89.5823 85.532C90.3041 84.7171 90.9735 83.9662 91.5904 83.2794H94.8209C93.9944 84.2573 93.162 85.2002 92.3238 86.1082C91.4973 87.0162 90.6242 87.9301 89.7046 88.8497C90.6708 89.653 91.6021 90.6076 92.4985 91.7135C93.4065 92.8194 94.2738 94.0417 95.1003 95.3805H91.8698Z" fill="#0078D4"/>
<defs>
<clipPath id="clip0_808_7070">
<rect width="71" height="66.697" fill="white" transform="translate(15 3)"/>
</clipPath>
</defs>
</svg>
