<svg width="266" height="132" viewBox="0 0 266 132" fill="none" xmlns="http://www.w3.org/2000/svg">
<ellipse cx="21.0451" cy="19.3517" rx="18.7067" ry="18.6876" fill="#EB1B38"/>
<ellipse cx="18.7067" cy="21.6876" rx="18.7067" ry="18.6876" fill="#263238"/>
<path fill-rule="evenodd" clip-rule="evenodd" d="M14.7121 12.2952C17.8299 12.2952 20.5092 13.9011 21.4835 16.0911C21.7271 16.7237 21.9219 17.3077 21.8732 17.9891C21.8732 21.0063 18.9016 23.4883 15.1505 23.6829V23.7316C13.1532 25.4836 9.79182 26.5056 9.79182 26.5056C11.3994 24.8509 11.5456 23.6829 11.4481 23.0503C9.1098 22.1256 7.5022 20.179 7.5022 17.9891C7.5022 14.8258 10.7174 12.2952 14.7121 12.2952ZM22.7501 16.8698C26.6961 16.8698 29.9113 19.4004 29.9113 22.5636C29.9113 24.7536 28.3037 26.6516 25.9653 27.6735C25.8679 28.3549 26.0141 29.4742 27.6217 31.1288C27.6217 31.1288 24.2116 30.0582 22.263 28.2575C19.34 28.0629 16.9043 26.6029 15.9787 24.5103L16.0274 24.4616C19.7785 24.2669 22.7501 21.8337 22.7501 18.7677C22.7501 18.1351 22.5553 17.4537 22.3117 16.8698H22.7501ZM11.3994 16.489H18.109V15.3611H11.3994V16.489ZM18.109 18.2613H11.3994V17.1335H18.109V18.2613ZM15.8509 20.1303H11.3994V19.0025H15.8832V20.1303H15.8509Z" fill="#EFF8FD"/>
<ellipse cx="77.0094" cy="20.1303" rx="18.7067" ry="18.6876" fill="#EE2A7B"/>
<ellipse cx="74.6711" cy="22.4663" rx="18.7067" ry="18.6876" fill="#263238"/>
<path d="M74.2814 24.7636C75.7346 24.7636 76.9069 23.6195 76.9069 22.2013C76.9069 20.783 75.7346 19.6389 74.2814 19.6389C72.8281 19.6389 71.6559 20.783 71.6559 22.2013C71.6559 23.6195 72.8281 24.7636 74.2814 24.7636Z" fill="#EFF8FD"/>
<path d="M68.3741 29.8884C68.3741 28.105 70.5894 26.0448 74.3038 26.0448C77.9736 26.0448 80.1889 28.0633 80.1889 29.8884V31.8101H68.3741V29.8884Z" fill="#EFF8FD"/>
<path d="M79.5324 26.6854H80.8452C82.9633 26.6854 86.7047 28.1267 86.7526 29.8884V31.8101H81.5015V29.8884C81.5015 27.9666 80.5911 27.326 79.5324 26.6854Z" fill="#EFF8FD"/>
<path d="M83.4707 22.8643C83.4707 24.2704 82.2984 25.4042 80.8452 25.4042C79.3919 25.4042 78.2196 24.2704 78.2196 22.8643C78.2196 21.4588 79.3919 20.2795 80.8452 20.2795C82.2984 20.2795 83.4707 21.4588 83.4707 22.8643Z" fill="#EFF8FD"/>
<path d="M67.7177 25.4042C66.2645 25.4042 65.0922 24.2704 65.0922 22.8643C65.0922 21.4588 66.2645 20.2795 67.7177 20.2795C69.1709 20.2795 70.3432 21.4588 70.3432 22.8643C70.3432 24.2704 69.1709 25.4042 67.7177 25.4042Z" fill="#EFF8FD"/>
<path d="M67.0613 29.8884C67.0613 27.9666 67.9717 27.326 69.0305 26.6854H67.7177C65.5996 26.6854 61.8582 28.1267 61.8103 29.8884V31.8101H67.0613V29.8884Z" fill="#EFF8FD"/>
<path fill-rule="evenodd" clip-rule="evenodd" d="M78.4114 11.9918V9.843C78.4114 9.5055 78.1278 9.22925 77.782 9.22925H70.2337C69.8879 9.22925 69.6048 9.5055 69.6048 9.843V15.9823C69.6048 16.3198 69.8879 16.5961 70.2337 16.5961H77.782C78.1278 16.5961 78.4114 16.3198 78.4114 15.9823V13.8335L80.9273 16.289V9.53635L78.4114 11.9918Z" fill="#EFF8FD"/>
<ellipse cx="131.415" cy="19.3517" rx="18.7067" ry="18.6876" fill="#993333"/>
<ellipse cx="129.077" cy="21.6876" rx="18.7067" ry="18.6876" fill="#263238"/>
<path d="M139.404 20.2763C139.356 20.2763 139.356 20.2763 139.356 20.2763L138.917 20.1303V20.033C138.674 14.6311 134.63 10.3485 129.174 10.3485C123.669 10.3485 119.626 14.6311 119.382 20.033V20.0817L118.846 20.2763C118.798 20.2763 118.798 20.2763 118.798 20.2763C117.775 20.763 117.044 21.5903 117.044 22.2716L117.385 26.3109C117.482 27.0895 118.359 27.8682 119.382 27.7708L120.21 27.7222C120.308 27.7222 120.405 27.6735 120.503 27.6735C120.892 29.0361 122.013 32.1021 124.156 32.1021H126.69C126.836 32.6374 127.323 33.0267 127.859 33.0267H129.856C130.538 33.0267 131.074 32.4914 131.074 31.8101C131.074 31.1774 130.489 30.6421 129.807 30.6421H127.81C127.42 30.6421 127.031 30.8854 126.787 31.2261H124.108C122.208 31.2261 121.38 27.8682 121.233 27.1868C121.233 27.0895 121.282 26.9922 121.233 26.8949C120.892 25.3376 120.698 23.6829 120.649 21.931V21.2983C120.649 21.1036 120.649 20.8603 120.698 20.617C120.698 20.5683 120.698 20.471 120.649 20.4223V20.0817C120.892 15.4097 124.4 11.6625 129.174 11.6625C133.899 11.6625 137.456 15.4097 137.651 20.0817V20.2277C137.553 20.325 137.456 20.471 137.504 20.617C137.504 20.9576 137.504 21.2983 137.504 21.639C137.504 23.4883 137.31 25.2402 136.92 26.8949C136.871 27.1382 136.969 27.3815 137.163 27.4788C137.407 27.6248 137.699 27.7222 137.992 27.7222L138.82 27.8195C139.843 27.8682 140.72 27.1382 140.817 26.3109L141.158 22.2716C141.109 21.5903 140.379 20.763 139.404 20.2763Z" fill="#EFF8FD"/>
<ellipse cx="186.6" cy="19.3517" rx="18.7067" ry="18.6876" fill="#5CB14D"/>
<ellipse cx="184.262" cy="21.6876" rx="18.7067" ry="18.6876" fill="#263238"/>
<path fill-rule="evenodd" clip-rule="evenodd" d="M178.997 13.1268C179.369 12.8066 179.411 12.2457 179.091 11.8739C178.77 11.5021 178.209 11.4602 177.836 11.7804C175.485 13.8036 173.518 17.5881 172.413 20.7803C171.857 22.3873 171.49 23.9247 171.415 25.097C171.378 25.6688 171.404 26.2487 171.578 26.7225C171.669 26.968 171.817 27.2338 172.065 27.4418C172.328 27.6621 172.648 27.7706 172.982 27.7706C173.366 27.7706 173.69 27.6103 173.924 27.4533C174.166 27.2907 174.391 27.0771 174.598 26.8504C175.011 26.3965 175.443 25.784 175.871 25.1137C176.487 24.1503 177.153 22.977 177.803 21.8308L177.803 21.8308L177.803 21.8305C178.056 21.3842 178.307 20.9419 178.552 20.5177C179.433 18.9917 180.204 17.7548 180.786 17.1526C180.792 17.1807 180.798 17.2105 180.804 17.2422C181.016 18.3524 180.922 19.6786 180.646 21.1099C180.371 22.5335 179.931 23.9943 179.499 25.3612C179.431 25.575 179.363 25.7877 179.296 25.9983L179.296 25.9992L179.296 25.9992C178.942 27.1055 178.607 28.1532 178.427 28.99C178.32 29.4844 178.247 29.9884 178.286 30.4299C178.324 30.8687 178.501 31.467 179.111 31.7671C179.799 32.1052 180.512 32.0395 181.125 31.7911C181.722 31.549 182.265 31.1213 182.725 30.6399C183.642 29.6802 184.402 28.3247 184.713 27.1009C184.834 26.6253 184.547 26.1419 184.07 26.0211C183.594 25.9003 183.11 26.1879 182.99 26.6634C182.757 27.5771 182.154 28.6639 181.438 29.4129C181.082 29.7857 180.741 30.029 180.456 30.1447C180.286 30.2134 180.157 30.2306 180.054 30.219C180.049 30.0441 180.079 29.7671 180.166 29.3646C180.326 28.6197 180.628 27.6743 180.982 26.5637L180.983 26.5619C181.052 26.3464 181.122 26.1247 181.195 25.8971C181.629 24.5251 182.097 22.9792 182.392 21.4459C182.686 19.9203 182.824 18.3393 182.551 16.9095C182.482 16.5458 182.381 16.2035 182.222 15.9178C182.061 15.6287 181.798 15.3237 181.385 15.1921C180.969 15.06 180.586 15.1615 180.309 15.2971C180.038 15.4303 179.797 15.6295 179.591 15.8327C178.797 16.6157 177.884 18.1182 177.011 19.6303C176.75 20.0832 176.489 20.5432 176.23 20.9997C175.589 22.1289 174.961 23.236 174.372 24.1574C173.959 24.8033 173.592 25.3141 173.282 25.6545C173.249 25.6913 173.217 25.725 173.187 25.7556C173.177 25.6135 173.176 25.4332 173.19 25.2105C173.251 24.2619 173.564 22.8936 174.094 21.3611C175.163 18.2741 177.001 14.8444 178.997 13.1268ZM172.879 26.0096L172.882 26.0083C172.88 26.0092 172.879 26.0096 172.879 26.0096ZM194.275 13.191C194.546 12.9199 195.029 12.9199 195.33 13.191L197.109 14.9683C197.381 15.2696 197.381 15.7515 197.109 16.0227L195.601 17.5289L192.767 14.6972L194.275 13.191ZM192.044 15.4507L194.848 18.2522L187.309 25.8134H184.475V22.9817L192.044 15.4507Z" fill="#EFF8FD"/>
<ellipse cx="32.3542" cy="110.633" rx="18.7067" ry="18.6876" fill="#ED695C"/>
<ellipse cx="30.0158" cy="112.969" rx="18.7067" ry="18.6876" fill="#263238"/>
<path fill-rule="evenodd" clip-rule="evenodd" d="M30.0156 111.412C31.7413 111.412 33.1334 110.021 33.1334 108.297C33.1334 106.573 31.7413 105.182 30.0156 105.182C28.2899 105.182 26.8978 106.573 26.8978 108.297C26.8978 110.021 28.2899 111.412 30.0156 111.412ZM23.0008 117.641C23.0008 115.473 25.6314 112.969 30.0423 112.969C34.4002 112.969 37.0308 115.422 37.0308 117.641V119.977H23.0008V117.641ZM36.2512 113.747H37.8101C40.3254 113.747 44.7682 115.499 44.8251 117.641V119.977H38.5895V117.641C38.5895 115.305 37.5084 114.526 36.2512 113.747ZM40.9278 109.103C40.9278 110.812 39.5357 112.19 37.81 112.19C36.0843 112.19 34.6922 110.812 34.6922 109.103C34.6922 107.394 36.0843 105.961 37.81 105.961C39.5357 105.961 40.9278 107.394 40.9278 109.103ZM22.2212 110.575C21.3727 110.575 20.719 109.905 20.719 109.103C20.719 108.265 21.4097 107.577 22.2212 107.577C23.0328 107.577 23.7234 108.265 23.7234 109.103C23.7234 109.905 23.0697 110.575 22.2212 110.575ZM19.1034 109.103C19.1034 110.812 20.4955 112.19 22.2212 112.19C23.9469 112.19 25.339 110.812 25.339 109.103C25.339 107.394 23.9469 105.961 22.2212 105.961C20.4955 105.961 19.1034 107.394 19.1034 109.103ZM22.2213 115.003C22.6401 114.478 23.1908 114.113 23.7802 113.747H22.2213C21.8736 113.747 21.4889 113.781 21.0842 113.844C18.5613 114.239 15.2553 115.796 15.2063 117.641V118.361V119.977H16.8219H19.8263H21.4419V118.361V117.641C21.4419 116.638 21.641 115.923 21.9677 115.371C22.0453 115.239 22.1302 115.117 22.2213 115.003ZM19.8263 117.641C19.8263 116.934 19.9084 116.301 20.0716 115.731C19.5442 115.889 19.0061 116.094 18.506 116.34C17.8871 116.645 17.4143 116.971 17.117 117.27C16.867 117.52 16.8274 117.66 16.8219 117.685V118.361H19.8263V117.641Z" fill="#EFF8FD"/>
<ellipse cx="85.9234" cy="110.633" rx="18.7066" ry="18.6876" fill="#30A45C"/>
<ellipse cx="83.5851" cy="112.969" rx="18.7066" ry="18.6876" fill="#263238"/>
<path fill-rule="evenodd" clip-rule="evenodd" d="M83.9953 103.564C84.1652 103.4 84.1652 103.134 83.9953 102.969C83.8253 102.805 83.5498 102.805 83.3799 102.969L80.5948 105.658C80.4249 105.822 80.4249 106.088 80.5948 106.252C80.7648 106.417 81.0403 106.417 81.2102 106.252L83.9953 103.564ZM87.9467 103.789C88.1166 103.625 88.1166 103.359 87.9467 103.194C87.7768 103.03 87.5012 103.03 87.3313 103.194L83.1187 107.262C82.9488 107.426 82.9488 107.692 83.1187 107.856C83.2886 108.02 83.5642 108.02 83.7341 107.856L87.9467 103.789ZM92.1314 103.789C92.3014 103.625 92.3014 103.359 92.1314 103.194C91.9615 103.03 91.686 103.03 91.516 103.194L84.0315 110.42C83.8616 110.585 83.8616 110.851 84.0315 111.015C84.2014 111.179 84.4769 111.179 84.6469 111.015L92.1314 103.789ZM94.0145 106.011C94.1844 105.847 94.1844 105.581 94.0145 105.416C93.8445 105.252 93.569 105.252 93.3991 105.416L83.8259 114.659C83.6559 114.823 83.6559 115.089 83.8259 115.253C83.9958 115.417 84.2713 115.417 84.4412 115.253L94.0145 106.011ZM94.1922 109.879C94.3621 109.715 94.3621 109.449 94.1922 109.285C94.0223 109.121 93.7467 109.121 93.5768 109.285L85.9907 116.609C85.8207 116.773 85.8207 117.039 85.9907 117.203C86.1606 117.367 86.4361 117.367 86.6061 117.203L94.1922 109.879ZM94.3699 113.748C94.5398 113.584 94.5398 113.318 94.3699 113.154C94.2 112.99 93.9244 112.99 93.7545 113.154L87.5344 119.159C87.3645 119.323 87.3645 119.589 87.5344 119.753C87.7044 119.917 87.9799 119.917 88.1498 119.753L94.3699 113.748ZM93.6555 118.661C93.8254 118.497 93.8254 118.231 93.6555 118.067C93.4855 117.903 93.21 117.903 93.0401 118.067L89.3848 121.596C89.2149 121.76 89.2149 122.026 89.3848 122.19C89.5548 122.354 89.8303 122.354 90.0002 122.19L93.6555 118.661ZM79.6881 108.297C77.9624 108.297 76.5703 109.688 76.5703 111.412C76.5703 113.136 77.9624 114.526 79.6881 114.526C81.4138 114.526 82.8058 113.136 82.8058 111.412C82.8058 109.688 81.4138 108.297 79.6881 108.297ZM79.6879 109.854C80.5476 109.854 81.2468 110.553 81.2468 111.412C81.2468 112.27 80.5476 112.969 79.6879 112.969C78.8282 112.969 78.129 112.27 78.129 111.412C78.129 110.553 78.8282 109.854 79.6879 109.854ZM79.7146 116.083C75.3037 116.083 72.6731 118.588 72.6731 120.755V123.091H86.7031V120.755C86.7031 118.537 84.0725 116.083 79.7146 116.083ZM79.7145 117.641C83.2103 117.641 85.1441 119.482 85.1441 120.755V121.534H74.2319V120.755C74.2319 119.482 76.1844 117.641 79.7145 117.641Z" fill="#EFF8FD"/>
<ellipse cx="139.493" cy="110.633" rx="18.7067" ry="18.6876" fill="#E22236"/>
<ellipse cx="137.154" cy="112.969" rx="18.7067" ry="18.6876" fill="#263238"/>
<path fill-rule="evenodd" clip-rule="evenodd" d="M129.944 101.873H131.406L132.38 105.669H132.478L133.354 101.873H134.865L133.16 107.421V111.314H131.698V107.567L129.944 101.873ZM134.767 105.912C134.767 105.377 134.962 104.939 135.303 104.598C135.644 104.306 136.18 104.112 136.716 104.112C137.301 104.112 137.739 104.306 138.08 104.598C138.421 104.939 138.567 105.377 138.567 105.912V109.465C138.567 110.049 138.421 110.584 138.08 110.876C137.739 111.217 137.301 111.412 136.667 111.412C136.083 111.412 135.596 111.217 135.303 110.828C134.962 110.536 134.767 110 134.767 109.416V105.912ZM136.277 110.098C136.18 110 136.18 109.854 136.18 109.66V105.864C136.18 105.718 136.229 105.572 136.326 105.474C136.424 105.426 136.521 105.377 136.716 105.377C136.862 105.377 137.008 105.426 137.106 105.474C137.252 105.572 137.3 105.718 137.3 105.864V109.66C137.3 109.854 137.203 110 137.106 110.098C137.008 110.244 136.862 110.292 136.716 110.292C136.472 110.292 136.375 110.244 136.277 110.098ZM143.439 104.355V111.266H142.123V110.536C141.88 110.828 141.636 111.022 141.393 111.168C141.149 111.363 140.905 111.412 140.662 111.412C140.37 111.412 140.126 111.314 139.98 111.12C139.834 110.876 139.736 110.584 139.736 110.195V104.355H141.003V109.66C141.003 109.806 141.052 109.952 141.1 110C141.149 110.098 141.246 110.146 141.344 110.146C141.441 110.146 141.539 110.098 141.734 110C141.88 109.903 142.026 109.757 142.123 109.611V104.355H143.439ZM138.762 117.203C138.811 117.154 138.908 117.154 139.006 117.154C139.152 117.154 139.249 117.203 139.298 117.3C139.395 117.349 139.444 117.495 139.444 117.689V120.609C139.444 120.755 139.395 120.901 139.347 120.999C139.298 121.047 139.2 121.096 139.054 121.096C139.006 121.096 138.908 121.096 138.811 121.047C138.739 121.047 138.694 120.995 138.637 120.929L138.637 120.929C138.616 120.905 138.593 120.879 138.567 120.853V117.349C138.665 117.3 138.713 117.251 138.762 117.203ZM142.903 117.203C142.708 117.203 142.61 117.251 142.513 117.349C142.416 117.446 142.416 117.641 142.416 117.884V118.468H143.341V117.884C143.341 117.641 143.292 117.446 143.244 117.349C143.195 117.251 143.049 117.203 142.903 117.203ZM143.244 112.58C144.657 112.58 145.777 113.699 145.777 115.062C145.826 116.132 145.874 117.203 145.972 118.273C145.972 119.344 145.923 120.463 145.826 121.534C145.826 122.897 144.657 123.967 143.293 123.967C141.295 124.065 139.298 124.113 137.203 124.113C135.108 124.113 133.062 124.065 131.065 123.967C129.652 123.967 128.532 122.897 128.532 121.534C128.483 120.463 128.434 119.344 128.434 118.273C128.434 117.738 128.447 117.203 128.459 116.667C128.471 116.132 128.483 115.597 128.483 115.062C128.483 113.699 129.652 112.58 131.016 112.58L131.016 112.58C133.014 112.531 135.011 112.482 137.106 112.482C139.2 112.482 141.246 112.531 143.244 112.58ZM132.185 121.972H131.016V115.451H129.75V114.332H133.403V115.451H132.185V121.972ZM135.352 121.972H136.424V116.327H135.352V120.609C135.315 120.72 135.221 120.775 135.115 120.838C135.081 120.858 135.046 120.878 135.011 120.901C134.913 120.999 134.816 121.047 134.767 121.047C134.67 121.047 134.572 120.999 134.524 120.95C134.475 120.901 134.475 120.755 134.475 120.658V116.327H133.403V121.047C133.403 121.388 133.452 121.631 133.598 121.826C133.695 121.972 133.89 122.069 134.134 122.069C134.329 122.069 134.524 122.021 134.767 121.875C134.962 121.777 135.157 121.583 135.352 121.339V121.972ZM140.516 120.804C140.516 121.242 140.418 121.534 140.272 121.729C140.126 121.923 139.834 122.069 139.541 122.069C139.347 122.069 139.2 122.021 139.006 121.923C138.859 121.875 138.713 121.729 138.567 121.583V121.972H137.495V114.332H138.567V116.813C138.713 116.619 138.859 116.521 139.006 116.424C139.2 116.327 139.347 116.278 139.541 116.278C139.834 116.278 140.126 116.424 140.272 116.667C140.418 116.911 140.516 117.251 140.516 117.689V120.804ZM142.416 119.295H144.413V117.835C144.413 117.3 144.316 116.862 144.072 116.57C143.828 116.278 143.439 116.181 142.952 116.181C142.464 116.181 142.075 116.327 141.782 116.619C141.49 116.959 141.295 117.349 141.295 117.835V120.366C141.295 120.901 141.441 121.339 141.734 121.631C142.026 121.923 142.416 122.118 142.854 122.118C143.39 122.118 143.78 121.972 144.072 121.68C144.364 121.388 144.462 120.999 144.462 120.415V119.977H143.39V120.366C143.39 120.658 143.341 120.901 143.244 120.999C143.195 121.047 143.049 121.096 142.903 121.096C142.708 121.096 142.611 121.047 142.513 120.95C142.416 120.804 142.416 120.609 142.416 120.317V119.295Z" fill="#EFF8FD"/>
<ellipse cx="193.062" cy="110.633" rx="18.7067" ry="18.6876" fill="#2F96C7"/>
<ellipse cx="190.724" cy="112.969" rx="18.7067" ry="18.6876" fill="#263238"/>
<path d="M193.588 109.354L191.797 111.18L191.784 107.518L193.588 109.354V109.354ZM191.784 118.713L193.584 116.878L191.793 115.051L191.784 118.713V118.713ZM198.741 113.114C198.741 121.869 195.739 123.87 191.012 123.87C186.285 123.87 182.707 121.869 182.707 113.114C182.707 104.359 186.189 102.068 190.916 102.068C195.643 102.068 198.741 104.363 198.741 113.114ZM192.123 113.114L195.438 109.341L190.214 103.622V111.155L187.133 108.012L186.005 109.158L189.876 113.118L186.005 117.078L187.129 118.224L190.21 115.081L190.306 122.32L195.626 116.891L192.123 113.114Z" fill="#EFF8FD"/>
<ellipse cx="246.631" cy="110.633" rx="18.7067" ry="18.6876" fill="#F8B242"/>
<ellipse cx="244.293" cy="112.969" rx="18.7067" ry="18.6876" fill="#263238"/>
<path fill-rule="evenodd" clip-rule="evenodd" d="M257.544 121.534C257.974 121.534 258.323 121.185 258.323 120.755C258.323 120.325 257.974 119.977 257.544 119.977H255.985V108.686C255.985 108.256 255.636 107.908 255.205 107.908C254.775 107.908 254.426 108.256 254.426 108.686V119.977H252.088V111.801C252.088 111.371 251.739 111.022 251.308 111.022C250.878 111.022 250.529 111.371 250.529 111.801V119.977H248.19V114.915C248.19 114.485 247.841 114.137 247.411 114.137C246.98 114.137 246.632 114.485 246.632 114.915V119.977H243.933V117.6C243.933 117.17 243.584 116.821 243.154 116.821C242.724 116.821 242.375 117.17 242.375 117.6V119.977H239.617V115.694C239.617 115.264 239.268 114.915 238.837 114.915C238.407 114.915 238.058 115.264 238.058 115.694V119.977H235.719V118.809C235.719 118.379 235.37 118.03 234.94 118.03C234.509 118.03 234.16 118.379 234.16 118.809V119.977H233.381V115.627L238.889 110.125L242.63 113.182C242.931 113.428 243.367 113.415 243.653 113.152L252.403 105.083L252.198 107.871C252.18 108.301 252.515 108.663 252.945 108.68C253.375 108.697 253.738 108.363 253.755 107.933L254.036 103.267C254.053 102.837 253.718 102.475 253.288 102.458L248.617 102.178C248.187 102.161 247.824 102.495 247.807 102.925C247.79 103.354 248.124 103.717 248.555 103.734L251.345 103.939L243.093 111.548L239.331 108.473C239.021 108.22 238.569 108.242 238.286 108.525L233.381 113.425V102.846C233.381 102.416 233.032 102.068 232.602 102.068C232.171 102.068 231.822 102.416 231.822 102.846V115.305L231.822 115.305C231.822 115.307 231.822 115.309 231.822 115.31V120.755C231.822 121.185 232.171 121.534 232.602 121.534H257.544Z" fill="#EFF8FD"/>
<ellipse cx="50.9338" cy="62.9728" rx="18.7067" ry="18.6876" fill="#1EA5BD"/>
<ellipse cx="48.5954" cy="65.3087" rx="18.7067" ry="18.6876" fill="#263238"/>
<path fill-rule="evenodd" clip-rule="evenodd" d="M45.1985 75.7797H52.8204C53.064 75.7797 53.2811 75.6932 53.4728 75.519C53.6646 75.346 53.7605 75.1186 53.7605 74.8406C53.7605 74.5971 53.6726 74.3803 53.4995 74.1888C53.325 73.9972 53.0973 73.9014 52.8204 73.9014H45.1985C44.9535 73.9014 44.7458 73.9972 44.5714 74.1888C44.3983 74.3803 44.3104 74.5971 44.3104 74.8406C44.3104 75.4671 44.6073 75.7797 45.1985 75.7797ZM59.0853 70.4602H38.9335V57.5998H59.0853V70.4602ZM38.6723 72.3372H59.3461C59.7988 72.3372 60.1903 72.1815 60.5205 71.8689C60.8508 71.555 60.9999 71.1732 60.964 70.721V57.3378C60.964 56.8855 60.7988 56.5038 60.4686 56.1912C60.1384 55.8786 59.7469 55.7216 59.2942 55.7216H38.6723C38.2196 55.7216 37.8281 55.8786 37.4979 56.1912C37.1677 56.5038 37.0012 56.8855 37.0012 57.3378V70.721C37.0012 71.1732 37.1677 71.555 37.4979 71.8689C37.8281 72.1815 38.2196 72.3372 38.6723 72.3372ZM54.8597 62.9881C54.9772 63.0893 54.9772 63.1399 54.9772 63.2411C54.9772 63.3929 54.9772 63.4435 54.8597 63.4941L49.044 66.7827C48.9265 66.8333 48.809 66.8333 48.6915 66.7827C48.5152 66.7321 48.5152 66.6309 48.5152 66.5297V64.7589C46.3417 64.7589 44.8143 64.8601 42.6407 67.5416C42.5233 67.6428 42.4058 67.6934 42.347 67.6934H42.2295C42.0533 67.6428 41.9945 67.5416 41.9945 67.3898C41.9945 63.5953 43.9919 61.8751 48.5152 61.7739V60.0031C48.5152 59.9019 48.574 59.8007 48.6915 59.7501C48.809 59.6996 48.9265 59.6996 49.044 59.7501L54.8597 62.9881Z" fill="#EFF8FD"/>
<ellipse cx="104.503" cy="62.9728" rx="18.7067" ry="18.6876" fill="#304D76"/>
<ellipse cx="102.165" cy="65.3087" rx="18.7067" ry="18.6876" fill="#263238"/>
<path fill-rule="evenodd" clip-rule="evenodd" d="M104.363 64.7627H112.165V61.0839C112.165 60.8345 111.978 60.6475 111.791 60.6475H110.542V59.4004C110.542 58.278 109.606 57.3428 108.482 57.3428H101.055C100.431 57.3428 100.306 57.218 100.056 56.8439C100.036 56.8204 100.015 56.7961 99.9944 56.7713C99.6251 56.3355 99.1049 55.7216 97.7468 55.7216H93.6273C92.4414 55.6592 91.5051 56.5945 91.5051 57.7792V71.8086C91.5051 72.931 92.4414 73.8663 93.6273 73.8663H110.542C111.478 73.8663 112.227 73.118 112.227 72.1828V69.751H104.363C103.177 69.751 102.303 68.8157 102.303 67.631V66.8204C102.303 65.698 103.177 64.7627 104.363 64.7627ZM115.099 70.4369L117.845 67.631C117.907 67.5687 117.97 67.444 117.97 67.2569C117.97 67.0698 117.907 66.9451 117.845 66.8204L115.099 64.0769C114.911 63.8898 114.662 63.8898 114.537 64.0769L113.975 64.6381C113.788 64.7628 113.788 65.0122 113.975 65.1993L115.224 66.4463H104.363C104.113 66.4463 103.926 66.6334 103.926 66.8204V67.6934C103.926 67.8804 104.113 68.0675 104.363 68.0675H115.224L113.975 69.3146C113.788 69.5016 113.788 69.751 113.975 69.8757L114.537 70.4369C114.662 70.5616 114.911 70.5616 115.099 70.4369ZM94.4388 61.0216C94.4388 60.8345 94.626 60.6475 94.8133 60.6475H108.857V59.4004C108.857 59.151 108.732 58.964 108.483 58.964H101.055C99.6194 58.964 99.0576 58.2781 98.7455 57.8416C98.4959 57.4675 98.371 57.3428 97.7469 57.3428H93.6274C93.3777 57.3428 93.1905 57.5298 93.1905 57.7792V71.8087C93.1905 71.9957 93.3777 72.1828 93.6274 72.1828H94.4388V61.0216Z" fill="#EFF8FD"/>
<ellipse cx="158.072" cy="62.9728" rx="18.7067" ry="18.6876" fill="#448E9F"/>
<ellipse cx="155.734" cy="65.3087" rx="18.7067" ry="18.6876" fill="#263238"/>
<path fill-rule="evenodd" clip-rule="evenodd" d="M149.199 59.2592C149.199 61.1116 147.696 62.6134 145.841 62.6134C145.326 62.6134 144.838 62.4975 144.402 62.2906V59.0991C144.402 58.3967 144.978 57.8217 145.681 57.8217H148.876C149.083 58.2573 149.199 58.7447 149.199 59.2592ZM144.402 63.3263V71.8776C144.402 72.5801 144.978 73.1551 145.681 73.1551H161.03C161.733 73.1551 162.31 72.5801 162.31 71.8776V67.4051L167.426 72.5159V58.4609L162.31 63.5717V59.0991C162.31 58.3967 161.733 57.8217 161.03 57.8217H149.913C150.072 58.2713 150.158 58.7551 150.158 59.2592C150.158 61.6409 148.225 63.5717 145.841 63.5717C145.337 63.5717 144.852 63.4852 144.402 63.3263Z" fill="#EFF8FD"/>
<path fill-rule="evenodd" clip-rule="evenodd" d="M145.991 62.9728C147.928 62.9728 149.499 61.404 149.499 59.4688C149.499 57.5337 147.928 55.9649 145.991 55.9649C144.054 55.9649 142.484 57.5337 142.484 59.4688C142.484 61.404 144.054 62.9728 145.991 62.9728Z" fill="#CD3118"/>
<ellipse cx="211.642" cy="62.9728" rx="18.7067" ry="18.6876" fill="#B5C627"/>
<ellipse cx="209.304" cy="65.3087" rx="18.7067" ry="18.6876" fill="#263238"/>
<path fill-rule="evenodd" clip-rule="evenodd" d="M198.557 53.7682C198.384 53.6167 198.136 53.5858 197.93 53.6902C197.725 53.7945 197.604 54.0131 197.624 54.2424L197.842 56.6726L195.41 56.835C195.17 56.851 194.967 57.0172 194.904 57.2489C194.841 57.4806 194.932 57.7269 195.13 57.8622L197.317 59.3535L195.793 60.9363C195.628 61.1083 195.589 61.3658 195.696 61.5791C195.803 61.7925 196.033 61.9153 196.27 61.8857L198.797 61.57L199.416 63.7345C199.478 63.9503 199.662 64.1089 199.885 64.1382C200.107 64.1675 200.326 64.0623 200.441 63.8705V70.5256C200.441 70.8782 200.571 71.1758 200.829 71.4206C201.086 71.6643 201.391 71.7856 201.744 71.7856H217.862C218.215 71.7856 218.52 71.6643 218.777 71.4206C219.035 71.1758 219.151 70.8782 219.123 70.5256V60.0921C219.123 59.7395 218.994 59.4418 218.737 59.1981C218.479 58.9544 218.174 58.8321 217.821 58.8321H205.013L205.704 57.688C205.809 57.5141 205.812 57.297 205.712 57.1201C205.612 56.9432 205.424 56.8337 205.221 56.8337L203.154 56.8337V54.5677C203.154 54.3599 203.039 54.1691 202.856 54.0711C202.673 53.973 202.45 53.9838 202.277 54.099L200.381 55.3619L198.557 53.7682ZM203.696 58.8321L204.222 57.9603L202.59 57.9603C202.44 57.9603 202.297 57.9009 202.191 57.7953C202.085 57.6897 202.026 57.5464 202.026 57.397V55.6201L200.647 56.5383C200.435 56.6795 200.155 56.6612 199.963 56.4936L198.873 55.5408L199.017 57.146C199.03 57.297 198.982 57.447 198.884 57.5622C198.785 57.6775 198.644 57.7481 198.493 57.7582L197.113 57.8503L198.504 58.7985C198.641 58.892 198.73 59.041 198.747 59.2059C198.764 59.3708 198.707 59.5348 198.592 59.6542L197.71 60.5705L199.137 60.3923C199.413 60.3579 199.673 60.5295 199.749 60.7965L200.144 62.1768L200.441 61.681V60.0921C200.441 59.7395 200.571 59.4418 200.829 59.1981C201.086 58.9544 201.391 58.8321 201.744 58.8321H203.696ZM212.774 74.4694H206.832C206.371 74.4694 206.14 74.2257 206.14 73.7373C206.14 73.5475 206.208 73.3784 206.343 73.2291C206.479 73.0798 206.641 73.0051 206.832 73.0051H212.774C212.99 73.0051 213.167 73.0798 213.303 73.2291C213.438 73.3784 213.507 73.5475 213.507 73.7373C213.507 73.954 213.432 74.1313 213.283 74.2661C213.133 74.402 212.964 74.4694 212.774 74.4694ZM201.948 70.3223H217.658V60.2963H201.948V70.3223ZM204.334 62.4099C204.334 62.1521 204.515 61.9432 204.739 61.9432H214.83C215.053 61.9432 215.234 62.1521 215.234 62.4099V68.4765C215.234 68.7342 215.053 68.9431 214.83 68.9431H204.739C204.515 68.9431 204.334 68.7342 204.334 68.4765V62.4099ZM205.186 67.4903V65.9641L207.585 63.5868L211.17 66.4044L210.997 65.9641L212.678 65.0543L214.705 66.4044V67.4903H205.186ZM213.604 63.9683C213.92 63.9683 214.177 63.7121 214.177 63.396C214.177 63.0799 213.92 62.8237 213.604 62.8237C213.287 62.8237 213.031 63.0799 213.031 63.396C213.031 63.7121 213.287 63.9683 213.604 63.9683Z" fill="#EFF8FD"/>
</svg>
