<svg width="1055" height="597" viewBox="0 0 1055 597" fill="none" xmlns="http://www.w3.org/2000/svg">
<g clip-path="url(#clip0_828_6702)">
<g opacity="0.1">
<path fill-rule="evenodd" clip-rule="evenodd" d="M110.064 634.96H852.018V634.928C853.141 634.949 854.266 634.96 855.393 634.96C954.174 634.96 1034.25 554.687 1034.25 455.666C1034.25 356.645 954.174 276.373 855.393 276.373C852.909 276.373 850.437 276.424 847.978 276.524C830.755 197.435 760.489 138.22 676.426 138.22C641.447 138.22 608.856 148.473 581.482 166.144C529.911 59.117 410.145 -3.62566 287.427 21.0245C160.585 46.503 72.5391 156.92 71.4736 280.524C-8.83187 298.156 -68.9428 369.874 -68.9428 455.666C-68.9428 554.687 11.1347 634.96 109.915 634.96C109.965 634.96 110.015 634.96 110.064 634.96Z" fill="url(#paint0_radial_828_6702)"/>
<path fill-rule="evenodd" clip-rule="evenodd" d="M110.064 634.96H852.018V634.928C853.141 634.949 854.266 634.96 855.393 634.96C954.174 634.96 1034.25 554.687 1034.25 455.666C1034.25 356.645 954.174 276.373 855.393 276.373C852.909 276.373 850.437 276.424 847.978 276.524C830.755 197.435 760.489 138.22 676.426 138.22C641.447 138.22 608.856 148.473 581.482 166.144C529.911 59.117 410.145 -3.62566 287.427 21.0245C160.585 46.503 72.5391 156.92 71.4736 280.524C-8.83187 298.156 -68.9428 369.874 -68.9428 455.666C-68.9428 554.687 11.1347 634.96 109.915 634.96C109.965 634.96 110.015 634.96 110.064 634.96Z" fill="url(#paint1_radial_828_6702)"/>
<path fill-rule="evenodd" clip-rule="evenodd" d="M110.064 634.96H852.018V634.928C853.141 634.949 854.266 634.96 855.393 634.96C954.174 634.96 1034.25 554.687 1034.25 455.666C1034.25 356.645 954.174 276.373 855.393 276.373C852.909 276.373 850.437 276.424 847.978 276.524C830.755 197.435 760.489 138.22 676.426 138.22C641.447 138.22 608.856 148.473 581.482 166.144C529.911 59.117 410.145 -3.62566 287.427 21.0245C160.585 46.503 72.5391 156.92 71.4736 280.524C-8.83187 298.156 -68.9428 369.874 -68.9428 455.666C-68.9428 554.687 11.1347 634.96 109.915 634.96C109.965 634.96 110.015 634.96 110.064 634.96Z" fill="url(#paint2_radial_828_6702)"/>
</g>
<path fill-rule="evenodd" clip-rule="evenodd" d="M94.5522 638.41H836.506V638.379C837.628 638.4 838.753 638.41 839.881 638.41C938.661 638.41 1018.74 558.138 1018.74 459.117C1018.74 360.096 938.661 279.824 839.881 279.824C837.397 279.824 834.925 279.875 832.466 279.975C815.242 200.886 744.976 141.671 660.914 141.671C625.934 141.671 593.344 151.924 565.97 169.595C514.398 62.5678 394.633 -0.174853 271.915 24.4753C145.073 49.9538 57.0268 160.371 55.9613 283.975C-24.3442 301.606 -84.4551 373.325 -84.4551 459.117C-84.4551 558.138 -4.37761 638.41 94.403 638.41C94.4528 638.41 94.5025 638.41 94.5522 638.41Z" fill="url(#paint3_radial_828_6702)"/>
<path fill-rule="evenodd" clip-rule="evenodd" d="M94.5522 638.41H836.506V638.379C837.628 638.4 838.753 638.41 839.881 638.41C938.661 638.41 1018.74 558.138 1018.74 459.117C1018.74 360.096 938.661 279.824 839.881 279.824C837.397 279.824 834.925 279.875 832.466 279.975C815.242 200.886 744.976 141.671 660.914 141.671C625.934 141.671 593.344 151.924 565.97 169.595C514.398 62.5678 394.633 -0.174853 271.915 24.4753C145.073 49.9538 57.0268 160.371 55.9613 283.975C-24.3442 301.606 -84.4551 373.325 -84.4551 459.117C-84.4551 558.138 -4.37761 638.41 94.403 638.41C94.4528 638.41 94.5025 638.41 94.5522 638.41Z" fill="url(#paint4_radial_828_6702)"/>
<path fill-rule="evenodd" clip-rule="evenodd" d="M94.5522 638.41H836.506V638.379C837.628 638.4 838.753 638.41 839.881 638.41C938.661 638.41 1018.74 558.138 1018.74 459.117C1018.74 360.096 938.661 279.824 839.881 279.824C837.397 279.824 834.925 279.875 832.466 279.975C815.242 200.886 744.976 141.671 660.914 141.671C625.934 141.671 593.344 151.924 565.97 169.595C514.398 62.5678 394.633 -0.174853 271.915 24.4753C145.073 49.9538 57.0268 160.371 55.9613 283.975C-24.3442 301.606 -84.4551 373.325 -84.4551 459.117C-84.4551 558.138 -4.37761 638.41 94.403 638.41C94.4528 638.41 94.5025 638.41 94.5522 638.41Z" fill="url(#paint5_radial_828_6702)"/>
<g filter="url(#filter0_d_828_6702)">
<path fill-rule="evenodd" clip-rule="evenodd" d="M97.4399 398C96.187 398 95.1713 399.018 95.1713 400.274L95.1713 400.622C95.1713 401.878 96.187 402.896 97.4399 402.896C98.6929 402.896 99.7086 401.878 99.7086 400.622L99.7086 400.274C99.7086 399.018 98.6929 398 97.4399 398ZM97.4399 407.398C96.187 407.398 95.1713 408.417 95.1713 409.673L95.1713 410.369C95.1713 411.625 96.187 412.643 97.4399 412.643C98.6929 412.643 99.7086 411.625 99.7086 410.369L99.7086 409.673C99.7086 408.417 98.6929 407.398 97.4399 407.398ZM97.4399 417.145C96.187 417.145 95.1713 418.163 95.1713 419.419L95.1713 420.115C95.1713 421.371 96.187 422.389 97.4399 422.389C98.6929 422.389 99.7086 421.371 99.7086 420.115L99.7086 419.419C99.7086 418.163 98.6929 417.145 97.4399 417.145ZM97.4399 426.891C96.187 426.891 95.1713 427.91 95.1713 429.166L95.1713 429.862C95.1713 431.118 96.187 432.136 97.4399 432.136C98.6929 432.136 99.7086 431.118 99.7086 429.862L99.7086 429.166C99.7086 427.91 98.6929 426.891 97.4399 426.891Z" fill="white"/>
<path d="M100.247 453.23C98.9994 455.396 95.8807 455.396 94.6333 453.23L86.7744 439.585C85.527 437.419 87.0863 434.712 89.5811 434.712L105.299 434.712C107.794 434.712 109.353 437.419 108.106 439.585L100.247 453.23Z" fill="white"/>
<path fill-rule="evenodd" clip-rule="evenodd" d="M31.1343 511.563C31.7608 512.651 33.1483 513.023 34.2334 512.395L34.5341 512.221C35.6192 511.593 35.991 510.202 35.3645 509.115C34.738 508.027 33.3505 507.654 32.2655 508.282L31.9647 508.456C30.8796 509.084 30.5079 510.475 31.1343 511.563ZM39.2539 506.864C39.8804 507.951 41.2679 508.324 42.3529 507.696L42.9544 507.348C44.0395 506.72 44.4113 505.329 43.7848 504.241C43.1583 503.154 41.7708 502.781 40.6857 503.409L40.0843 503.757C38.9992 504.385 38.6274 505.776 39.2539 506.864ZM47.6741 501.991C48.3006 503.078 49.6881 503.451 50.7732 502.823L51.3747 502.475C52.4597 501.847 52.8315 500.456 52.205 499.368C51.5786 498.281 50.1911 497.908 49.106 498.536L48.5045 498.884C47.4194 499.512 47.0477 500.903 47.6741 501.991ZM56.0944 497.117C56.7209 498.205 58.1084 498.578 59.1935 497.95L59.7949 497.602C60.88 496.974 61.2518 495.583 60.6253 494.495C59.9988 493.407 58.6113 493.035 57.5262 493.663L56.9248 494.011C55.8397 494.639 55.4679 496.03 56.0944 497.117Z" fill="white"/>
<path d="M73.5005 499.705C72.2531 501.871 69.1344 501.871 67.887 499.705L60.0281 486.06C58.7806 483.894 60.3399 481.186 62.8348 481.186L78.5527 481.186C81.0476 481.186 82.6069 483.894 81.3594 486.06L73.5005 499.705Z" fill="white"/>
<path fill-rule="evenodd" clip-rule="evenodd" d="M162.826 511.563C162.199 512.651 160.812 513.023 159.726 512.395L159.426 512.221C158.341 511.593 157.969 510.202 158.595 509.115C159.222 508.027 160.609 507.654 161.694 508.282L161.995 508.456C163.08 509.084 163.452 510.475 162.826 511.563ZM154.706 506.864C154.08 507.951 152.692 508.324 151.607 507.696L151.006 507.348C149.92 506.72 149.549 505.329 150.175 504.241C150.802 503.154 152.189 502.781 153.274 503.409L153.876 503.757C154.961 504.385 155.332 505.776 154.706 506.864ZM146.286 501.99C145.659 503.078 144.272 503.451 143.187 502.823L142.585 502.475C141.5 501.847 141.128 500.456 141.755 499.368C142.381 498.28 143.769 497.908 144.854 498.536L145.455 498.884C146.54 499.512 146.912 500.903 146.286 501.99ZM137.865 497.117C137.239 498.205 135.852 498.578 134.766 497.95L134.165 497.602C133.08 496.974 132.708 495.583 133.335 494.495C133.961 493.407 135.349 493.035 136.434 493.663L137.035 494.011C138.12 494.639 138.492 496.029 137.865 497.117Z" fill="white"/>
<path d="M126.344 499.705C125.097 501.871 121.978 501.871 120.731 499.705L112.872 486.06C111.625 483.894 113.184 481.186 115.679 481.186L131.397 481.186C133.891 481.186 135.451 483.894 134.203 486.06L126.344 499.705Z" fill="white"/>
<path fill-rule="evenodd" clip-rule="evenodd" d="M93.4284 453.927C95.2112 457.023 99.6683 457.023 101.451 453.927L107.505 443.416H120.761C125.069 443.416 128.561 446.844 128.561 451.073V454.902C128.561 459.131 125.069 462.559 120.761 462.559H73.9647C69.6572 462.559 66.1653 459.131 66.1653 454.902V451.073C66.1653 446.844 69.6572 443.416 73.9647 443.416H87.3744L93.4284 453.927ZM72.692 502.276C73.4948 501.895 74.2052 501.27 74.7053 500.402L82.5642 486.757C83.2246 485.61 83.3346 484.357 83.03 483.234H111.201C110.897 484.357 111.007 485.61 111.667 486.757L119.526 500.402C120.05 501.311 120.804 501.953 121.653 502.328C121.36 502.361 121.063 502.377 120.761 502.377H73.9647C73.5313 502.377 73.1062 502.343 72.692 502.276ZM68.0407 479.792C66.8716 478.453 66.1653 476.713 66.1653 474.811V470.982C66.1653 466.753 69.6572 463.325 73.9647 463.325H120.761C125.069 463.325 128.561 466.753 128.561 470.982V474.811C128.561 476.713 127.854 478.453 126.685 479.792H115.679C113.744 479.792 112.202 480.932 111.482 482.468H82.749C82.029 480.932 80.4878 479.792 78.5528 479.792H68.0407ZM111.402 450.308C112.694 450.308 113.742 451.336 113.742 452.605C113.742 453.874 112.694 454.902 111.402 454.902C110.11 454.902 109.062 453.874 109.062 452.605C109.062 451.336 110.11 450.308 111.402 450.308ZM120.761 452.605C120.761 451.336 119.714 450.308 118.421 450.308C117.129 450.308 116.081 451.336 116.081 452.605C116.081 453.874 117.129 454.902 118.421 454.902C119.714 454.902 120.761 453.874 120.761 452.605ZM113.742 472.514C113.742 471.245 112.694 470.217 111.402 470.217C110.11 470.217 109.062 471.245 109.062 472.514C109.062 473.783 110.11 474.811 111.402 474.811C112.694 474.811 113.742 473.783 113.742 472.514ZM118.421 470.217C119.714 470.217 120.761 471.245 120.761 472.514C120.761 473.783 119.714 474.811 118.421 474.811C117.129 474.811 116.081 473.783 116.081 472.514C116.081 471.245 117.129 470.217 118.421 470.217ZM113.742 492.423C113.742 491.154 112.694 490.126 111.402 490.126C110.11 490.126 109.062 491.154 109.062 492.423C109.062 493.692 110.11 494.72 111.402 494.72C112.694 494.72 113.742 493.692 113.742 492.423Z" fill="white"/>
</g>
<g filter="url(#filter1_d_828_6702)">
<path fill-rule="evenodd" clip-rule="evenodd" d="M298.623 451.388C299.6 451.388 300.392 452.182 300.392 453.161L300.392 453.383C300.392 454.362 299.6 455.156 298.623 455.156C297.646 455.156 296.854 454.362 296.854 453.383L296.854 453.161C296.854 452.182 297.646 451.388 298.623 451.388ZM298.623 457.373C299.6 457.373 300.392 458.167 300.392 459.146L300.392 459.589C300.392 460.569 299.6 461.363 298.623 461.363C297.646 461.363 296.854 460.569 296.854 459.589L296.854 459.146C296.854 458.167 297.646 457.373 298.623 457.373ZM298.623 463.579C299.6 463.579 300.392 464.373 300.392 465.353L300.392 465.796C300.392 466.775 299.6 467.569 298.623 467.569C297.646 467.569 296.854 466.775 296.854 465.796L296.854 465.353C296.854 464.373 297.646 463.579 298.623 463.579ZM298.623 469.786C299.6 469.786 300.392 470.58 300.392 471.559L300.392 471.781C300.392 472.761 299.6 473.554 298.623 473.554C297.646 473.554 296.854 472.761 296.854 471.781L296.854 471.559C296.854 470.58 297.646 469.786 298.623 469.786Z" fill="white"/>
<path fill-rule="evenodd" clip-rule="evenodd" d="M282.483 503.31C283.095 504.074 282.974 505.19 282.213 505.804L282.04 505.943C281.279 506.556 280.165 506.435 279.553 505.672C278.941 504.908 279.062 503.792 279.824 503.178L279.996 503.039C280.757 502.426 281.871 502.547 282.483 503.31ZM277.825 507.064C278.438 507.827 278.317 508.944 277.555 509.557L277.21 509.835C276.449 510.449 275.335 510.328 274.723 509.565C274.111 508.801 274.232 507.685 274.993 507.071L275.338 506.793C276.1 506.18 277.213 506.301 277.825 507.064ZM272.995 510.957C273.607 511.72 273.486 512.837 272.725 513.45L272.38 513.728C271.618 514.342 270.505 514.221 269.893 513.457C269.281 512.694 269.402 511.578 270.163 510.964L270.508 510.686C271.269 510.072 272.383 510.194 272.995 510.957ZM268.165 514.85C268.777 515.613 268.656 516.729 267.895 517.343L267.722 517.482C266.961 518.096 265.847 517.975 265.235 517.211C264.623 516.448 264.744 515.332 265.505 514.718L265.678 514.579C266.439 513.965 267.553 514.087 268.165 514.85Z" fill="white"/>
<path fill-rule="evenodd" clip-rule="evenodd" d="M314.32 502.867C313.708 503.63 313.829 504.746 314.59 505.36L314.763 505.499C315.524 506.113 316.638 505.991 317.25 505.228C317.862 504.465 317.741 503.349 316.98 502.735L316.807 502.596C316.046 501.982 314.932 502.104 314.32 502.867ZM318.978 506.621C318.365 507.384 318.486 508.5 319.248 509.114L319.593 509.392C320.354 510.006 321.468 509.884 322.08 509.121C322.692 508.358 322.571 507.242 321.81 506.628L321.465 506.35C320.703 505.736 319.59 505.857 318.978 506.621ZM323.808 510.514C323.196 511.277 323.317 512.393 324.078 513.007L324.423 513.285C325.185 513.899 326.298 513.777 326.91 513.014C327.523 512.251 327.402 511.134 326.64 510.521L326.295 510.243C325.534 509.629 324.42 509.75 323.808 510.514ZM328.638 514.407C328.026 515.17 328.147 516.286 328.909 516.9L329.081 517.039C329.842 517.653 330.956 517.531 331.568 516.768C332.18 516.005 332.059 514.888 331.298 514.275L331.125 514.136C330.364 513.522 329.25 513.643 328.638 514.407Z" fill="white"/>
<path fill-rule="evenodd" clip-rule="evenodd" d="M307.399 426.492C307.399 421.543 303.422 417.694 298.623 417.694C293.823 417.694 289.846 421.543 289.846 426.492C289.846 431.303 293.823 435.29 298.623 435.29C303.422 435.29 307.399 431.441 307.399 426.492ZM280.932 449.999C284.772 455.773 291.217 459.485 298.622 459.485C306.028 459.485 312.473 455.773 316.313 449.999C316.176 444.088 304.519 440.926 298.622 440.926C292.726 440.926 281.069 444.088 280.932 449.999Z" fill="white"/>
<path fill-rule="evenodd" clip-rule="evenodd" d="M263.615 499.199C263.615 494.25 259.638 490.401 254.839 490.401C250.039 490.401 246.062 494.25 246.062 499.199C246.062 504.011 250.039 507.997 254.839 507.997C259.638 507.997 263.615 504.148 263.615 499.199ZM237.148 522.706C240.988 528.48 247.433 532.192 254.839 532.192C262.244 532.192 268.689 528.48 272.529 522.706C272.392 516.795 260.735 513.633 254.839 513.633C248.942 513.633 237.285 516.795 237.148 522.706Z" fill="white"/>
<path fill-rule="evenodd" clip-rule="evenodd" d="M347.646 499.199C347.646 494.25 343.669 490.401 338.869 490.401C334.069 490.401 330.092 494.25 330.092 499.199C330.092 504.011 334.069 507.997 338.869 507.997C343.669 507.997 347.646 504.148 347.646 499.199ZM321.178 522.706C325.018 528.48 331.464 532.192 338.869 532.192C346.274 532.192 352.72 528.48 356.56 522.706C356.422 516.795 344.766 513.633 338.869 513.633C332.972 513.633 321.316 516.795 321.178 522.706Z" fill="white"/>
<path fill-rule="evenodd" clip-rule="evenodd" d="M298.622 512.125C309.858 512.125 318.966 502.994 318.966 491.731C318.966 480.468 309.858 471.338 298.622 471.338C287.387 471.338 278.278 480.468 278.278 491.731C278.278 502.994 287.387 512.125 298.622 512.125ZM306.485 483.603V489.293L312.775 482.791V500.671L306.485 494.17V499.859C306.485 500.753 305.776 501.485 304.912 501.485H286.042C285.177 501.485 284.47 500.753 284.47 499.859V483.603C284.47 482.709 285.177 481.978 286.042 481.978H304.912C305.776 481.978 306.485 482.709 306.485 483.603Z" fill="white"/>
</g>
<g filter="url(#filter2_d_828_6702)">
<path fill-rule="evenodd" clip-rule="evenodd" d="M446.218 450.291C446.218 444.511 450.831 439.825 456.522 439.825H518.344C524.035 439.825 528.648 444.511 528.648 450.291V455.524C528.648 461.305 524.035 465.99 518.344 465.99H456.522C450.831 465.99 446.218 461.305 446.218 455.524V450.291ZM509.071 453.431C509.071 455.165 507.687 456.571 505.98 456.571C504.273 456.571 502.889 455.165 502.889 453.431C502.889 451.697 504.273 450.291 505.98 450.291C507.687 450.291 509.071 451.697 509.071 453.431ZM515.253 456.571C516.96 456.571 518.344 455.165 518.344 453.431C518.344 451.697 516.96 450.291 515.253 450.291C513.546 450.291 512.162 451.697 512.162 453.431C512.162 455.165 513.546 456.571 515.253 456.571Z" fill="white"/>
<path fill-rule="evenodd" clip-rule="evenodd" d="M446.218 477.503C446.218 471.723 450.831 468.012 456.522 468.012H518.344C524.035 468.012 528.648 471.723 528.648 477.503V482.736C528.648 488.517 524.035 492.228 518.344 492.228H456.522C450.831 492.228 446.218 488.517 446.218 482.736V477.503ZM509.071 480.643C509.071 482.377 507.687 483.783 505.98 483.783C504.273 483.783 502.889 482.377 502.889 480.643C502.889 478.909 504.273 477.503 505.98 477.503C507.687 477.503 509.071 478.909 509.071 480.643ZM515.253 483.783C516.96 483.783 518.344 482.377 518.344 480.643C518.344 478.909 516.96 477.503 515.253 477.503C513.546 477.503 512.162 478.909 512.162 480.643C512.162 482.377 513.546 483.783 515.253 483.783Z" fill="white"/>
<path fill-rule="evenodd" clip-rule="evenodd" d="M446.218 504.715C446.218 498.935 450.831 494.249 456.522 494.249H518.344C524.035 494.249 528.648 498.935 528.648 504.715V509.949C528.648 515.729 524.035 520.415 518.344 520.415H456.522C450.831 520.415 446.218 515.729 446.218 509.949V504.715ZM509.071 507.855C509.071 509.589 507.687 510.995 505.98 510.995C504.273 510.995 502.889 509.589 502.889 507.855C502.889 506.121 504.273 504.715 505.98 504.715C507.687 504.715 509.071 506.121 509.071 507.855ZM515.253 510.995C516.96 510.995 518.344 509.589 518.344 507.855C518.344 506.121 516.96 504.715 515.253 504.715C513.546 504.715 512.162 506.121 512.162 507.855C512.162 509.589 513.546 510.995 515.253 510.995Z" fill="white"/>
</g>
<g filter="url(#filter3_d_828_6702)">
<path d="M705.719 451.046V458.697C705.719 465.44 688.853 470.939 668.066 470.939C647.278 470.939 630.413 465.44 630.413 458.697V451.046C630.413 444.304 647.278 438.805 668.066 438.805C688.853 438.805 705.719 444.304 705.719 451.046ZM705.719 468.261V485.476C705.719 492.218 688.853 497.717 668.066 497.717C647.278 497.717 630.413 492.218 630.413 485.476V468.261C638.502 473.808 653.309 476.39 668.066 476.39C682.823 476.39 697.629 473.808 705.719 468.261ZM705.719 495.039V512.254C705.719 518.996 688.853 524.495 668.066 524.495C647.278 524.495 630.413 518.996 630.413 512.254V495.039C638.502 500.586 653.309 503.168 668.066 503.168C682.823 503.168 697.629 500.586 705.719 495.039Z" fill="white"/>
</g>
<g filter="url(#filter4_d_828_6702)">
<path fill-rule="evenodd" clip-rule="evenodd" d="M880.989 467.737C881.795 467.298 882.804 467.597 883.242 468.404L883.343 468.591C883.782 469.399 883.484 470.41 882.678 470.849C881.873 471.289 880.864 470.99 880.426 470.183L880.324 469.995C879.886 469.188 880.184 468.177 880.989 467.737ZM883.733 472.792C884.538 472.353 885.547 472.652 885.985 473.459L886.188 473.834C886.627 474.641 886.329 475.652 885.523 476.092C884.717 476.531 883.709 476.232 883.271 475.425L883.068 475.05C882.629 474.243 882.927 473.232 883.733 472.792ZM886.578 478.035C887.383 477.595 888.392 477.894 888.83 478.702L889.033 479.076C889.472 479.884 889.174 480.895 888.368 481.334C887.562 481.773 886.554 481.475 886.116 480.667L885.912 480.293C885.474 479.485 885.772 478.474 886.578 478.035ZM889.423 483.277C890.228 482.838 891.237 483.136 891.675 483.944L891.878 484.318C892.317 485.126 892.019 486.137 891.213 486.576C890.407 487.016 889.399 486.717 888.961 485.909L888.757 485.535C888.319 484.727 888.617 483.716 889.423 483.277ZM892.267 488.519C893.073 488.08 894.082 488.379 894.52 489.186L894.723 489.561C895.161 490.368 894.864 491.379 894.058 491.818C893.252 492.258 892.244 491.959 891.805 491.152L891.602 490.777C891.164 489.97 891.462 488.959 892.267 488.519ZM895.112 493.762C895.918 493.322 896.927 493.621 897.365 494.428L897.568 494.803C898.006 495.611 897.708 496.621 896.903 497.061C896.097 497.5 895.089 497.202 894.65 496.394L894.447 496.019C894.009 495.212 894.307 494.201 895.112 493.762ZM897.957 499.004C898.763 498.565 899.771 498.863 900.21 499.671L900.413 500.045C900.851 500.853 900.553 501.864 899.748 502.303C898.942 502.742 897.934 502.444 897.495 501.636L897.292 501.262C896.854 500.454 897.152 499.443 897.957 499.004ZM900.802 504.246C901.608 503.807 902.616 504.105 903.055 504.913L903.156 505.1C903.595 505.908 903.297 506.919 902.491 507.358C901.685 507.797 900.677 507.499 900.239 506.691L900.137 506.504C899.699 505.696 899.997 504.686 900.802 504.246Z" fill="white"/>
<path fill-rule="evenodd" clip-rule="evenodd" d="M844.187 470.792C843.378 470.358 842.372 470.664 841.939 471.475L841.839 471.663C841.406 472.473 841.711 473.482 842.52 473.916C843.329 474.349 844.335 474.043 844.768 473.233L844.868 473.045C845.301 472.234 844.996 471.225 844.187 470.792ZM841.479 475.866C840.671 475.433 839.664 475.738 839.232 476.549L839.031 476.925C838.599 477.736 838.904 478.745 839.713 479.178C840.521 479.612 841.528 479.306 841.96 478.495L842.161 478.119C842.593 477.309 842.288 476.3 841.479 475.866ZM838.672 481.129C837.863 480.695 836.857 481.001 836.424 481.812L836.224 482.188C835.791 482.998 836.096 484.007 836.905 484.441C837.714 484.874 838.72 484.568 839.153 483.758L839.353 483.382C839.786 482.571 839.481 481.562 838.672 481.129Z" fill="white"/>
<path fill-rule="evenodd" clip-rule="evenodd" d="M835.106 425.837C835.106 422.105 838.127 419.08 841.853 419.08H882.333C886.059 419.08 889.079 422.105 889.079 425.837V429.215C889.079 432.946 886.059 435.971 882.333 435.971H841.853C838.127 435.971 835.106 432.946 835.106 429.215V425.837ZM876.261 427.863C876.261 428.983 875.355 429.89 874.237 429.89C873.119 429.89 872.213 428.983 872.213 427.863C872.213 426.744 873.119 425.837 874.237 425.837C875.355 425.837 876.261 426.744 876.261 427.863ZM880.309 429.89C881.427 429.89 882.333 428.983 882.333 427.863C882.333 426.744 881.427 425.837 880.309 425.837C879.191 425.837 878.285 426.744 878.285 427.863C878.285 428.983 879.191 429.89 880.309 429.89Z" fill="white"/>
<path fill-rule="evenodd" clip-rule="evenodd" d="M835.106 443.403C835.106 439.672 838.127 436.647 841.853 436.647H882.333C886.059 436.647 889.079 439.672 889.079 443.403V446.781C889.079 450.512 886.059 453.537 882.333 453.537H841.853C838.127 453.537 835.106 450.512 835.106 446.781V443.403ZM876.261 445.43C876.261 446.549 875.355 447.457 874.237 447.457C873.119 447.457 872.213 446.549 872.213 445.43C872.213 444.31 873.119 443.403 874.237 443.403C875.355 443.403 876.261 444.31 876.261 445.43ZM880.309 447.457C881.427 447.457 882.333 446.549 882.333 445.43C882.333 444.31 881.427 443.403 880.309 443.403C879.191 443.403 878.285 444.31 878.285 445.43C878.285 446.549 879.191 447.457 880.309 447.457Z" fill="white"/>
<path fill-rule="evenodd" clip-rule="evenodd" d="M835.106 460.969C835.106 457.238 838.127 454.213 841.853 454.213H882.333C886.059 454.213 889.079 457.238 889.079 460.969V464.347C889.079 468.079 886.059 471.104 882.333 471.104H841.853C838.127 471.104 835.106 468.079 835.106 464.347V460.969ZM876.261 462.996C876.261 464.115 875.355 465.023 874.237 465.023C873.119 465.023 872.213 464.115 872.213 462.996C872.213 461.877 873.119 460.969 874.237 460.969C875.355 460.969 876.261 461.877 876.261 462.996ZM880.309 465.023C881.427 465.023 882.333 464.115 882.333 462.996C882.333 461.877 881.427 460.969 880.309 460.969C879.191 460.969 878.285 461.877 878.285 462.996C878.285 464.115 879.191 465.023 880.309 465.023Z" fill="white"/>
<path d="M918.038 477.879L910.328 488.291C909.653 489.202 909.582 490.462 910.157 491.386L914.349 498.128C908.681 505.274 901.044 510.173 892.739 511.967L889.888 504.366C889.506 503.328 888.519 502.737 887.486 502.919L875.685 505.002C874.566 505.205 873.681 506.26 873.595 507.504L872.808 518.957C872.724 520.157 873.402 521.211 874.443 521.503C898.281 528.178 923.597 511.931 931.028 485.265C931.353 484.099 930.919 482.889 929.979 482.345L921.01 477.139C920.026 476.572 918.776 476.884 918.038 477.879Z" fill="white"/>
<path fill-rule="evenodd" clip-rule="evenodd" d="M814.88 475.294C814.702 475.315 814.141 475.376 813.633 475.43C807.728 476.057 801.779 478.965 797.431 483.351C793.072 487.748 790.329 493.464 789.554 499.763C789.398 501.035 789.398 504.833 789.554 506.105C790.805 516.274 797.196 524.75 806.521 528.606C811.868 530.816 817.975 531.221 823.704 529.744C827.329 528.809 831.093 526.889 834.105 524.44C838.543 520.831 841.965 515.457 843.374 509.884C845.795 500.309 843.062 490.219 836.179 483.322C831.879 479.013 826.47 476.319 820.411 475.469C819.414 475.33 815.598 475.208 814.88 475.294ZM815.619 485.45V492.212L815.273 492.168C815.082 492.143 814.552 492.098 814.095 492.067C812.334 491.948 809.93 491.519 807.999 490.978C807 490.698 806.893 490.647 806.911 490.466C806.946 490.135 808.111 487.799 808.892 486.496C810.112 484.46 811.608 482.487 813.215 480.797C814.108 479.857 815.39 478.688 815.527 478.688C815.587 478.688 815.619 481.033 815.619 485.45ZM818.921 479.328C821.852 481.944 824.75 485.938 826.389 489.62C826.618 490.136 826.773 490.59 826.731 490.629C826.621 490.735 824.405 491.328 823.285 491.551C822.025 491.802 820.596 491.997 819.498 492.068C819.016 492.099 818.486 492.146 818.321 492.172L818.021 492.218V485.453C818.021 481.034 818.052 478.688 818.112 478.688C818.163 478.688 818.526 478.976 818.921 479.328ZM810.394 480.38C808.198 482.933 806.083 486.277 804.901 489.063C804.732 489.46 804.564 489.785 804.527 489.785C804.064 489.785 798.901 487.056 798.901 486.811C798.901 486.769 799.431 486.214 800.079 485.578C802.639 483.061 805.611 481.193 808.889 480.041C809.737 479.742 811.01 479.363 811.213 479.347C811.254 479.344 810.885 479.809 810.394 480.38ZM824.117 479.83C826.892 480.723 829.628 482.205 831.867 484.027C832.603 484.627 834.738 486.697 834.738 486.811C834.738 487.059 829.584 489.785 829.115 489.785C829.08 489.785 828.89 489.418 828.694 488.97C827.421 486.057 825.432 482.922 823.237 480.37C822.192 479.155 822.132 479.191 824.117 479.83ZM797.826 489.002C798.841 489.699 801.336 491.025 802.896 491.697C803.34 491.889 803.704 492.063 803.704 492.083C803.704 492.104 803.556 492.627 803.374 493.245C802.717 495.486 802.189 498.377 802.083 500.32C802.054 500.86 802.011 501.396 801.988 501.512L801.946 501.722H797.377H792.808L792.858 501.139C793.216 497.023 794.348 493.529 796.431 490.112C796.952 489.257 797.311 488.76 797.407 488.76C797.443 488.76 797.632 488.869 797.826 489.002ZM836.736 489.373C838.796 492.36 840.374 496.722 840.696 500.323C840.725 500.656 840.771 501.107 840.798 501.325L840.846 501.722H836.278C831.108 501.722 831.598 501.81 831.598 500.881C831.598 499.329 830.91 495.399 830.26 493.236C830.082 492.646 829.937 492.136 829.936 492.102C829.936 492.068 830.258 491.907 830.651 491.742C831.811 491.259 834.022 490.114 835.136 489.421C835.705 489.067 836.212 488.787 836.263 488.799C836.313 488.811 836.526 489.069 836.736 489.373ZM807.563 493.322C809.823 493.936 812.325 494.354 814.642 494.505L815.619 494.569V498.145V501.722H809.985H804.351L804.352 501.419C804.353 500.848 804.627 498.506 804.816 497.432C805.189 495.327 805.883 492.828 806.076 492.903C806.146 492.93 806.816 493.119 807.563 493.322ZM827.98 493.865C828.399 495.335 828.61 496.229 828.823 497.432C829.013 498.506 829.286 500.848 829.288 501.419L829.289 501.722H823.655H818.021V498.145V494.569L818.996 494.505C821.468 494.344 824.393 493.836 826.518 493.2C827.102 493.025 827.606 492.878 827.638 492.872C827.669 492.867 827.823 493.314 827.98 493.865ZM801.986 504.729C802.015 505.05 802.084 505.836 802.14 506.477C802.31 508.431 802.824 511.053 803.444 513.129C803.551 513.488 803.599 513.8 803.554 513.843C803.509 513.886 803.203 514.034 802.873 514.173C801.551 514.73 799.245 515.953 797.987 516.766L797.397 517.148L797.146 516.844C796.755 516.371 795.538 514.266 795.08 513.27C793.838 510.568 793.18 508.045 792.853 504.729L792.796 504.146H797.365H801.934L801.986 504.729ZM815.619 507.724V511.301L814.626 511.364C812.285 511.512 809.172 512.051 807.041 512.678C806.413 512.863 805.884 512.999 805.866 512.981C805.848 512.963 805.685 512.405 805.504 511.741C804.902 509.528 804.53 507.331 804.39 505.149L804.325 504.146H809.972H815.619V507.724ZM829.25 505.149C829.109 507.331 828.738 509.528 828.135 511.741C827.954 512.405 827.792 512.963 827.774 512.981C827.755 512.999 827.247 512.87 826.644 512.693C824.389 512.033 821.931 511.592 819.475 511.405L818.021 511.294V507.72V504.146H823.667H829.314L829.25 505.149ZM840.782 504.776C840.511 507.745 839.808 510.476 838.654 513.044C838.139 514.19 836.959 516.262 836.506 516.816L836.249 517.13L835.517 516.668C834.251 515.868 831.741 514.565 830.374 513.998C829.986 513.837 829.967 513.761 830.171 513.18C830.687 511.705 831.327 508.422 831.505 506.338C831.561 505.671 831.629 504.905 831.656 504.636L831.704 504.146H836.272H840.84L840.782 504.776ZM815.619 520.43V527.203L815.335 527.145C814.294 526.935 810.605 522.58 808.679 519.287C808.155 518.392 806.755 515.542 806.753 515.367C806.752 515.243 806.944 515.174 808.368 514.787C810.291 514.266 813 513.826 814.926 513.723C815.231 513.707 815.512 513.685 815.55 513.676C815.588 513.666 815.619 516.705 815.619 520.43ZM820.561 513.902C823.018 514.169 826.889 515.064 826.886 515.365C826.885 515.542 825.486 518.389 824.958 519.291C823.665 521.501 822.226 523.42 820.404 525.363C819.387 526.448 818.648 527.076 818.308 527.145L818.021 527.203V520.441V513.679L818.644 513.721C818.987 513.743 819.849 513.825 820.561 513.902ZM804.942 517.134C806.253 520.16 808.51 523.701 810.528 525.899C810.753 526.143 810.911 526.368 810.881 526.399C810.789 526.492 808.268 525.628 807.068 525.093C804.37 523.89 801.835 522.11 799.686 519.908C798.725 518.923 798.686 519.095 800.056 518.279C801.215 517.589 804.198 516.1 804.443 516.09C804.468 516.089 804.693 516.559 804.942 517.134ZM829.923 516.404C831.611 517.133 834.738 518.858 834.738 519.06C834.738 519.102 834.204 519.66 833.55 520.299C830.671 523.115 827.292 525.12 823.607 526.198C823.161 526.329 822.774 526.415 822.749 526.389C822.724 526.364 822.888 526.143 823.114 525.899C824.233 524.689 826.126 522.032 827.115 520.284C827.617 519.396 828.591 517.427 828.927 516.62C829.05 516.326 829.157 516.085 829.165 516.084C829.174 516.083 829.515 516.227 829.923 516.404Z" fill="white"/>
</g>
<path d="M362.599 263.834L337.895 233.463H312.946V265.796H309.485C308.383 265.762 307.335 265.313 306.555 264.54C305.775 263.766 305.322 262.727 305.289 261.634V189.371C305.331 188.347 305.774 187.379 306.525 186.675C307.242 185.931 308.223 185.496 309.259 185.462H344.089C347.242 185.472 350.357 186.138 353.234 187.419C356.067 188.552 358.602 190.312 360.645 192.564C362.623 194.768 364.601 197.217 365.833 200.156C367.025 203.031 367.615 206.116 367.566 209.224C367.577 212.151 367.075 215.057 366.084 217.814C365.139 220.474 363.622 222.897 361.637 224.916C359.909 227.085 357.714 228.843 355.212 230.06C352.719 231.501 349.999 232.232 347.28 232.709L373.957 265.533H366.801C365.318 266.039 363.836 265.304 362.599 263.834ZM313.191 225.87H343.825C346.023 225.841 348.198 225.426 350.25 224.644C352.204 223.879 353.972 222.709 355.433 221.212C356.943 219.763 358.123 218.011 358.893 216.072C359.88 214.111 360.13 211.906 360.13 209.701C360.101 207.522 359.683 205.365 358.893 203.33C357.907 201.373 356.915 199.66 355.433 198.19C353.972 196.693 352.204 195.523 350.25 194.759C348.198 193.976 346.023 193.561 343.825 193.532H313.191V225.87Z" fill="white"/>
<path d="M438.93 189.614C438.915 190.454 438.572 191.255 437.973 191.849C437.374 192.443 436.566 192.783 435.719 192.797H413.484V265.815H410.029C408.926 265.782 407.876 265.334 407.096 264.56C406.315 263.787 405.861 262.747 405.827 261.653V192.797H384.338C383.235 192.765 382.186 192.316 381.405 191.543C380.624 190.77 380.171 189.73 380.137 188.636C380.154 187.798 380.498 186.999 381.097 186.408C381.695 185.816 382.502 185.477 383.347 185.462H434.483C437.202 185.462 438.93 187.409 438.93 189.614Z" fill="white"/>
<path d="M517.734 252.815C518.141 253.256 518.453 253.775 518.651 254.34C518.848 254.905 518.926 255.505 518.881 256.101C518.836 256.698 518.669 257.278 518.388 257.808C518.108 258.338 517.722 258.805 517.253 259.181C510.337 264.082 501.693 266.531 491.066 266.531C485.191 266.591 479.347 265.68 473.774 263.834C468.959 262.083 464.578 259.328 460.929 255.754C457.473 252.323 454.754 247.913 452.781 243.017C450.803 237.872 450.061 232.236 450.061 225.87C450.02 220.045 450.938 214.253 452.781 208.723C454.603 203.902 457.372 199.488 460.929 195.737C464.389 192.311 468.836 189.614 473.774 187.653C478.712 185.691 484.632 184.985 491.052 184.985C500.196 184.985 508.099 186.942 514.524 190.616C514.962 190.862 515.341 191.199 515.633 191.605C515.925 192.011 516.125 192.475 516.216 192.966C516.308 193.456 516.29 193.961 516.164 194.444C516.038 194.927 515.807 195.376 515.486 195.761C514.887 196.588 514.004 197.169 513.004 197.395C512.003 197.62 510.953 197.476 510.053 196.988C504.865 194.048 498.447 192.578 490.802 192.578C479.934 192.578 471.55 195.518 465.607 201.168C459.923 206.8 456.944 215.127 456.944 225.908C456.944 236.689 459.908 244.998 465.607 250.891C471.286 256.528 479.684 259.482 490.802 259.482C495.588 259.546 500.35 258.8 504.884 257.277C508.094 256.294 510.813 254.58 513.282 252.867C513.897 252.332 514.687 252.036 515.506 252.036C516.324 252.036 517.114 252.332 517.729 252.867L517.734 252.815Z" fill="white"/>
<path d="M147.929 213.142C144.389 213.1 140.878 213.772 137.608 215.118C134.338 216.463 131.379 218.454 128.909 220.969C126.37 223.417 124.36 226.351 123.001 229.594C121.641 232.836 120.961 236.318 121.002 239.83C120.962 243.341 121.642 246.825 123.001 250.068C124.36 253.311 126.37 256.246 128.909 258.695C131.379 261.211 134.338 263.203 137.608 264.55C140.877 265.897 144.389 266.571 147.929 266.531C155.832 266.531 162.257 263.835 167.691 258.447L167.445 263.591C167.2 266.039 168.408 267.022 170.901 267.022C173.394 267.022 174.361 265.796 174.361 263.591V240.822C174.361 233.473 171.642 227.102 166.458 221.733C161.761 215.825 155.341 213.142 147.929 213.142ZM161.761 254.046C157.979 257.444 153.032 259.284 147.929 259.191C142.496 259.191 137.822 257.478 133.847 253.56C129.872 249.642 128.168 244.969 128.168 239.596C128.117 237.022 128.62 234.466 129.642 232.1C130.664 229.733 132.183 227.61 134.097 225.87C138.049 221.947 142.496 219.991 147.929 219.991C153.363 219.991 158.036 221.947 161.761 226.114C165.717 230.28 167.691 234.933 167.691 240.321C167.691 245.957 165.717 250.367 161.761 254.037V254.046Z" fill="white"/>
<path d="M215.616 212.885C208.471 212.898 201.624 215.717 196.572 220.726C191.52 225.736 188.677 232.526 188.664 239.61V290.049C188.664 292.249 189.901 293.476 192.124 293.476C194.348 293.476 195.58 292.249 195.58 290.049V257.225C200.768 263.1 207.439 265.815 215.346 265.815C223.003 265.815 229.178 263.367 234.366 258.222C236.904 255.774 238.914 252.84 240.272 249.598C241.631 246.355 242.31 242.873 242.269 239.362C242.31 235.851 241.631 232.367 240.272 229.124C238.914 225.881 236.904 222.946 234.366 220.497C229.202 215.581 223.027 212.885 215.616 212.885ZM229.448 253.302C225.515 257.225 221.049 258.957 215.616 258.957C210.182 258.957 205.485 257.244 201.533 253.321C197.582 249.398 195.854 244.731 195.854 239.362C195.816 236.813 196.3 234.283 197.276 231.925C198.252 229.567 199.701 227.429 201.533 225.641C205.486 221.722 210.18 219.762 215.616 219.762C218.21 219.714 220.784 220.214 223.169 221.228C225.553 222.241 227.694 223.746 229.448 225.641C233.399 229.564 235.377 233.969 235.377 239.362C235.367 241.959 234.838 244.528 233.821 246.921C232.803 249.314 231.316 251.483 229.448 253.302Z" fill="white"/>
<path d="M260.823 192.063C263.787 192.063 265.27 190.593 265.27 187.653V187.41C265.27 184.47 263.787 183 260.823 183C257.858 183 256.376 184.47 256.376 187.41V187.653C256.376 190.593 257.858 192.063 260.823 192.063Z" fill="white"/>
<path d="M284.045 259.181C278.361 259.181 273.668 257.468 269.962 253.55C266.257 249.632 264.279 245.222 264.279 239.586V216.559C264.279 214.354 263.047 213.133 260.823 213.133C258.599 213.133 257.363 214.354 257.363 216.559V239.829C257.363 247.422 259.836 253.55 265.02 258.695C270.203 263.839 276.633 266.287 284.045 266.287C286.268 266.287 287.5 265.061 287.5 262.856C287.5 260.389 286.268 259.181 284.045 259.181Z" fill="white"/>
<path d="M247.545 298.001C241.671 298.001 236.637 300.098 232.547 304.188C228.457 308.279 226.359 313.313 226.359 319.186V374.142C226.359 375.925 227.303 376.869 229.191 376.869C230.974 376.869 231.918 375.925 231.918 374.142V333.45C236.113 338.064 241.357 340.372 247.545 340.372C253.523 340.372 258.452 338.379 262.542 334.289C266.632 330.198 268.73 325.164 268.73 319.186C268.73 313.208 266.632 308.279 262.542 304.188C258.452 300.098 253.523 298.001 247.545 298.001ZM247.545 334.813C243.245 334.813 239.469 333.345 236.427 330.303C233.386 327.262 231.918 323.486 231.918 319.186C231.918 314.886 233.386 311.215 236.427 308.174C239.469 305.132 243.245 303.559 247.545 303.559C251.845 303.559 255.515 305.132 258.557 308.174C261.598 311.215 263.171 314.886 263.171 319.186C263.171 323.486 261.598 327.262 258.557 330.303C255.515 333.345 251.845 334.813 247.545 334.813Z" fill="white"/>
<path d="M323.115 320.025C323.115 314.152 321.018 309.013 316.927 304.713C312.837 300.413 307.803 298.21 301.93 298.21C296.057 298.21 291.022 300.308 286.932 304.398C282.842 308.489 280.744 313.523 280.744 319.396C280.744 325.269 282.842 330.303 286.932 334.393C291.022 338.484 296.057 340.581 301.93 340.581C308.118 340.581 313.362 338.379 317.557 334.079L317.452 338.169C317.347 340.057 318.291 341.001 320.283 341.001C322.171 341.001 323.115 340.057 323.115 338.169V320.025ZM301.93 335.023C297.63 335.023 293.854 333.554 290.813 330.513C287.771 327.471 286.303 323.696 286.303 319.396C286.303 315.096 287.876 311.425 290.918 308.384C293.959 305.342 297.63 303.769 301.93 303.769C306.23 303.769 309.901 305.342 312.942 308.593C315.983 311.845 317.557 315.62 317.557 320.025C317.557 324.325 315.983 327.996 312.942 330.828C309.901 333.659 306.23 335.023 301.93 335.023Z" fill="white"/>
<path d="M377.5 320.025C377.5 314.152 375.403 309.013 371.313 304.713C367.222 300.413 362.188 298.21 356.315 298.21C350.442 298.21 345.408 300.308 341.317 304.398C337.227 308.489 335.13 313.523 335.13 319.396C335.13 325.269 337.227 330.303 341.317 334.393C345.408 338.484 350.442 340.581 356.315 340.581C362.503 340.581 367.747 338.379 371.942 334.079L371.837 338.169C371.732 340.057 372.676 341.001 374.669 341.001C376.556 341.001 377.5 340.057 377.5 338.169V320.025ZM356.315 335.023C352.015 335.023 348.239 333.554 345.198 330.513C342.156 327.471 340.688 323.696 340.688 319.396C340.688 315.096 342.261 311.425 345.303 308.384C348.344 305.342 352.015 303.769 356.315 303.769C360.615 303.769 364.286 305.342 367.327 308.593C370.369 311.845 371.942 315.62 371.942 320.025C371.942 324.325 370.369 327.996 367.327 330.828C364.286 333.659 360.615 335.023 356.315 335.023Z" fill="white"/>
<path d="M404.827 318.347V321.074C404.827 325.164 403.254 328.625 400.107 331.247C396.961 333.869 393.29 335.128 389.095 335.128C387.312 335.128 386.368 336.072 386.368 337.854C386.368 339.742 387.312 340.686 389.095 340.686C394.863 340.686 399.898 338.903 404.093 335.232C408.288 331.562 410.385 326.842 410.385 321.074V318.347C410.385 314.257 411.959 310.796 415 308.069C418.146 305.237 421.817 303.874 426.012 303.874C427.9 303.874 428.844 302.93 428.844 301.147C428.844 299.259 427.9 298.315 426.012 298.315C420.244 298.315 415.315 300.203 411.12 304.084C406.924 307.859 404.827 312.579 404.827 318.347Z" fill="white"/>
</g>
<defs>
<filter id="filter0_d_828_6702" x="30.8301" y="395.983" width="134.317" height="116.717" filterUnits="userSpaceOnUse" color-interpolation-filters="sRGB">
<feFlood flood-opacity="0" result="BackgroundImageFix"/>
<feColorMatrix in="SourceAlpha" type="matrix" values="0 0 0 0 0 0 0 0 0 0 0 0 0 0 0 0 0 0 127 0" result="hardAlpha"/>
<feOffset dx="2.01689" dy="-2.01689"/>
<feColorMatrix type="matrix" values="0 0 0 0 0 0 0 0 0 0 0 0 0 0 0 0 0 0 0.25 0"/>
<feBlend mode="normal" in2="BackgroundImageFix" result="effect1_dropShadow_828_6702"/>
<feBlend mode="normal" in="SourceGraphic" in2="effect1_dropShadow_828_6702" result="shape"/>
</filter>
<filter id="filter1_d_828_6702" x="237.148" y="415.677" width="121.428" height="116.515" filterUnits="userSpaceOnUse" color-interpolation-filters="sRGB">
<feFlood flood-opacity="0" result="BackgroundImageFix"/>
<feColorMatrix in="SourceAlpha" type="matrix" values="0 0 0 0 0 0 0 0 0 0 0 0 0 0 0 0 0 0 127 0" result="hardAlpha"/>
<feOffset dx="2.01689" dy="-2.01689"/>
<feColorMatrix type="matrix" values="0 0 0 0 0 0 0 0 0 0 0 0 0 0 0 0 0 0 0.25 0"/>
<feBlend mode="normal" in2="BackgroundImageFix" result="effect1_dropShadow_828_6702"/>
<feBlend mode="normal" in="SourceGraphic" in2="effect1_dropShadow_828_6702" result="shape"/>
</filter>
<filter id="filter2_d_828_6702" x="446.218" y="437.808" width="84.4465" height="82.6067" filterUnits="userSpaceOnUse" color-interpolation-filters="sRGB">
<feFlood flood-opacity="0" result="BackgroundImageFix"/>
<feColorMatrix in="SourceAlpha" type="matrix" values="0 0 0 0 0 0 0 0 0 0 0 0 0 0 0 0 0 0 127 0" result="hardAlpha"/>
<feOffset dx="2.01689" dy="-2.01689"/>
<feColorMatrix type="matrix" values="0 0 0 0 0 0 0 0 0 0 0 0 0 0 0 0 0 0 0.25 0"/>
<feBlend mode="normal" in2="BackgroundImageFix" result="effect1_dropShadow_828_6702"/>
<feBlend mode="normal" in="SourceGraphic" in2="effect1_dropShadow_828_6702" result="shape"/>
</filter>
<filter id="filter3_d_828_6702" x="630.413" y="436.788" width="77.3228" height="87.7073" filterUnits="userSpaceOnUse" color-interpolation-filters="sRGB">
<feFlood flood-opacity="0" result="BackgroundImageFix"/>
<feColorMatrix in="SourceAlpha" type="matrix" values="0 0 0 0 0 0 0 0 0 0 0 0 0 0 0 0 0 0 127 0" result="hardAlpha"/>
<feOffset dx="2.01689" dy="-2.01689"/>
<feColorMatrix type="matrix" values="0 0 0 0 0 0 0 0 0 0 0 0 0 0 0 0 0 0 0.25 0"/>
<feBlend mode="normal" in2="BackgroundImageFix" result="effect1_dropShadow_828_6702"/>
<feBlend mode="normal" in="SourceGraphic" in2="effect1_dropShadow_828_6702" result="shape"/>
</filter>
<filter id="filter4_d_828_6702" x="789.437" y="417.063" width="143.715" height="113.555" filterUnits="userSpaceOnUse" color-interpolation-filters="sRGB">
<feFlood flood-opacity="0" result="BackgroundImageFix"/>
<feColorMatrix in="SourceAlpha" type="matrix" values="0 0 0 0 0 0 0 0 0 0 0 0 0 0 0 0 0 0 127 0" result="hardAlpha"/>
<feOffset dx="2.01689" dy="-2.01689"/>
<feColorMatrix type="matrix" values="0 0 0 0 0 0 0 0 0 0 0 0 0 0 0 0 0 0 0.25 0"/>
<feBlend mode="normal" in2="BackgroundImageFix" result="effect1_dropShadow_828_6702"/>
<feBlend mode="normal" in="SourceGraphic" in2="effect1_dropShadow_828_6702" result="shape"/>
</filter>
<radialGradient id="paint0_radial_828_6702" cx="0" cy="0" r="1" gradientUnits="userSpaceOnUse" gradientTransform="translate(287.358 131.782) rotate(68.7875) scale(539.748 962.133)">
<stop stop-color="#62ACE5"/>
<stop offset="1" stop-color="#0078D4"/>
</radialGradient>
<radialGradient id="paint1_radial_828_6702" cx="0" cy="0" r="1" gradientUnits="userSpaceOnUse" gradientTransform="translate(715.725 224.102) rotate(118.125) scale(454.481 368.147)">
<stop stop-color="#46B9F0" stop-opacity="0.58"/>
<stop offset="1" stop-color="#0074AC" stop-opacity="0"/>
</radialGradient>
<radialGradient id="paint2_radial_828_6702" cx="0" cy="0" r="1" gradientUnits="userSpaceOnUse" gradientTransform="translate(913.198 487.422) rotate(166.702) scale(641.406 1147.89)">
<stop stop-color="#30AEEB" stop-opacity="0.56"/>
<stop offset="1" stop-color="#0175AD" stop-opacity="0.12"/>
</radialGradient>
<radialGradient id="paint3_radial_828_6702" cx="0" cy="0" r="1" gradientUnits="userSpaceOnUse" gradientTransform="translate(271.846 135.233) rotate(68.7875) scale(539.748 962.133)">
<stop stop-color="#62ACE5"/>
<stop offset="1" stop-color="#0078D4"/>
</radialGradient>
<radialGradient id="paint4_radial_828_6702" cx="0" cy="0" r="1" gradientUnits="userSpaceOnUse" gradientTransform="translate(700.213 227.553) rotate(118.125) scale(454.481 368.147)">
<stop stop-color="#46B9F0" stop-opacity="0.58"/>
<stop offset="1" stop-color="#0074AC" stop-opacity="0"/>
</radialGradient>
<radialGradient id="paint5_radial_828_6702" cx="0" cy="0" r="1" gradientUnits="userSpaceOnUse" gradientTransform="translate(897.686 490.873) rotate(166.702) scale(641.406 1147.89)">
<stop stop-color="#30AEEB" stop-opacity="0.56"/>
<stop offset="1" stop-color="#0175AD" stop-opacity="0.12"/>
</radialGradient>
<clipPath id="clip0_828_6702">
<rect width="1054.83" height="597" fill="white"/>
</clipPath>
</defs>
</svg>
