<svg width="523" height="296" viewBox="0 0 523 296" fill="none" xmlns="http://www.w3.org/2000/svg">
<g clip-path="url(#clip0_708:8769)">
<g opacity="0.1">
<path fill-rule="evenodd" clip-rule="evenodd" d="M54.5509 314.821H422.441V314.805C422.998 314.816 423.555 314.821 424.114 314.821C473.091 314.821 512.794 275.021 512.794 225.925C512.794 176.829 473.091 137.029 424.114 137.029C422.883 137.029 421.657 137.054 420.438 137.104C411.898 97.8908 377.06 68.5313 335.38 68.5313C318.037 68.5313 301.878 73.6148 288.306 82.3765C262.736 29.311 203.355 -1.79765 142.51 10.4242C79.6199 23.0567 35.9656 77.8029 35.4373 139.087C-4.37909 147.829 -34.1829 183.388 -34.1829 225.925C-34.1829 275.021 5.5206 314.821 54.4973 314.821C54.5151 314.821 54.5331 314.821 54.5509 314.821Z" fill="url(#paint0_radial_708:8769)"/>
<path fill-rule="evenodd" clip-rule="evenodd" d="M54.5509 314.821H422.441V314.805C422.998 314.816 423.555 314.821 424.114 314.821C473.091 314.821 512.794 275.021 512.794 225.925C512.794 176.829 473.091 137.029 424.114 137.029C422.883 137.029 421.657 137.054 420.438 137.104C411.898 97.8908 377.06 68.5313 335.38 68.5313C318.037 68.5313 301.878 73.6148 288.306 82.3765C262.736 29.311 203.355 -1.79765 142.51 10.4242C79.6199 23.0567 35.9656 77.8029 35.4373 139.087C-4.37909 147.829 -34.1829 183.388 -34.1829 225.925C-34.1829 275.021 5.5206 314.821 54.4973 314.821C54.5151 314.821 54.5331 314.821 54.5509 314.821Z" fill="url(#paint1_radial_708:8769)"/>
<path fill-rule="evenodd" clip-rule="evenodd" d="M54.5509 314.821H422.441V314.805C422.998 314.816 423.555 314.821 424.114 314.821C473.091 314.821 512.794 275.021 512.794 225.925C512.794 176.829 473.091 137.029 424.114 137.029C422.883 137.029 421.657 137.054 420.438 137.104C411.898 97.8908 377.06 68.5313 335.38 68.5313C318.037 68.5313 301.878 73.6148 288.306 82.3765C262.736 29.311 203.355 -1.79765 142.51 10.4242C79.6199 23.0567 35.9656 77.8029 35.4373 139.087C-4.37909 147.829 -34.1829 183.388 -34.1829 225.925C-34.1829 275.021 5.5206 314.821 54.4973 314.821C54.5151 314.821 54.5331 314.821 54.5509 314.821Z" fill="url(#paint2_radial_708:8769)"/>
</g>
<path fill-rule="evenodd" clip-rule="evenodd" d="M46.8597 316.532H414.75V316.516C415.306 316.527 415.864 316.532 416.423 316.532C465.4 316.532 505.103 276.732 505.103 227.636C505.103 178.54 465.4 138.74 416.423 138.74C415.192 138.74 413.966 138.765 412.747 138.815C404.207 99.6018 369.368 70.2422 327.689 70.2422C310.346 70.2422 294.187 75.3258 280.615 84.0874C255.045 31.0219 195.664 -0.0866871 134.819 12.1352C71.9287 24.7677 28.2744 79.5139 27.7462 140.798C-12.0703 149.54 -41.874 185.099 -41.874 227.636C-41.874 276.732 -2.17059 316.532 46.8061 316.532C46.8239 316.532 46.8419 316.532 46.8597 316.532Z" fill="url(#paint3_radial_708:8769)"/>
<path fill-rule="evenodd" clip-rule="evenodd" d="M46.8597 316.532H414.75V316.516C415.306 316.527 415.864 316.532 416.423 316.532C465.4 316.532 505.103 276.732 505.103 227.636C505.103 178.54 465.4 138.74 416.423 138.74C415.192 138.74 413.966 138.765 412.747 138.815C404.207 99.6018 369.368 70.2422 327.689 70.2422C310.346 70.2422 294.187 75.3258 280.615 84.0874C255.045 31.0219 195.664 -0.0866871 134.819 12.1352C71.9287 24.7677 28.2744 79.5139 27.7462 140.798C-12.0703 149.54 -41.874 185.099 -41.874 227.636C-41.874 276.732 -2.17059 316.532 46.8061 316.532C46.8239 316.532 46.8419 316.532 46.8597 316.532Z" fill="url(#paint4_radial_708:8769)"/>
<path fill-rule="evenodd" clip-rule="evenodd" d="M46.8597 316.532H414.75V316.516C415.306 316.527 415.864 316.532 416.423 316.532C465.4 316.532 505.103 276.732 505.103 227.636C505.103 178.54 465.4 138.74 416.423 138.74C415.192 138.74 413.966 138.765 412.747 138.815C404.207 99.6018 369.368 70.2422 327.689 70.2422C310.346 70.2422 294.187 75.3258 280.615 84.0874C255.045 31.0219 195.664 -0.0866871 134.819 12.1352C71.9287 24.7677 28.2744 79.5139 27.7462 140.798C-12.0703 149.54 -41.874 185.099 -41.874 227.636C-41.874 276.732 -2.17059 316.532 46.8061 316.532C46.8239 316.532 46.8419 316.532 46.8597 316.532Z" fill="url(#paint5_radial_708:8769)"/>
<g filter="url(#filter0_d_708:8769)">
<path fill-rule="evenodd" clip-rule="evenodd" d="M41.3155 186.234C40.6943 186.234 40.1907 186.738 40.1907 187.361L40.1907 187.534C40.1907 188.156 40.6943 188.661 41.3155 188.661C41.9367 188.661 42.4403 188.156 42.4403 187.534L42.4403 187.361C42.4403 186.738 41.9367 186.234 41.3155 186.234ZM41.3155 190.893C40.6943 190.893 40.1907 191.398 40.1907 192.021L40.1907 192.366C40.1907 192.989 40.6943 193.494 41.3155 193.494C41.9367 193.494 42.4403 192.989 42.4403 192.366L42.4403 192.021C42.4403 191.398 41.9367 190.893 41.3155 190.893ZM41.3155 195.726C40.6943 195.726 40.1907 196.231 40.1907 196.853L40.1907 197.199C40.1907 197.821 40.6943 198.326 41.3155 198.326C41.9367 198.326 42.4403 197.821 42.4403 197.199L42.4403 196.853C42.4403 196.231 41.9367 195.726 41.3155 195.726ZM41.3155 200.558C40.6943 200.558 40.1907 201.063 40.1907 201.686L40.1907 202.031C40.1907 202.654 40.6943 203.159 41.3155 203.159C41.9367 203.159 42.4403 202.654 42.4403 202.031L42.4403 201.686C42.4403 201.063 41.9367 200.558 41.3155 200.558Z" fill="white"/>
<path d="M42.7073 213.617C42.0888 214.691 40.5426 214.691 39.9241 213.617L36.0275 206.852C35.409 205.778 36.1822 204.436 37.4191 204.436L45.2122 204.436C46.4492 204.436 47.2223 205.778 46.6039 206.852L42.7073 213.617Z" fill="white"/>
<path fill-rule="evenodd" clip-rule="evenodd" d="M8.44027 242.54C8.75088 243.079 9.43882 243.264 9.97682 242.952L10.1259 242.866C10.6639 242.555 10.8483 241.865 10.5376 241.326C10.227 240.786 9.53909 240.602 9.00109 240.913L8.85199 240.999C8.31399 241.311 8.12965 242 8.44027 242.54ZM12.466 240.21C12.7767 240.749 13.4646 240.934 14.0026 240.622L14.3008 240.45C14.8388 240.138 15.0231 239.449 14.7125 238.909C14.4019 238.37 13.714 238.185 13.176 238.497L12.8778 238.669C12.3398 238.981 12.1554 239.67 12.466 240.21ZM16.6409 237.793C16.9515 238.333 17.6395 238.517 18.1775 238.206L18.4757 238.034C19.0137 237.722 19.198 237.033 18.8874 236.493C18.5768 235.954 17.8888 235.769 17.3508 236.081L17.0526 236.253C16.5146 236.564 16.3303 237.254 16.6409 237.793ZM20.8158 235.377C21.1264 235.916 21.8143 236.101 22.3523 235.79L22.6505 235.617C23.1885 235.306 23.3729 234.616 23.0623 234.077C22.7516 233.538 22.0637 233.353 21.5257 233.664L21.2275 233.837C20.6895 234.148 20.5052 234.838 20.8158 235.377Z" fill="white"/>
<path d="M29.4461 236.66C28.8276 237.734 27.2813 237.734 26.6628 236.66L22.7663 229.895C22.1478 228.821 22.9209 227.478 24.1579 227.478L31.951 227.478C33.188 227.478 33.9611 228.821 33.3426 229.895L29.4461 236.66Z" fill="white"/>
<path fill-rule="evenodd" clip-rule="evenodd" d="M73.7345 242.54C73.4239 243.079 72.736 243.264 72.198 242.952L72.0489 242.866C71.5109 242.555 71.3265 241.865 71.6372 241.326C71.9478 240.786 72.6357 240.602 73.1737 240.913L73.3228 240.999C73.8608 241.311 74.0452 242 73.7345 242.54ZM69.7088 240.21C69.3982 240.749 68.7102 240.934 68.1722 240.622L67.874 240.45C67.336 240.138 67.1517 239.449 67.4623 238.909C67.7729 238.37 68.4608 238.185 68.9988 238.497L69.2971 238.669C69.8351 238.981 70.0194 239.67 69.7088 240.21ZM65.5339 237.793C65.2233 238.333 64.5353 238.517 63.9973 238.206L63.6991 238.034C63.1611 237.722 62.9768 237.033 63.2874 236.493C63.598 235.954 64.286 235.769 64.824 236.081L65.1222 236.253C65.6602 236.564 65.8445 237.254 65.5339 237.793ZM61.359 235.377C61.0484 235.916 60.3605 236.101 59.8225 235.79L59.5243 235.617C58.9863 235.306 58.8019 234.616 59.1126 234.077C59.4232 233.538 60.1111 233.353 60.6491 233.664L60.9473 233.837C61.4853 234.148 61.6696 234.838 61.359 235.377Z" fill="white"/>
<path d="M55.6468 236.66C55.0283 237.734 53.482 237.734 52.8635 236.66L48.967 229.895C48.3485 228.821 49.1216 227.478 50.3586 227.478L58.1517 227.478C59.3887 227.478 60.1618 228.821 59.5433 229.895L55.6468 236.66Z" fill="white"/>
<path fill-rule="evenodd" clip-rule="evenodd" d="M39.3265 213.963C40.2104 215.498 42.4203 215.498 43.3042 213.963L46.3059 208.752H52.8784C55.0141 208.752 56.7454 210.451 56.7454 212.548V214.446C56.7454 216.543 55.0141 218.243 52.8784 218.243H29.6761C27.5404 218.243 25.8091 216.543 25.8091 214.446V212.548C25.8091 210.451 27.5404 208.752 29.6761 208.752H36.3248L39.3265 213.963ZM29.0451 237.935C29.4431 237.746 29.7954 237.436 30.0433 237.006L33.9399 230.24C34.2673 229.672 34.3218 229.051 34.1708 228.494H48.1385C47.9875 229.051 48.042 229.672 48.3695 230.24L52.266 237.006C52.5256 237.456 52.8995 237.775 53.3205 237.961C53.1754 237.977 53.0279 237.985 52.8784 237.985H29.6761C29.4612 237.985 29.2504 237.968 29.0451 237.935ZM26.7389 226.787C26.1593 226.123 25.8091 225.261 25.8091 224.318V222.419C25.8091 220.322 27.5404 218.623 29.6761 218.623H52.8784C55.0141 218.623 56.7454 220.322 56.7454 222.419V224.318C56.7454 225.261 56.3953 226.123 55.8156 226.787H50.3584C49.399 226.787 48.6348 227.352 48.2778 228.114H34.0315C33.6745 227.352 32.9104 226.787 31.951 226.787H26.7389ZM48.2379 212.168C48.8786 212.168 49.398 212.678 49.398 213.307C49.398 213.936 48.8786 214.446 48.2379 214.446C47.5972 214.446 47.0778 213.936 47.0778 213.307C47.0778 212.678 47.5972 212.168 48.2379 212.168ZM52.8784 213.307C52.8784 212.678 52.359 212.168 51.7183 212.168C51.0776 212.168 50.5582 212.678 50.5582 213.307C50.5582 213.936 51.0776 214.446 51.7183 214.446C52.359 214.446 52.8784 213.936 52.8784 213.307ZM49.398 223.179C49.398 222.55 48.8786 222.04 48.2379 222.04C47.5972 222.04 47.0778 222.55 47.0778 223.179C47.0778 223.808 47.5972 224.318 48.2379 224.318C48.8786 224.318 49.398 223.808 49.398 223.179ZM51.7183 222.04C52.359 222.04 52.8784 222.55 52.8784 223.179C52.8784 223.808 52.359 224.318 51.7183 224.318C51.0776 224.318 50.5582 223.808 50.5582 223.179C50.5582 222.55 51.0776 222.04 51.7183 222.04ZM49.398 233.05C49.398 232.421 48.8786 231.911 48.2379 231.911C47.5972 231.911 47.0778 232.421 47.0778 233.05C47.0778 233.679 47.5972 234.189 48.2379 234.189C48.8786 234.189 49.398 233.679 49.398 233.05Z" fill="white"/>
</g>
<g filter="url(#filter1_d_708:8769)">
<path d="M20.2164 256.05C20.136 255.984 20.0043 255.904 19.8215 255.808C19.6459 255.713 19.4375 255.632 19.1961 255.566C18.9547 255.493 18.706 255.456 18.45 255.456C17.7625 255.456 17.4187 255.651 17.4187 256.039C17.4187 256.267 17.543 256.428 17.7917 256.523C18.0477 256.619 18.4208 256.725 18.9108 256.842C19.3424 256.952 19.7154 257.077 20.0299 257.216C20.3518 257.355 20.5968 257.542 20.765 257.777C20.9406 258.004 21.0283 258.305 21.0283 258.679C21.0283 259.134 20.9113 259.5 20.6772 259.779C20.4505 260.05 20.1506 260.248 19.7776 260.373C19.4045 260.49 19.0023 260.549 18.5707 260.549C18.0733 260.549 17.5796 260.479 17.0895 260.34C16.5995 260.2 16.1643 260.01 15.7839 259.768L16.3764 258.613C16.4715 258.708 16.6287 258.815 16.8482 258.932C17.0749 259.049 17.3382 259.148 17.6381 259.229C17.938 259.31 18.2562 259.35 18.5927 259.35C19.2656 259.35 19.602 259.17 19.602 258.811C19.602 258.569 19.4448 258.397 19.1303 258.294C18.8231 258.184 18.4171 258.063 17.9124 257.931C17.2834 257.77 16.8153 257.564 16.5081 257.315C16.2082 257.059 16.0582 256.692 16.0582 256.215C16.0582 255.79 16.1643 255.434 16.3764 255.149C16.5958 254.863 16.8884 254.646 17.2541 254.5C17.6272 254.353 18.0331 254.28 18.472 254.28C18.9328 254.28 19.3607 254.349 19.7556 254.489C20.1579 254.628 20.5017 254.786 20.787 254.962L20.2164 256.05Z" fill="white"/>
<path d="M22.106 260.472V254.324H23.4336V260.472H22.106Z" fill="white"/>
<path d="M27.6339 260.516C27.2097 260.516 26.8074 260.431 26.427 260.263C26.054 260.087 25.7248 259.852 25.4396 259.559C25.1543 259.266 24.9312 258.932 24.7703 258.558C24.6094 258.177 24.5289 257.777 24.5289 257.359C24.5289 256.934 24.6094 256.538 24.7703 256.171C24.9312 255.797 25.1543 255.471 25.4396 255.193C25.7322 254.907 26.0723 254.683 26.4599 254.522C26.8476 254.36 27.2682 254.28 27.7217 254.28C28.3288 254.28 28.8517 254.404 29.2906 254.654C29.7368 254.896 30.0696 255.218 30.289 255.621L29.2796 256.369C29.126 256.083 28.9029 255.863 28.6104 255.709C28.3251 255.548 28.0142 255.467 27.6778 255.467C27.3194 255.467 27.0012 255.555 26.7233 255.731C26.4526 255.907 26.2405 256.142 26.0869 256.435C25.9406 256.729 25.8675 257.051 25.8675 257.403C25.8675 257.77 25.9479 258.1 26.1088 258.393C26.2771 258.679 26.5002 258.906 26.7781 259.075C27.0634 259.244 27.3889 259.328 27.7546 259.328C28.3544 259.328 28.9066 259.064 29.4113 258.536V258.25H28.0508V257.282H30.5084V260.472H29.4113V259.834C28.8993 260.288 28.3068 260.516 27.6339 260.516Z" fill="white"/>
<path d="M33.0551 256.787V260.472H31.7276V254.324H32.7589L36.2917 258.107V254.324H37.6193V260.472H36.5441L33.0551 256.787Z" fill="white"/>
<path d="M38.3966 260.472L41.0737 254.324H42.1599L44.826 260.472H43.4216L42.8072 259.031H40.4264L39.812 260.472H38.3966ZM41.6223 255.94L40.7226 257.876H42.489L41.6223 255.94Z" fill="white"/>
<path d="M45.6134 260.472V254.324H46.941V259.306H50.0788V260.472H45.6134Z" fill="white"/>
<path d="M50.9492 260.472V254.324H52.2768V260.472H50.9492Z" fill="white"/>
<path d="M55.0946 256.787V260.472H53.7671V254.324H54.7984L58.3312 258.107V254.324H59.6588V260.472H58.5836L55.0946 256.787Z" fill="white"/>
<path d="M63.8593 260.516C63.435 260.516 63.0327 260.431 62.6524 260.263C62.2794 260.087 61.9502 259.852 61.665 259.559C61.3797 259.266 61.1566 258.932 60.9957 258.558C60.8348 258.177 60.7543 257.777 60.7543 257.359C60.7543 256.934 60.8348 256.538 60.9957 256.171C61.1566 255.797 61.3797 255.471 61.665 255.193C61.9575 254.907 62.2977 254.683 62.6853 254.522C63.073 254.36 63.4936 254.28 63.947 254.28C64.5541 254.28 65.0771 254.404 65.516 254.654C65.9622 254.896 66.295 255.218 66.5144 255.621L65.505 256.369C65.3514 256.083 65.1283 255.863 64.8357 255.709C64.5505 255.548 64.2396 255.467 63.9032 255.467C63.5448 255.467 63.2266 255.555 62.9486 255.731C62.678 255.907 62.4659 256.142 62.3123 256.435C62.166 256.729 62.0929 257.051 62.0929 257.403C62.0929 257.77 62.1733 258.1 62.3342 258.393C62.5025 258.679 62.7255 258.906 63.0035 259.075C63.2888 259.244 63.6142 259.328 63.98 259.328C64.5797 259.328 65.132 259.064 65.6367 258.536V258.25H64.2762V257.282H66.7338V260.472H65.6367V259.834C65.1247 260.288 64.5322 260.516 63.8593 260.516Z" fill="white"/>
<path d="M18.7271 270.179C18.7271 269.805 18.8002 269.439 18.9465 269.08C19.0928 268.713 19.3049 268.383 19.5829 268.09C19.8608 267.796 20.2009 267.562 20.6032 267.386C21.0055 267.21 21.4663 267.122 21.9856 267.122C22.5927 267.122 23.1194 267.247 23.5655 267.496C24.0117 267.745 24.3372 268.068 24.542 268.464L23.5217 269.179C23.3607 268.849 23.1267 268.621 22.8195 268.497C22.5196 268.372 22.2307 268.31 21.9527 268.31C21.5358 268.31 21.1884 268.405 20.9104 268.596C20.6325 268.786 20.4204 269.028 20.2741 269.322C20.1351 269.615 20.0656 269.915 20.0656 270.223C20.0656 270.568 20.1461 270.891 20.307 271.191C20.4679 271.485 20.691 271.723 20.9763 271.906C21.2615 272.082 21.5943 272.17 21.9747 272.17C22.2672 272.17 22.5671 272.104 22.8743 271.972C23.1815 271.833 23.4083 271.602 23.5546 271.279L24.6517 271.928C24.5128 272.236 24.297 272.496 24.0044 272.709C23.7118 272.922 23.3827 273.083 23.017 273.193C22.6513 273.303 22.2892 273.358 21.9308 273.358C21.4627 273.358 21.0311 273.27 20.6361 273.094C20.2485 272.911 19.912 272.669 19.6268 272.368C19.3415 272.06 19.1184 271.719 18.9575 271.345C18.8039 270.964 18.7271 270.575 18.7271 270.179Z" fill="white"/>
<path d="M28.3814 273.347C27.8986 273.347 27.4598 273.263 27.0648 273.094C26.6698 272.918 26.3297 272.683 26.0444 272.39C25.7592 272.089 25.5397 271.752 25.3861 271.378C25.2325 271.004 25.1557 270.619 25.1557 270.223C25.1557 269.82 25.2362 269.432 25.3971 269.058C25.558 268.684 25.7848 268.354 26.0773 268.068C26.3699 267.774 26.7137 267.544 27.1087 267.375C27.5036 267.206 27.9352 267.122 28.4033 267.122C28.8861 267.122 29.3249 267.214 29.7199 267.397C30.1149 267.573 30.4513 267.811 30.7293 268.112C31.0145 268.405 31.234 268.739 31.3876 269.113C31.5412 269.487 31.618 269.868 31.618 270.256C31.618 270.66 31.5375 271.048 31.3766 271.422C31.2157 271.789 30.9889 272.119 30.6964 272.412C30.4111 272.698 30.071 272.925 29.676 273.094C29.281 273.263 28.8495 273.347 28.3814 273.347ZM26.4943 270.234C26.4943 270.564 26.5711 270.88 26.7247 271.18C26.8783 271.474 27.094 271.712 27.372 271.895C27.6572 272.078 27.9974 272.17 28.3923 272.17C28.7946 272.17 29.1347 272.075 29.4127 271.884C29.6906 271.686 29.9028 271.441 30.049 271.147C30.1953 270.847 30.2685 270.539 30.2685 270.223C30.2685 269.893 30.1917 269.582 30.0381 269.289C29.8845 268.995 29.665 268.761 29.3798 268.585C29.1018 268.401 28.769 268.31 28.3814 268.31C27.9791 268.31 27.6353 268.405 27.35 268.596C27.0721 268.786 26.86 269.028 26.7137 269.322C26.5674 269.615 26.4943 269.919 26.4943 270.234Z" fill="white"/>
<path d="M34.0462 269.619V273.303H32.7186V267.155H33.75L37.2828 270.938V267.155H38.6104V273.303H37.5352L34.0462 269.619Z" fill="white"/>
<path d="M45.2026 268.321H43.0412V273.303H41.7137V268.321H39.5413V267.155H45.2026V268.321Z" fill="white"/>
<path d="M46.1331 273.303V267.155H49.1502C49.5672 267.155 49.9365 267.258 50.2584 267.463C50.5875 267.668 50.8435 267.928 51.0264 268.244C51.2166 268.559 51.3116 268.885 51.3116 269.223C51.3116 269.604 51.2019 269.959 50.9825 270.289C50.7631 270.612 50.4668 270.85 50.0938 271.004L51.6956 273.303H50.1816L48.7553 271.29H47.4606V273.303H46.1331ZM47.4606 270.124H49.1173C49.3587 270.124 49.5599 270.04 49.7208 269.871C49.889 269.703 49.9731 269.487 49.9731 269.223C49.9731 268.959 49.878 268.742 49.6879 268.574C49.505 268.405 49.2965 268.321 49.0625 268.321H47.4606V270.124Z" fill="white"/>
<path d="M55.4245 273.347C54.9418 273.347 54.5029 273.263 54.1079 273.094C53.713 272.918 53.3728 272.683 53.0876 272.39C52.8023 272.089 52.5829 271.752 52.4293 271.378C52.2757 271.004 52.1989 270.619 52.1989 270.223C52.1989 269.82 52.2793 269.432 52.4403 269.058C52.6012 268.684 52.8279 268.354 53.1205 268.068C53.4131 267.774 53.7568 267.544 54.1518 267.375C54.5468 267.206 54.9783 267.122 55.4465 267.122C55.9292 267.122 56.3681 267.214 56.763 267.397C57.158 267.573 57.4945 267.811 57.7724 268.112C58.0577 268.405 58.2771 268.739 58.4307 269.113C58.5843 269.487 58.6611 269.868 58.6611 270.256C58.6611 270.66 58.5807 271.048 58.4197 271.422C58.2588 271.789 58.0321 272.119 57.7395 272.412C57.4543 272.698 57.1141 272.925 56.7192 273.094C56.3242 273.263 55.8926 273.347 55.4245 273.347ZM53.5374 270.234C53.5374 270.564 53.6142 270.88 53.7678 271.18C53.9214 271.474 54.1372 271.712 54.4151 271.895C54.7004 272.078 55.0405 272.17 55.4355 272.17C55.8378 272.17 56.1779 272.075 56.4558 271.884C56.7338 271.686 56.9459 271.441 57.0922 271.147C57.2385 270.847 57.3116 270.539 57.3116 270.223C57.3116 269.893 57.2348 269.582 57.0812 269.289C56.9276 268.995 56.7082 268.761 56.4229 268.585C56.145 268.401 55.8122 268.31 55.4245 268.31C55.0222 268.31 54.6785 268.405 54.3932 268.596C54.1152 268.786 53.9031 269.028 53.7568 269.322C53.6106 269.615 53.5374 269.919 53.5374 270.234Z" fill="white"/>
<path d="M59.7618 273.303V267.155H61.0893V272.137H64.2272V273.303H59.7618Z" fill="white"/>
</g>
<g filter="url(#filter2_d_708:8769)">
<path fill-rule="evenodd" clip-rule="evenodd" d="M141.065 212.704C141.549 212.704 141.942 213.098 141.942 213.583L141.942 213.693C141.942 214.179 141.549 214.572 141.065 214.572C140.58 214.572 140.187 214.179 140.187 213.693L140.187 213.583C140.187 213.098 140.58 212.704 141.065 212.704ZM141.065 215.671C141.549 215.671 141.942 216.065 141.942 216.551L141.942 216.77C141.942 217.256 141.549 217.65 141.065 217.65C140.58 217.65 140.187 217.256 140.187 216.77L140.187 216.551C140.187 216.065 140.58 215.671 141.065 215.671ZM141.065 218.749C141.549 218.749 141.942 219.142 141.942 219.628L141.942 219.848C141.942 220.333 141.549 220.727 141.065 220.727C140.58 220.727 140.187 220.333 140.187 219.848L140.187 219.628C140.187 219.142 140.58 218.749 141.065 218.749ZM141.065 221.826C141.549 221.826 141.942 222.22 141.942 222.705L141.942 222.815C141.942 223.301 141.549 223.694 141.065 223.694C140.58 223.694 140.187 223.301 140.187 222.815L140.187 222.705C140.187 222.22 140.58 221.826 141.065 221.826Z" fill="white"/>
<path fill-rule="evenodd" clip-rule="evenodd" d="M133.062 238.448C133.366 238.826 133.306 239.38 132.928 239.684L132.843 239.753C132.465 240.057 131.913 239.997 131.61 239.619C131.306 239.24 131.366 238.687 131.744 238.382L131.829 238.313C132.207 238.009 132.759 238.069 133.062 238.448ZM130.753 240.309C131.056 240.687 130.996 241.241 130.619 241.545L130.448 241.683C130.07 241.987 129.518 241.927 129.215 241.549C128.911 241.17 128.971 240.617 129.349 240.313L129.52 240.175C129.897 239.87 130.449 239.931 130.753 240.309ZM128.358 242.239C128.661 242.618 128.601 243.171 128.224 243.475L128.053 243.613C127.675 243.917 127.123 243.857 126.82 243.479C126.516 243.1 126.576 242.547 126.954 242.243L127.125 242.105C127.502 241.801 128.054 241.861 128.358 242.239ZM125.963 244.169C126.267 244.548 126.207 245.101 125.829 245.405L125.743 245.474C125.366 245.779 124.814 245.718 124.51 245.34C124.207 244.962 124.267 244.408 124.644 244.104L124.73 244.035C125.107 243.731 125.659 243.791 125.963 244.169Z" fill="white"/>
<path fill-rule="evenodd" clip-rule="evenodd" d="M148.847 238.228C148.544 238.606 148.604 239.16 148.981 239.464L149.067 239.533C149.444 239.837 149.996 239.777 150.3 239.399C150.603 239.02 150.543 238.467 150.166 238.163L150.08 238.094C149.703 237.789 149.151 237.849 148.847 238.228ZM151.157 240.089C150.853 240.468 150.913 241.021 151.291 241.325L151.462 241.463C151.839 241.767 152.391 241.707 152.695 241.329C152.998 240.95 152.938 240.397 152.561 240.093L152.39 239.955C152.012 239.651 151.46 239.711 151.157 240.089ZM153.552 242.019C153.248 242.398 153.308 242.951 153.685 243.255L153.857 243.393C154.234 243.698 154.786 243.637 155.09 243.259C155.393 242.881 155.333 242.327 154.956 242.023L154.785 241.885C154.407 241.581 153.855 241.641 153.552 242.019ZM155.946 243.949C155.643 244.328 155.703 244.881 156.08 245.186L156.166 245.255C156.543 245.559 157.096 245.499 157.399 245.12C157.703 244.742 157.643 244.188 157.265 243.884L157.18 243.815C156.802 243.511 156.25 243.571 155.946 243.949Z" fill="white"/>
<path fill-rule="evenodd" clip-rule="evenodd" d="M145.416 200.36C145.416 197.907 143.444 195.998 141.064 195.998C138.684 195.998 136.713 197.907 136.713 200.36C136.713 202.746 138.684 204.723 141.064 204.723C143.444 204.723 145.416 202.814 145.416 200.36ZM132.293 212.016C134.197 214.878 137.392 216.718 141.064 216.718C144.736 216.718 147.932 214.878 149.835 212.016C149.767 209.085 143.988 207.517 141.064 207.517C138.14 207.517 132.361 209.085 132.293 212.016Z" fill="white"/>
<path fill-rule="evenodd" clip-rule="evenodd" d="M123.707 236.41C123.707 233.956 121.735 232.047 119.356 232.047C116.976 232.047 115.004 233.956 115.004 236.41C115.004 238.795 116.976 240.772 119.356 240.772C121.735 240.772 123.707 238.863 123.707 236.41ZM110.584 248.065C112.488 250.927 115.684 252.768 119.356 252.768C123.027 252.768 126.223 250.927 128.127 248.065C128.059 245.134 122.279 243.566 119.356 243.566C116.432 243.566 110.652 245.134 110.584 248.065Z" fill="white"/>
<path fill-rule="evenodd" clip-rule="evenodd" d="M165.371 236.41C165.371 233.956 163.399 232.047 161.019 232.047C158.639 232.047 156.667 233.956 156.667 236.41C156.667 238.795 158.639 240.772 161.019 240.772C163.399 240.772 165.371 238.863 165.371 236.41ZM152.248 248.065C154.152 250.927 157.347 252.768 161.019 252.768C164.691 252.768 167.886 250.927 169.79 248.065C169.722 245.134 163.943 243.566 161.019 243.566C158.095 243.566 152.316 245.134 152.248 248.065Z" fill="white"/>
<path fill-rule="evenodd" clip-rule="evenodd" d="M141.064 242.818C146.635 242.818 151.151 238.291 151.151 232.707C151.151 227.122 146.635 222.595 141.064 222.595C135.493 222.595 130.977 227.122 130.977 232.707C130.977 238.291 135.493 242.818 141.064 242.818ZM144.963 228.677V231.498L148.081 228.274V237.139L144.963 233.916V236.737C144.963 237.18 144.611 237.543 144.183 237.543H134.827C134.398 237.543 134.047 237.18 134.047 236.737V228.677C134.047 228.234 134.398 227.871 134.827 227.871H144.183C144.611 227.871 144.963 228.234 144.963 228.677Z" fill="white"/>
</g>
<g filter="url(#filter3_d_708:8769)">
<path d="M123.589 270.007V266.169L121.834 268.984H121.11L119.365 266.169V270.007H118.038V263.859H119.475L121.483 267.181L123.491 263.859H124.906V270.007H123.589Z" fill="white"/>
<path d="M126.011 266.884C126.011 266.51 126.084 266.143 126.23 265.784C126.377 265.417 126.589 265.087 126.867 264.794C127.145 264.501 127.485 264.266 127.887 264.09C128.289 263.914 128.75 263.826 129.269 263.826C129.876 263.826 130.403 263.951 130.849 264.2C131.295 264.449 131.621 264.772 131.826 265.168L130.805 265.883C130.644 265.553 130.41 265.326 130.103 265.201C129.803 265.076 129.514 265.014 129.236 265.014C128.82 265.014 128.472 265.109 128.194 265.3C127.916 265.491 127.704 265.733 127.558 266.026C127.419 266.319 127.349 266.62 127.349 266.928C127.349 267.272 127.43 267.595 127.591 267.895C127.752 268.189 127.975 268.427 128.26 268.61C128.545 268.786 128.878 268.874 129.258 268.874C129.551 268.874 129.851 268.808 130.158 268.676C130.465 268.537 130.692 268.306 130.838 267.983L131.935 268.632C131.796 268.94 131.581 269.201 131.288 269.413C130.996 269.626 130.666 269.787 130.301 269.897C129.935 270.007 129.573 270.062 129.215 270.062C128.746 270.062 128.315 269.974 127.92 269.798C127.532 269.615 127.196 269.373 126.91 269.072C126.625 268.764 126.402 268.423 126.241 268.049C126.088 267.668 126.011 267.28 126.011 266.884Z" fill="white"/>
<path d="M135.74 268.874C136.157 268.874 136.483 268.786 136.717 268.61C136.951 268.427 137.115 268.192 137.21 267.906C137.305 267.621 137.353 267.32 137.353 267.005V263.859H138.68V267.005C138.68 267.569 138.578 268.082 138.373 268.544C138.176 269.006 137.861 269.373 137.43 269.644C136.998 269.915 136.439 270.051 135.751 270.051C135.042 270.051 134.471 269.908 134.04 269.622C133.615 269.336 133.304 268.962 133.107 268.5C132.917 268.038 132.822 267.54 132.822 267.005V263.859H134.149V267.005C134.149 267.327 134.197 267.632 134.292 267.917C134.394 268.196 134.562 268.427 134.797 268.61C135.031 268.786 135.345 268.874 135.74 268.874Z" fill="white"/>
<path d="M146.511 262.198L141.069 270.007H139.445L144.876 262.198H146.511Z" fill="white"/>
<path d="M150.992 265.586C150.911 265.52 150.779 265.439 150.597 265.344C150.421 265.249 150.213 265.168 149.971 265.102C149.73 265.029 149.481 264.992 149.225 264.992C148.538 264.992 148.194 265.186 148.194 265.575C148.194 265.802 148.318 265.963 148.567 266.059C148.823 266.154 149.196 266.26 149.686 266.378C150.117 266.488 150.49 266.612 150.805 266.752C151.127 266.891 151.372 267.078 151.54 267.313C151.716 267.54 151.803 267.841 151.803 268.214C151.803 268.669 151.686 269.036 151.452 269.314C151.226 269.586 150.926 269.784 150.553 269.908C150.18 270.025 149.777 270.084 149.346 270.084C148.848 270.084 148.355 270.014 147.865 269.875C147.375 269.736 146.939 269.545 146.559 269.303L147.151 268.148C147.247 268.244 147.404 268.35 147.623 268.467C147.85 268.585 148.113 268.684 148.413 268.764C148.713 268.845 149.031 268.885 149.368 268.885C150.041 268.885 150.377 268.706 150.377 268.346C150.377 268.104 150.22 267.932 149.905 267.83C149.598 267.72 149.192 267.599 148.687 267.467C148.058 267.305 147.59 267.1 147.283 266.851C146.983 266.594 146.833 266.227 146.833 265.751C146.833 265.326 146.939 264.97 147.151 264.684C147.371 264.398 147.663 264.182 148.029 264.035C148.402 263.888 148.808 263.815 149.247 263.815C149.708 263.815 150.136 263.885 150.531 264.024C150.933 264.163 151.277 264.321 151.562 264.497L150.992 265.586Z" fill="white"/>
<path d="M152.881 270.007V263.859H157.456V265.025H154.209V266.455H156.919V267.544H154.209V270.007H152.881Z" fill="white"/>
<path d="M161.305 268.874C161.722 268.874 162.047 268.786 162.281 268.61C162.515 268.427 162.68 268.192 162.775 267.906C162.87 267.621 162.917 267.32 162.917 267.005V263.859H164.245V267.005C164.245 267.569 164.143 268.082 163.938 268.544C163.74 269.006 163.426 269.373 162.994 269.644C162.563 269.915 162.003 270.051 161.316 270.051C160.606 270.051 160.036 269.908 159.604 269.622C159.18 269.336 158.869 268.962 158.672 268.5C158.481 268.038 158.386 267.54 158.386 267.005V263.859H159.714V267.005C159.714 267.327 159.761 267.632 159.856 267.917C159.959 268.196 160.127 268.427 160.361 268.61C160.595 268.786 160.91 268.874 161.305 268.874Z" fill="white"/>
</g>
<g filter="url(#filter4_d_708:8769)">
<path fill-rule="evenodd" clip-rule="evenodd" d="M214.244 212.16C214.244 209.294 216.531 206.971 219.353 206.971H250.005C252.826 206.971 255.114 209.294 255.114 212.16V214.755C255.114 217.621 252.826 219.944 250.005 219.944H219.353C216.531 219.944 214.244 217.621 214.244 214.755V212.16ZM245.407 213.717C245.407 214.577 244.721 215.274 243.875 215.274C243.028 215.274 242.342 214.577 242.342 213.717C242.342 212.857 243.028 212.16 243.875 212.16C244.721 212.16 245.407 212.857 245.407 213.717ZM248.472 215.274C249.319 215.274 250.005 214.577 250.005 213.717C250.005 212.857 249.319 212.16 248.472 212.16C247.626 212.16 246.94 212.857 246.94 213.717C246.94 214.577 247.626 215.274 248.472 215.274Z" fill="white"/>
<path fill-rule="evenodd" clip-rule="evenodd" d="M214.244 225.652C214.244 222.786 216.531 220.946 219.353 220.946H250.005C252.826 220.946 255.114 222.786 255.114 225.652V228.247C255.114 231.113 252.826 232.953 250.005 232.953H219.353C216.531 232.953 214.244 231.113 214.244 228.247V225.652ZM245.407 227.209C245.407 228.069 244.721 228.766 243.875 228.766C243.028 228.766 242.342 228.069 242.342 227.209C242.342 226.349 243.028 225.652 243.875 225.652C244.721 225.652 245.407 226.349 245.407 227.209ZM248.472 228.766C249.319 228.766 250.005 228.069 250.005 227.209C250.005 226.349 249.319 225.652 248.472 225.652C247.626 225.652 246.94 226.349 246.94 227.209C246.94 228.069 247.626 228.766 248.472 228.766Z" fill="white"/>
<path fill-rule="evenodd" clip-rule="evenodd" d="M214.244 239.144C214.244 236.279 216.531 233.955 219.353 233.955H250.005C252.826 233.955 255.114 236.279 255.114 239.144V241.739C255.114 244.605 252.826 246.928 250.005 246.928H219.353C216.531 246.928 214.244 244.605 214.244 241.739V239.144ZM245.407 240.701C245.407 241.561 244.721 242.258 243.875 242.258C243.028 242.258 242.342 241.561 242.342 240.701C242.342 239.841 243.028 239.144 243.875 239.144C244.721 239.144 245.407 239.841 245.407 240.701ZM248.472 242.258C249.319 242.258 250.005 241.561 250.005 240.701C250.005 239.841 249.319 239.144 248.472 239.144C247.626 239.144 246.94 239.841 246.94 240.701C246.94 241.561 247.626 242.258 248.472 242.258Z" fill="white"/>
</g>
<g filter="url(#filter5_d_708:8769)">
<path d="M206.105 265.586C206.024 265.52 205.893 265.439 205.71 265.344C205.534 265.249 205.326 265.168 205.084 265.102C204.843 265.029 204.594 264.992 204.338 264.992C203.651 264.992 203.307 265.186 203.307 265.575C203.307 265.802 203.431 265.963 203.68 266.059C203.936 266.154 204.309 266.26 204.799 266.378C205.231 266.488 205.604 266.612 205.918 266.752C206.24 266.891 206.485 267.078 206.653 267.313C206.829 267.54 206.917 267.84 206.917 268.214C206.917 268.669 206.799 269.036 206.565 269.314C206.339 269.586 206.039 269.783 205.666 269.908C205.293 270.025 204.89 270.084 204.459 270.084C203.962 270.084 203.468 270.014 202.978 269.875C202.488 269.736 202.052 269.545 201.672 269.303L202.265 268.148C202.36 268.244 202.517 268.35 202.736 268.467C202.963 268.585 203.226 268.684 203.526 268.764C203.826 268.845 204.144 268.885 204.481 268.885C205.154 268.885 205.49 268.706 205.49 268.346C205.49 268.104 205.333 267.932 205.018 267.829C204.711 267.719 204.305 267.598 203.801 267.467C203.172 267.305 202.703 267.1 202.396 266.851C202.096 266.594 201.946 266.227 201.946 265.751C201.946 265.326 202.052 264.97 202.265 264.684C202.484 264.398 202.777 264.182 203.142 264.035C203.515 263.888 203.921 263.815 204.36 263.815C204.821 263.815 205.249 263.885 205.644 264.024C206.046 264.163 206.39 264.321 206.675 264.497L206.105 265.586Z" fill="white"/>
<path d="M213.096 265.025H210.935V270.007H209.607V265.025H207.435V263.859H213.096V265.025Z" fill="white"/>
<path d="M216.857 268.874C217.274 268.874 217.599 268.786 217.834 268.61C218.068 268.427 218.232 268.192 218.327 267.906C218.422 267.62 218.47 267.32 218.47 267.005V263.859H219.797V267.005C219.797 267.569 219.695 268.082 219.49 268.544C219.293 269.006 218.978 269.373 218.547 269.644C218.115 269.915 217.556 270.051 216.868 270.051C216.159 270.051 215.588 269.908 215.156 269.622C214.732 269.336 214.421 268.962 214.224 268.5C214.034 268.038 213.939 267.54 213.939 267.005V263.859H215.266V267.005C215.266 267.327 215.314 267.631 215.409 267.917C215.511 268.196 215.679 268.427 215.914 268.61C216.148 268.786 216.462 268.874 216.857 268.874Z" fill="white"/>
<path d="M222.533 266.323V270.007H221.205V263.859H222.236L225.769 267.642V263.859H227.097V270.007H226.022L222.533 266.323Z" fill="white"/>
<path d="M236.358 270.007L235.743 269.358C235.092 269.864 234.361 270.117 233.549 270.117C233.008 270.117 232.54 270.011 232.145 269.798C231.757 269.578 231.453 269.292 231.234 268.94C231.022 268.588 230.916 268.207 230.916 267.796C230.916 267.313 231.051 266.898 231.322 266.554C231.592 266.202 231.903 265.894 232.254 265.63C231.954 265.285 231.742 264.992 231.618 264.75C231.494 264.508 231.431 264.248 231.431 263.969C231.431 263.595 231.523 263.269 231.706 262.99C231.896 262.704 232.152 262.484 232.474 262.33C232.796 262.176 233.161 262.099 233.571 262.099C233.929 262.099 234.266 262.165 234.58 262.297C234.895 262.422 235.151 262.613 235.348 262.869C235.546 263.126 235.645 263.445 235.645 263.826C235.645 264.244 235.52 264.614 235.272 264.937C235.023 265.26 234.705 265.556 234.317 265.828L235.809 267.412C235.919 267.17 236.003 266.909 236.061 266.631C236.127 266.352 236.16 266.051 236.16 265.729H237.356C237.356 266.242 237.294 266.715 237.17 267.148C237.053 267.58 236.888 267.969 236.676 268.313L238.289 270.007H236.358ZM232.77 263.925C232.77 264.057 232.814 264.185 232.902 264.31C232.997 264.427 233.169 264.618 233.417 264.882C233.695 264.699 233.911 264.53 234.065 264.376C234.218 264.222 234.295 264.046 234.295 263.848C234.295 263.65 234.226 263.492 234.087 263.375C233.955 263.251 233.783 263.188 233.571 263.188C233.337 263.188 233.143 263.262 232.989 263.408C232.843 263.547 232.77 263.72 232.77 263.925ZM232.331 267.807C232.331 268.123 232.459 268.394 232.715 268.621C232.971 268.849 233.297 268.962 233.692 268.962C234.138 268.962 234.558 268.812 234.953 268.511L233.154 266.598C232.905 266.781 232.704 266.972 232.551 267.17C232.404 267.36 232.331 267.573 232.331 267.807Z" fill="white"/>
<path d="M246.503 265.025H244.342V270.007H243.015V265.025H240.842V263.859H246.503V265.025Z" fill="white"/>
<path d="M250.265 268.874C250.681 268.874 251.007 268.786 251.241 268.61C251.475 268.427 251.64 268.192 251.735 267.906C251.83 267.62 251.877 267.32 251.877 267.005V263.859H253.205V267.005C253.205 267.569 253.103 268.082 252.898 268.544C252.7 269.006 252.386 269.373 251.954 269.644C251.523 269.915 250.963 270.051 250.276 270.051C249.566 270.051 248.996 269.908 248.564 269.622C248.14 269.336 247.829 268.962 247.631 268.5C247.441 268.038 247.346 267.54 247.346 267.005V263.859H248.674V267.005C248.674 267.327 248.721 267.631 248.816 267.917C248.919 268.196 249.087 268.427 249.321 268.61C249.555 268.786 249.87 268.874 250.265 268.874Z" fill="white"/>
<path d="M254.613 270.007V263.859H257.63C258.047 263.859 258.416 263.962 258.738 264.167C259.067 264.372 259.323 264.633 259.506 264.948C259.696 265.263 259.791 265.589 259.791 265.927C259.791 266.308 259.681 266.664 259.462 266.994C259.243 267.316 258.946 267.555 258.573 267.708L260.175 270.007H258.661L257.235 267.994H255.94V270.007H254.613ZM255.94 266.829H257.597C257.838 266.829 258.039 266.744 258.2 266.576C258.368 266.407 258.453 266.191 258.453 265.927C258.453 265.663 258.358 265.447 258.167 265.278C257.984 265.109 257.776 265.025 257.542 265.025H255.94V266.829Z" fill="white"/>
<path d="M262.454 266.323V270.007H261.127V263.859H262.158L265.691 267.642V263.859H267.019V270.007H265.943L262.454 266.323Z" fill="white"/>
</g>
<g filter="url(#filter6_d_708:8769)">
<path d="M342.908 212.535V216.328C342.908 219.671 334.546 222.398 324.239 222.398C313.932 222.398 305.57 219.671 305.57 216.328V212.535C305.57 209.192 313.932 206.465 324.239 206.465C334.546 206.465 342.908 209.192 342.908 212.535ZM342.908 221.07V229.605C342.908 232.948 334.546 235.675 324.239 235.675C313.932 235.675 305.57 232.948 305.57 229.605V221.07C309.581 223.82 316.922 225.1 324.239 225.1C331.556 225.1 338.897 223.82 342.908 221.07ZM342.908 234.347V242.882C342.908 246.225 334.546 248.952 324.239 248.952C313.932 248.952 305.57 246.225 305.57 242.882V234.347C309.581 237.097 316.922 238.377 324.239 238.377C331.556 238.377 338.897 237.097 342.908 234.347Z" fill="white"/>
</g>
<g filter="url(#filter7_d_708:8769)">
<path d="M300.542 273.393V267.245H303.021C303.76 267.245 304.378 267.384 304.876 267.663C305.373 267.934 305.746 268.301 305.995 268.763C306.251 269.225 306.379 269.738 306.379 270.303C306.379 270.926 306.24 271.468 305.962 271.93C305.684 272.392 305.292 272.752 304.788 273.008C304.283 273.265 303.694 273.393 303.021 273.393H300.542ZM305.029 270.303C305.029 269.745 304.854 269.291 304.502 268.939C304.151 268.587 303.658 268.411 303.021 268.411H301.869V272.227H303.021C303.672 272.227 304.17 272.048 304.513 271.688C304.857 271.322 305.029 270.86 305.029 270.303Z" fill="white"/>
<path d="M306.536 273.393L309.213 267.245H310.299L312.965 273.393H311.561L310.946 271.952H308.566L307.951 273.393H306.536ZM309.761 268.862L308.862 270.798H310.628L309.761 268.862Z" fill="white"/>
<path d="M318.222 268.411H316.061V273.393H314.733V268.411H312.561V267.245H318.222V268.411Z" fill="white"/>
<path d="M317.807 273.393L320.484 267.245H321.571L324.237 273.393H322.832L322.218 271.952H319.837L319.223 273.393H317.807ZM321.033 268.862L320.133 270.798H321.9L321.033 268.862Z" fill="white"/>
<path d="M330.444 271.82C330.444 272.165 330.345 272.455 330.148 272.689C329.95 272.924 329.687 273.1 329.358 273.217C329.029 273.334 328.667 273.393 328.272 273.393H325.024V267.245H328.634C328.948 267.245 329.219 267.322 329.446 267.476C329.672 267.63 329.848 267.828 329.972 268.07C330.097 268.312 330.159 268.565 330.159 268.829C330.159 269.115 330.075 269.39 329.906 269.654C329.746 269.918 329.511 270.112 329.204 270.237C329.585 270.347 329.884 270.534 330.104 270.798C330.331 271.061 330.444 271.402 330.444 271.82ZM326.352 268.389V269.764H328.074C328.286 269.764 328.466 269.705 328.612 269.588C328.765 269.47 328.842 269.298 328.842 269.071C328.842 268.858 328.773 268.693 328.634 268.576C328.495 268.451 328.327 268.389 328.129 268.389H326.352ZM329.106 271.545C329.106 271.347 329.032 271.175 328.886 271.028C328.74 270.882 328.557 270.809 328.338 270.809H326.352V272.271H328.272C328.498 272.271 328.692 272.202 328.853 272.062C329.021 271.923 329.106 271.751 329.106 271.545Z" fill="white"/>
<path d="M330.718 273.393L333.395 267.245H334.481L337.147 273.393H335.743L335.129 271.952H332.748L332.133 273.393H330.718ZM333.944 268.862L333.044 270.798H334.811L333.944 268.862Z" fill="white"/>
<path d="M341.82 268.972C341.74 268.906 341.608 268.825 341.425 268.73C341.25 268.635 341.041 268.554 340.8 268.488C340.559 268.415 340.31 268.378 340.054 268.378C339.366 268.378 339.023 268.572 339.023 268.961C339.023 269.188 339.147 269.349 339.396 269.445C339.652 269.54 340.025 269.646 340.515 269.764C340.946 269.874 341.319 269.998 341.634 270.138C341.956 270.277 342.201 270.464 342.369 270.699C342.545 270.926 342.632 271.226 342.632 271.6C342.632 272.055 342.515 272.422 342.281 272.7C342.054 272.972 341.755 273.169 341.382 273.294C341.009 273.411 340.606 273.47 340.175 273.47C339.677 273.47 339.184 273.4 338.694 273.261C338.203 273.122 337.768 272.931 337.388 272.689L337.98 271.534C338.075 271.63 338.233 271.736 338.452 271.853C338.679 271.971 338.942 272.07 339.242 272.15C339.542 272.231 339.86 272.271 340.197 272.271C340.87 272.271 341.206 272.092 341.206 271.732C341.206 271.49 341.049 271.318 340.734 271.215C340.427 271.105 340.021 270.984 339.516 270.853C338.887 270.691 338.419 270.486 338.112 270.237C337.812 269.98 337.662 269.613 337.662 269.137C337.662 268.712 337.768 268.356 337.98 268.07C338.2 267.784 338.492 267.568 338.858 267.421C339.231 267.274 339.637 267.201 340.076 267.201C340.537 267.201 340.965 267.271 341.36 267.41C341.762 267.549 342.106 267.707 342.391 267.883L341.82 268.972Z" fill="white"/>
<path d="M348.439 272.227V273.393H343.71V267.245H348.351V268.411H345.038V269.72H347.901V270.809H345.038V272.227H348.439Z" fill="white"/>
</g>
<g filter="url(#filter8_d_708:8769)">
<path fill-rule="evenodd" clip-rule="evenodd" d="M429.809 220.81C430.208 220.593 430.708 220.741 430.926 221.141L430.976 221.234C431.193 221.634 431.046 222.135 430.646 222.353C430.247 222.571 429.747 222.423 429.529 222.023L429.479 221.93C429.262 221.529 429.409 221.028 429.809 220.81ZM431.169 223.317C431.569 223.099 432.069 223.247 432.286 223.647L432.387 223.833C432.604 224.233 432.456 224.735 432.057 224.953C431.657 225.17 431.157 225.022 430.94 224.622L430.839 224.436C430.622 224.036 430.77 223.535 431.169 223.317ZM432.58 225.916C432.979 225.698 433.479 225.846 433.696 226.247L433.797 226.432C434.014 226.833 433.867 227.334 433.467 227.552C433.068 227.77 432.568 227.622 432.351 227.221L432.25 227.035C432.032 226.635 432.18 226.134 432.58 225.916ZM433.99 228.515C434.39 228.297 434.89 228.445 435.107 228.846L435.208 229.031C435.425 229.432 435.277 229.933 434.878 230.151C434.478 230.369 433.978 230.221 433.761 229.82L433.66 229.635C433.443 229.234 433.591 228.733 433.99 228.515ZM435.401 231.114C435.8 230.896 436.3 231.044 436.517 231.445L436.618 231.631C436.836 232.031 436.688 232.532 436.288 232.75C435.889 232.968 435.389 232.82 435.172 232.419L435.071 232.234C434.854 231.833 435.001 231.332 435.401 231.114ZM436.811 233.713C437.211 233.496 437.711 233.644 437.928 234.044L438.029 234.23C438.246 234.63 438.098 235.131 437.699 235.349C437.299 235.567 436.799 235.419 436.582 235.019L436.481 234.833C436.264 234.433 436.412 233.931 436.811 233.713ZM438.222 236.313C438.621 236.095 439.121 236.243 439.339 236.643L439.439 236.829C439.657 237.229 439.509 237.731 439.109 237.948C438.71 238.166 438.21 238.018 437.993 237.618L437.892 237.432C437.675 237.032 437.822 236.531 438.222 236.313ZM439.632 238.912C440.032 238.694 440.532 238.842 440.749 239.242L440.799 239.335C441.017 239.736 440.869 240.237 440.47 240.455C440.07 240.673 439.57 240.525 439.353 240.124L439.302 240.031C439.085 239.631 439.233 239.13 439.632 238.912Z" fill="white"/>
<path fill-rule="evenodd" clip-rule="evenodd" d="M411.562 222.325C411.161 222.11 410.662 222.261 410.447 222.663L410.398 222.757C410.183 223.159 410.334 223.659 410.735 223.874C411.136 224.089 411.635 223.937 411.85 223.535L411.9 223.442C412.114 223.04 411.963 222.54 411.562 222.325ZM410.219 224.841C409.818 224.626 409.32 224.777 409.105 225.179L409.006 225.366C408.791 225.768 408.942 226.268 409.343 226.483C409.744 226.698 410.243 226.546 410.458 226.144L410.557 225.958C410.772 225.556 410.62 225.056 410.219 224.841ZM408.827 227.45C408.426 227.235 407.927 227.387 407.713 227.789L407.614 227.975C407.399 228.377 407.55 228.877 407.951 229.092C408.352 229.307 408.851 229.156 409.066 228.754L409.165 228.567C409.38 228.165 409.228 227.665 408.827 227.45Z" fill="white"/>
<path fill-rule="evenodd" clip-rule="evenodd" d="M407.06 200.035C407.06 198.185 408.557 196.686 410.405 196.686H430.475C432.322 196.686 433.82 198.185 433.82 200.035V201.71C433.82 203.56 432.322 205.06 430.475 205.06H410.405C408.557 205.06 407.06 203.56 407.06 201.71V200.035ZM427.464 201.04C427.464 201.595 427.015 202.045 426.461 202.045C425.907 202.045 425.457 201.595 425.457 201.04C425.457 200.485 425.907 200.035 426.461 200.035C427.015 200.035 427.464 200.485 427.464 201.04ZM429.471 202.045C430.026 202.045 430.475 201.595 430.475 201.04C430.475 200.485 430.026 200.035 429.471 200.035C428.917 200.035 428.468 200.485 428.468 201.04C428.468 201.595 428.917 202.045 429.471 202.045Z" fill="white"/>
<path fill-rule="evenodd" clip-rule="evenodd" d="M407.06 208.745C407.06 206.895 408.557 205.395 410.405 205.395H430.475C432.322 205.395 433.82 206.895 433.82 208.745V210.42C433.82 212.27 432.322 213.77 430.475 213.77H410.405C408.557 213.77 407.06 212.27 407.06 210.42V208.745ZM427.464 209.75C427.464 210.305 427.015 210.755 426.461 210.755C425.907 210.755 425.457 210.305 425.457 209.75C425.457 209.195 425.907 208.745 426.461 208.745C427.015 208.745 427.464 209.195 427.464 209.75ZM429.471 210.755C430.026 210.755 430.475 210.305 430.475 209.75C430.475 209.195 430.026 208.745 429.471 208.745C428.917 208.745 428.468 209.195 428.468 209.75C428.468 210.305 428.917 210.755 429.471 210.755Z" fill="white"/>
<path fill-rule="evenodd" clip-rule="evenodd" d="M407.06 217.455C407.06 215.605 408.557 214.105 410.405 214.105H430.475C432.322 214.105 433.82 215.605 433.82 217.455V219.13C433.82 220.98 432.322 222.479 430.475 222.479H410.405C408.557 222.479 407.06 220.98 407.06 219.13V217.455ZM427.464 218.46C427.464 219.015 427.015 219.465 426.461 219.465C425.907 219.465 425.457 219.015 425.457 218.46C425.457 217.905 425.907 217.455 426.461 217.455C427.015 217.455 427.464 217.905 427.464 218.46ZM429.471 219.465C430.026 219.465 430.475 219.015 430.475 218.46C430.475 217.905 430.026 217.455 429.471 217.455C428.917 217.455 428.468 217.905 428.468 218.46C428.468 219.015 428.917 219.465 429.471 219.465Z" fill="white"/>
<path d="M448.178 225.839L444.355 231.001C444.021 231.453 443.986 232.078 444.27 232.536L446.349 235.878C443.539 239.421 439.752 241.85 435.635 242.74L434.221 238.972C434.032 238.457 433.542 238.164 433.03 238.254L427.179 239.287C426.624 239.388 426.185 239.91 426.143 240.527L425.752 246.206C425.711 246.801 426.047 247.324 426.563 247.468C438.382 250.778 450.934 242.722 454.619 229.501C454.78 228.923 454.565 228.323 454.098 228.053L449.651 225.472C449.163 225.191 448.544 225.346 448.178 225.839Z" fill="white"/>
<path fill-rule="evenodd" clip-rule="evenodd" d="M397.031 224.557C396.943 224.567 396.665 224.598 396.413 224.625C393.485 224.935 390.535 226.377 388.38 228.552C386.218 230.732 384.858 233.566 384.474 236.689C384.397 237.32 384.397 239.203 384.474 239.833C385.094 244.875 388.263 249.078 392.887 250.99C395.538 252.086 398.566 252.286 401.406 251.554C403.203 251.091 405.07 250.139 406.563 248.924C408.764 247.135 410.46 244.47 411.159 241.707C412.359 236.96 411.004 231.957 407.591 228.537C405.459 226.401 402.778 225.065 399.773 224.644C399.279 224.575 397.387 224.515 397.031 224.557ZM397.397 229.593V232.945L397.226 232.923C397.131 232.911 396.869 232.889 396.642 232.874C395.769 232.815 394.577 232.602 393.619 232.333C393.124 232.195 393.071 232.17 393.08 232.08C393.097 231.916 393.675 230.757 394.062 230.111C394.667 229.102 395.409 228.124 396.205 227.286C396.648 226.82 397.284 226.24 397.352 226.24C397.382 226.24 397.397 227.403 397.397 229.593ZM399.034 226.557C400.488 227.854 401.925 229.835 402.737 231.66C402.851 231.916 402.928 232.141 402.907 232.161C402.853 232.213 401.754 232.507 401.198 232.617C400.574 232.742 399.865 232.839 399.321 232.874C399.082 232.889 398.819 232.913 398.737 232.925L398.588 232.948V229.594C398.588 227.403 398.604 226.24 398.634 226.24C398.659 226.24 398.839 226.383 399.034 226.557ZM394.807 227.079C393.718 228.344 392.669 230.003 392.083 231.384C392 231.581 391.916 231.742 391.898 231.742C391.668 231.742 389.108 230.389 389.108 230.268C389.108 230.247 389.371 229.971 389.692 229.656C390.962 228.408 392.436 227.482 394.061 226.911C394.481 226.763 395.112 226.574 395.213 226.567C395.233 226.565 395.05 226.796 394.807 227.079ZM401.611 226.806C402.987 227.249 404.343 227.984 405.453 228.887C405.818 229.184 406.877 230.211 406.877 230.268C406.877 230.39 404.321 231.742 404.089 231.742C404.071 231.742 403.977 231.56 403.88 231.338C403.249 229.894 402.263 228.339 401.175 227.074C400.657 226.471 400.627 226.489 401.611 226.806ZM388.575 231.354C389.079 231.699 390.316 232.357 391.089 232.69C391.31 232.785 391.49 232.871 391.49 232.881C391.49 232.892 391.416 233.151 391.326 233.457C391 234.569 390.739 236.002 390.686 236.966C390.672 237.233 390.65 237.499 390.639 237.556L390.618 237.66H388.353H386.087L386.112 237.371C386.29 235.331 386.851 233.598 387.884 231.904C388.142 231.48 388.32 231.234 388.367 231.234C388.385 231.234 388.479 231.288 388.575 231.354ZM407.867 231.538C408.889 233.018 409.671 235.182 409.831 236.967C409.845 237.132 409.868 237.356 409.881 237.464L409.905 237.66H407.64C405.077 237.66 405.32 237.704 405.32 237.243C405.32 236.474 404.979 234.525 404.657 233.453C404.569 233.16 404.496 232.907 404.496 232.891C404.496 232.874 404.655 232.794 404.851 232.712C405.426 232.473 406.522 231.905 407.074 231.562C407.356 231.386 407.608 231.247 407.633 231.253C407.658 231.259 407.764 231.387 407.867 231.538ZM393.403 233.495C394.524 233.8 395.764 234.007 396.913 234.082L397.397 234.114V235.887V237.66H394.604H391.81L391.811 237.51C391.812 237.227 391.947 236.066 392.041 235.533C392.226 234.49 392.57 233.251 392.666 233.288C392.701 233.301 393.033 233.395 393.403 233.495ZM403.526 233.765C403.734 234.493 403.839 234.937 403.944 235.533C404.038 236.066 404.174 237.227 404.175 237.51L404.175 237.66H401.382H398.588V235.887V234.114L399.072 234.082C400.297 234.002 401.748 233.751 402.801 233.435C403.091 233.348 403.341 233.275 403.356 233.273C403.372 233.27 403.448 233.492 403.526 233.765ZM390.638 239.151C390.652 239.31 390.687 239.7 390.714 240.018C390.799 240.987 391.054 242.287 391.361 243.316C391.414 243.494 391.438 243.649 391.415 243.67C391.393 243.691 391.241 243.765 391.078 243.834C390.422 244.11 389.279 244.716 388.655 245.119L388.363 245.309L388.238 245.158C388.044 244.923 387.441 243.88 387.214 243.386C386.598 242.046 386.272 240.795 386.11 239.151L386.081 238.862H388.347H390.612L390.638 239.151ZM397.397 240.636V242.41L396.905 242.441C395.744 242.514 394.201 242.782 393.145 243.093C392.833 243.184 392.571 243.252 392.562 243.243C392.553 243.234 392.472 242.957 392.382 242.628C392.084 241.531 391.899 240.441 391.83 239.359L391.798 238.862H394.598H397.397V240.636ZM404.156 239.359C404.086 240.441 403.902 241.531 403.603 242.628C403.513 242.957 403.433 243.234 403.424 243.243C403.415 243.252 403.163 243.188 402.864 243.1C401.746 242.773 400.527 242.554 399.309 242.461L398.588 242.406V240.634V238.862H401.388H404.188L404.156 239.359ZM409.874 239.174C409.739 240.647 409.391 242.001 408.818 243.274C408.563 243.842 407.978 244.87 407.753 245.144L407.626 245.3L407.263 245.071C406.635 244.674 405.391 244.028 404.713 243.747C404.521 243.667 404.512 243.629 404.612 243.341C404.869 242.61 405.186 240.982 405.274 239.949C405.302 239.618 405.336 239.239 405.349 239.105L405.372 238.862H407.637H409.902L409.874 239.174ZM397.397 246.936V250.294L397.256 250.266C396.741 250.161 394.912 248.002 393.956 246.369C393.697 245.926 393.003 244.512 393.002 244.426C393.001 244.364 393.096 244.33 393.803 244.138C394.756 243.88 396.099 243.662 397.054 243.611C397.205 243.603 397.344 243.592 397.363 243.587C397.382 243.582 397.397 245.089 397.397 246.936ZM399.848 243.699C401.066 243.832 402.985 244.276 402.984 244.425C402.983 244.512 402.29 245.924 402.028 246.371C401.387 247.467 400.673 248.418 399.77 249.382C399.266 249.92 398.899 250.231 398.731 250.265L398.588 250.294V246.942V243.589L398.897 243.61C399.067 243.621 399.495 243.661 399.848 243.699ZM392.104 245.302C392.754 246.802 393.873 248.558 394.873 249.648C394.985 249.769 395.063 249.88 395.048 249.896C395.003 249.942 393.753 249.513 393.158 249.248C391.82 248.652 390.563 247.769 389.498 246.677C389.021 246.189 389.002 246.274 389.681 245.87C390.256 245.528 391.735 244.789 391.856 244.784C391.869 244.784 391.98 245.017 392.104 245.302ZM404.49 244.94C405.327 245.301 406.877 246.157 406.877 246.257C406.877 246.278 406.612 246.554 406.288 246.871C404.861 248.267 403.185 249.261 401.358 249.796C401.137 249.861 400.945 249.903 400.933 249.891C400.92 249.878 401.002 249.769 401.114 249.648C401.668 249.048 402.607 247.73 403.097 246.864C403.346 246.423 403.829 245.447 403.996 245.047C404.057 244.901 404.11 244.782 404.114 244.781C404.118 244.781 404.287 244.852 404.49 244.94Z" fill="white"/>
</g>
<g filter="url(#filter9_d_708:8769)">
<path d="M400.942 270.051C400.518 270.051 400.115 269.967 399.735 269.798C399.362 269.622 399.033 269.388 398.748 269.094C398.462 268.801 398.239 268.467 398.078 268.093C397.917 267.712 397.837 267.313 397.837 266.895C397.837 266.469 397.917 266.073 398.078 265.707C398.239 265.333 398.462 265.007 398.748 264.728C399.04 264.442 399.38 264.218 399.768 264.057C400.156 263.896 400.576 263.815 401.03 263.815C401.637 263.815 402.16 263.94 402.599 264.189C403.045 264.431 403.378 264.754 403.597 265.157L402.588 265.905C402.434 265.619 402.211 265.399 401.918 265.245C401.633 265.084 401.322 265.003 400.986 265.003C400.627 265.003 400.309 265.091 400.031 265.267C399.761 265.443 399.549 265.677 399.395 265.971C399.249 266.264 399.176 266.587 399.176 266.939C399.176 267.305 399.256 267.635 399.417 267.928C399.585 268.214 399.808 268.442 400.086 268.61C400.371 268.779 400.697 268.863 401.063 268.863C401.662 268.863 402.215 268.599 402.719 268.071V267.785H401.359V266.818H403.816V270.007H402.719V269.369C402.207 269.824 401.615 270.051 400.942 270.051Z" fill="white"/>
<path d="M404.322 270.007L407 263.859H408.086L410.752 270.007H409.347L408.733 268.566H406.352L405.738 270.007H404.322ZM407.548 265.476L406.648 267.412H408.415L407.548 265.476Z" fill="white"/>
<path d="M416.009 265.025H413.847V270.007H412.52V265.025H410.348V263.859H416.009V265.025Z" fill="white"/>
<path d="M421.668 268.841V270.007H416.939V263.859H421.58V265.025H418.267V266.334H421.13V267.423H418.267V268.841H421.668Z" fill="white"/>
<path d="M425.148 263.881H426.377L427.134 265.872L427.913 263.881H429.141L427.978 266.708L428.779 268.412L430.754 263.859H432.202L429.438 270.007H428.319L427.145 267.533L425.971 270.007H424.852L422.087 263.859H423.524L425.521 268.412L426.289 266.708L425.148 263.881Z" fill="white"/>
<path d="M431.698 270.007L434.375 263.859H435.461L438.127 270.007H436.723L436.108 268.566H433.728L433.113 270.007H431.698ZM434.923 265.476L434.024 267.412H435.79L434.923 265.476Z" fill="white"/>
<path d="M438.953 263.859L440.632 266.73L442.321 263.859H443.77L441.29 267.884V270.007H439.974V267.873L437.516 263.859H438.953Z" fill="white"/>
<path d="M389.196 276.712H390.424L391.181 278.703L391.96 276.712H393.189L392.026 279.539L392.827 281.244L394.802 276.69H396.25L393.485 282.838H392.366L391.192 280.364L390.018 282.838H388.899L386.135 276.69H387.572L389.569 281.244L390.337 279.539L389.196 276.712Z" fill="white"/>
<path d="M401.745 281.673V282.838H397.016V276.69H401.657V277.856H398.343V279.165H401.207V280.254H398.343V281.673H401.745Z" fill="white"/>
<path d="M408.307 281.266C408.307 281.61 408.209 281.9 408.011 282.135C407.814 282.369 407.55 282.545 407.221 282.662C406.892 282.78 406.53 282.838 406.135 282.838H402.887V276.69H406.497C406.812 276.69 407.082 276.767 407.309 276.921C407.536 277.075 407.711 277.273 407.836 277.515C407.96 277.757 408.022 278.01 408.022 278.274C408.022 278.56 407.938 278.835 407.77 279.099C407.609 279.363 407.375 279.557 407.068 279.682C407.448 279.792 407.748 279.979 407.967 280.243C408.194 280.507 408.307 280.848 408.307 281.266ZM404.215 277.834V279.209H405.937C406.15 279.209 406.329 279.15 406.475 279.033C406.629 278.916 406.705 278.743 406.705 278.516C406.705 278.303 406.636 278.139 406.497 278.021C406.358 277.897 406.19 277.834 405.992 277.834H404.215ZM406.969 280.991C406.969 280.793 406.896 280.62 406.749 280.474C406.603 280.327 406.42 280.254 406.201 280.254H404.215V281.717H406.135C406.362 281.717 406.556 281.647 406.716 281.508C406.885 281.368 406.969 281.196 406.969 280.991Z" fill="white"/>
<path d="M409.423 282.838V276.69H412.44C412.857 276.69 413.227 276.793 413.548 276.998C413.878 277.204 414.134 277.464 414.316 277.779C414.507 278.095 414.602 278.421 414.602 278.758C414.602 279.139 414.492 279.495 414.273 279.825C414.053 280.148 413.757 280.386 413.384 280.54L414.986 282.838H413.472L412.045 280.826H410.751V282.838H409.423ZM410.751 279.66H412.407C412.649 279.66 412.85 279.576 413.011 279.407C413.179 279.238 413.263 279.022 413.263 278.758C413.263 278.494 413.168 278.278 412.978 278.109C412.795 277.941 412.587 277.856 412.353 277.856H410.751V279.66Z" fill="white"/>
<path d="M420.986 277.856H418.824V282.838H417.497V277.856H415.324V276.69H420.986V277.856Z" fill="white"/>
<path d="M421.382 279.715C421.382 279.341 421.455 278.974 421.601 278.615C421.748 278.248 421.96 277.919 422.238 277.625C422.516 277.332 422.856 277.097 423.258 276.921C423.66 276.745 424.121 276.657 424.64 276.657C425.248 276.657 425.774 276.782 426.22 277.031C426.667 277.281 426.992 277.603 427.197 277.999L426.176 278.714C426.016 278.384 425.781 278.157 425.474 278.032C425.174 277.908 424.885 277.845 424.608 277.845C424.191 277.845 423.843 277.941 423.565 278.131C423.287 278.322 423.075 278.564 422.929 278.857C422.79 279.15 422.72 279.451 422.72 279.759C422.72 280.104 422.801 280.426 422.962 280.727C423.123 281.02 423.346 281.258 423.631 281.442C423.916 281.618 424.249 281.706 424.629 281.706C424.922 281.706 425.222 281.64 425.529 281.508C425.836 281.368 426.063 281.137 426.209 280.815L427.307 281.464C427.168 281.772 426.952 282.032 426.659 282.245C426.367 282.457 426.037 282.618 425.672 282.728C425.306 282.838 424.944 282.893 424.586 282.893C424.117 282.893 423.686 282.805 423.291 282.629C422.903 282.446 422.567 282.204 422.282 281.904C421.996 281.596 421.773 281.255 421.612 280.881C421.459 280.499 421.382 280.111 421.382 279.715Z" fill="white"/>
<path d="M437.532 275.03L432.09 282.838H430.466L435.897 275.03H437.532Z" fill="white"/>
<path d="M445.163 278.417C445.082 278.351 444.95 278.27 444.768 278.175C444.592 278.08 444.384 277.999 444.142 277.933C443.901 277.86 443.652 277.823 443.396 277.823C442.709 277.823 442.365 278.018 442.365 278.406C442.365 278.633 442.489 278.795 442.738 278.89C442.994 278.985 443.367 279.092 443.857 279.209C444.288 279.319 444.662 279.444 444.976 279.583C445.298 279.722 445.543 279.909 445.711 280.144C445.887 280.371 445.974 280.672 445.974 281.046C445.974 281.5 445.857 281.867 445.623 282.146C445.397 282.417 445.097 282.615 444.724 282.739C444.351 282.857 443.948 282.915 443.517 282.915C443.019 282.915 442.526 282.846 442.036 282.706C441.546 282.567 441.11 282.376 440.73 282.135L441.323 280.98C441.418 281.075 441.575 281.181 441.794 281.299C442.021 281.416 442.284 281.515 442.584 281.596C442.884 281.676 443.202 281.717 443.539 281.717C444.212 281.717 444.548 281.537 444.548 281.178C444.548 280.936 444.391 280.763 444.076 280.661C443.769 280.551 443.363 280.43 442.859 280.298C442.229 280.137 441.761 279.931 441.454 279.682C441.154 279.425 441.004 279.059 441.004 278.582C441.004 278.157 441.11 277.801 441.323 277.515C441.542 277.229 441.835 277.013 442.2 276.866C442.573 276.72 442.979 276.646 443.418 276.646C443.879 276.646 444.307 276.716 444.702 276.855C445.104 276.995 445.448 277.152 445.733 277.328L445.163 278.417Z" fill="white"/>
<path d="M447.052 282.838V276.69H448.38V282.838H447.052Z" fill="white"/>
<path d="M449.87 282.838V276.69H452.756C453.172 276.69 453.546 276.793 453.875 276.998C454.204 277.204 454.46 277.464 454.643 277.779C454.833 278.095 454.928 278.421 454.928 278.758C454.928 279.11 454.836 279.444 454.654 279.759C454.478 280.074 454.229 280.331 453.908 280.529C453.593 280.727 453.227 280.826 452.81 280.826H451.198V282.838H449.87ZM451.198 279.66H452.723C452.971 279.66 453.176 279.583 453.337 279.429C453.498 279.268 453.578 279.044 453.578 278.758C453.578 278.465 453.483 278.241 453.293 278.087C453.11 277.933 452.902 277.856 452.668 277.856H451.198V279.66Z" fill="white"/>
</g>
<g filter="url(#filter10_d_708:8769)">
<path d="M91.9644 83.0134H98.1812L109.771 114.473H103.465L100.535 106.63H89.5221L86.6357 114.473H80.3301L91.9644 83.0134ZM99.4246 102.332L95.0728 89.3496L90.5434 102.332H99.4246Z" fill="white"/>
<path d="M126.595 114.916C124.76 114.916 123.161 114.503 121.8 113.675C120.438 112.848 119.372 111.755 118.602 110.397V123.911H112.652V91.2549H117.847V95.2427C118.706 93.8839 119.816 92.8205 121.178 92.0525C122.569 91.2549 124.138 90.8561 125.885 90.8561C127.987 90.8561 129.852 91.4026 131.48 92.4956C133.108 93.559 134.396 95.0064 135.343 96.8379C136.291 98.6398 136.764 100.634 136.764 102.82C136.764 105.094 136.32 107.147 135.432 108.979C134.574 110.781 133.375 112.228 131.835 113.321C130.325 114.384 128.579 114.916 126.595 114.916ZM124.597 109.865C125.811 109.865 126.862 109.54 127.75 108.89C128.668 108.211 129.378 107.339 129.881 106.276C130.414 105.183 130.681 104.031 130.681 102.82C130.681 101.52 130.399 100.353 129.837 99.3192C129.274 98.2558 128.505 97.4287 127.528 96.8379C126.581 96.2175 125.485 95.9074 124.242 95.9074C123.117 95.9074 121.992 96.2766 120.867 97.0151C119.742 97.7536 118.987 98.6841 118.602 99.8066V105.257C119.135 106.556 119.949 107.649 121.045 108.536C122.14 109.422 123.324 109.865 124.597 109.865Z" fill="white"/>
<path d="M140.796 88.0203V82.1272H146.746V88.0203H140.796ZM140.796 114.473V91.2549H146.746V114.473H140.796Z" fill="white"/>
<path d="M152.691 114.473V83.0134H166.635C168.085 83.0134 169.418 83.3087 170.631 83.8995C171.875 84.4903 172.94 85.2879 173.828 86.2922C174.746 87.2966 175.442 88.4191 175.916 89.6598C176.419 90.9004 176.67 92.1706 176.67 93.4704C176.67 95.479 176.152 97.3253 175.116 99.009C174.11 100.693 172.733 101.904 170.987 102.642L178.18 114.473H171.431L164.947 103.927H158.819V114.473H152.691ZM158.819 98.5659H166.502C167.656 98.5659 168.603 98.0785 169.344 97.1037C170.113 96.0994 170.498 94.8883 170.498 93.4704C170.498 92.4956 170.291 91.6241 169.876 90.8561C169.462 90.0881 168.929 89.4825 168.278 89.0394C167.656 88.5963 166.975 88.3748 166.235 88.3748H158.819V98.5659Z" fill="white"/>
<path d="M205.455 88.3748H195.375V114.473H189.292V88.3748H179.212V83.0134H205.455V88.3748Z" fill="white"/>
<path d="M206.766 98.5216C206.766 96.6016 207.107 94.711 207.787 92.85C208.498 90.989 209.519 89.3053 210.851 87.7988C212.184 86.2922 213.812 85.0959 215.736 84.2097C217.66 83.294 219.851 82.8361 222.308 82.8361C225.18 82.8361 227.681 83.4712 229.813 84.7414C231.944 86.0116 233.528 87.6658 234.564 89.7041L229.857 92.9386C229.324 91.7571 228.629 90.8266 227.77 90.1472C226.912 89.4677 225.979 88.9803 224.972 88.6849C223.996 88.3896 223.048 88.2419 222.131 88.2419C220.591 88.2419 219.244 88.552 218.09 89.1724C216.965 89.7927 216.017 90.605 215.248 91.6094C214.478 92.6137 213.901 93.7362 213.516 94.9769C213.161 96.2175 212.983 97.4582 212.983 98.6989C212.983 100.56 213.368 102.303 214.137 103.927C214.907 105.523 215.988 106.822 217.379 107.827C218.77 108.831 220.384 109.333 222.219 109.333C223.167 109.333 224.144 109.171 225.15 108.846C226.186 108.521 227.134 108.004 227.992 107.295C228.851 106.586 229.517 105.67 229.99 104.548L235.008 107.428C234.357 108.993 233.336 110.323 231.944 111.416C230.553 112.479 228.984 113.306 227.237 113.897C225.491 114.458 223.759 114.739 222.042 114.739C219.792 114.739 217.734 114.281 215.869 113.365C214.034 112.42 212.435 111.179 211.073 109.643C209.712 108.078 208.646 106.335 207.876 104.415C207.136 102.465 206.766 100.501 206.766 98.5216Z" fill="white"/>
<path d="M131.921 157.823V126.363H145.287C146.737 126.363 148.069 126.659 149.283 127.249C150.527 127.84 151.592 128.638 152.48 129.642C153.369 130.646 154.064 131.769 154.567 133.01C155.071 134.25 155.322 135.52 155.322 136.82C155.322 138.593 154.908 140.276 154.079 141.871C153.25 143.467 152.096 144.766 150.615 145.771C149.165 146.775 147.463 147.277 145.509 147.277H138.049V157.823H131.921ZM138.049 141.916H145.153C146.278 141.916 147.211 141.458 147.951 140.542C148.721 139.597 149.106 138.356 149.106 136.82C149.106 135.195 148.676 133.94 147.818 133.054C146.959 132.168 145.982 131.725 144.887 131.725H138.049V141.916Z" fill="white"/>
<path d="M157.108 150.955C157.108 149.448 157.522 148.134 158.351 147.011C159.21 145.859 160.394 144.973 161.904 144.353C163.414 143.732 165.145 143.422 167.099 143.422C168.076 143.422 169.068 143.511 170.074 143.688C171.081 143.836 171.954 144.057 172.694 144.353V143.112C172.694 141.635 172.25 140.498 171.362 139.7C170.504 138.903 169.216 138.504 167.499 138.504C166.226 138.504 165.012 138.725 163.858 139.169C162.703 139.612 161.489 140.262 160.216 141.118L158.307 137.219C159.846 136.215 161.415 135.461 163.014 134.959C164.642 134.457 166.344 134.206 168.121 134.206C171.436 134.206 174.012 135.033 175.847 136.687C177.712 138.341 178.645 140.705 178.645 143.777V151.176C178.645 151.826 178.748 152.284 178.956 152.55C179.163 152.786 179.533 152.934 180.066 152.993V157.823C179.533 157.941 179.044 158.015 178.6 158.044C178.186 158.103 177.831 158.133 177.535 158.133C176.35 158.133 175.448 157.867 174.826 157.335C174.204 156.804 173.834 156.154 173.716 155.386L173.583 154.189C172.546 155.519 171.273 156.538 169.764 157.247C168.283 157.926 166.759 158.266 165.19 158.266C163.621 158.266 162.229 157.956 161.016 157.335C159.802 156.686 158.84 155.814 158.129 154.721C157.448 153.599 157.108 152.343 157.108 150.955ZM171.584 152.151C172.324 151.442 172.694 150.763 172.694 150.113V147.765C171.155 147.144 169.601 146.834 168.032 146.834C166.463 146.834 165.19 147.174 164.213 147.853C163.236 148.503 162.748 149.374 162.748 150.467C162.748 151.354 163.103 152.151 163.813 152.86C164.524 153.569 165.545 153.924 166.877 153.924C167.765 153.924 168.624 153.761 169.453 153.436C170.311 153.111 171.022 152.683 171.584 152.151Z" fill="white"/>
<path d="M182.607 150.955C182.607 149.448 183.021 148.134 183.85 147.011C184.708 145.859 185.893 144.973 187.402 144.353C188.912 143.732 190.644 143.422 192.598 143.422C193.575 143.422 194.567 143.511 195.573 143.688C196.58 143.836 197.453 144.057 198.193 144.353V143.112C198.193 141.635 197.749 140.498 196.861 139.7C196.002 138.903 194.715 138.504 192.998 138.504C191.725 138.504 190.511 138.725 189.356 139.169C188.202 139.612 186.988 140.262 185.715 141.118L183.806 137.219C185.345 136.215 186.914 135.461 188.513 134.959C190.141 134.457 191.843 134.206 193.619 134.206C196.935 134.206 199.51 135.033 201.346 136.687C203.211 138.341 204.143 140.705 204.143 143.777V151.176C204.143 151.826 204.247 152.284 204.454 152.55C204.661 152.786 205.032 152.934 205.564 152.993V157.823C205.032 157.941 204.543 158.015 204.099 158.044C203.685 158.103 203.329 158.133 203.033 158.133C201.849 158.133 200.946 157.867 200.325 157.335C199.703 156.804 199.333 156.154 199.214 155.386L199.081 154.189C198.045 155.519 196.772 156.538 195.262 157.247C193.782 157.926 192.257 158.266 190.688 158.266C189.119 158.266 187.728 157.956 186.514 157.335C185.301 156.686 184.338 155.814 183.628 154.721C182.947 153.599 182.607 152.343 182.607 150.955ZM197.083 152.151C197.823 151.442 198.193 150.763 198.193 150.113V147.765C196.654 147.144 195.099 146.834 193.53 146.834C191.961 146.834 190.688 147.174 189.712 147.853C188.735 148.503 188.246 149.374 188.246 150.467C188.246 151.354 188.601 152.151 189.312 152.86C190.022 153.569 191.044 153.924 192.376 153.924C193.264 153.924 194.122 153.761 194.951 153.436C195.81 153.111 196.52 152.683 197.083 152.151Z" fill="white"/>
<path d="M229.065 134.605C228.798 134.309 228.236 133.925 227.377 133.453C226.519 132.95 225.483 132.507 224.269 132.123C223.085 131.71 221.856 131.503 220.583 131.503C217.238 131.503 215.565 132.685 215.565 135.048C215.565 135.904 215.832 136.584 216.365 137.086C216.898 137.588 217.697 138.017 218.763 138.371C219.828 138.725 221.161 139.109 222.759 139.523C224.831 140.055 226.622 140.675 228.132 141.384C229.672 142.093 230.841 143.038 231.64 144.22C232.469 145.372 232.884 146.908 232.884 148.828C232.884 151.073 232.336 152.89 231.241 154.278C230.175 155.637 228.754 156.626 226.978 157.247C225.201 157.867 223.277 158.177 221.205 158.177C218.837 158.177 216.483 157.823 214.144 157.114C211.835 156.375 209.778 155.371 207.972 154.101L210.681 148.828C210.947 149.094 211.421 149.448 212.102 149.891C212.783 150.305 213.612 150.733 214.588 151.176C215.565 151.59 216.631 151.944 217.786 152.24C218.94 152.535 220.11 152.683 221.294 152.683C224.669 152.683 226.356 151.605 226.356 149.448C226.356 148.533 226.016 147.794 225.335 147.233C224.654 146.672 223.692 146.199 222.448 145.815C221.235 145.431 219.814 145.003 218.185 144.53C216.172 143.969 214.5 143.348 213.167 142.669C211.865 141.96 210.888 141.089 210.237 140.055C209.585 138.991 209.26 137.647 209.26 136.023C209.26 133.866 209.763 132.064 210.77 130.617C211.806 129.14 213.197 128.032 214.944 127.294C216.69 126.526 218.629 126.142 220.761 126.142C222.952 126.142 224.994 126.496 226.889 127.205C228.784 127.914 230.412 128.726 231.773 129.642L229.065 134.605Z" fill="white"/>
</g>
</g>
<defs>
<filter id="filter0_d_708:8769" x="8.28931" y="185.234" width="66.5962" height="57.8699" filterUnits="userSpaceOnUse" color-interpolation-filters="sRGB">
<feFlood flood-opacity="0" result="BackgroundImageFix"/>
<feColorMatrix in="SourceAlpha" type="matrix" values="0 0 0 0 0 0 0 0 0 0 0 0 0 0 0 0 0 0 127 0" result="hardAlpha"/>
<feOffset dx="1" dy="-1"/>
<feColorMatrix type="matrix" values="0 0 0 0 0 0 0 0 0 0 0 0 0 0 0 0 0 0 0.25 0"/>
<feBlend mode="normal" in2="BackgroundImageFix" result="effect1_dropShadow_708:8769"/>
<feBlend mode="normal" in="SourceGraphic" in2="effect1_dropShadow_708:8769" result="shape"/>
</filter>
<filter id="filter1_d_708:8769" x="15.7839" y="253.28" width="51.95" height="20.0782" filterUnits="userSpaceOnUse" color-interpolation-filters="sRGB">
<feFlood flood-opacity="0" result="BackgroundImageFix"/>
<feColorMatrix in="SourceAlpha" type="matrix" values="0 0 0 0 0 0 0 0 0 0 0 0 0 0 0 0 0 0 127 0" result="hardAlpha"/>
<feOffset dx="1" dy="-1"/>
<feColorMatrix type="matrix" values="0 0 0 0 0 0 0 0 0 0 0 0 0 0 0 0 0 0 0.25 0"/>
<feBlend mode="normal" in2="BackgroundImageFix" result="effect1_dropShadow_708:8769"/>
<feBlend mode="normal" in="SourceGraphic" in2="effect1_dropShadow_708:8769" result="shape"/>
</filter>
<filter id="filter2_d_708:8769" x="110.584" y="194.998" width="60.2056" height="57.7695" filterUnits="userSpaceOnUse" color-interpolation-filters="sRGB">
<feFlood flood-opacity="0" result="BackgroundImageFix"/>
<feColorMatrix in="SourceAlpha" type="matrix" values="0 0 0 0 0 0 0 0 0 0 0 0 0 0 0 0 0 0 127 0" result="hardAlpha"/>
<feOffset dx="1" dy="-1"/>
<feColorMatrix type="matrix" values="0 0 0 0 0 0 0 0 0 0 0 0 0 0 0 0 0 0 0.25 0"/>
<feBlend mode="normal" in2="BackgroundImageFix" result="effect1_dropShadow_708:8769"/>
<feBlend mode="normal" in="SourceGraphic" in2="effect1_dropShadow_708:8769" result="shape"/>
</filter>
<filter id="filter3_d_708:8769" x="118.038" y="261.198" width="47.2073" height="8.88568" filterUnits="userSpaceOnUse" color-interpolation-filters="sRGB">
<feFlood flood-opacity="0" result="BackgroundImageFix"/>
<feColorMatrix in="SourceAlpha" type="matrix" values="0 0 0 0 0 0 0 0 0 0 0 0 0 0 0 0 0 0 127 0" result="hardAlpha"/>
<feOffset dx="1" dy="-1"/>
<feColorMatrix type="matrix" values="0 0 0 0 0 0 0 0 0 0 0 0 0 0 0 0 0 0 0.25 0"/>
<feBlend mode="normal" in2="BackgroundImageFix" result="effect1_dropShadow_708:8769"/>
<feBlend mode="normal" in="SourceGraphic" in2="effect1_dropShadow_708:8769" result="shape"/>
</filter>
<filter id="filter4_d_708:8769" x="214.244" y="205.971" width="41.8696" height="40.9575" filterUnits="userSpaceOnUse" color-interpolation-filters="sRGB">
<feFlood flood-opacity="0" result="BackgroundImageFix"/>
<feColorMatrix in="SourceAlpha" type="matrix" values="0 0 0 0 0 0 0 0 0 0 0 0 0 0 0 0 0 0 127 0" result="hardAlpha"/>
<feOffset dx="1" dy="-1"/>
<feColorMatrix type="matrix" values="0 0 0 0 0 0 0 0 0 0 0 0 0 0 0 0 0 0 0.25 0"/>
<feBlend mode="normal" in2="BackgroundImageFix" result="effect1_dropShadow_708:8769"/>
<feBlend mode="normal" in="SourceGraphic" in2="effect1_dropShadow_708:8769" result="shape"/>
</filter>
<filter id="filter5_d_708:8769" x="201.672" y="261.099" width="66.3464" height="9.0177" filterUnits="userSpaceOnUse" color-interpolation-filters="sRGB">
<feFlood flood-opacity="0" result="BackgroundImageFix"/>
<feColorMatrix in="SourceAlpha" type="matrix" values="0 0 0 0 0 0 0 0 0 0 0 0 0 0 0 0 0 0 127 0" result="hardAlpha"/>
<feOffset dx="1" dy="-1"/>
<feColorMatrix type="matrix" values="0 0 0 0 0 0 0 0 0 0 0 0 0 0 0 0 0 0 0.25 0"/>
<feBlend mode="normal" in2="BackgroundImageFix" result="effect1_dropShadow_708:8769"/>
<feBlend mode="normal" in="SourceGraphic" in2="effect1_dropShadow_708:8769" result="shape"/>
</filter>
<filter id="filter6_d_708:8769" x="305.57" y="205.465" width="38.3376" height="43.4863" filterUnits="userSpaceOnUse" color-interpolation-filters="sRGB">
<feFlood flood-opacity="0" result="BackgroundImageFix"/>
<feColorMatrix in="SourceAlpha" type="matrix" values="0 0 0 0 0 0 0 0 0 0 0 0 0 0 0 0 0 0 127 0" result="hardAlpha"/>
<feOffset dx="1" dy="-1"/>
<feColorMatrix type="matrix" values="0 0 0 0 0 0 0 0 0 0 0 0 0 0 0 0 0 0 0.25 0"/>
<feBlend mode="normal" in2="BackgroundImageFix" result="effect1_dropShadow_708:8769"/>
<feBlend mode="normal" in="SourceGraphic" in2="effect1_dropShadow_708:8769" result="shape"/>
</filter>
<filter id="filter7_d_708:8769" x="300.542" y="266.201" width="48.897" height="7.26898" filterUnits="userSpaceOnUse" color-interpolation-filters="sRGB">
<feFlood flood-opacity="0" result="BackgroundImageFix"/>
<feColorMatrix in="SourceAlpha" type="matrix" values="0 0 0 0 0 0 0 0 0 0 0 0 0 0 0 0 0 0 127 0" result="hardAlpha"/>
<feOffset dx="1" dy="-1"/>
<feColorMatrix type="matrix" values="0 0 0 0 0 0 0 0 0 0 0 0 0 0 0 0 0 0 0.25 0"/>
<feBlend mode="normal" in2="BackgroundImageFix" result="effect1_dropShadow_708:8769"/>
<feBlend mode="normal" in="SourceGraphic" in2="effect1_dropShadow_708:8769" result="shape"/>
</filter>
<filter id="filter8_d_708:8769" x="384.416" y="195.686" width="71.2556" height="56.3019" filterUnits="userSpaceOnUse" color-interpolation-filters="sRGB">
<feFlood flood-opacity="0" result="BackgroundImageFix"/>
<feColorMatrix in="SourceAlpha" type="matrix" values="0 0 0 0 0 0 0 0 0 0 0 0 0 0 0 0 0 0 127 0" result="hardAlpha"/>
<feOffset dx="1" dy="-1"/>
<feColorMatrix type="matrix" values="0 0 0 0 0 0 0 0 0 0 0 0 0 0 0 0 0 0 0.25 0"/>
<feBlend mode="normal" in2="BackgroundImageFix" result="effect1_dropShadow_708:8769"/>
<feBlend mode="normal" in="SourceGraphic" in2="effect1_dropShadow_708:8769" result="shape"/>
</filter>
<filter id="filter9_d_708:8769" x="386.135" y="262.815" width="69.7935" height="20.1003" filterUnits="userSpaceOnUse" color-interpolation-filters="sRGB">
<feFlood flood-opacity="0" result="BackgroundImageFix"/>
<feColorMatrix in="SourceAlpha" type="matrix" values="0 0 0 0 0 0 0 0 0 0 0 0 0 0 0 0 0 0 127 0" result="hardAlpha"/>
<feOffset dx="1" dy="-1"/>
<feColorMatrix type="matrix" values="0 0 0 0 0 0 0 0 0 0 0 0 0 0 0 0 0 0 0.25 0"/>
<feBlend mode="normal" in2="BackgroundImageFix" result="effect1_dropShadow_708:8769"/>
<feBlend mode="normal" in="SourceGraphic" in2="effect1_dropShadow_708:8769" result="shape"/>
</filter>
<filter id="filter10_d_708:8769" x="80.3301" y="81.1272" width="155.678" height="77.1387" filterUnits="userSpaceOnUse" color-interpolation-filters="sRGB">
<feFlood flood-opacity="0" result="BackgroundImageFix"/>
<feColorMatrix in="SourceAlpha" type="matrix" values="0 0 0 0 0 0 0 0 0 0 0 0 0 0 0 0 0 0 127 0" result="hardAlpha"/>
<feOffset dx="1" dy="-1"/>
<feColorMatrix type="matrix" values="0 0 0 0 0 0 0 0 0 0 0 0 0 0 0 0 0 0 0.25 0"/>
<feBlend mode="normal" in2="BackgroundImageFix" result="effect1_dropShadow_708:8769"/>
<feBlend mode="normal" in="SourceGraphic" in2="effect1_dropShadow_708:8769" result="shape"/>
</filter>
<radialGradient id="paint0_radial_708:8769" cx="0" cy="0" r="1" gradientUnits="userSpaceOnUse" gradientTransform="translate(142.476 65.339) rotate(68.7875) scale(267.614 477.037)">
<stop stop-color="#62ACE5"/>
<stop offset="1" stop-color="#0078D4"/>
</radialGradient>
<radialGradient id="paint1_radial_708:8769" cx="0" cy="0" r="1" gradientUnits="userSpaceOnUse" gradientTransform="translate(354.865 111.113) rotate(118.125) scale(225.337 182.532)">
<stop stop-color="#46B9F0" stop-opacity="0.58"/>
<stop offset="1" stop-color="#0074AC" stop-opacity="0"/>
</radialGradient>
<radialGradient id="paint2_radial_708:8769" cx="0" cy="0" r="1" gradientUnits="userSpaceOnUse" gradientTransform="translate(452.775 241.67) rotate(166.702) scale(318.017 569.136)">
<stop stop-color="#30AEEB" stop-opacity="0.56"/>
<stop offset="1" stop-color="#0175AD" stop-opacity="0.12"/>
</radialGradient>
<radialGradient id="paint3_radial_708:8769" cx="0" cy="0" r="1" gradientUnits="userSpaceOnUse" gradientTransform="translate(134.784 67.05) rotate(68.7875) scale(267.614 477.037)">
<stop stop-color="#62ACE5"/>
<stop offset="1" stop-color="#0078D4"/>
</radialGradient>
<radialGradient id="paint4_radial_708:8769" cx="0" cy="0" r="1" gradientUnits="userSpaceOnUse" gradientTransform="translate(347.174 112.824) rotate(118.125) scale(225.337 182.532)">
<stop stop-color="#46B9F0" stop-opacity="0.58"/>
<stop offset="1" stop-color="#0074AC" stop-opacity="0"/>
</radialGradient>
<radialGradient id="paint5_radial_708:8769" cx="0" cy="0" r="1" gradientUnits="userSpaceOnUse" gradientTransform="translate(445.084 243.381) rotate(166.702) scale(318.017 569.137)">
<stop stop-color="#30AEEB" stop-opacity="0.56"/>
<stop offset="1" stop-color="#0175AD" stop-opacity="0.12"/>
</radialGradient>
<clipPath id="clip0_708:8769">
<rect width="523" height="296" fill="white"/>
</clipPath>
</defs>
</svg>
