<svg width="353" height="205" viewBox="0 0 353 205" fill="none" xmlns="http://www.w3.org/2000/svg">
<rect x="226.655" y="80.757" width="50.2151" height="87.8062" rx="10.63" fill="white" stroke="#BDBDBD" stroke-width="8.26"/>
<path d="M85.464 60.63H202.429C209.613 60.63 215.432 66.4502 215.432 73.6256V154.186H72.4611V73.6256C72.4611 66.4502 78.2809 60.63 85.464 60.63Z" fill="white" stroke="#BDBDBD" stroke-width="9.26"/>
<path d="M127.77 121.848C127.899 122.106 127.976 122.386 127.995 122.674C128.014 122.961 127.976 123.249 127.883 123.521C127.79 123.794 127.643 124.045 127.451 124.261C127.26 124.477 127.027 124.653 126.766 124.78C126.506 124.906 126.223 124.979 125.933 124.996C125.644 125.013 125.354 124.973 125.08 124.878C124.806 124.783 124.554 124.635 124.339 124.443C124.123 124.251 123.947 124.018 123.822 123.759C122.56 121.184 120.595 119.014 118.15 117.496C115.705 115.978 112.88 115.173 109.996 115.173C107.112 115.173 104.287 115.978 101.842 117.496C99.3974 119.014 97.4318 121.184 96.1697 123.759C95.9146 124.278 95.4619 124.676 94.9113 124.865C94.3607 125.053 93.7573 125.017 93.2338 124.763C92.7103 124.51 92.3096 124.06 92.1198 123.514C91.9301 122.967 91.9668 122.368 92.222 121.848C94.2536 117.67 97.717 114.346 101.992 112.472C99.804 110.81 98.1957 108.51 97.393 105.893C96.5904 103.277 96.6338 100.477 97.5173 97.8861C98.4007 95.2956 100.08 93.0451 102.318 91.4512C104.556 89.8572 107.242 89 109.996 89C112.751 89 115.436 89.8572 117.674 91.4512C119.913 93.0451 121.591 95.2956 122.475 97.8861C123.358 100.477 123.402 103.277 122.599 105.893C121.796 108.51 120.188 110.81 118 112.472C122.275 114.346 125.738 117.67 127.77 121.848ZM109.996 110.812C111.733 110.812 113.431 110.301 114.876 109.342C116.32 108.384 117.446 107.022 118.111 105.429C118.775 103.835 118.949 102.082 118.61 100.39C118.272 98.6982 117.435 97.1442 116.207 95.9246C114.978 94.7049 113.413 93.8743 111.71 93.5378C110.006 93.2013 108.24 93.374 106.635 94.0341C105.03 94.6942 103.658 95.812 102.693 97.2461C101.728 98.6803 101.213 100.366 101.213 102.091C101.216 104.403 102.142 106.62 103.788 108.255C105.435 109.89 107.667 110.81 109.996 110.812Z" fill="#0078D4"/>
<mask id="path-4-outside-1_851_9247" maskUnits="userSpaceOnUse" x="53" y="155.16" width="182" height="24" fill="black">
<rect fill="white" x="53" y="155.16" width="182" height="24"/>
<path fill-rule="evenodd" clip-rule="evenodd" d="M64.8136 158.16C59.946 158.16 56 162.106 56 166.974C56 171.841 59.946 175.787 64.8136 175.787H222.283C227.151 175.787 231.097 171.841 231.097 166.974C231.097 162.106 227.151 158.16 222.283 158.16H64.8136ZM127.684 168.736C126.71 168.736 125.921 167.947 125.921 166.974C125.921 166 126.71 165.211 127.684 165.211H159.413C160.386 165.211 161.175 166 161.175 166.974C161.175 167.947 160.386 168.736 159.413 168.736H127.684Z"/>
</mask>
<path fill-rule="evenodd" clip-rule="evenodd" d="M64.8136 158.16C59.946 158.16 56 162.106 56 166.974C56 171.841 59.946 175.787 64.8136 175.787H222.283C227.151 175.787 231.097 171.841 231.097 166.974C231.097 162.106 227.151 158.16 222.283 158.16H64.8136ZM127.684 168.736C126.71 168.736 125.921 167.947 125.921 166.974C125.921 166 126.71 165.211 127.684 165.211H159.413C160.386 165.211 161.175 166 161.175 166.974C161.175 167.947 160.386 168.736 159.413 168.736H127.684Z" fill="#BDBDBD"/>
<path d="M59 166.974C59 163.763 61.6028 161.16 64.8136 161.16V155.16C58.2891 155.16 53 160.449 53 166.974H59ZM64.8136 172.787C61.6028 172.787 59 170.185 59 166.974H53C53 173.498 58.2891 178.787 64.8136 178.787V172.787ZM222.283 172.787H64.8136V178.787H222.283V172.787ZM228.097 166.974C228.097 170.184 225.494 172.787 222.283 172.787V178.787C228.807 178.787 234.097 173.498 234.097 166.974H228.097ZM222.283 161.16C225.494 161.16 228.097 163.763 228.097 166.974H234.097C234.097 160.449 228.808 155.16 222.283 155.16V161.16ZM64.8136 161.16H222.283V155.16H64.8136V161.16ZM122.921 166.974C122.921 169.604 125.053 171.736 127.684 171.736V165.736C128.367 165.736 128.921 166.29 128.921 166.974H122.921ZM127.684 162.211C125.053 162.211 122.921 164.343 122.921 166.974H128.921C128.921 167.657 128.367 168.211 127.684 168.211V162.211ZM159.413 162.211H127.684V168.211H159.413V162.211ZM164.175 166.974C164.175 164.343 162.043 162.211 159.413 162.211V168.211C158.729 168.211 158.175 167.657 158.175 166.974H164.175ZM159.413 171.736C162.043 171.736 164.175 169.604 164.175 166.974H158.175C158.175 166.29 158.729 165.736 159.413 165.736V171.736ZM127.684 171.736H159.413V165.736H127.684V171.736Z" fill="white" mask="url(#path-4-outside-1_851_9247)"/>
<path d="M92.5298 136.488C92.198 136.891 91.7392 137.093 91.1532 137.093C90.6137 137.093 90.2014 136.938 89.9162 136.628C89.634 136.318 89.4899 135.864 89.4837 135.265V131.968H90.8277V135.219C90.8277 135.743 91.0664 136.005 91.5439 136.005C91.9996 136.005 92.3127 135.847 92.4833 135.53V131.968H93.8319V137H92.567L92.5298 136.488ZM97.571 135.609C97.571 135.445 97.4888 135.316 97.3245 135.223C97.1633 135.127 96.9028 135.042 96.5432 134.968C95.3465 134.717 94.7481 134.208 94.7481 133.442C94.7481 132.996 94.9326 132.624 95.3015 132.326C95.6735 132.025 96.1588 131.875 96.7571 131.875C97.3958 131.875 97.9058 132.025 98.2872 132.326C98.6716 132.627 98.8638 133.018 98.8638 133.498H97.5198C97.5198 133.306 97.4578 133.148 97.3338 133.024C97.2098 132.897 97.016 132.833 96.7525 132.833C96.5262 132.833 96.351 132.884 96.227 132.987C96.103 133.089 96.0409 133.219 96.0409 133.377C96.0409 133.526 96.1107 133.647 96.2502 133.74C96.3928 133.83 96.6316 133.909 96.9664 133.977C97.3012 134.042 97.5834 134.117 97.8128 134.2C98.5228 134.461 98.8778 134.912 98.8778 135.554C98.8778 136.013 98.6809 136.385 98.2872 136.67C97.8934 136.952 97.385 137.093 96.7618 137.093C96.3401 137.093 95.965 137.019 95.6363 136.87C95.3108 136.718 95.055 136.512 94.869 136.251C94.683 135.988 94.59 135.704 94.59 135.4H95.8642C95.8766 135.639 95.965 135.822 96.1293 135.949C96.2936 136.076 96.5137 136.14 96.7897 136.14C97.047 136.14 97.2408 136.092 97.371 135.995C97.5043 135.896 97.571 135.768 97.571 135.609ZM102.063 137.093C101.326 137.093 100.724 136.867 100.259 136.414C99.797 135.961 99.5661 135.358 99.5661 134.605V134.475C99.5661 133.969 99.6637 133.518 99.859 133.121C100.054 132.721 100.33 132.415 100.687 132.201C101.046 131.984 101.456 131.875 101.915 131.875C102.603 131.875 103.144 132.092 103.538 132.526C103.934 132.96 104.133 133.576 104.133 134.372V134.921H100.929C100.972 135.25 101.102 135.513 101.319 135.712C101.539 135.91 101.817 136.009 102.152 136.009C102.67 136.009 103.074 135.822 103.366 135.447L104.026 136.186C103.824 136.471 103.552 136.695 103.207 136.856C102.863 137.014 102.482 137.093 102.063 137.093ZM101.91 132.963C101.643 132.963 101.426 133.053 101.259 133.233C101.095 133.413 100.989 133.67 100.943 134.005H102.812V133.898C102.806 133.6 102.725 133.371 102.57 133.21C102.415 133.045 102.195 132.963 101.91 132.963ZM107.728 133.228C107.545 133.204 107.384 133.191 107.244 133.191C106.736 133.191 106.402 133.363 106.244 133.707V137H104.9V131.968H106.17L106.207 132.568C106.477 132.106 106.85 131.875 107.328 131.875C107.477 131.875 107.616 131.895 107.746 131.936L107.728 133.228ZM112.29 135.605H109.844L109.379 137H107.895L110.416 130.229H111.709L114.243 137H112.76L112.29 135.605ZM110.22 134.475H111.913L111.062 131.94L110.22 134.475ZM114.592 134.447C114.592 133.675 114.775 133.053 115.141 132.582C115.51 132.111 116.006 131.875 116.629 131.875C117.181 131.875 117.61 132.064 117.917 132.442L117.973 131.968H119.191V136.833C119.191 137.273 119.091 137.656 118.889 137.981C118.691 138.307 118.41 138.555 118.047 138.725C117.685 138.896 117.26 138.981 116.773 138.981C116.404 138.981 116.045 138.907 115.694 138.758C115.344 138.612 115.079 138.423 114.899 138.191L115.494 137.372C115.829 137.747 116.235 137.935 116.713 137.935C117.069 137.935 117.347 137.839 117.545 137.646C117.744 137.457 117.843 137.188 117.843 136.837V136.567C117.533 136.918 117.125 137.093 116.62 137.093C116.015 137.093 115.525 136.857 115.15 136.386C114.778 135.912 114.592 135.284 114.592 134.503V134.447ZM115.936 134.545C115.936 135 116.027 135.358 116.21 135.619C116.393 135.876 116.644 136.005 116.964 136.005C117.373 136.005 117.666 135.851 117.843 135.544V133.428C117.663 133.121 117.373 132.968 116.973 132.968C116.651 132.968 116.396 133.1 116.21 133.363C116.027 133.627 115.936 134.021 115.936 134.545ZM122.544 137.093C121.807 137.093 121.205 136.867 120.74 136.414C120.278 135.961 120.047 135.358 120.047 134.605V134.475C120.047 133.969 120.145 133.518 120.34 133.121C120.535 132.721 120.811 132.415 121.168 132.201C121.528 131.984 121.937 131.875 122.396 131.875C123.084 131.875 123.625 132.092 124.019 132.526C124.416 132.96 124.614 133.576 124.614 134.372V134.921H121.41C121.453 135.25 121.583 135.513 121.8 135.712C122.021 135.91 122.298 136.009 122.633 136.009C123.151 136.009 123.555 135.822 123.847 135.447L124.507 136.186C124.305 136.471 124.033 136.695 123.689 136.856C123.344 137.014 122.963 137.093 122.544 137.093ZM122.391 132.963C122.124 132.963 121.907 133.053 121.74 133.233C121.576 133.413 121.47 133.67 121.424 134.005H123.293V133.898C123.287 133.6 123.206 133.371 123.051 133.21C122.896 133.045 122.676 132.963 122.391 132.963ZM126.618 131.968L126.66 132.549C127.02 132.1 127.502 131.875 128.107 131.875C128.64 131.875 129.037 132.032 129.297 132.345C129.558 132.658 129.691 133.126 129.697 133.749V137H128.353V133.782C128.353 133.497 128.291 133.29 128.167 133.163C128.043 133.033 127.837 132.968 127.548 132.968C127.17 132.968 126.887 133.129 126.697 133.452V137H125.353V131.968H126.618ZM132.329 130.731V131.968H133.19V132.954H132.329V135.465C132.329 135.651 132.365 135.785 132.436 135.865C132.508 135.946 132.644 135.986 132.845 135.986C132.994 135.986 133.126 135.975 133.241 135.954V136.972C132.977 137.053 132.706 137.093 132.427 137.093C131.484 137.093 131.004 136.617 130.985 135.665V132.954H130.25V131.968H130.985V130.731H132.329Z" fill="#0078D4"/>
<rect x="151" y="69" width="56" height="56" rx="8" fill="#0078D4"/>
<path d="M196.77 111.848C196.899 112.106 196.976 112.386 196.995 112.674C197.014 112.961 196.976 113.249 196.883 113.521C196.79 113.794 196.643 114.045 196.451 114.261C196.26 114.477 196.027 114.653 195.766 114.78C195.506 114.906 195.223 114.979 194.933 114.996C194.644 115.013 194.354 114.973 194.08 114.878C193.806 114.783 193.554 114.635 193.339 114.443C193.123 114.251 192.947 114.018 192.822 113.759C191.56 111.184 189.595 109.014 187.15 107.496C184.705 105.978 181.88 105.173 178.996 105.173C176.112 105.173 173.287 105.978 170.842 107.496C168.397 109.014 166.432 111.184 165.17 113.759C164.915 114.278 164.462 114.676 163.911 114.865C163.361 115.053 162.757 115.017 162.234 114.763C161.71 114.51 161.31 114.06 161.12 113.514C160.93 112.967 160.967 112.368 161.222 111.848C163.254 107.67 166.717 104.346 170.992 102.472C168.804 100.81 167.196 98.5096 166.393 95.8933C165.59 93.2769 165.634 90.4766 166.517 87.8861C167.401 85.2956 169.08 83.0451 171.318 81.4512C173.556 79.8572 176.242 79 178.996 79C181.751 79 184.436 79.8572 186.674 81.4512C188.913 83.0451 190.591 85.2956 191.475 87.8861C192.358 90.4766 192.402 93.2769 191.599 95.8933C190.796 98.5096 189.188 100.81 187 102.472C191.275 104.346 194.738 107.67 196.77 111.848ZM178.996 100.812C180.733 100.812 182.431 100.301 183.876 99.3425C185.32 98.3842 186.446 97.0222 187.111 95.4286C187.775 93.8351 187.949 92.0816 187.61 90.3899C187.272 88.6982 186.435 87.1442 185.207 85.9246C183.978 84.7049 182.413 83.8743 180.71 83.5378C179.006 83.2013 177.24 83.374 175.635 84.0341C174.03 84.6942 172.658 85.812 171.693 87.2461C170.728 88.6803 170.213 90.3664 170.213 92.0912C170.216 94.4034 171.142 96.6201 172.788 98.2551C174.435 99.89 176.667 100.81 178.996 100.812Z" fill="white"/>
<path fill-rule="evenodd" clip-rule="evenodd" d="M139 36C139 31.0294 143.029 27 148 27H276C280.971 27 285 31.0294 285 36V135C285 139.971 280.971 144 276 144H148C143.029 144 139 139.971 139 135V36ZM180 40.5C180 38.0147 182.015 36 184.5 36H273.5C275.985 36 278 38.0147 278 40.5C278 42.9853 275.985 45 273.5 45H184.5C182.015 45 180 42.9853 180 40.5ZM167 46C170.314 46 173 43.3137 173 40C173 36.6863 170.314 34 167 34C163.686 34 161 36.6863 161 40C161 43.3137 163.686 46 167 46ZM156 40C156 43.3137 153.314 46 150 46C146.686 46 144 43.3137 144 40C144 36.6863 146.686 34 150 34C153.314 34 156 36.6863 156 40ZM281 53H143V132H281V53Z" fill="#0078D4"/>
</svg>
