<svg width="247" height="64" viewBox="0 0 247 64" fill="none" xmlns="http://www.w3.org/2000/svg">
<path d="M170.508 42.4535L160.947 30.5762H151.29V43.2206H149.951C149.524 43.2075 149.119 43.0318 148.817 42.7294C148.515 42.427 148.34 42.0206 148.327 41.5931V13.3332C148.343 12.9326 148.515 12.5543 148.805 12.2787C149.082 11.9881 149.462 11.8179 149.863 11.8047H163.344C164.564 11.8083 165.77 12.069 166.883 12.5699C167.98 13.013 168.961 13.7011 169.752 14.5818C170.517 15.444 171.283 16.4015 171.76 17.5511C172.221 18.6753 172.449 19.8818 172.43 21.0971C172.434 22.2418 172.24 23.3784 171.857 24.4565C171.491 25.4965 170.904 26.4442 170.135 27.2336C169.467 28.082 168.617 28.7694 167.649 29.2455C166.684 29.8091 165.631 30.0947 164.579 30.2813L174.904 43.1179H172.134C171.56 43.3158 170.987 43.0283 170.508 42.4535ZM151.385 27.6069H163.241C164.092 27.5957 164.934 27.4333 165.728 27.1272C166.485 26.8284 167.169 26.3709 167.734 25.7853C168.319 25.2187 168.775 24.5334 169.074 23.7753C169.455 23.0082 169.552 22.146 169.552 21.2838C169.541 20.4314 169.379 19.5878 169.074 18.7922C168.692 18.027 168.308 17.357 167.734 16.7822C167.169 16.1967 166.485 15.7391 165.728 15.4403C164.934 15.1343 164.092 14.9719 163.241 14.9606H151.385V27.6069Z" fill="white"/>
<path d="M200.051 13.4284C200.045 13.7567 199.912 14.07 199.681 14.3023C199.449 14.5345 199.136 14.6675 198.808 14.6732H190.203V43.228H188.865C188.438 43.2154 188.032 43.0399 187.73 42.7375C187.428 42.435 187.252 42.0284 187.239 41.6006V14.6732H178.922C178.495 14.6606 178.089 14.4851 177.787 14.1827C177.484 13.8802 177.309 13.4736 177.296 13.0458C177.302 12.7181 177.436 12.4057 177.667 12.1743C177.899 11.9429 178.211 11.8104 178.538 11.8047H198.33C199.382 11.8047 200.051 12.5661 200.051 13.4284Z" fill="white"/>
<path d="M230.551 38.1441C230.709 38.3166 230.83 38.5197 230.906 38.7407C230.982 38.9617 231.013 39.1961 230.995 39.4293C230.978 39.6626 230.913 39.8898 230.804 40.0969C230.696 40.3041 230.546 40.4868 230.365 40.6338C227.688 42.5505 224.343 43.508 220.23 43.508C217.956 43.5317 215.694 43.1753 213.537 42.4535C211.673 41.7688 209.978 40.6913 208.565 39.2938C207.228 37.9519 206.175 36.2274 205.412 34.3126C204.646 32.3007 204.359 30.0965 204.359 27.6069C204.343 25.3291 204.699 23.064 205.412 20.9012C206.117 19.0159 207.189 17.2897 208.565 15.8229C209.905 14.4829 211.626 13.4284 213.537 12.6613C215.448 11.8943 217.739 11.618 220.224 11.618C223.763 11.618 226.822 12.3832 229.309 13.8203C229.478 13.9162 229.625 14.0481 229.738 14.2069C229.851 14.3656 229.928 14.5473 229.964 14.7391C229.999 14.9309 229.992 15.1282 229.944 15.3171C229.895 15.5059 229.805 15.6818 229.681 15.8322C229.449 16.1555 229.108 16.3827 228.72 16.471C228.333 16.5594 227.927 16.5027 227.578 16.3119C225.57 15.1622 223.087 14.5874 220.127 14.5874C215.921 14.5874 212.676 15.737 210.376 17.9468C208.176 20.149 207.023 23.4058 207.023 27.6218C207.023 31.8378 208.17 35.0871 210.376 37.392C212.574 39.5962 215.824 40.7514 220.127 40.7514C221.98 40.7764 223.823 40.4849 225.578 39.8892C226.82 39.5047 227.873 38.8347 228.828 38.1647C229.066 37.9552 229.372 37.8397 229.689 37.8397C230.005 37.8397 230.311 37.9552 230.549 38.1647L230.551 38.1441Z" fill="white"/>
<path d="M87.4226 22.6295C86.0526 22.613 84.6935 22.8758 83.428 23.402C82.1625 23.9281 81.017 24.7067 80.0611 25.6902C79.0785 26.6475 78.3005 27.795 77.7744 29.063C77.2483 30.3309 76.985 31.6929 77.0007 33.066C76.9851 34.4393 77.2484 35.8015 77.7745 37.0697C78.3006 38.338 79.0786 39.4858 80.0611 40.4436C81.0169 41.4274 82.1623 42.2064 83.4278 42.7332C84.6933 43.26 86.0524 43.5236 87.4226 43.5081C90.4812 43.5081 92.968 42.4536 95.071 40.3465L94.976 42.3584C94.881 43.3158 95.3485 43.7003 96.3134 43.7003C97.2783 43.7003 97.6527 43.2206 97.6527 42.3584V33.4542C97.6527 30.58 96.6003 28.0885 94.5941 25.9888C92.7761 23.6783 90.2912 22.6295 87.4226 22.6295ZM92.7761 38.6257C91.3122 39.9546 89.3977 40.6741 87.4226 40.6376C85.3196 40.6376 83.5109 39.9676 81.9723 38.4354C80.4337 36.9031 79.7743 35.076 79.7743 32.9745C79.7546 31.9679 79.9491 30.9686 80.3448 30.0431C80.7404 29.1176 81.3283 28.2872 82.0691 27.6069C83.5984 26.0728 85.3196 25.3076 87.4226 25.3076C89.5257 25.3076 91.3344 26.0728 92.7761 27.7021C94.3073 29.3314 95.071 31.1511 95.071 33.2582C95.071 35.4623 94.3073 37.1868 92.7761 38.622V38.6257Z" fill="white" stroke="white" stroke-width="1.24212" stroke-miterlimit="10"/>
<path d="M113.62 22.5286C110.855 22.5335 108.205 23.6362 106.249 25.5952C104.294 27.5541 103.194 30.2096 103.189 32.98V52.7052C103.189 53.5656 103.667 54.0452 104.528 54.0452C105.389 54.0452 105.865 53.5656 105.865 52.7052V39.8686C107.873 42.1661 110.455 43.228 113.516 43.228C116.479 43.228 118.869 42.2706 120.877 40.2587C121.86 39.3013 122.637 38.1537 123.163 36.8858C123.689 35.6178 123.952 34.2559 123.936 32.8829C123.952 31.5097 123.689 30.1476 123.163 28.8793C122.637 27.6111 121.86 26.4632 120.877 25.5054C118.879 23.583 116.489 22.5286 113.62 22.5286ZM118.974 38.3345C117.452 39.8686 115.723 40.5461 113.62 40.5461C111.517 40.5461 109.699 39.8761 108.17 38.342C106.64 36.8078 105.972 34.9826 105.972 32.8829C105.957 31.8862 106.144 30.8967 106.522 29.9745C106.9 29.0522 107.46 28.2163 108.17 27.5173C109.7 25.9844 111.516 25.2179 113.62 25.2179C114.624 25.1994 115.62 25.3948 116.543 25.7911C117.466 26.1875 118.295 26.7759 118.974 27.5173C120.503 29.0514 121.268 30.774 121.268 32.8829C121.265 33.8985 121.06 34.9033 120.666 35.8391C120.272 36.7749 119.697 37.623 118.974 38.3345Z" fill="white" stroke="white" stroke-width="1.24212" stroke-miterlimit="10"/>
<path d="M131.117 14.3858C132.264 14.3858 132.838 13.8109 132.838 12.6613V12.5661C132.838 11.4164 132.264 10.8416 131.117 10.8416C129.969 10.8416 129.396 11.4164 129.396 12.5661V12.6613C129.396 13.8109 129.969 14.3858 131.117 14.3858Z" fill="white" stroke="white" stroke-width="1.24212" stroke-miterlimit="10"/>
<path d="M140.104 40.6339C137.904 40.6339 136.088 39.9639 134.654 38.4317C133.22 36.8994 132.454 35.1749 132.454 32.9708V23.9658C132.454 23.1035 131.977 22.6257 131.117 22.6257C130.256 22.6257 129.777 23.1035 129.777 23.9658V33.066C129.777 36.0353 130.735 38.4317 132.741 40.4436C134.747 42.4555 137.236 43.4129 140.104 43.4129C140.965 43.4129 141.442 42.9332 141.442 42.071C141.442 41.1061 140.965 40.6339 140.104 40.6339Z" fill="white" stroke="white" stroke-width="1.24212" stroke-miterlimit="10"/>
<mask id="mask0_813_6374" style="mask-type:alpha" maskUnits="userSpaceOnUse" x="0" y="4" width="62" height="57">
<path d="M52.9726 19.2183C53.41 12.2934 47.5785 6.02456 39.6331 5.07694C31.6877 4.05643 24.4713 8.79451 23.2321 15.5736C7.85154 13.7513 -0.822782 25.9974 1.14534 36.6398C2.31164 42.9816 6.53946 47.7196 12.5896 50.1251C13.027 50.2709 13.1728 50.6354 12.9541 51.1456C12.298 52.5306 8.94494 60.1844 8.94494 60.1844L24.3984 53.3324C25.0544 56.4669 28.9907 58.7994 33.6558 58.5808C38.4668 58.435 42.8404 55.5921 43.0591 52.239C45.0272 52.3848 54.2118 52.0204 59.1686 43.5647C63.9066 35.4006 61.1367 24.8311 52.9726 19.2183Z" fill="#545454"/>
</mask>
<g mask="url(#mask0_813_6374)">
<path d="M52.5506 18.5698C52.988 11.645 47.1565 5.37612 39.2111 4.4285C31.2657 3.40799 24.0493 8.14607 22.8101 14.9252C7.42954 13.1028 -1.24478 25.3489 0.723345 35.9914C1.88964 42.3331 6.11746 47.0712 12.1676 49.4767C12.605 49.6225 12.7508 49.9869 12.5321 50.4972C11.876 51.8822 8.52295 59.536 8.52295 59.536L23.9764 52.684C24.6324 55.8184 28.5687 58.151 33.2338 57.9323C38.0448 57.7865 42.4184 54.9437 42.6371 51.5906C44.6052 51.7364 53.7898 51.3719 58.7466 42.9163C63.4846 34.7522 60.7147 24.1826 52.5506 18.5698Z" fill="#545454"/>
<path d="M39.6981 55.7422C39.6981 65.5275 31.9274 73.2982 22.1421 73.2982C12.3568 73.2982 4.58612 65.5275 4.58612 55.7422C4.58612 45.9569 12.3568 38.1862 22.1421 38.1862C31.9274 38.1862 39.6981 45.9569 39.6981 55.7422Z" fill="#FF6600"/>
<path d="M74.1783 31.2829C74.1783 41.0682 66.4077 48.8389 56.6224 48.8389C46.8371 48.8389 39.0664 41.0682 39.0664 31.2829C39.0664 21.4976 46.8371 13.7269 56.6224 13.7269C66.4077 13.7269 74.1783 21.4976 74.1783 31.2829Z" fill="#FBC400"/>
<path d="M31.4491 30.9872C31.4491 40.7725 23.6785 48.5432 13.8931 48.5432C4.10784 48.5432 -3.66284 40.7725 -3.66284 30.9872C-3.66284 21.2019 4.10784 13.4312 13.8931 13.4312C23.6785 13.4312 31.4491 21.2019 31.4491 30.9872Z" fill="#4C90F6"/>
<path d="M66.5156 55.7422C66.5156 65.5275 58.7449 73.2982 48.9596 73.2982C39.1743 73.2982 31.4037 65.5275 31.4037 55.7422C31.4037 45.9569 39.1743 38.1862 48.9596 38.1862C58.7449 38.1862 66.5156 45.9569 66.5156 55.7422Z" fill="#3BB15D"/>
<path d="M52.9589 15.3683C52.9589 25.1536 45.1882 32.9243 35.4029 32.9243C25.6176 32.9243 17.8469 25.1536 17.8469 15.3683C17.8469 5.58296 25.6176 -2.18772 35.4029 -2.18772C44.9004 -2.18772 52.9589 5.58296 52.9589 15.3683Z" fill="#ED4D3C"/>
<g opacity="0.5">
<path opacity="0.5" d="M39.1148 31.283C39.1148 31.5708 39.1148 32.1464 39.1148 32.4342C46.8855 30.7074 52.6416 23.8001 52.6416 15.4538C52.6416 15.166 52.6416 14.5904 52.6416 14.3026C45.1587 16.0294 39.1148 22.9367 39.1148 31.283Z" fill="#FC0007"/>
</g>
<g opacity="0.5">
<path opacity="0.5" d="M41.7044 39.7872C44.5824 44.9677 50.3385 48.7091 56.958 48.7091C59.5482 48.7091 62.1384 48.1335 64.4409 46.9823C61.5628 41.8018 55.8068 38.0604 49.1873 38.0604C46.3093 38.3482 43.719 38.9238 41.7044 39.7872Z" fill="#1CD306"/>
</g>
<g opacity="0.5">
<path opacity="0.5" d="M31.4491 55.7421C31.4491 60.0592 32.8881 63.8006 35.4783 66.9664C38.0686 63.8006 39.5076 60.0592 39.5076 55.7421C39.5076 51.4251 38.0686 47.6836 35.4783 44.5178C33.1759 47.3958 31.4491 51.4251 31.4491 55.7421Z" fill="#0F7504"/>
</g>
<g opacity="0.5">
<path opacity="0.5" d="M7.1499 46.8881C9.16452 47.7515 11.4669 48.3271 14.0572 48.3271C20.3888 48.3271 26.1449 44.8735 29.0229 39.6931C27.0083 38.8296 24.7059 38.254 22.1157 38.254C15.784 38.254 10.0279 41.7077 7.1499 46.8881Z" fill="#0C5E87"/>
</g>
<g opacity="0.5">
<path opacity="0.5" d="M18.0614 13.7827C18.0614 14.3584 18.0614 14.6462 18.0614 15.2218C18.0614 23.5681 23.8175 30.4753 31.5882 32.2021C31.5882 31.6265 31.5882 31.3387 31.5882 30.7631C31.5882 22.7046 25.8321 15.7974 18.0614 13.7827Z" fill="#6B0001"/>
</g>
</g>
<path d="M37.4928 5.70033C38.1852 5.70033 38.8083 5.76957 39.5007 5.83881C47.0478 6.80816 52.5177 12.6935 52.1715 19.2712C59.9263 24.5334 62.5574 34.6423 57.9876 42.3971C53.764 49.6672 46.2169 50.6366 43.4473 50.6366C43.1704 50.6366 42.8934 50.6366 42.755 50.6366C42.6165 53.8216 38.3929 56.5219 33.8231 56.6604C33.6846 56.6604 33.4769 56.6604 33.3384 56.6604C29.1148 56.6604 25.6529 54.514 25.0297 51.6059L10.351 58.1144C10.351 58.1144 13.6052 50.8443 14.1592 49.5288C14.3669 49.0441 14.2284 48.6979 13.813 48.5594C8.0661 46.2053 4.05023 41.774 2.9424 35.7501C1.21142 26.4029 8.27382 15.6708 21.0138 15.6708C21.9139 15.6708 22.8833 15.74 23.9219 15.8785C25.0297 9.92392 30.7766 5.70033 37.4928 5.70033ZM37.4928 3C30.3611 3 24.1988 7.08511 21.9139 12.9704C21.637 12.9704 21.2908 12.9704 21.0138 12.9704C14.3669 12.9704 8.55078 15.6015 4.60414 20.3098C0.865222 24.8104 -0.72728 30.7649 0.311309 36.3041C1.41914 42.3279 5.22729 47.3131 10.9049 50.2904C9.79708 52.8522 7.99686 56.8681 7.85838 57.0758C7.37371 58.1144 7.65067 59.2915 8.4123 60.1223C8.96621 60.6763 9.6586 60.9532 10.351 60.9532C10.6972 60.9532 11.1126 60.884 11.4588 60.7455L23.7834 55.2756C25.7221 57.8375 29.3225 59.4992 33.3384 59.4992C33.5461 59.4992 33.7538 59.4992 33.8923 59.4992C38.9468 59.2915 43.2396 56.7989 44.8321 53.4061C48.2248 53.1292 55.8412 51.6059 60.411 43.9204C65.3962 35.404 62.9728 24.3257 54.9411 18.0249C54.5256 10.5471 48.1556 4.17707 39.8469 3.13848C39.0853 3.06924 38.2544 3 37.4928 3Z" fill="white"/>
<g filter="url(#filter0_d_813_6374)">
<path d="M43.4473 22.3178C42.2703 22.3178 41.1625 22.4563 40.1239 22.8025C35.5541 24.2565 32.646 28.3416 32.646 33.1191C32.646 34.1577 33.1999 34.7116 34.2385 34.7116H50.9252C50.7867 35.3348 50.579 36.0272 50.2328 36.5811C48.848 39.3507 46.5631 40.7354 43.4473 40.7354C42.0626 40.7354 40.747 40.32 39.4315 39.5584C39.0853 39.3507 38.7391 39.2122 38.4621 39.2122C37.7005 39.2122 36.9389 40.2508 36.9389 41.0124C36.9389 41.4971 37.2158 41.9125 37.7697 42.2587C39.5007 43.3665 41.4394 43.9204 43.5166 43.9204C46.4246 43.9204 49.0557 42.8819 51.2021 40.7354C53.2793 38.6583 54.3871 36.0272 54.3871 33.0499C54.3871 31.042 53.8332 29.1725 52.8639 27.4415C50.6482 24.0488 47.5325 22.3178 43.4473 22.3178ZM35.9695 31.8728C36.5234 28.9648 38.2544 27.0953 41.1625 26.1952C41.8548 25.9183 42.6165 25.849 43.4473 25.849C44.7629 25.849 45.8707 26.126 46.9093 26.6799C49.0557 27.7877 50.3713 29.5187 50.8559 31.9421L35.9695 31.8728Z" fill="white"/>
<path d="M22.8833 22.8025C21.8447 22.4563 20.7369 22.3178 19.5598 22.3178C15.4747 22.3178 12.3589 24.0488 10.2817 27.5108C9.24316 29.2417 8.75848 31.1112 8.75848 33.1191C8.75848 36.0964 9.79707 38.6583 11.9435 40.8047C14.0899 42.8819 16.6518 43.9897 19.629 43.9897C21.7062 43.9897 23.6449 43.4358 25.3759 42.3279C25.9298 41.9817 26.2068 41.5663 26.2068 41.0816C26.2068 40.32 25.4451 39.2814 24.6835 39.2814C24.4065 39.2814 23.9911 39.4199 23.7142 39.6276C22.3986 40.3892 21.0831 40.8047 19.6983 40.8047C16.5825 40.8047 14.2976 39.4199 12.9128 36.6503C12.6359 36.0964 12.4282 35.4733 12.2204 34.7809H28.9071C29.9457 34.7809 30.4996 34.227 30.4996 33.1191C30.3611 28.3416 27.4531 24.2565 22.8833 22.8025ZM12.1512 31.8728C12.6359 29.4495 13.9514 27.7185 16.0978 26.6106C17.1364 26.0567 18.2443 25.7798 19.5598 25.7798C20.3907 25.7798 21.1523 25.9182 21.8447 26.126C24.6835 27.0261 26.4837 28.8955 27.0376 31.8036L12.1512 31.8728Z" fill="white"/>
</g>
<defs>
<filter id="filter0_d_813_6374" x="4.69202" y="18.2513" width="53.7616" height="29.8048" filterUnits="userSpaceOnUse" color-interpolation-filters="sRGB">
<feFlood flood-opacity="0" result="BackgroundImageFix"/>
<feColorMatrix in="SourceAlpha" type="matrix" values="0 0 0 0 0 0 0 0 0 0 0 0 0 0 0 0 0 0 127 0" result="hardAlpha"/>
<feOffset/>
<feGaussianBlur stdDeviation="2.03323"/>
<feComposite in2="hardAlpha" operator="out"/>
<feColorMatrix type="matrix" values="0 0 0 0 0 0 0 0 0 0 0 0 0 0 0 0 0 0 0.5 0"/>
<feBlend mode="normal" in2="BackgroundImageFix" result="effect1_dropShadow_813_6374"/>
<feBlend mode="normal" in="SourceGraphic" in2="effect1_dropShadow_813_6374" result="shape"/>
</filter>
</defs>
</svg>
