<svg width="24" height="29" viewBox="0 0 24 29" fill="none" xmlns="http://www.w3.org/2000/svg">
<g clip-path="url(#clip0_709:9031)">
<path d="M20.0095 27.84C18.4646 29.3654 16.7601 29.1276 15.1354 28.4084C13.408 27.6747 11.8289 27.6283 10.0047 28.4084C7.73298 29.406 6.52728 29.116 5.15911 27.84C-2.56536 19.749 -1.42521 7.42398 7.35388 6.95998C9.4831 7.07598 10.9738 8.15768 12.228 8.24758C14.0921 7.86188 15.8764 6.75698 17.8717 6.90198C20.2688 7.09918 22.0617 8.06198 23.2589 9.79328C18.3278 12.8093 19.4964 19.4213 24.0256 21.2773C23.1192 23.6988 21.9563 26.0913 20.0066 27.8603L20.0095 27.84ZM12.057 6.87298C11.8261 3.27699 14.6907 0.318991 17.9857 0.0289917C18.4389 4.17599 14.2802 7.27898 12.057 6.87298Z" fill="black"/>
</g>
<defs>
<clipPath id="clip0_709:9031">
<rect width="24" height="29" fill="white"/>
</clipPath>
</defs>
</svg>
