<svg width="40" height="40" viewBox="0 0 40 40" fill="none" xmlns="http://www.w3.org/2000/svg">
<g clip-path="url(#clip0_808_5961)">
<path d="M19.6757 7.52606C18.655 7.52606 17.6572 7.82908 16.8086 8.39679C15.9599 8.96451 15.2984 9.77142 14.9078 10.7155C14.5173 11.6596 14.4151 12.6984 14.6142 13.7006C14.8133 14.7028 15.3048 15.6234 16.0265 16.346C16.7483 17.0686 17.6678 17.5606 18.6689 17.76C19.67 17.9594 20.7076 17.857 21.6506 17.466C22.5936 17.0749 23.3996 16.4127 23.9666 15.5631C24.5337 14.7134 24.8364 13.7145 24.8364 12.6927C24.8347 11.3229 24.2905 10.0097 23.323 9.04113C22.3556 8.07256 21.0439 7.52769 19.6757 7.52606Z" fill="#478AFF"/>
<path d="M27.0855 7.98417C28.3839 7.98417 29.4363 6.93047 29.4363 5.63067C29.4363 4.33086 28.3839 3.27716 27.0855 3.27716C25.7872 3.27716 24.7347 4.33086 24.7347 5.63067C24.7347 6.93047 25.7872 7.98417 27.0855 7.98417Z" fill="#478AFF"/>
<path d="M29.9801 7.99651L29.8815 7.78059L29.7275 7.95949C29.3421 8.3973 28.8547 8.73316 28.3087 8.93729L28.1546 8.99281L28.2162 9.14704C29.0464 11.1459 29.1515 13.3726 28.5132 15.4409C27.875 17.5092 26.5336 19.2886 24.7219 20.4703C22.9102 21.652 20.7424 22.1614 18.5948 21.9102C16.4471 21.659 14.455 20.6631 12.9641 19.0951C11.4733 17.5272 10.5777 15.4862 10.4328 13.3263C10.2879 11.1664 10.9028 9.02388 12.1709 7.27044C13.439 5.517 15.2801 4.2633 17.375 3.72686C19.4698 3.19042 21.6861 3.40509 23.6394 4.33362L23.7842 4.40302L23.8474 4.24879C24.0776 3.71272 24.4363 3.24178 24.8918 2.87771L25.0767 2.72348L24.8656 2.61398C23.2623 1.77971 21.4811 1.34633 19.6742 1.35087C17.2277 1.35122 14.8471 2.14474 12.8888 3.61268C10.9304 5.08062 9.49949 7.14403 8.81025 9.49409C8.12102 11.8442 8.2105 14.3545 9.06531 16.6494C9.92012 18.9443 11.4943 20.9003 13.5522 22.2248C15.6101 23.5492 18.0411 24.1708 20.4814 23.9966C22.9216 23.8224 25.2399 22.8616 27.0893 21.2582C28.9386 19.6548 30.2195 17.4949 30.7404 15.1017C31.2612 12.7086 30.9939 10.211 29.9786 7.98263L29.9801 7.99651Z" fill="#478AFF"/>
<path fill-rule="evenodd" clip-rule="evenodd" d="M7.5294 27.3617C8.14791 27.1127 8.8099 26.9899 9.47647 27.0006C11.9109 27.0006 14.5499 28.7352 14.5499 32.1027C14.5499 35.0437 12.2807 37.1683 9.51133 37.1683C6.45242 37.1683 4.39394 34.7979 4.39394 32.0435C4.3892 31.3761 4.51777 30.7145 4.77209 30.0975C5.02641 29.4806 5.40134 28.9207 5.87485 28.4509C6.34836 27.9811 6.9109 27.6108 7.5294 27.3617ZM12.3414 32.089C12.3414 30.1831 10.9643 28.9997 9.50894 28.9978C7.87377 28.9999 6.61915 30.3149 6.61915 32.0738C6.61915 33.8737 7.88486 35.1727 9.49921 35.1727C10.968 35.1727 12.3414 33.9556 12.3414 32.089ZM17.7088 28.2723C18.0014 27.9976 19.2777 27.0006 20.93 27.0006C23.9085 27.0006 25.006 29.0493 25.0136 31.5958V36.9406H22.6641V31.3636C22.6641 30.0585 21.8046 28.9628 20.6601 28.9628C19.5157 28.9628 17.9514 29.9128 17.9514 31.0601V36.9406H15.6019V27.2282H17.5573L17.7088 28.2723ZM3.34952 27.2283H1V36.9406H3.34952V27.2283ZM28.7046 27.2283H26.355V36.9406H28.7046V27.2283ZM34.8724 35.1757C33.1065 35.1757 31.9393 33.7917 31.9393 32.0844C31.9393 30.3772 33.1065 28.9931 34.8724 28.9931C36.3792 28.9931 37.2978 30.4546 37.2978 30.4546L39 29.3149C38.5074 28.5561 37.9389 28.1008 37.1628 27.6304C36.493 27.2236 35.7256 27.0059 34.9422 27.0006C32.003 27.0006 29.7581 29.2102 29.7444 32.0844C29.7581 34.9587 32.003 37.1682 34.9422 37.1682C35.7225 37.1613 36.4866 36.9437 37.1537 36.5385C37.9298 36.0695 38.4983 35.6127 38.9909 34.854L37.2887 33.7143C37.2887 33.7143 36.3792 35.1757 34.8724 35.1757Z" fill="#478AFF"/>
</g>
<defs>
<clipPath id="clip0_808_5961">
<rect width="40" height="40" fill="white"/>
</clipPath>
</defs>
</svg>
