<svg width="20" height="20" viewBox="0 0 20 20" fill="none" xmlns="http://www.w3.org/2000/svg">
<path fill-rule="evenodd" clip-rule="evenodd" d="M2.62896 0.300106C2.04837 0.485472 1.75973 0.668324 1.26519 1.16401C0.968942 1.46095 0.723736 1.81678 0.594147 2.13787L0.390048 2.64388L0.366047 9.66039C0.342493 16.545 0.345538 16.6862 0.525726 17.1688C0.881355 18.1216 1.61097 18.8506 2.53941 19.1809C2.95361 19.3283 3.51047 19.3402 9.9726 19.3402H16.958L17.5401 19.0622C18.6171 18.5478 19.243 17.6962 19.4303 16.4902C19.4836 16.1469 19.5078 13.3344 19.4918 9.32934C19.4656 2.74298 19.4653 2.73293 19.2658 2.23994C18.973 1.51652 18.3666 0.869219 17.6505 0.515813L17.0515 0.220215L10.0194 0.20298C4.5307 0.189515 2.90856 0.21079 2.62896 0.300106ZM16.9933 1.92576C17.1605 2.0245 17.4225 2.2604 17.5754 2.44999L17.8536 2.79469L17.881 4.67213L17.9084 6.54966L9.91045 6.52668L1.91251 6.50379V4.75337C1.91251 3.05258 1.91887 2.99163 2.1364 2.60358C2.36844 2.18976 2.75345 1.90493 3.24153 1.7859C3.39718 1.74793 6.48661 1.72352 10.1069 1.7316C16.5145 1.74587 16.6974 1.75098 16.9933 1.92576ZM3.764 3.6146C3.48924 3.90778 3.50106 4.42384 3.78917 4.71252C4.27206 5.19663 5.09177 4.85516 5.09177 4.16989C5.09177 3.491 4.2211 3.12691 3.764 3.6146ZM7.05422 3.52197C6.8615 3.67026 6.70379 3.98246 6.70379 4.21576C6.70379 4.51316 7.17557 4.9329 7.5098 4.9329C7.8433 4.9329 8.31581 4.51334 8.31581 4.2172C8.31581 3.95706 8.08582 3.53076 7.90877 3.46263C7.67297 3.37197 7.20718 3.40428 7.05422 3.52197ZM10.1477 3.62726C9.66471 4.11128 10.0054 4.9329 10.6891 4.9329C11.3664 4.9329 11.7296 4.0602 11.2431 3.60204C10.9506 3.32664 10.4357 3.33849 10.1477 3.62726ZM17.8964 12.3161C17.8946 16.1634 17.8822 16.4946 17.7286 16.8339C17.5349 17.2614 17.1985 17.5519 16.7444 17.6841C16.5274 17.7472 14.2008 17.7694 9.68978 17.7514L2.95898 17.7245L2.61481 17.4494C2.42558 17.2981 2.19014 17.0153 2.09162 16.8211C1.92164 16.4858 1.91117 16.2618 1.88663 12.435C1.8723 10.2169 1.88117 8.34865 1.90615 8.2833C1.94341 8.18591 3.39189 8.16445 9.92505 8.16445H17.8984L17.8964 12.3161ZM5.79219 11.1904C3.9012 13.0724 3.90425 12.8474 5.74428 14.6917C7.06909 16.0196 7.12515 16.0638 7.48409 16.0638C7.94011 16.0638 8.22625 15.7597 8.22625 15.275C8.22625 14.9934 8.11914 14.8503 7.24265 13.9598L6.25905 12.9605L7.16249 12.066C7.65935 11.5741 8.11851 11.0504 8.18272 10.9023C8.41942 10.3563 8.05949 9.78023 7.48168 9.78023C7.24954 9.78023 6.99843 9.98974 5.79219 11.1904ZM12.0198 9.90994C11.6829 10.0569 11.4857 10.5282 11.6193 10.8669C11.6659 10.9852 12.1104 11.4851 12.6071 11.9778C13.1038 12.4706 13.5101 12.9129 13.5101 12.9606C13.5101 13.0085 13.0466 13.5179 12.4802 14.0927C11.9137 14.6676 11.4503 15.2022 11.4503 15.2809C11.4503 15.5173 11.6265 15.907 11.7896 16.0312C11.8739 16.0954 12.0984 16.1492 12.2886 16.1507C12.6143 16.1534 12.7095 16.0794 13.9313 14.8744C15.2673 13.5567 15.4803 13.2813 15.4803 12.8717C15.4803 12.453 12.7009 9.73167 12.3263 9.78373C12.3124 9.78571 12.1744 9.84244 12.0198 9.90994Z" fill="#727B83"/>
</svg>
