<svg width="17" height="19" viewBox="0 0 17 19" fill="none" xmlns="http://www.w3.org/2000/svg">
<path fill-rule="evenodd" clip-rule="evenodd" d="M3.24863 0.781357C2.74169 0.854509 2.14496 1.10449 1.74087 1.41301C1.28168 1.76359 0.916474 2.25814 0.651743 2.88783C0.335055 3.64115 0.355999 3.14431 0.355999 9.89829V15.8715L0.436626 16.2091C0.614102 16.9521 1.03082 17.6903 1.52213 18.1319C1.83732 18.4152 2.33822 18.7137 2.71913 18.845L2.99232 18.9393L8.3382 18.951C11.9416 18.959 13.7656 18.9488 13.9342 18.9198C15.2544 18.693 16.3922 17.4216 16.5953 15.9464C16.6212 15.758 16.6303 13.7201 16.6232 9.69373L16.6127 3.72048L16.5283 3.41523C16.1817 2.16044 15.324 1.22591 14.1888 0.865842L13.9038 0.775466L8.63112 0.770475C5.73117 0.767734 3.30905 0.772643 3.24863 0.781357ZM13.6108 2.59665C14.2544 2.69844 14.808 3.24553 14.9664 3.9363C15.0148 4.14741 15.0205 4.90822 15.012 9.96334L15.0022 15.7488L14.9075 15.9999C14.7286 16.4739 14.405 16.8343 13.9773 17.0361L13.7573 17.1398L8.5795 17.1508C4.05531 17.1603 3.37441 17.1539 3.18547 17.0998C2.56725 16.9228 2.07763 16.3043 1.98653 15.5852C1.93384 15.1693 1.93622 4.52221 1.98909 4.14147C2.05862 3.64054 2.2644 3.24896 2.61258 2.95484C2.85911 2.7466 3.00298 2.67529 3.30355 2.61224C3.60838 2.54829 13.2134 2.53377 13.6108 2.59665ZM4.02448 5.45039C3.70629 5.65479 3.54177 6.06224 3.62984 6.42767C3.70944 6.758 3.93188 7.00941 4.22165 7.09659C4.31217 7.12384 5.70239 7.13436 8.25589 7.1272L12.152 7.11623L12.3322 6.9921C12.8875 6.60953 12.8276 5.67909 12.2298 5.40007C12.1096 5.34394 11.6327 5.33657 8.14714 5.33686L4.20064 5.33719L4.02448 5.45039ZM4.04498 9.08262C3.82789 9.20351 3.65301 9.46126 3.61427 9.7175C3.55902 10.0829 3.74243 10.4837 4.04857 10.6666L4.20064 10.7575H7.67912C11.0048 10.7575 11.1632 10.7541 11.2858 10.6811C11.8882 10.322 11.9026 9.41078 11.3111 9.08139L11.1249 8.97776H7.67912H4.23333L4.04498 9.08262ZM4.04557 12.7235C3.83477 12.8409 3.6562 13.106 3.61372 13.3645C3.55397 13.7283 3.7637 14.1604 4.08413 14.3337C4.24143 14.4188 4.25845 14.4191 8.40586 14.4191C13.0316 14.4191 12.7074 14.4388 12.9808 14.1412C13.3646 13.7233 13.2599 12.9922 12.7779 12.7238L12.5895 12.619H8.41143H4.23333L4.04557 12.7235Z" fill="#727B83"/>
</svg>
