<svg width="100" height="100" viewBox="0 0 100 100" fill="none" xmlns="http://www.w3.org/2000/svg">
<g clip-path="url(#clip0_808_7071)">
<path d="M57.8828 7.42157C58.7563 7.15313 59.6951 7.1893 60.5453 7.52414L64.3313 9.02004C65.1819 9.35608 65.8931 9.97128 66.348 10.7647C66.803 11.5581 66.9748 12.4826 66.8351 13.3865L66.0591 18.4364C67.525 19.5728 68.8612 20.8672 70.0436 22.2962L75.0598 21.3499C75.9592 21.18 76.8897 21.321 77.6983 21.7499C78.5069 22.1788 79.1456 22.87 79.5093 23.71L81.1268 27.4405C81.4913 28.2802 81.5593 29.2188 81.3196 30.1022C81.08 30.9856 80.547 31.7612 79.8081 32.3015L75.6888 35.3162C75.9211 37.1425 75.9554 38.9926 75.7782 40.8611L79.9982 43.7376C80.7541 44.2539 81.3118 45.0121 81.5797 45.8874C81.8476 46.7628 81.8097 47.7032 81.4723 48.5542L79.9781 52.3357C79.6421 53.1864 79.0269 53.8975 78.2335 54.3525C77.44 54.8075 76.5155 54.9792 75.6117 54.8396L70.5635 54.0592C69.4156 55.5441 68.1217 56.8694 66.7037 58.0437L67.6482 63.0643C67.8172 63.9628 67.6759 64.8921 67.2474 65.6998C66.8189 66.5074 66.1287 67.1455 65.2899 67.5094L61.5594 69.1269C60.7205 69.4904 59.7829 69.5581 58.9005 69.3188C58.0181 69.0795 57.2431 68.5475 56.7028 67.8099L53.6837 63.6888C51.8574 63.9212 50.0073 63.9554 48.1388 63.7783L45.2579 67.9965C44.742 68.7518 43.9847 69.3092 43.1103 69.5773C42.2359 69.8455 41.2963 69.8085 40.4457 69.4723L36.6642 67.9782C35.8135 67.6421 35.1024 67.0269 34.6474 66.2335C34.1924 65.4401 34.0207 64.5156 34.1603 63.6117L34.9408 58.5636C33.4602 57.4174 32.1305 56.1217 30.9589 54.7099L25.9383 55.6545C25.0398 55.8235 24.1105 55.6821 23.3028 55.2536C22.4952 54.8251 21.8571 54.1349 21.4932 53.2962L19.8713 49.5638C19.5068 48.7242 19.4388 47.7856 19.6785 46.9022C19.9181 46.0188 20.4511 45.2432 21.19 44.7028L25.3138 41.6899C25.0814 39.8636 25.0445 38.0074 25.2199 36.1432L21.0016 33.2624C20.2464 32.7465 19.689 31.9892 19.4208 31.1148C19.1527 30.2404 19.1897 29.3008 19.5258 28.4502L21.02 24.6686C21.356 23.818 21.9712 23.1068 22.7646 22.6519C23.5581 22.1969 24.4826 22.0251 25.3864 22.1648L30.4346 22.9452C31.5808 21.4646 32.8782 20.1306 34.2882 18.9634L33.3454 13.9384C33.1764 13.0398 33.3178 12.1105 33.7463 11.3029C34.1748 10.4952 34.865 9.85712 35.7038 9.49324L39.4343 7.87576C40.2739 7.5113 41.2126 7.44329 42.096 7.68294C42.9794 7.92258 43.755 8.45562 44.2953 9.19444L47.31 13.3138C49.1346 13.0859 50.9881 13.0428 52.8567 13.2199L55.7375 9.00167C56.2529 8.24713 57.0094 7.69 57.8828 7.42157Z" fill="#656565" stroke="#181821" stroke-width="4"/>
<path d="M50 24C56.408 24 61.7126 28.5771 62.4992 34.4777C64.0664 34.8433 65.4598 35.6984 66.4568 36.9066C67.4539 38.1147 67.9972 39.6062 68 41.1429C68 44.9246 64.7708 48 60.8 48H41C36.0374 48 32 44.1549 32 39.4286C32 35.6914 34.8962 32.2149 38.7626 31.1143C40.73 26.7617 45.0392 24 50 24Z" fill="#0078D4"/>
<path fill-rule="evenodd" clip-rule="evenodd" d="M37.342 29.6133C39.7446 24.9409 44.5381 22 50 22C56.974 22 62.8365 26.7662 64.2149 33.1315C65.7171 33.6936 67.0461 34.6359 68.0551 35.8713C69.3101 37.4079 69.9965 39.3085 70 41.2699L70 41.2728C70 46.1109 65.9215 50 60.9578 50H40.8685C34.8986 50 30 45.3218 30 39.5152C30 35.1178 33.1371 31.1544 37.342 29.6133ZM50 25.3935C45.6626 25.3935 41.912 27.8208 40.1901 31.6702L39.8659 32.395L39.0891 32.6185C35.8273 33.5567 33.4741 36.5125 33.4741 39.5152C33.4741 43.4001 36.7683 46.6065 40.8685 46.6065H60.9578C64.0513 46.6065 66.5253 44.1899 66.5259 41.274C66.5234 40.085 66.1074 38.928 65.3394 37.9877C64.5707 37.0464 63.4926 36.3758 62.2743 36.0887L61.1119 35.8146L60.959 34.6561C60.2736 29.4605 55.6362 25.3935 50 25.3935Z" fill="white"/>
<path d="M18.1293 79.7083C19.9094 79.7083 21.273 80.0278 22.2201 80.6668C23.1672 81.2944 23.6407 82.2758 23.6407 83.6108C23.6407 84.4438 23.4467 85.1227 23.0588 85.6476C22.6822 86.1611 22.1345 86.5662 21.4156 86.8629C21.6553 87.1595 21.9063 87.5019 22.1687 87.8898C22.4312 88.2664 22.6879 88.6658 22.939 89.0879C23.2014 89.4987 23.4524 89.9323 23.6921 90.3888C23.9317 90.8338 24.1542 91.2731 24.3596 91.7067H21.3643C21.1475 91.3187 20.925 90.9251 20.6968 90.5257C20.48 90.1263 20.2517 89.7384 20.0121 89.3618C19.7839 88.9853 19.5557 88.6315 19.3275 88.3006C19.0993 87.9583 18.871 87.6502 18.6428 87.3763H17.3249V91.7067H14.6548V80.0164C15.2367 79.9023 15.8358 79.8224 16.452 79.7768C17.0796 79.7312 17.6387 79.7083 18.1293 79.7083ZM18.2834 81.9848C18.0894 81.9848 17.9125 81.9905 17.7528 82.0019C17.6045 82.0133 17.4618 82.0247 17.3249 82.0361V85.2539H18.078C19.0821 85.2539 19.801 85.1284 20.2346 84.8774C20.6682 84.6264 20.885 84.1985 20.885 83.5937C20.885 83.0117 20.6625 82.601 20.2175 82.3613C19.7839 82.1103 19.1392 81.9848 18.2834 81.9848Z" fill="#383636"/>
<path d="M26.0711 91.7067V79.8453H34.0814V82.0875H28.7412V84.4153H33.4823V86.6061H28.7412V89.4645H34.4751V91.7067H26.0711Z" fill="#383636"/>
<path d="M39.686 89.6699C40.0625 89.6699 40.3706 89.6414 40.6102 89.5843C40.8613 89.5158 41.061 89.4303 41.2093 89.3276C41.3576 89.2135 41.4603 89.0822 41.5174 88.9339C41.5744 88.7856 41.603 88.6201 41.603 88.4375C41.603 88.0496 41.4204 87.7301 41.0553 87.479C40.6901 87.2166 40.0625 86.937 39.1725 86.6403C38.7845 86.5034 38.3966 86.3494 38.0086 86.1782C37.6206 85.9956 37.2726 85.7731 36.9645 85.5107C36.6564 85.2368 36.4054 84.9116 36.2114 84.5351C36.0174 84.1471 35.9204 83.6793 35.9204 83.1316C35.9204 82.5838 36.0231 82.0932 36.2285 81.6596C36.4339 81.2146 36.7249 80.838 37.1014 80.5299C37.478 80.2218 37.9344 79.9879 38.4707 79.8282C39.007 79.657 39.6118 79.5714 40.285 79.5714C41.0838 79.5714 41.7741 79.657 42.3561 79.8282C42.938 79.9993 43.4173 80.1876 43.7938 80.393L43.0236 82.4983C42.6927 82.3271 42.3218 82.1788 41.9111 82.0532C41.5117 81.9163 41.0267 81.8478 40.4562 81.8478C39.8172 81.8478 39.3551 81.9391 39.0698 82.1217C38.7959 82.2929 38.659 82.561 38.659 82.9262C38.659 83.143 38.7104 83.3255 38.8131 83.4739C38.9157 83.6222 39.0584 83.7591 39.241 83.8847C39.4349 83.9988 39.6517 84.1072 39.8914 84.2099C40.1424 84.3012 40.4163 84.3981 40.7129 84.5008C41.3291 84.7291 41.8654 84.9573 42.3218 85.1855C42.7783 85.4023 43.1548 85.659 43.4515 85.9557C43.7596 86.2524 43.9878 86.6004 44.1361 86.9998C44.2845 87.3992 44.3587 87.8841 44.3587 88.4547C44.3587 89.5615 43.9707 90.423 43.1948 91.0392C42.4188 91.6439 41.2492 91.9463 39.686 91.9463C39.1611 91.9463 38.6875 91.9121 38.2653 91.8436C37.8431 91.7866 37.4666 91.7124 37.1357 91.6211C36.8162 91.5298 36.5366 91.4328 36.297 91.3302C36.0688 91.2275 35.8748 91.1305 35.715 91.0392L36.4681 88.9168C36.8219 89.1108 37.2555 89.2876 37.769 89.4474C38.2939 89.5957 38.9329 89.6699 39.686 89.6699Z" fill="#383636"/>
<path d="M54.8765 79.8453V82.1217H51.2992V91.7067H48.6291V82.1217H45.0519V79.8453H54.8765Z" fill="#383636"/>
<path d="M57.884 84.2783C57.884 84.7918 57.7185 85.1855 57.3876 85.4593C57.0681 85.7218 56.703 85.853 56.2922 85.853C55.8814 85.853 55.5105 85.7218 55.1796 85.4593C54.8601 85.1855 54.7004 84.7918 54.7004 84.2783C54.7004 83.7648 54.8601 83.3769 55.1796 83.1144C55.5105 82.8406 55.8814 82.7037 56.2922 82.7037C56.703 82.7037 57.0681 82.8406 57.3876 83.1144C57.7185 83.3769 57.884 83.7648 57.884 84.2783ZM57.884 90.3545C57.884 90.868 57.7185 91.2617 57.3876 91.5355C57.0681 91.798 56.703 91.9292 56.2922 91.9292C55.8814 91.9292 55.5105 91.798 55.1796 91.5355C54.8601 91.2617 54.7004 90.868 54.7004 90.3545C54.7004 89.8411 54.8601 89.4531 55.1796 89.1906C55.5105 88.9168 55.8814 88.7799 56.2922 88.7799C56.703 88.7799 57.0681 88.9168 57.3876 89.1906C57.7185 89.4531 57.884 89.8411 57.884 90.3545Z" fill="#383636"/>
<path d="M67.9943 91.7067C67.8688 91.2959 67.7262 90.8737 67.5664 90.4401C67.4181 90.0065 67.2698 89.5729 67.1214 89.1393H62.5001C62.3517 89.5729 62.1977 90.0065 62.038 90.4401C61.8896 90.8737 61.7527 91.2959 61.6272 91.7067H58.8544C59.2994 90.4287 59.7216 89.2477 60.121 88.1637C60.5203 87.0797 60.9083 86.0584 61.2848 85.0999C61.6728 84.1414 62.0494 83.2343 62.4145 82.3784C62.7911 81.5112 63.179 80.6668 63.5784 79.8453H66.1287C66.5167 80.6668 66.8989 81.5112 67.2755 82.3784C67.652 83.2343 68.0286 84.1414 68.4051 85.0999C68.7931 86.0584 69.1868 87.0797 69.5861 88.1637C69.9855 89.2477 70.4077 90.4287 70.8527 91.7067H67.9943ZM64.7936 82.5325C64.7366 82.7037 64.651 82.9376 64.5369 83.2343C64.4228 83.5309 64.2916 83.8733 64.1432 84.2612C63.9949 84.6492 63.8294 85.0771 63.6469 85.5449C63.4757 86.0128 63.2988 86.5034 63.1163 87.0169H66.4881C66.3056 86.5034 66.1287 86.0128 65.9575 85.5449C65.7864 85.0771 65.6209 84.6492 65.4612 84.2612C65.3128 83.8733 65.1816 83.5309 65.0675 83.2343C64.9534 82.9376 64.8621 82.7037 64.7936 82.5325Z" fill="#383636"/>
<path d="M75.9482 79.7083C77.7169 79.7083 79.0748 80.0221 80.0219 80.6497C80.969 81.2659 81.4425 82.2815 81.4425 83.6964C81.4425 85.1227 80.9632 86.1554 80.0048 86.7944C79.0462 87.422 77.677 87.7358 75.8969 87.7358H75.0582V91.7067H72.3881V80.0164C72.97 79.9023 73.5862 79.8224 74.2366 79.7768C74.887 79.7312 75.4576 79.7083 75.9482 79.7083ZM76.1194 81.9848C75.9254 81.9848 75.7314 81.9905 75.5375 82.0019C75.3549 82.0133 75.1951 82.0247 75.0582 82.0361V85.4593H75.8969C76.8212 85.4593 77.5172 85.3338 77.9851 85.0828C78.4529 84.8318 78.6868 84.3639 78.6868 83.6793C78.6868 83.3484 78.6241 83.0745 78.4985 82.8577C78.3844 82.6409 78.2133 82.4697 77.9851 82.3442C77.7682 82.2073 77.5001 82.116 77.1806 82.0704C76.8611 82.0133 76.5074 81.9848 76.1194 81.9848Z" fill="#383636"/>
<path d="M83.4032 79.8453H86.0733V91.7067H83.4032V79.8453Z" fill="#383636"/>
<path d="M3 84.9029C3.59159 84.9029 4.01884 84.7417 4.28177 84.4194C4.5447 84.0971 4.67616 83.6756 4.67616 83.155V80.3471C4.67616 79.814 4.74847 79.343 4.89308 78.9339C5.03769 78.5124 5.27432 78.1591 5.60298 77.874C5.94479 77.5888 6.39176 77.3719 6.94391 77.2231C7.5092 77.0744 8.20596 77 9.03418 77H9.42857V79.2128H8.93558C8.344 79.2128 7.94303 79.3368 7.73269 79.5847C7.5355 79.8326 7.4369 80.2169 7.4369 80.7376V83.2107C7.4369 83.8554 7.34487 84.4008 7.16082 84.8471C6.97677 85.2934 6.60868 85.6777 6.05653 86C6.60868 86.3223 6.97677 86.7066 7.16082 87.1529C7.34487 87.5992 7.4369 88.1446 7.4369 88.7893V91.2624C7.4369 91.7831 7.5355 92.1674 7.73269 92.4153C7.94303 92.6632 8.344 92.7872 8.93558 92.7872H9.42857V95H9.03418C8.20596 95 7.5092 94.9256 6.94391 94.7769C6.39176 94.6281 5.94479 94.4112 5.60298 94.126C5.27432 93.8409 5.03769 93.4876 4.89308 93.0661C4.74847 92.657 4.67616 92.186 4.67616 91.6529V88.845C4.67616 88.3244 4.5447 87.9029 4.28177 87.5806C4.01884 87.2583 3.59159 87.0971 3 87.0971V84.9029Z" fill="#0078D4"/>
<path d="M96.8572 87.0971C96.2656 87.0971 95.8383 87.2583 95.5754 87.5806C95.3125 87.9029 95.181 88.3244 95.181 88.845L95.181 91.6529C95.181 92.186 95.1087 92.657 94.9641 93.0661C94.8195 93.4876 94.5829 93.8409 94.2542 94.126C93.9124 94.4112 93.4654 94.6281 92.9133 94.7769C92.348 94.9256 91.6512 95 90.823 95L90.4286 95L90.4286 92.7872L90.9216 92.7872C91.5132 92.7872 91.9141 92.6632 92.1245 92.4153C92.3217 92.1674 92.4203 91.7831 92.4203 91.2624L92.4203 88.7893C92.4203 88.1446 92.5123 87.5992 92.6964 87.1529C92.8804 86.7066 93.2485 86.3223 93.8006 86C93.2485 85.6777 92.8804 85.2934 92.6964 84.8471C92.5123 84.4008 92.4203 83.8554 92.4203 83.2107L92.4203 80.7376C92.4203 80.2169 92.3217 79.8326 92.1245 79.5847C91.9141 79.3368 91.5132 79.2128 90.9216 79.2128L90.4286 79.2128L90.4286 77L90.823 77C91.6512 77 92.348 77.0744 92.9133 77.2231C93.4654 77.3719 93.9124 77.5888 94.2542 77.874C94.5829 78.1591 94.8195 78.5124 94.9641 78.9339C95.1087 79.343 95.181 79.814 95.181 80.3471L95.181 83.155C95.181 83.6756 95.3125 84.0971 95.5754 84.4194C95.8383 84.7417 96.2656 84.9029 96.8572 84.9029L96.8572 87.0971Z" fill="#0078D4"/>
</g>
<defs>
<clipPath id="clip0_808_7071">
<rect width="100" height="100" fill="white"/>
</clipPath>
</defs>
</svg>
