<svg width="482" height="123" viewBox="0 0 482 123" fill="none" xmlns="http://www.w3.org/2000/svg">
<rect x="2" y="2" width="478" height="119" rx="28" fill="#0078D4" stroke="white" stroke-width="4"/>
<path d="M190.969 63.1288C190.969 62.5546 190.766 62.1154 190.361 61.8114C189.955 61.5006 189.226 61.1764 188.172 60.8386C187.118 60.494 186.283 60.1562 185.668 59.8252C183.993 58.9199 183.155 57.7004 183.155 56.1668C183.155 55.3696 183.378 54.6602 183.824 54.0387C184.277 53.4104 184.922 52.9206 185.76 52.5693C186.604 52.2179 187.55 52.0423 188.597 52.0423C189.651 52.0423 190.59 52.2348 191.414 52.6199C192.239 52.9983 192.877 53.5354 193.33 54.2312C193.789 54.9271 194.019 55.7175 194.019 56.6026H190.979C190.979 55.927 190.766 55.4034 190.34 55.0318C189.915 54.6535 189.317 54.4643 188.547 54.4643C187.803 54.4643 187.226 54.6231 186.814 54.9406C186.402 55.2514 186.195 55.6635 186.195 56.1769C186.195 56.6566 186.435 57.0586 186.915 57.3829C187.401 57.7072 188.114 58.0112 189.053 58.2949C190.783 58.8151 192.043 59.4603 192.833 60.2305C193.624 61.0007 194.019 61.96 194.019 63.1086C194.019 64.3854 193.536 65.3887 192.57 66.1183C191.604 66.8412 190.303 67.2027 188.668 67.2027C187.533 67.2027 186.499 66.9966 185.567 66.5845C184.635 66.1656 183.922 65.5948 183.429 64.8719C182.942 64.149 182.699 63.3112 182.699 62.3587H185.75C185.75 63.9868 186.722 64.8009 188.668 64.8009C189.391 64.8009 189.955 64.6557 190.361 64.3652C190.766 64.0679 190.969 63.6558 190.969 63.1288ZM198.984 67H196.046V56.0351H198.984V67ZM195.873 53.1976C195.873 52.7584 196.019 52.397 196.309 52.1132C196.606 51.8295 197.008 51.6876 197.515 51.6876C198.015 51.6876 198.414 51.8295 198.711 52.1132C199.008 52.397 199.157 52.7584 199.157 53.1976C199.157 53.6435 199.005 54.0083 198.701 54.292C198.403 54.5758 198.008 54.7177 197.515 54.7177C197.022 54.7177 196.623 54.5758 196.319 54.292C196.022 54.0083 195.873 53.6435 195.873 53.1976ZM200.981 61.4365C200.981 59.7542 201.379 58.3997 202.177 57.3727C202.981 56.3458 204.062 55.8324 205.42 55.8324C206.622 55.8324 207.558 56.2445 208.227 57.0687L208.348 56.0351H211.003V66.6352C211.003 67.5945 210.784 68.4289 210.345 69.1383C209.912 69.8476 209.301 70.3881 208.51 70.7597C207.72 71.1313 206.794 71.3171 205.734 71.3171C204.93 71.3171 204.146 71.1549 203.383 70.8306C202.619 70.5131 202.042 70.101 201.65 69.5943L202.947 67.8107C203.677 68.6282 204.562 69.0369 205.602 69.0369C206.379 69.0369 206.984 68.8275 207.416 68.4086C207.848 67.9965 208.065 67.4087 208.065 66.6453V66.0575C207.389 66.821 206.501 67.2027 205.399 67.2027C204.082 67.2027 203.014 66.6892 202.197 65.6623C201.386 64.6287 200.981 63.2606 200.981 61.5581V61.4365ZM203.91 61.6493C203.91 62.6424 204.109 63.4227 204.508 63.9902C204.906 64.551 205.453 64.8313 206.149 64.8313C207.041 64.8313 207.679 64.4969 208.065 63.8281V59.2171C207.673 58.5483 207.041 58.2139 206.169 58.2139C205.467 58.2139 204.913 58.501 204.508 59.0753C204.109 59.6495 203.91 60.5075 203.91 61.6493ZM215.959 56.0351L216.05 57.3018C216.834 56.3222 217.884 55.8324 219.202 55.8324C220.364 55.8324 221.229 56.1736 221.796 56.8559C222.364 57.5383 222.654 58.5584 222.668 59.9164V67H219.739V59.9873C219.739 59.3658 219.604 58.9165 219.333 58.6395C219.063 58.3557 218.614 58.2139 217.986 58.2139C217.161 58.2139 216.543 58.5652 216.131 59.2678V67H213.202V56.0351H215.959ZM231.251 67C231.116 66.7365 231.018 66.4089 230.957 66.017C230.248 66.8075 229.326 67.2027 228.191 67.2027C227.116 67.2027 226.225 66.8919 225.515 66.2704C224.813 65.6488 224.461 64.8651 224.461 63.9193C224.461 62.7573 224.89 61.8655 225.748 61.2439C226.613 60.6224 227.859 60.3082 229.488 60.3015H230.836V59.6732C230.836 59.1665 230.704 58.7611 230.44 58.4571C230.184 58.1531 229.775 58.0011 229.214 58.0011C228.721 58.0011 228.332 58.1193 228.049 58.3557C227.772 58.5922 227.633 58.9165 227.633 59.3286H224.704C224.704 58.6935 224.9 58.1058 225.292 57.5653C225.684 57.0248 226.238 56.6026 226.954 56.2985C227.67 55.9878 228.474 55.8324 229.366 55.8324C230.717 55.8324 231.788 56.1736 232.579 56.8559C233.376 57.5315 233.774 58.4841 233.774 59.7137V64.4665C233.781 65.5069 233.926 66.294 234.21 66.8277V67H231.251ZM228.829 64.9631C229.261 64.9631 229.66 64.8685 230.025 64.6793C230.39 64.4834 230.66 64.2233 230.836 63.899V62.0141H229.741C228.275 62.0141 227.495 62.5208 227.4 63.5342L227.39 63.7065C227.39 64.0713 227.518 64.3719 227.775 64.6084C228.032 64.8448 228.383 64.9631 228.829 64.9631ZM239.115 67H236.176V51.4343H239.115V67ZM244.628 67H241.689V56.0351H244.628V67ZM241.517 53.1976C241.517 52.7584 241.662 52.397 241.952 52.1132C242.25 51.8295 242.652 51.6876 243.158 51.6876C243.658 51.6876 244.057 51.8295 244.354 52.1132C244.651 52.397 244.8 52.7584 244.8 53.1976C244.8 53.6435 244.648 54.0083 244.344 54.292C244.047 54.5758 243.652 54.7177 243.158 54.7177C242.665 54.7177 242.267 54.5758 241.963 54.292C241.665 54.0083 241.517 53.6435 241.517 53.1976ZM249.745 56.0351L249.837 57.3018C250.62 56.3222 251.671 55.8324 252.988 55.8324C254.15 55.8324 255.015 56.1736 255.583 56.8559C256.15 57.5383 256.441 58.5584 256.454 59.9164V67H253.525V59.9873C253.525 59.3658 253.39 58.9165 253.12 58.6395C252.85 58.3557 252.401 58.2139 251.772 58.2139C250.948 58.2139 250.33 58.5652 249.918 59.2678V67H246.989V56.0351H249.745ZM258.258 61.4365C258.258 59.7542 258.657 58.3997 259.454 57.3727C260.258 56.3458 261.339 55.8324 262.697 55.8324C263.899 55.8324 264.835 56.2445 265.504 57.0687L265.625 56.0351H268.28V66.6352C268.28 67.5945 268.061 68.4289 267.622 69.1383C267.189 69.8476 266.578 70.3881 265.787 70.7597C264.997 71.1313 264.071 71.3171 263.011 71.3171C262.207 71.3171 261.423 71.1549 260.66 70.8306C259.896 70.5131 259.319 70.101 258.927 69.5943L260.224 67.8107C260.954 68.6282 261.839 69.0369 262.879 69.0369C263.656 69.0369 264.261 68.8275 264.693 68.4086C265.125 67.9965 265.342 67.4087 265.342 66.6453V66.0575C264.666 66.821 263.778 67.2027 262.676 67.2027C261.359 67.2027 260.292 66.6892 259.474 65.6623C258.663 64.6287 258.258 63.2606 258.258 61.5581V61.4365ZM261.187 61.6493C261.187 62.6424 261.386 63.4227 261.785 63.9902C262.183 64.551 262.73 64.8313 263.426 64.8313C264.318 64.8313 264.957 64.4969 265.342 63.8281V59.2171C264.95 58.5483 264.318 58.2139 263.447 58.2139C262.744 58.2139 262.19 58.501 261.785 59.0753C261.386 59.6495 261.187 60.5075 261.187 61.6493ZM283.552 63.1288C283.552 62.5546 283.35 62.1154 282.944 61.8114C282.539 61.5006 281.809 61.1764 280.755 60.8386C279.701 60.494 278.867 60.1562 278.252 59.8252C276.577 58.9199 275.739 57.7004 275.739 56.1668C275.739 55.3696 275.962 54.6602 276.408 54.0387C276.861 53.4104 277.506 52.9206 278.343 52.5693C279.188 52.2179 280.134 52.0423 281.181 52.0423C282.235 52.0423 283.174 52.2348 283.998 52.6199C284.822 52.9983 285.461 53.5354 285.914 54.2312C286.373 54.9271 286.603 55.7175 286.603 56.6026H283.562C283.562 55.927 283.35 55.4034 282.924 55.0318C282.498 54.6535 281.9 54.4643 281.13 54.4643C280.387 54.4643 279.81 54.6231 279.397 54.9406C278.985 55.2514 278.779 55.6635 278.779 56.1769C278.779 56.6566 279.019 57.0586 279.499 57.3829C279.985 57.7072 280.698 58.0112 281.637 58.2949C283.367 58.8151 284.627 59.4603 285.417 60.2305C286.207 61.0007 286.603 61.96 286.603 63.1086C286.603 64.3854 286.12 65.3887 285.153 66.1183C284.187 66.8412 282.887 67.2027 281.252 67.2027C280.117 67.2027 279.083 66.9966 278.151 66.5845C277.219 66.1656 276.506 65.5948 276.013 64.8719C275.526 64.149 275.283 63.3112 275.283 62.3587H278.333C278.333 63.9868 279.306 64.8009 281.252 64.8009C281.975 64.8009 282.539 64.6557 282.944 64.3652C283.35 64.0679 283.552 63.6558 283.552 63.1288ZM292.572 62.8552L294.598 56.0351H297.74L293.332 68.7025L293.088 69.2801C292.433 70.7124 291.352 71.4285 289.845 71.4285C289.42 71.4285 288.987 71.3644 288.548 71.236V69.0167L288.994 69.0268C289.548 69.0268 289.96 68.9423 290.231 68.7734C290.508 68.6045 290.724 68.3242 290.879 67.9323L291.224 67.0304L287.383 56.0351H290.535L292.572 62.8552ZM304.834 63.9699C304.834 63.6119 304.655 63.3315 304.296 63.1288C303.945 62.9194 303.378 62.7336 302.594 62.5715C299.986 62.0242 298.682 60.9163 298.682 59.2475C298.682 58.2747 299.084 57.464 299.888 56.8154C300.699 56.1601 301.756 55.8324 303.06 55.8324C304.452 55.8324 305.563 56.1601 306.394 56.8154C307.232 57.4707 307.651 58.322 307.651 59.3691H304.722C304.722 58.9503 304.587 58.6057 304.317 58.3355C304.047 58.0585 303.624 57.92 303.05 57.92C302.557 57.92 302.175 58.0315 301.905 58.2544C301.635 58.4773 301.5 58.7611 301.5 59.1057C301.5 59.4299 301.652 59.6934 301.956 59.8961C302.266 60.092 302.787 60.2643 303.516 60.4129C304.246 60.5548 304.861 60.717 305.361 60.8994C306.908 61.4669 307.681 62.4499 307.681 63.8483C307.681 64.8482 307.252 65.6589 306.394 66.2805C305.536 66.8953 304.428 67.2027 303.07 67.2027C302.151 67.2027 301.334 67.0405 300.618 66.7162C299.908 66.3852 299.351 65.9359 298.946 65.3684C298.54 64.7942 298.338 64.176 298.338 63.5139H301.114C301.141 64.0341 301.334 64.4327 301.692 64.7097C302.05 64.9867 302.53 65.1252 303.131 65.1252C303.692 65.1252 304.114 65.0205 304.398 64.8111C304.688 64.5949 304.834 64.3145 304.834 63.9699ZM313.083 53.3394V56.0351H314.957V58.1835H313.083V63.6558C313.083 64.0612 313.16 64.3517 313.316 64.5273C313.471 64.703 313.768 64.7908 314.207 64.7908C314.532 64.7908 314.819 64.7672 315.069 64.7199V66.9392C314.495 67.1149 313.903 67.2027 313.295 67.2027C311.242 67.2027 310.194 66.1656 310.154 64.0916V58.1835H308.553V56.0351H310.154V53.3394H313.083ZM321.636 67.2027C320.028 67.2027 318.717 66.7095 317.704 65.7231C316.697 64.7368 316.194 63.4227 316.194 61.781V61.4973C316.194 60.396 316.407 59.4131 316.832 58.5483C317.258 57.6768 317.859 57.0079 318.636 56.5418C319.42 56.0688 320.312 55.8324 321.311 55.8324C322.811 55.8324 323.99 56.3053 324.848 57.2511C325.713 58.197 326.145 59.538 326.145 61.2743V62.4701H319.163C319.258 63.1863 319.541 63.7605 320.014 64.1929C320.494 64.6253 321.099 64.8415 321.828 64.8415C322.956 64.8415 323.838 64.4327 324.473 63.6153L325.912 65.2266C325.473 65.8481 324.879 66.3345 324.129 66.6858C323.379 67.0304 322.548 67.2027 321.636 67.2027ZM321.301 58.2037C320.72 58.2037 320.247 58.3997 319.883 58.7915C319.524 59.1833 319.295 59.7441 319.193 60.4737H323.267V60.2407C323.254 59.5921 323.078 59.0921 322.74 58.7408C322.402 58.3828 321.923 58.2037 321.301 58.2037ZM330.564 56.0351L330.655 57.2613C331.432 56.3087 332.482 55.8324 333.807 55.8324C335.219 55.8324 336.188 56.3898 336.715 57.5045C337.485 56.3898 338.583 55.8324 340.009 55.8324C341.198 55.8324 342.083 56.1803 342.664 56.8762C343.245 57.5653 343.535 58.6057 343.535 59.9974V67H340.596V60.0076C340.596 59.386 340.475 58.9334 340.231 58.6496C339.988 58.3591 339.559 58.2139 338.944 58.2139C338.066 58.2139 337.458 58.6327 337.12 59.4705L337.13 67H334.202V60.0177C334.202 59.3826 334.077 58.9232 333.827 58.6395C333.577 58.3557 333.151 58.2139 332.55 58.2139C331.719 58.2139 331.118 58.5584 330.746 59.2475V67H327.817V56.0351H330.564Z" fill="white"/>
<path d="M68.3119 52.375H72.8744V93.4375H68.3119V52.375Z" fill="white"/>
<path d="M59.9397 66.5643C58.2632 65.0664 56.9218 63.2314 56.0034 61.1793C55.0851 59.1272 54.6104 56.9044 54.6104 54.6562C54.6104 52.408 55.0851 50.1851 56.0034 48.133C56.9218 46.081 58.2632 44.2459 59.9397 42.748L62.9965 46.1471C61.798 47.2171 60.8389 48.5282 60.1823 49.9946C59.5257 51.4609 59.1862 53.0495 59.1862 54.6562C59.1862 56.2628 59.5257 57.8514 60.1823 59.3178C60.8389 60.7842 61.798 62.0953 62.9965 63.1652L59.9397 66.5643Z" fill="white"/>
<path d="M81.2466 66.5643L78.1897 63.1652C79.3883 62.0953 80.3473 60.7842 81.0039 59.3178C81.6606 57.8514 82 56.2628 82 54.6562C82 53.0495 81.6606 51.4609 81.0039 49.9946C80.3473 48.5282 79.3883 47.2171 78.1897 46.1471L81.2466 42.748C82.9231 44.2459 84.2644 46.081 85.1828 48.133C86.1012 50.1851 86.5759 52.408 86.5759 54.6562C86.5759 56.9044 86.1012 59.1272 85.1828 61.1793C84.2644 63.2314 82.9231 65.0664 81.2466 66.5643Z" fill="white"/>
<path d="M53.2556 74.7313C50.1391 72.3939 47.6096 69.363 45.8674 65.8786C44.1252 62.3942 43.2181 58.552 43.2181 54.6563C43.2181 50.7606 44.1252 46.9184 45.8674 43.434C47.6096 39.9496 50.1391 36.9187 53.2556 34.5813L55.9931 38.2313C53.4432 40.1437 51.3736 42.6236 49.9482 45.4744C48.5227 48.3253 47.7806 51.4689 47.7806 54.6563C47.7806 57.8437 48.5227 60.9873 49.9482 63.8381C51.3736 66.689 53.4432 69.1689 55.9931 71.0813L53.2556 74.7313Z" fill="white"/>
<path d="M87.9307 74.7313L85.1932 71.0813C87.7431 69.1689 89.8128 66.689 91.2382 63.8381C92.6636 60.9873 93.4057 57.8437 93.4057 54.6563C93.4057 51.4689 92.6636 48.3253 91.2382 45.4744C89.8128 42.6236 87.7431 40.1437 85.1932 38.2313L87.9307 34.5813C91.0473 36.9187 93.5768 39.9496 95.319 43.434C97.0612 46.9184 97.9682 50.7606 97.9682 54.6563C97.9682 58.552 97.0612 62.3942 95.319 65.8786C93.5768 69.363 91.0473 72.3939 87.9307 74.7313Z" fill="white"/>
</svg>
