<svg width="322" height="123" viewBox="0 0 322 123" fill="none" xmlns="http://www.w3.org/2000/svg">
<rect x="2" y="2" width="318" height="119" rx="28" fill="white" stroke="#0078D4" stroke-width="4"/>
<path d="M92.6806 33.7266C84.7025 33.7266 76.6389 36.5499 76.6389 41.9185V45.3193C78.0715 45.3854 79.4994 45.5281 80.9167 45.7471V41.9185C80.9167 40.5282 85.387 37.983 92.6806 37.983C99.9742 37.983 104.444 40.5496 104.444 41.9185V64.0132C104.444 65.1682 101.322 67.0932 96.1028 67.7135V71.9913C102.798 71.3069 108.722 68.5691 108.722 63.9705V41.9185C108.722 36.5499 100.659 33.7266 92.6806 33.7266Z" fill="black"/>
<path d="M44.5556 64.0134V41.9187C44.5556 40.5284 49.0259 37.9831 56.3195 37.9831C63.6131 37.9831 68.0834 40.5498 68.0834 41.9187V45.7473C69.5006 45.5283 70.9286 45.3855 72.3612 45.3195V41.9187C72.3612 36.5287 64.2976 33.7053 56.3195 33.7053C48.3414 33.7053 40.2778 36.55 40.2778 41.9187V64.0134C40.2778 68.6334 46.2026 71.3498 52.8973 72.0556V67.7778C47.6784 67.0934 44.5556 65.1684 44.5556 64.0134Z" fill="black"/>
<path d="M74.5 48.2068C63.9553 48.2068 55.9987 52.2279 55.9987 57.5751V83.9048C55.9987 89.2521 63.9553 93.2732 74.5 93.2732C85.0448 93.2732 93.0014 89.2521 93.0014 83.9048V57.5751C93.0014 52.2279 85.0448 48.2068 74.5 48.2068V48.2068ZM88.7237 64.6121C86.9056 66.751 81.4087 68.8898 74.5 68.8898C71.6103 68.9198 68.7305 68.5454 65.9445 67.7776V70.9004C68.7439 71.5872 71.6176 71.9249 74.5 71.9057C79.4564 72.1067 84.3738 70.9531 88.7237 68.569V75.2423C86.9056 77.3812 81.4087 79.5201 74.5 79.5201C71.6093 79.5431 68.7295 79.1615 65.9445 78.3865V81.5093C68.7439 82.1961 71.6176 82.5338 74.5 82.5146C79.4564 82.7156 84.3738 81.562 88.7237 79.1779V84.076C88.7237 86.1079 83.0556 89.1665 74.5 89.1665C65.9445 89.1665 60.2764 86.1079 60.2764 84.076V57.5751C60.2764 55.5432 65.9445 52.4846 74.5 52.4846C83.0556 52.4846 88.7237 55.5432 88.7237 57.5751V64.6121Z" fill="black"/>
<path d="M143.829 94.9255C142.64 93.7357 141.251 92.7645 139.725 92.0566C141.877 90.3134 143.25 87.6535 143.25 84.6706C143.25 79.4078 138.861 75.0901 133.598 75.1709C128.416 75.2516 124.241 79.4742 124.241 84.6706C124.241 87.6535 125.618 90.3134 127.765 92.0566C126.239 92.764 124.85 93.7352 123.661 94.9255C121.068 97.5237 119.595 100.953 119.5 104.611C119.499 104.661 119.508 104.712 119.526 104.759C119.545 104.806 119.573 104.849 119.608 104.885C119.643 104.922 119.686 104.951 119.732 104.97C119.779 104.99 119.829 105 119.88 105H122.54C122.744 105 122.915 104.839 122.92 104.634C123.01 101.879 124.127 99.3002 126.088 97.3432C127.092 96.3341 128.286 95.534 129.601 94.9894C130.916 94.4447 132.327 94.1664 133.75 94.1703C136.643 94.1703 139.364 95.296 141.412 97.3432C143.369 99.3002 144.485 101.879 144.58 104.634C144.585 104.839 144.756 105 144.96 105H147.62C147.671 105 147.721 104.99 147.768 104.97C147.814 104.951 147.857 104.922 147.892 104.885C147.927 104.849 147.955 104.806 147.974 104.759C147.992 104.712 148.001 104.661 148 104.611C147.905 100.953 146.432 97.5237 143.829 94.9255ZM133.75 90.7504C132.125 90.7504 130.596 90.1187 129.451 88.9692C128.877 88.3993 128.423 87.7194 128.117 86.9703C127.811 86.2211 127.659 85.418 127.67 84.6088C127.684 83.0509 128.307 81.5452 129.394 80.429C130.534 79.2605 132.059 78.6098 133.688 78.5908C135.298 78.5765 136.861 79.2035 138.011 80.3292C139.189 81.4834 139.835 83.0271 139.835 84.6706C139.835 86.2951 139.203 87.8198 138.053 88.9692C137.489 89.5359 136.819 89.985 136.08 90.2908C135.341 90.5965 134.549 90.7527 133.75 90.7504ZM121.851 85.9246C121.809 85.5113 121.785 85.0933 121.785 84.6706C121.785 83.9154 121.856 83.1791 121.989 82.4619C122.022 82.2909 121.932 82.1152 121.775 82.0439C121.129 81.7542 120.536 81.3552 120.023 80.8517C119.418 80.2656 118.942 79.5599 118.626 78.7797C118.309 77.9995 118.159 77.1619 118.184 76.3203C118.227 74.7956 118.84 73.3469 119.909 72.2545C121.082 71.0527 122.659 70.3973 124.336 70.4163C125.851 70.4305 127.314 71.0147 128.421 72.0502C128.796 72.4017 129.119 72.7912 129.389 73.2092C129.484 73.3564 129.67 73.4182 129.831 73.3612C130.667 73.0714 131.551 72.8672 132.458 72.7722C132.724 72.7437 132.876 72.4587 132.757 72.2212C131.213 69.1671 128.06 67.0581 124.412 67.0011C119.144 66.9204 114.755 71.238 114.755 76.4961C114.755 79.479 116.128 82.1389 118.279 83.8821C116.769 84.5803 115.377 85.5446 114.171 86.751C111.568 89.3492 110.095 92.7786 110 96.4408C109.999 96.4914 110.008 96.5419 110.026 96.5891C110.045 96.6363 110.073 96.6793 110.108 96.7156C110.143 96.7519 110.186 96.7807 110.232 96.8004C110.279 96.8201 110.329 96.8303 110.38 96.8302H113.045C113.249 96.8302 113.42 96.6687 113.425 96.4645C113.515 93.7096 114.631 91.1304 116.593 89.1735C117.99 87.777 119.7 86.808 121.566 86.3378C121.752 86.2903 121.875 86.1146 121.851 85.9246V85.9246Z" fill="black"/>
<path d="M145.333 36.0833H133.17L130.752 33.6651C130.62 33.5333 130.464 33.4288 130.292 33.3576C130.12 33.2864 129.936 33.2498 129.75 33.25H122.667C121.104 33.25 119.833 34.5208 119.833 36.0833V55.9167C119.833 57.4792 121.104 58.75 122.667 58.75H145.333C146.896 58.75 148.167 57.4792 148.167 55.9167V38.9167C148.167 37.3541 146.896 36.0833 145.333 36.0833ZM122.667 55.9167V38.9167H145.333L145.336 55.9167H122.667Z" fill="black"/>
<path d="M137.604 48.3533C138.242 47.9634 138.242 47.0366 137.604 46.6467L131.521 42.9298C130.855 42.5226 130 43.0021 130 43.7831V51.2169C130 51.9979 130.855 52.4774 131.521 52.0702L137.604 48.3533Z" fill="#383636"/>
<path d="M194.969 63.1288C194.969 62.5546 194.766 62.1154 194.361 61.8114C193.955 61.5006 193.226 61.1764 192.172 60.8386C191.118 60.494 190.283 60.1562 189.668 59.8252C187.993 58.9199 187.155 57.7004 187.155 56.1668C187.155 55.3696 187.378 54.6602 187.824 54.0387C188.277 53.4104 188.922 52.9206 189.76 52.5693C190.604 52.2179 191.55 52.0423 192.597 52.0423C193.651 52.0423 194.59 52.2348 195.414 52.6199C196.239 52.9983 196.877 53.5354 197.33 54.2312C197.789 54.9271 198.019 55.7175 198.019 56.6026H194.979C194.979 55.927 194.766 55.4034 194.34 55.0318C193.915 54.6535 193.317 54.4643 192.547 54.4643C191.803 54.4643 191.226 54.6231 190.814 54.9406C190.402 55.2514 190.195 55.6635 190.195 56.1769C190.195 56.6566 190.435 57.0586 190.915 57.3829C191.401 57.7072 192.114 58.0112 193.053 58.2949C194.783 58.8151 196.043 59.4603 196.833 60.2305C197.624 61.0007 198.019 61.96 198.019 63.1086C198.019 64.3854 197.536 65.3887 196.57 66.1183C195.604 66.8412 194.303 67.2027 192.668 67.2027C191.533 67.2027 190.499 66.9966 189.567 66.5845C188.635 66.1656 187.922 65.5948 187.429 64.8719C186.942 64.149 186.699 63.3112 186.699 62.3587H189.75C189.75 63.9868 190.722 64.8009 192.668 64.8009C193.391 64.8009 193.955 64.6557 194.361 64.3652C194.766 64.0679 194.969 63.6558 194.969 63.1288ZM203.4 53.3394V56.0351H205.275V58.1835H203.4V63.6558C203.4 64.0612 203.478 64.3517 203.633 64.5273C203.788 64.703 204.086 64.7908 204.525 64.7908C204.849 64.7908 205.136 64.7672 205.386 64.7199V66.9392C204.812 67.1149 204.221 67.2027 203.613 67.2027C201.559 67.2027 200.512 66.1656 200.471 64.0916V58.1835H198.87V56.0351H200.471V53.3394H203.4ZM206.146 61.4162C206.146 60.3285 206.356 59.359 206.775 58.5078C207.193 57.6565 207.795 56.9978 208.578 56.5316C209.369 56.0655 210.284 55.8324 211.325 55.8324C212.804 55.8324 214.01 56.285 214.943 57.1903C215.882 58.0956 216.405 59.3252 216.513 60.8791L216.534 61.629C216.534 63.3112 216.064 64.6624 215.125 65.6826C214.186 66.696 212.926 67.2027 211.345 67.2027C209.764 67.2027 208.501 66.696 207.555 65.6826C206.616 64.6692 206.146 63.291 206.146 61.5479V61.4162ZM209.075 61.629C209.075 62.6694 209.271 63.4666 209.663 64.0206C210.055 64.5679 210.615 64.8415 211.345 64.8415C212.054 64.8415 212.608 64.5712 213.007 64.0308C213.406 63.4835 213.605 62.612 213.605 61.4162C213.605 60.396 213.406 59.6056 213.007 59.0448C212.608 58.4841 212.048 58.2037 211.325 58.2037C210.609 58.2037 210.055 58.4841 209.663 59.0448C209.271 59.5988 209.075 60.4602 209.075 61.629ZM224.499 58.7814C224.1 58.7273 223.749 58.7003 223.445 58.7003C222.337 58.7003 221.611 59.0753 221.266 59.8252V67H218.337V56.0351H221.104L221.185 57.3423C221.773 56.3357 222.587 55.8324 223.627 55.8324C223.952 55.8324 224.256 55.8763 224.539 55.9641L224.499 58.7814ZM231.968 67C231.832 66.7365 231.735 66.4089 231.674 66.017C230.964 66.8075 230.042 67.2027 228.907 67.2027C227.833 67.2027 226.941 66.8919 226.232 66.2704C225.529 65.6488 225.178 64.8651 225.178 63.9193C225.178 62.7573 225.607 61.8655 226.465 61.2439C227.33 60.6224 228.576 60.3082 230.204 60.3015H231.552V59.6732C231.552 59.1665 231.42 58.7611 231.157 58.4571C230.9 58.1531 230.491 58.0011 229.931 58.0011C229.437 58.0011 229.049 58.1193 228.765 58.3557C228.488 58.5922 228.35 58.9165 228.35 59.3286H225.421C225.421 58.6935 225.617 58.1058 226.009 57.5653C226.401 57.0248 226.955 56.6026 227.671 56.2985C228.387 55.9878 229.191 55.8324 230.083 55.8324C231.434 55.8324 232.505 56.1736 233.295 56.8559C234.092 57.5315 234.491 58.4841 234.491 59.7137V64.4665C234.498 65.5069 234.643 66.294 234.927 66.8277V67H231.968ZM229.546 64.9631C229.978 64.9631 230.377 64.8685 230.741 64.6793C231.106 64.4834 231.376 64.2233 231.552 63.899V62.0141H230.458C228.992 62.0141 228.211 62.5208 228.117 63.5342L228.107 63.7065C228.107 64.0713 228.235 64.3719 228.492 64.6084C228.748 64.8448 229.1 64.9631 229.546 64.9631ZM236.315 61.4365C236.315 59.7542 236.714 58.3997 237.511 57.3727C238.315 56.3458 239.396 55.8324 240.754 55.8324C241.956 55.8324 242.892 56.2445 243.561 57.0687L243.682 56.0351H246.338V66.6352C246.338 67.5945 246.118 68.4289 245.679 69.1383C245.246 69.8476 244.635 70.3881 243.845 70.7597C243.054 71.1313 242.129 71.3171 241.068 71.3171C240.264 71.3171 239.48 71.1549 238.717 70.8306C237.953 70.5131 237.376 70.101 236.984 69.5943L238.281 67.8107C239.011 68.6282 239.896 69.0369 240.936 69.0369C241.713 69.0369 242.318 68.8275 242.75 68.4086C243.182 67.9965 243.399 67.4087 243.399 66.6453V66.0575C242.723 66.821 241.835 67.2027 240.733 67.2027C239.416 67.2027 238.349 66.6892 237.531 65.6623C236.72 64.6287 236.315 63.2606 236.315 61.5581V61.4365ZM239.244 61.6493C239.244 62.6424 239.443 63.4227 239.842 63.9902C240.24 64.551 240.788 64.8313 241.483 64.8313C242.375 64.8313 243.014 64.4969 243.399 63.8281V59.2171C243.007 58.5483 242.375 58.2139 241.504 58.2139C240.801 58.2139 240.247 58.501 239.842 59.0753C239.443 59.6495 239.244 60.5075 239.244 61.6493ZM253.644 67.2027C252.036 67.2027 250.726 66.7095 249.712 65.7231C248.705 64.7368 248.202 63.4227 248.202 61.781V61.4973C248.202 60.396 248.415 59.4131 248.841 58.5483C249.266 57.6768 249.868 57.0079 250.644 56.5418C251.428 56.0688 252.32 55.8324 253.32 55.8324C254.82 55.8324 255.999 56.3053 256.857 57.2511C257.721 58.197 258.154 59.538 258.154 61.2743V62.4701H251.171C251.266 63.1863 251.55 63.7605 252.023 64.1929C252.502 64.6253 253.107 64.8415 253.837 64.8415C254.965 64.8415 255.847 64.4327 256.482 63.6153L257.921 65.2266C257.481 65.8481 256.887 66.3345 256.137 66.6858C255.387 67.0304 254.556 67.2027 253.644 67.2027ZM253.31 58.2037C252.729 58.2037 252.256 58.3997 251.891 58.7915C251.533 59.1833 251.303 59.7441 251.202 60.4737H255.276V60.2407C255.262 59.5921 255.087 59.0921 254.749 58.7408C254.411 58.3828 253.931 58.2037 253.31 58.2037Z" fill="black"/>
</svg>
