<svg width="130" height="127" viewBox="0 0 130 127" fill="none" xmlns="http://www.w3.org/2000/svg">
<rect x="2" y="69" width="126" height="56" rx="28" fill="white"/>
<path d="M51.9685 100.629C51.9685 100.055 51.7659 99.6154 51.3605 99.3114C50.9552 99.0006 50.2255 98.6764 49.1716 98.3386C48.1176 97.994 47.2833 97.6562 46.6685 97.3252C44.993 96.4199 44.1553 95.2004 44.1553 93.6668C44.1553 92.8696 44.3782 92.1602 44.8241 91.5387C45.2768 90.9104 45.922 90.4206 46.7597 90.0693C47.6042 89.7179 48.55 89.5423 49.5972 89.5423C50.6511 89.5423 51.5902 89.7348 52.4144 90.1199C53.2387 90.4983 53.8771 91.0354 54.3298 91.7312C54.7892 92.4271 55.0189 93.2175 55.0189 94.1026H51.9787C51.9787 93.427 51.7659 92.9034 51.3402 92.5318C50.9146 92.1535 50.3167 91.9643 49.5465 91.9643C48.8034 91.9643 48.2257 92.1231 47.8136 92.4406C47.4015 92.7514 47.1955 93.1635 47.1955 93.6769C47.1955 94.1566 47.4353 94.5586 47.915 94.8829C48.4014 95.2072 49.1141 95.5112 50.0532 95.7949C51.7828 96.3151 53.0427 96.9603 53.8332 97.7305C54.6236 98.5007 55.0189 99.46 55.0189 100.609C55.0189 101.885 54.5358 102.889 53.5697 103.618C52.6036 104.341 51.3031 104.703 49.6681 104.703C48.5331 104.703 47.4995 104.497 46.5672 104.085C45.6348 103.666 44.9221 103.095 44.4289 102.372C43.9425 101.649 43.6992 100.811 43.6992 99.8587H46.7496C46.7496 101.487 47.7224 102.301 49.6681 102.301C50.391 102.301 50.9552 102.156 51.3605 101.865C51.7659 101.568 51.9685 101.156 51.9685 100.629ZM60.4 90.8394V93.5351H62.2748V95.6835H60.4V101.156C60.4 101.561 60.4777 101.852 60.6331 102.027C60.7885 102.203 61.0857 102.291 61.5249 102.291C61.8491 102.291 62.1363 102.267 62.3862 102.22V104.439C61.812 104.615 61.2208 104.703 60.6128 104.703C58.559 104.703 57.5118 103.666 57.4713 101.592V95.6835H55.8701V93.5351H57.4713V90.8394H60.4ZM70.4731 103.385C69.7502 104.264 68.7504 104.703 67.4735 104.703C66.2979 104.703 65.3994 104.365 64.7779 103.689C64.1631 103.014 63.8489 102.024 63.8354 100.72V93.5351H66.7641V100.619C66.7641 101.76 67.2843 102.331 68.3247 102.331C69.3179 102.331 70.0002 101.987 70.3718 101.298V93.5351H73.3106V104.5H70.5542L70.4731 103.385ZM78.2155 93.5351L78.3067 94.8018C79.0904 93.8222 80.1409 93.3324 81.4583 93.3324C82.6204 93.3324 83.4851 93.6736 84.0526 94.3559C84.6201 95.0383 84.9106 96.0584 84.9241 97.4164V104.5H81.9954V97.4873C81.9954 96.8658 81.8603 96.4165 81.5901 96.1395C81.3198 95.8557 80.8706 95.7139 80.2423 95.7139C79.418 95.7139 78.7999 96.0652 78.3877 96.7678V104.5H75.459V93.5351H78.2155Z" fill="black"/>
<rect x="2" y="69" width="126" height="56" rx="28" stroke="#0078D4" stroke-width="4"/>
<rect x="2" y="2" width="126" height="56" rx="28" fill="white"/>
<path d="M55.4242 25.2075H50.9045V37.5H47.8643V25.2075H43.4054V22.745H55.4242V25.2075ZM62.8727 36.3853C62.1498 37.2635 61.1499 37.7027 59.873 37.7027C58.6975 37.7027 57.7989 37.3649 57.1774 36.6893C56.5626 36.0137 56.2484 35.0239 56.2349 33.72V26.5351H59.1636V33.6187C59.1636 34.7605 59.6839 35.3313 60.7243 35.3313C61.7174 35.3313 62.3998 34.9868 62.7713 34.2977V26.5351H65.7102V37.5H62.9537L62.8727 36.3853ZM74.0808 29.2814C73.6822 29.2273 73.3309 29.2003 73.0269 29.2003C71.9189 29.2003 71.1926 29.5753 70.8481 30.3252V37.5H67.9194V26.5351H70.6859L70.767 27.8423C71.3548 26.8357 72.1689 26.3324 73.2093 26.3324C73.5336 26.3324 73.8376 26.3763 74.1214 26.4641L74.0808 29.2814ZM78.1952 26.5351L78.2864 27.8018C79.0701 26.8222 80.1207 26.3324 81.4381 26.3324C82.6001 26.3324 83.4649 26.6736 84.0324 27.3559C84.5999 28.0383 84.8904 29.0584 84.9039 30.4164V37.5H81.9752V30.4873C81.9752 29.8658 81.84 29.4165 81.5698 29.1395C81.2996 28.8557 80.8503 28.7139 80.222 28.7139C79.3978 28.7139 78.7796 29.0652 78.3675 29.7678V37.5H75.4388V26.5351H78.1952Z" fill="black"/>
<rect x="2" y="2" width="126" height="56" rx="28" stroke="#0078D4" stroke-width="4"/>
</svg>
