<svg width="21" height="21" viewBox="0 0 21 21" fill="none" xmlns="http://www.w3.org/2000/svg">
<path fill-rule="evenodd" clip-rule="evenodd" d="M3.97229 0.580984C3.34606 0.661836 2.60893 0.938125 2.10976 1.27912C1.54252 1.66661 1.09139 2.21322 0.764366 2.90919C0.373163 3.74181 0.399035 3.19267 0.399035 10.6576V17.2596L0.498634 17.6327C0.717868 18.4539 1.23264 19.2698 1.83955 19.7579C2.2289 20.0711 2.84766 20.4009 3.3182 20.5461L3.65567 20.6503L10.2594 20.6633C14.7107 20.672 16.9638 20.6608 17.1721 20.6288C18.803 20.378 20.2085 18.9729 20.4593 17.3424C20.4913 17.1342 20.5026 14.8817 20.4938 10.4315L20.4808 3.82949L20.3766 3.49211C19.9484 2.10523 18.8889 1.07234 17.4866 0.674362L17.1345 0.574472L10.6212 0.568956C7.03895 0.565926 4.04692 0.571352 3.97229 0.580984ZM16.7727 2.58736C17.5677 2.69987 18.2515 3.30454 18.4472 4.06802C18.507 4.30135 18.5141 5.14225 18.5035 10.7295L18.4914 17.1239L18.3744 17.4015C18.1534 17.9254 17.7537 18.3237 17.2253 18.5467L16.9536 18.6614L10.5575 18.6735C4.96877 18.684 4.12765 18.6769 3.89426 18.6171C3.13058 18.4215 2.52575 17.7379 2.41322 16.9431C2.34813 16.4835 2.35107 4.71561 2.41638 4.2948C2.50228 3.74113 2.75648 3.30834 3.18658 2.98326C3.49112 2.75309 3.66883 2.67427 4.04013 2.60459C4.41668 2.53391 16.2817 2.51786 16.7727 2.58736ZM4.93069 5.74149C4.53763 5.96741 4.33441 6.41775 4.44319 6.82165C4.54152 7.18675 4.8163 7.46462 5.17426 7.56098C5.28607 7.5911 7.0034 7.60272 10.1577 7.59481L14.9706 7.58269L15.1932 7.44549C15.8791 7.02265 15.8051 5.99427 15.0666 5.68587C14.9182 5.62383 14.329 5.61569 10.0234 5.61601L5.14829 5.61637L4.93069 5.74149ZM4.95602 9.75606C4.68784 9.88968 4.47182 10.1746 4.42396 10.4578C4.35571 10.8616 4.58227 11.3046 4.96045 11.5068L5.14829 11.6072H9.44524C13.5534 11.6072 13.7492 11.6035 13.9005 11.5228C14.6447 11.1259 14.6625 10.1188 13.9318 9.7547L13.7018 9.64016H9.44524H5.18868L4.95602 9.75606ZM4.95674 13.7802C4.69634 13.9099 4.47575 14.2029 4.42328 14.4887C4.34947 14.8908 4.60855 15.3683 5.00437 15.5599C5.19868 15.654 5.21971 15.6543 10.343 15.6543C16.0572 15.6543 15.6567 15.6761 15.9944 15.3471C16.4684 14.8853 16.3391 14.0772 15.7437 13.7806L15.511 13.6647H10.3499H5.18868L4.95674 13.7802Z" fill="#727B83"/>
</svg>
